G04 #@! TF.GenerationSoftware,KiCad,Pcbnew,5.1.6-c6e7f7d~87~ubuntu20.04.1*
G04 #@! TF.CreationDate,2020-08-09T19:44:10+01:00*
G04 #@! TF.ProjectId,scot-motor,73636f74-2d6d-46f7-946f-722e6b696361,rev?*
G04 #@! TF.SameCoordinates,Original*
G04 #@! TF.FileFunction,Soldermask,Bot*
G04 #@! TF.FilePolarity,Negative*
%FSLAX46Y46*%
G04 Gerber Fmt 4.6, Leading zero omitted, Abs format (unit mm)*
G04 Created by KiCad (PCBNEW 5.1.6-c6e7f7d~87~ubuntu20.04.1) date 2020-08-09 19:44:10*
%MOMM*%
%LPD*%
G01*
G04 APERTURE LIST*
%ADD10C,0.100000*%
G04 APERTURE END LIST*
D10*
G36*
X143396849Y-114867226D02*
G01*
X143918821Y-114971052D01*
X144492085Y-115208506D01*
X145008008Y-115553235D01*
X145446765Y-115991992D01*
X145791494Y-116507915D01*
X146028948Y-117081179D01*
X146150000Y-117689752D01*
X146150000Y-118310248D01*
X146028948Y-118918821D01*
X145791494Y-119492085D01*
X145446765Y-120008008D01*
X145008008Y-120446765D01*
X144492085Y-120791494D01*
X143918821Y-121028948D01*
X143396849Y-121132774D01*
X143310249Y-121150000D01*
X142689751Y-121150000D01*
X142603151Y-121132774D01*
X142081179Y-121028948D01*
X141507915Y-120791494D01*
X140991992Y-120446765D01*
X140553235Y-120008008D01*
X140208506Y-119492085D01*
X139971052Y-118918821D01*
X139850000Y-118310248D01*
X139850000Y-117689752D01*
X139971052Y-117081179D01*
X140208506Y-116507915D01*
X140553235Y-115991992D01*
X140991992Y-115553235D01*
X141507915Y-115208506D01*
X142081179Y-114971052D01*
X142603151Y-114867226D01*
X142689751Y-114850000D01*
X143310249Y-114850000D01*
X143396849Y-114867226D01*
G37*
G36*
X133767994Y-114658555D02*
G01*
X133874350Y-114679711D01*
X133974534Y-114721209D01*
X134074720Y-114762707D01*
X134255044Y-114883195D01*
X134408405Y-115036556D01*
X134528893Y-115216880D01*
X134528893Y-115216881D01*
X134603757Y-115397617D01*
X134611889Y-115417251D01*
X134654200Y-115629960D01*
X134654200Y-115846840D01*
X134611889Y-116059549D01*
X134528893Y-116259920D01*
X134408405Y-116440244D01*
X134255044Y-116593605D01*
X134074720Y-116714093D01*
X133874350Y-116797089D01*
X133767995Y-116818244D01*
X133661640Y-116839400D01*
X133444760Y-116839400D01*
X133338405Y-116818244D01*
X133232050Y-116797089D01*
X133031680Y-116714093D01*
X132851356Y-116593605D01*
X132697995Y-116440244D01*
X132577507Y-116259920D01*
X132494511Y-116059549D01*
X132452200Y-115846840D01*
X132452200Y-115629960D01*
X132494511Y-115417251D01*
X132502644Y-115397617D01*
X132577507Y-115216881D01*
X132577507Y-115216880D01*
X132697995Y-115036556D01*
X132851356Y-114883195D01*
X133031680Y-114762707D01*
X133131866Y-114721209D01*
X133232050Y-114679711D01*
X133338406Y-114658555D01*
X133444760Y-114637400D01*
X133661640Y-114637400D01*
X133767994Y-114658555D01*
G37*
G36*
X132114200Y-116839400D02*
G01*
X129912200Y-116839400D01*
X129912200Y-114637400D01*
X132114200Y-114637400D01*
X132114200Y-116839400D01*
G37*
G36*
X108543000Y-116839400D02*
G01*
X106341000Y-116839400D01*
X106341000Y-114637400D01*
X108543000Y-114637400D01*
X108543000Y-116839400D01*
G37*
G36*
X120938200Y-116839400D02*
G01*
X118736200Y-116839400D01*
X118736200Y-114637400D01*
X120938200Y-114637400D01*
X120938200Y-116839400D01*
G37*
G36*
X110196794Y-114658555D02*
G01*
X110303150Y-114679711D01*
X110403334Y-114721209D01*
X110503520Y-114762707D01*
X110683844Y-114883195D01*
X110837205Y-115036556D01*
X110957693Y-115216880D01*
X110957693Y-115216881D01*
X111032557Y-115397617D01*
X111040689Y-115417251D01*
X111083000Y-115629960D01*
X111083000Y-115846840D01*
X111040689Y-116059549D01*
X110957693Y-116259920D01*
X110837205Y-116440244D01*
X110683844Y-116593605D01*
X110503520Y-116714093D01*
X110303150Y-116797089D01*
X110196795Y-116818244D01*
X110090440Y-116839400D01*
X109873560Y-116839400D01*
X109767205Y-116818244D01*
X109660850Y-116797089D01*
X109460480Y-116714093D01*
X109280156Y-116593605D01*
X109126795Y-116440244D01*
X109006307Y-116259920D01*
X108923311Y-116059549D01*
X108881000Y-115846840D01*
X108881000Y-115629960D01*
X108923311Y-115417251D01*
X108931444Y-115397617D01*
X109006307Y-115216881D01*
X109006307Y-115216880D01*
X109126795Y-115036556D01*
X109280156Y-114883195D01*
X109460480Y-114762707D01*
X109560666Y-114721209D01*
X109660850Y-114679711D01*
X109767206Y-114658555D01*
X109873560Y-114637400D01*
X110090440Y-114637400D01*
X110196794Y-114658555D01*
G37*
G36*
X122591994Y-114658555D02*
G01*
X122698350Y-114679711D01*
X122798534Y-114721209D01*
X122898720Y-114762707D01*
X123079044Y-114883195D01*
X123232405Y-115036556D01*
X123352893Y-115216880D01*
X123352893Y-115216881D01*
X123427757Y-115397617D01*
X123435889Y-115417251D01*
X123478200Y-115629960D01*
X123478200Y-115846840D01*
X123435889Y-116059549D01*
X123352893Y-116259920D01*
X123232405Y-116440244D01*
X123079044Y-116593605D01*
X122898720Y-116714093D01*
X122698350Y-116797089D01*
X122591995Y-116818244D01*
X122485640Y-116839400D01*
X122268760Y-116839400D01*
X122162405Y-116818244D01*
X122056050Y-116797089D01*
X121855680Y-116714093D01*
X121675356Y-116593605D01*
X121521995Y-116440244D01*
X121401507Y-116259920D01*
X121318511Y-116059549D01*
X121276200Y-115846840D01*
X121276200Y-115629960D01*
X121318511Y-115417251D01*
X121326644Y-115397617D01*
X121401507Y-115216881D01*
X121401507Y-115216880D01*
X121521995Y-115036556D01*
X121675356Y-114883195D01*
X121855680Y-114762707D01*
X121955866Y-114721209D01*
X122056050Y-114679711D01*
X122162406Y-114658555D01*
X122268760Y-114637400D01*
X122485640Y-114637400D01*
X122591994Y-114658555D01*
G37*
G36*
X72070451Y-107133080D02*
G01*
X72121320Y-107154151D01*
X72172186Y-107175220D01*
X72263742Y-107236396D01*
X72341604Y-107314258D01*
X72402780Y-107405814D01*
X72426916Y-107464085D01*
X72438468Y-107485695D01*
X72454013Y-107504637D01*
X72472955Y-107520182D01*
X72494566Y-107531733D01*
X72518015Y-107538846D01*
X72542401Y-107541248D01*
X72566787Y-107538846D01*
X72590236Y-107531733D01*
X72611846Y-107520181D01*
X72630788Y-107504636D01*
X72646333Y-107485694D01*
X72657884Y-107464085D01*
X72682020Y-107405814D01*
X72743196Y-107314258D01*
X72821058Y-107236396D01*
X72912614Y-107175220D01*
X72963480Y-107154151D01*
X73014349Y-107133080D01*
X73122341Y-107111600D01*
X73232459Y-107111600D01*
X73340451Y-107133080D01*
X73391320Y-107154151D01*
X73442186Y-107175220D01*
X73533742Y-107236396D01*
X73611604Y-107314258D01*
X73672780Y-107405814D01*
X73693849Y-107456680D01*
X73714920Y-107507549D01*
X73736400Y-107615541D01*
X73736400Y-107725659D01*
X73714920Y-107833651D01*
X73705867Y-107855506D01*
X73672780Y-107935386D01*
X73611604Y-108026942D01*
X73533742Y-108104804D01*
X73442186Y-108165980D01*
X73383915Y-108190116D01*
X73362305Y-108201668D01*
X73343363Y-108217213D01*
X73327818Y-108236155D01*
X73316267Y-108257766D01*
X73309154Y-108281215D01*
X73306752Y-108305601D01*
X73309154Y-108329987D01*
X73316267Y-108353436D01*
X73327819Y-108375046D01*
X73343364Y-108393988D01*
X73362306Y-108409533D01*
X73383913Y-108421083D01*
X73442186Y-108445220D01*
X73533742Y-108506396D01*
X73611604Y-108584258D01*
X73672780Y-108675814D01*
X73693849Y-108726680D01*
X73714920Y-108777549D01*
X73736400Y-108885541D01*
X73736400Y-108995659D01*
X73714920Y-109103651D01*
X73705867Y-109125506D01*
X73672780Y-109205386D01*
X73611604Y-109296942D01*
X73533742Y-109374804D01*
X73442186Y-109435980D01*
X73383915Y-109460116D01*
X73362305Y-109471668D01*
X73343363Y-109487213D01*
X73327818Y-109506155D01*
X73316267Y-109527766D01*
X73309154Y-109551215D01*
X73306752Y-109575601D01*
X73309154Y-109599987D01*
X73316267Y-109623436D01*
X73327819Y-109645046D01*
X73343364Y-109663988D01*
X73362306Y-109679533D01*
X73383913Y-109691083D01*
X73442186Y-109715220D01*
X73533742Y-109776396D01*
X73611604Y-109854258D01*
X73672780Y-109945814D01*
X73693849Y-109996680D01*
X73714920Y-110047549D01*
X73736400Y-110155541D01*
X73736400Y-110265659D01*
X73714920Y-110373651D01*
X73705867Y-110395506D01*
X73672780Y-110475386D01*
X73611604Y-110566942D01*
X73533742Y-110644804D01*
X73442186Y-110705980D01*
X73383915Y-110730116D01*
X73362305Y-110741668D01*
X73343363Y-110757213D01*
X73327818Y-110776155D01*
X73316267Y-110797766D01*
X73309154Y-110821215D01*
X73306752Y-110845601D01*
X73309154Y-110869987D01*
X73316267Y-110893436D01*
X73327819Y-110915046D01*
X73343364Y-110933988D01*
X73362306Y-110949533D01*
X73383913Y-110961083D01*
X73442186Y-110985220D01*
X73533742Y-111046396D01*
X73611604Y-111124258D01*
X73672780Y-111215814D01*
X73693849Y-111266680D01*
X73714920Y-111317549D01*
X73736400Y-111425541D01*
X73736400Y-111535659D01*
X73714920Y-111643651D01*
X73705867Y-111665506D01*
X73672780Y-111745386D01*
X73611604Y-111836942D01*
X73533742Y-111914804D01*
X73442186Y-111975980D01*
X73383915Y-112000116D01*
X73362305Y-112011668D01*
X73343363Y-112027213D01*
X73327818Y-112046155D01*
X73316267Y-112067766D01*
X73309154Y-112091215D01*
X73306752Y-112115601D01*
X73309154Y-112139987D01*
X73316267Y-112163436D01*
X73327819Y-112185046D01*
X73343364Y-112203988D01*
X73362306Y-112219533D01*
X73383913Y-112231083D01*
X73442186Y-112255220D01*
X73533742Y-112316396D01*
X73611604Y-112394258D01*
X73672780Y-112485814D01*
X73693849Y-112536680D01*
X73714920Y-112587549D01*
X73736400Y-112695541D01*
X73736400Y-112805659D01*
X73714920Y-112913651D01*
X73705867Y-112935506D01*
X73672780Y-113015386D01*
X73611604Y-113106942D01*
X73533742Y-113184804D01*
X73442186Y-113245980D01*
X73391320Y-113267049D01*
X73340451Y-113288120D01*
X73232459Y-113309600D01*
X73122341Y-113309600D01*
X73014349Y-113288120D01*
X72963480Y-113267049D01*
X72912614Y-113245980D01*
X72821058Y-113184804D01*
X72743196Y-113106942D01*
X72682020Y-113015386D01*
X72657883Y-112957113D01*
X72646332Y-112935505D01*
X72630787Y-112916563D01*
X72611845Y-112901018D01*
X72590234Y-112889467D01*
X72566785Y-112882354D01*
X72542399Y-112879952D01*
X72518013Y-112882354D01*
X72494564Y-112889467D01*
X72472954Y-112901019D01*
X72454012Y-112916564D01*
X72438467Y-112935506D01*
X72426917Y-112957113D01*
X72402780Y-113015386D01*
X72341604Y-113106942D01*
X72263742Y-113184804D01*
X72172186Y-113245980D01*
X72121320Y-113267049D01*
X72070451Y-113288120D01*
X71962459Y-113309600D01*
X71852341Y-113309600D01*
X71744349Y-113288120D01*
X71693480Y-113267049D01*
X71642614Y-113245980D01*
X71551058Y-113184804D01*
X71473196Y-113106942D01*
X71412020Y-113015386D01*
X71378933Y-112935506D01*
X71369880Y-112913651D01*
X71348400Y-112805659D01*
X71348400Y-112695541D01*
X71369880Y-112587549D01*
X71390951Y-112536680D01*
X71412020Y-112485814D01*
X71473196Y-112394258D01*
X71551058Y-112316396D01*
X71642614Y-112255220D01*
X71700887Y-112231083D01*
X71722495Y-112219532D01*
X71741437Y-112203987D01*
X71756982Y-112185045D01*
X71768533Y-112163434D01*
X71775646Y-112139985D01*
X71778047Y-112115601D01*
X72036752Y-112115601D01*
X72039154Y-112139987D01*
X72046267Y-112163436D01*
X72057819Y-112185046D01*
X72073364Y-112203988D01*
X72092306Y-112219533D01*
X72113913Y-112231083D01*
X72172186Y-112255220D01*
X72263742Y-112316396D01*
X72341604Y-112394258D01*
X72402780Y-112485814D01*
X72426916Y-112544085D01*
X72438468Y-112565695D01*
X72454013Y-112584637D01*
X72472955Y-112600182D01*
X72494566Y-112611733D01*
X72518015Y-112618846D01*
X72542401Y-112621248D01*
X72566787Y-112618846D01*
X72590236Y-112611733D01*
X72611846Y-112600181D01*
X72630788Y-112584636D01*
X72646333Y-112565694D01*
X72657884Y-112544085D01*
X72682020Y-112485814D01*
X72743196Y-112394258D01*
X72821058Y-112316396D01*
X72912614Y-112255220D01*
X72970887Y-112231083D01*
X72992495Y-112219532D01*
X73011437Y-112203987D01*
X73026982Y-112185045D01*
X73038533Y-112163434D01*
X73045646Y-112139985D01*
X73048048Y-112115599D01*
X73045646Y-112091213D01*
X73038533Y-112067764D01*
X73026981Y-112046154D01*
X73011436Y-112027212D01*
X72992494Y-112011667D01*
X72970885Y-112000116D01*
X72912614Y-111975980D01*
X72821058Y-111914804D01*
X72743196Y-111836942D01*
X72682020Y-111745386D01*
X72657883Y-111687113D01*
X72646332Y-111665505D01*
X72630787Y-111646563D01*
X72611845Y-111631018D01*
X72590234Y-111619467D01*
X72566785Y-111612354D01*
X72542399Y-111609952D01*
X72518013Y-111612354D01*
X72494564Y-111619467D01*
X72472954Y-111631019D01*
X72454012Y-111646564D01*
X72438467Y-111665506D01*
X72426917Y-111687113D01*
X72402780Y-111745386D01*
X72341604Y-111836942D01*
X72263742Y-111914804D01*
X72172186Y-111975980D01*
X72113915Y-112000116D01*
X72092305Y-112011668D01*
X72073363Y-112027213D01*
X72057818Y-112046155D01*
X72046267Y-112067766D01*
X72039154Y-112091215D01*
X72036752Y-112115601D01*
X71778047Y-112115601D01*
X71778048Y-112115599D01*
X71775646Y-112091213D01*
X71768533Y-112067764D01*
X71756981Y-112046154D01*
X71741436Y-112027212D01*
X71722494Y-112011667D01*
X71700885Y-112000116D01*
X71642614Y-111975980D01*
X71551058Y-111914804D01*
X71473196Y-111836942D01*
X71412020Y-111745386D01*
X71378933Y-111665506D01*
X71369880Y-111643651D01*
X71348400Y-111535659D01*
X71348400Y-111425541D01*
X71369880Y-111317549D01*
X71390951Y-111266680D01*
X71412020Y-111215814D01*
X71473196Y-111124258D01*
X71551058Y-111046396D01*
X71642614Y-110985220D01*
X71700887Y-110961083D01*
X71722495Y-110949532D01*
X71741437Y-110933987D01*
X71756982Y-110915045D01*
X71768533Y-110893434D01*
X71775646Y-110869985D01*
X71778047Y-110845601D01*
X72036752Y-110845601D01*
X72039154Y-110869987D01*
X72046267Y-110893436D01*
X72057819Y-110915046D01*
X72073364Y-110933988D01*
X72092306Y-110949533D01*
X72113913Y-110961083D01*
X72172186Y-110985220D01*
X72263742Y-111046396D01*
X72341604Y-111124258D01*
X72402780Y-111215814D01*
X72426916Y-111274085D01*
X72438468Y-111295695D01*
X72454013Y-111314637D01*
X72472955Y-111330182D01*
X72494566Y-111341733D01*
X72518015Y-111348846D01*
X72542401Y-111351248D01*
X72566787Y-111348846D01*
X72590236Y-111341733D01*
X72611846Y-111330181D01*
X72630788Y-111314636D01*
X72646333Y-111295694D01*
X72657884Y-111274085D01*
X72682020Y-111215814D01*
X72743196Y-111124258D01*
X72821058Y-111046396D01*
X72912614Y-110985220D01*
X72970887Y-110961083D01*
X72992495Y-110949532D01*
X73011437Y-110933987D01*
X73026982Y-110915045D01*
X73038533Y-110893434D01*
X73045646Y-110869985D01*
X73048048Y-110845599D01*
X73045646Y-110821213D01*
X73038533Y-110797764D01*
X73026981Y-110776154D01*
X73011436Y-110757212D01*
X72992494Y-110741667D01*
X72970885Y-110730116D01*
X72912614Y-110705980D01*
X72821058Y-110644804D01*
X72743196Y-110566942D01*
X72682020Y-110475386D01*
X72657883Y-110417113D01*
X72646332Y-110395505D01*
X72630787Y-110376563D01*
X72611845Y-110361018D01*
X72590234Y-110349467D01*
X72566785Y-110342354D01*
X72542399Y-110339952D01*
X72518013Y-110342354D01*
X72494564Y-110349467D01*
X72472954Y-110361019D01*
X72454012Y-110376564D01*
X72438467Y-110395506D01*
X72426917Y-110417113D01*
X72402780Y-110475386D01*
X72341604Y-110566942D01*
X72263742Y-110644804D01*
X72172186Y-110705980D01*
X72113915Y-110730116D01*
X72092305Y-110741668D01*
X72073363Y-110757213D01*
X72057818Y-110776155D01*
X72046267Y-110797766D01*
X72039154Y-110821215D01*
X72036752Y-110845601D01*
X71778047Y-110845601D01*
X71778048Y-110845599D01*
X71775646Y-110821213D01*
X71768533Y-110797764D01*
X71756981Y-110776154D01*
X71741436Y-110757212D01*
X71722494Y-110741667D01*
X71700885Y-110730116D01*
X71642614Y-110705980D01*
X71551058Y-110644804D01*
X71473196Y-110566942D01*
X71412020Y-110475386D01*
X71378933Y-110395506D01*
X71369880Y-110373651D01*
X71348400Y-110265659D01*
X71348400Y-110155541D01*
X71369880Y-110047549D01*
X71390951Y-109996680D01*
X71412020Y-109945814D01*
X71473196Y-109854258D01*
X71551058Y-109776396D01*
X71642614Y-109715220D01*
X71700887Y-109691083D01*
X71722495Y-109679532D01*
X71741437Y-109663987D01*
X71756982Y-109645045D01*
X71768533Y-109623434D01*
X71775646Y-109599985D01*
X71778047Y-109575601D01*
X72036752Y-109575601D01*
X72039154Y-109599987D01*
X72046267Y-109623436D01*
X72057819Y-109645046D01*
X72073364Y-109663988D01*
X72092306Y-109679533D01*
X72113913Y-109691083D01*
X72172186Y-109715220D01*
X72263742Y-109776396D01*
X72341604Y-109854258D01*
X72402780Y-109945814D01*
X72426916Y-110004085D01*
X72438468Y-110025695D01*
X72454013Y-110044637D01*
X72472955Y-110060182D01*
X72494566Y-110071733D01*
X72518015Y-110078846D01*
X72542401Y-110081248D01*
X72566787Y-110078846D01*
X72590236Y-110071733D01*
X72611846Y-110060181D01*
X72630788Y-110044636D01*
X72646333Y-110025694D01*
X72657884Y-110004085D01*
X72682020Y-109945814D01*
X72743196Y-109854258D01*
X72821058Y-109776396D01*
X72912614Y-109715220D01*
X72970887Y-109691083D01*
X72992495Y-109679532D01*
X73011437Y-109663987D01*
X73026982Y-109645045D01*
X73038533Y-109623434D01*
X73045646Y-109599985D01*
X73048048Y-109575599D01*
X73045646Y-109551213D01*
X73038533Y-109527764D01*
X73026981Y-109506154D01*
X73011436Y-109487212D01*
X72992494Y-109471667D01*
X72970885Y-109460116D01*
X72912614Y-109435980D01*
X72821058Y-109374804D01*
X72743196Y-109296942D01*
X72682020Y-109205386D01*
X72657883Y-109147113D01*
X72646332Y-109125505D01*
X72630787Y-109106563D01*
X72611845Y-109091018D01*
X72590234Y-109079467D01*
X72566785Y-109072354D01*
X72542399Y-109069952D01*
X72518013Y-109072354D01*
X72494564Y-109079467D01*
X72472954Y-109091019D01*
X72454012Y-109106564D01*
X72438467Y-109125506D01*
X72426917Y-109147113D01*
X72402780Y-109205386D01*
X72341604Y-109296942D01*
X72263742Y-109374804D01*
X72172186Y-109435980D01*
X72113915Y-109460116D01*
X72092305Y-109471668D01*
X72073363Y-109487213D01*
X72057818Y-109506155D01*
X72046267Y-109527766D01*
X72039154Y-109551215D01*
X72036752Y-109575601D01*
X71778047Y-109575601D01*
X71778048Y-109575599D01*
X71775646Y-109551213D01*
X71768533Y-109527764D01*
X71756981Y-109506154D01*
X71741436Y-109487212D01*
X71722494Y-109471667D01*
X71700885Y-109460116D01*
X71642614Y-109435980D01*
X71551058Y-109374804D01*
X71473196Y-109296942D01*
X71412020Y-109205386D01*
X71378933Y-109125506D01*
X71369880Y-109103651D01*
X71348400Y-108995659D01*
X71348400Y-108885541D01*
X71369880Y-108777549D01*
X71390951Y-108726680D01*
X71412020Y-108675814D01*
X71473196Y-108584258D01*
X71551058Y-108506396D01*
X71642614Y-108445220D01*
X71700887Y-108421083D01*
X71722495Y-108409532D01*
X71741437Y-108393987D01*
X71756982Y-108375045D01*
X71768533Y-108353434D01*
X71775646Y-108329985D01*
X71778047Y-108305601D01*
X72036752Y-108305601D01*
X72039154Y-108329987D01*
X72046267Y-108353436D01*
X72057819Y-108375046D01*
X72073364Y-108393988D01*
X72092306Y-108409533D01*
X72113913Y-108421083D01*
X72172186Y-108445220D01*
X72263742Y-108506396D01*
X72341604Y-108584258D01*
X72402780Y-108675814D01*
X72426916Y-108734085D01*
X72438468Y-108755695D01*
X72454013Y-108774637D01*
X72472955Y-108790182D01*
X72494566Y-108801733D01*
X72518015Y-108808846D01*
X72542401Y-108811248D01*
X72566787Y-108808846D01*
X72590236Y-108801733D01*
X72611846Y-108790181D01*
X72630788Y-108774636D01*
X72646333Y-108755694D01*
X72657884Y-108734085D01*
X72682020Y-108675814D01*
X72743196Y-108584258D01*
X72821058Y-108506396D01*
X72912614Y-108445220D01*
X72970887Y-108421083D01*
X72992495Y-108409532D01*
X73011437Y-108393987D01*
X73026982Y-108375045D01*
X73038533Y-108353434D01*
X73045646Y-108329985D01*
X73048048Y-108305599D01*
X73045646Y-108281213D01*
X73038533Y-108257764D01*
X73026981Y-108236154D01*
X73011436Y-108217212D01*
X72992494Y-108201667D01*
X72970885Y-108190116D01*
X72912614Y-108165980D01*
X72821058Y-108104804D01*
X72743196Y-108026942D01*
X72682020Y-107935386D01*
X72657883Y-107877113D01*
X72646332Y-107855505D01*
X72630787Y-107836563D01*
X72611845Y-107821018D01*
X72590234Y-107809467D01*
X72566785Y-107802354D01*
X72542399Y-107799952D01*
X72518013Y-107802354D01*
X72494564Y-107809467D01*
X72472954Y-107821019D01*
X72454012Y-107836564D01*
X72438467Y-107855506D01*
X72426917Y-107877113D01*
X72402780Y-107935386D01*
X72341604Y-108026942D01*
X72263742Y-108104804D01*
X72172186Y-108165980D01*
X72113915Y-108190116D01*
X72092305Y-108201668D01*
X72073363Y-108217213D01*
X72057818Y-108236155D01*
X72046267Y-108257766D01*
X72039154Y-108281215D01*
X72036752Y-108305601D01*
X71778047Y-108305601D01*
X71778048Y-108305599D01*
X71775646Y-108281213D01*
X71768533Y-108257764D01*
X71756981Y-108236154D01*
X71741436Y-108217212D01*
X71722494Y-108201667D01*
X71700885Y-108190116D01*
X71642614Y-108165980D01*
X71551058Y-108104804D01*
X71473196Y-108026942D01*
X71412020Y-107935386D01*
X71378933Y-107855506D01*
X71369880Y-107833651D01*
X71348400Y-107725659D01*
X71348400Y-107615541D01*
X71369880Y-107507549D01*
X71390951Y-107456680D01*
X71412020Y-107405814D01*
X71473196Y-107314258D01*
X71551058Y-107236396D01*
X71642614Y-107175220D01*
X71693480Y-107154151D01*
X71744349Y-107133080D01*
X71852341Y-107111600D01*
X71962459Y-107111600D01*
X72070451Y-107133080D01*
G37*
G36*
X73265600Y-97624200D02*
G01*
X71463600Y-97624200D01*
X71463600Y-95822200D01*
X73265600Y-95822200D01*
X73265600Y-97624200D01*
G37*
G36*
X72478112Y-93287127D02*
G01*
X72627412Y-93316824D01*
X72791384Y-93384744D01*
X72938954Y-93483347D01*
X73064453Y-93608846D01*
X73163056Y-93756416D01*
X73230976Y-93920388D01*
X73265600Y-94094459D01*
X73265600Y-94271941D01*
X73230976Y-94446012D01*
X73163056Y-94609984D01*
X73064453Y-94757554D01*
X72938954Y-94883053D01*
X72791384Y-94981656D01*
X72627412Y-95049576D01*
X72478112Y-95079273D01*
X72453342Y-95084200D01*
X72275858Y-95084200D01*
X72251088Y-95079273D01*
X72101788Y-95049576D01*
X71937816Y-94981656D01*
X71790246Y-94883053D01*
X71664747Y-94757554D01*
X71566144Y-94609984D01*
X71498224Y-94446012D01*
X71463600Y-94271941D01*
X71463600Y-94094459D01*
X71498224Y-93920388D01*
X71566144Y-93756416D01*
X71664747Y-93608846D01*
X71790246Y-93483347D01*
X71937816Y-93384744D01*
X72101788Y-93316824D01*
X72251088Y-93287127D01*
X72275858Y-93282200D01*
X72453342Y-93282200D01*
X72478112Y-93287127D01*
G37*
G36*
X72478112Y-90747127D02*
G01*
X72627412Y-90776824D01*
X72791384Y-90844744D01*
X72938954Y-90943347D01*
X73064453Y-91068846D01*
X73163056Y-91216416D01*
X73230976Y-91380388D01*
X73265600Y-91554459D01*
X73265600Y-91731941D01*
X73230976Y-91906012D01*
X73163056Y-92069984D01*
X73064453Y-92217554D01*
X72938954Y-92343053D01*
X72791384Y-92441656D01*
X72627412Y-92509576D01*
X72478112Y-92539273D01*
X72453342Y-92544200D01*
X72275858Y-92544200D01*
X72251088Y-92539273D01*
X72101788Y-92509576D01*
X71937816Y-92441656D01*
X71790246Y-92343053D01*
X71664747Y-92217554D01*
X71566144Y-92069984D01*
X71498224Y-91906012D01*
X71463600Y-91731941D01*
X71463600Y-91554459D01*
X71498224Y-91380388D01*
X71566144Y-91216416D01*
X71664747Y-91068846D01*
X71790246Y-90943347D01*
X71937816Y-90844744D01*
X72101788Y-90776824D01*
X72251088Y-90747127D01*
X72275858Y-90742200D01*
X72453342Y-90742200D01*
X72478112Y-90747127D01*
G37*
G36*
X73036594Y-80733555D02*
G01*
X73142950Y-80754711D01*
X73243134Y-80796209D01*
X73343320Y-80837707D01*
X73523644Y-80958195D01*
X73677005Y-81111556D01*
X73797493Y-81291880D01*
X73880489Y-81492251D01*
X73922800Y-81704960D01*
X73922800Y-81921840D01*
X73880489Y-82134549D01*
X73797493Y-82334920D01*
X73677005Y-82515244D01*
X73523644Y-82668605D01*
X73343320Y-82789093D01*
X73142950Y-82872089D01*
X73036595Y-82893244D01*
X72930240Y-82914400D01*
X72713360Y-82914400D01*
X72607005Y-82893244D01*
X72500650Y-82872089D01*
X72300280Y-82789093D01*
X72119956Y-82668605D01*
X71966595Y-82515244D01*
X71846107Y-82334920D01*
X71763111Y-82134549D01*
X71720800Y-81921840D01*
X71720800Y-81704960D01*
X71763111Y-81492251D01*
X71846107Y-81291880D01*
X71966595Y-81111556D01*
X72119956Y-80958195D01*
X72300280Y-80837707D01*
X72400466Y-80796209D01*
X72500650Y-80754711D01*
X72607006Y-80733555D01*
X72713360Y-80712400D01*
X72930240Y-80712400D01*
X73036594Y-80733555D01*
G37*
G36*
X73036595Y-78193556D02*
G01*
X73142950Y-78214711D01*
X73343320Y-78297707D01*
X73523644Y-78418195D01*
X73677005Y-78571556D01*
X73797493Y-78751880D01*
X73797493Y-78751881D01*
X73880489Y-78952250D01*
X73922800Y-79164961D01*
X73922800Y-79381839D01*
X73880489Y-79594550D01*
X73797493Y-79794920D01*
X73677005Y-79975244D01*
X73523644Y-80128605D01*
X73343320Y-80249093D01*
X73142950Y-80332089D01*
X73074020Y-80345800D01*
X72930240Y-80374400D01*
X72713360Y-80374400D01*
X72569580Y-80345800D01*
X72500650Y-80332089D01*
X72300280Y-80249093D01*
X72119956Y-80128605D01*
X71966595Y-79975244D01*
X71846107Y-79794920D01*
X71763111Y-79594550D01*
X71720800Y-79381839D01*
X71720800Y-79164961D01*
X71763111Y-78952250D01*
X71846107Y-78751881D01*
X71846107Y-78751880D01*
X71966595Y-78571556D01*
X72119956Y-78418195D01*
X72300280Y-78297707D01*
X72500650Y-78214711D01*
X72607005Y-78193556D01*
X72713360Y-78172400D01*
X72930240Y-78172400D01*
X73036595Y-78193556D01*
G37*
G36*
X170508687Y-77793796D02*
G01*
X170745453Y-77891868D01*
X170745455Y-77891869D01*
X170958539Y-78034247D01*
X171139753Y-78215461D01*
X171282132Y-78428547D01*
X171380204Y-78665313D01*
X171430200Y-78916661D01*
X171430200Y-79172939D01*
X171380204Y-79424287D01*
X171282132Y-79661053D01*
X171282131Y-79661055D01*
X171139753Y-79874139D01*
X170958539Y-80055353D01*
X170745455Y-80197731D01*
X170745454Y-80197732D01*
X170745453Y-80197732D01*
X170508687Y-80295804D01*
X170257339Y-80345800D01*
X170001061Y-80345800D01*
X169749713Y-80295804D01*
X169512947Y-80197732D01*
X169512946Y-80197732D01*
X169512945Y-80197731D01*
X169299861Y-80055353D01*
X169118647Y-79874139D01*
X168976269Y-79661055D01*
X168976268Y-79661053D01*
X168878196Y-79424287D01*
X168828200Y-79172939D01*
X168828200Y-78916661D01*
X168878196Y-78665313D01*
X168976268Y-78428547D01*
X169118647Y-78215461D01*
X169299861Y-78034247D01*
X169512945Y-77891869D01*
X169512947Y-77891868D01*
X169749713Y-77793796D01*
X170001061Y-77743800D01*
X170257339Y-77743800D01*
X170508687Y-77793796D01*
G37*
G36*
X154254502Y-78171195D02*
G01*
X154324563Y-78200215D01*
X154387622Y-78242350D01*
X154441250Y-78295978D01*
X154483385Y-78359037D01*
X154512405Y-78429098D01*
X154527200Y-78503479D01*
X154527200Y-78579321D01*
X154512405Y-78653702D01*
X154483385Y-78723763D01*
X154441250Y-78786822D01*
X154387622Y-78840450D01*
X154324563Y-78882585D01*
X154254502Y-78911605D01*
X154180121Y-78926400D01*
X154104279Y-78926400D01*
X154029898Y-78911605D01*
X153959837Y-78882585D01*
X153896778Y-78840450D01*
X153843150Y-78786822D01*
X153801015Y-78723763D01*
X153771995Y-78653702D01*
X153757200Y-78579321D01*
X153757200Y-78503479D01*
X153771995Y-78429098D01*
X153801015Y-78359037D01*
X153843150Y-78295978D01*
X153896778Y-78242350D01*
X153959837Y-78200215D01*
X154029898Y-78171195D01*
X154104279Y-78156400D01*
X154180121Y-78156400D01*
X154254502Y-78171195D01*
G37*
G36*
X152954502Y-78171195D02*
G01*
X153024563Y-78200215D01*
X153087622Y-78242350D01*
X153141250Y-78295978D01*
X153183385Y-78359037D01*
X153212405Y-78429098D01*
X153227200Y-78503479D01*
X153227200Y-78579321D01*
X153212405Y-78653702D01*
X153183385Y-78723763D01*
X153141250Y-78786822D01*
X153087622Y-78840450D01*
X153024563Y-78882585D01*
X152954502Y-78911605D01*
X152880121Y-78926400D01*
X152804279Y-78926400D01*
X152729898Y-78911605D01*
X152659837Y-78882585D01*
X152596778Y-78840450D01*
X152543150Y-78786822D01*
X152501015Y-78723763D01*
X152471995Y-78653702D01*
X152457200Y-78579321D01*
X152457200Y-78503479D01*
X152471995Y-78429098D01*
X152501015Y-78359037D01*
X152543150Y-78295978D01*
X152596778Y-78242350D01*
X152659837Y-78200215D01*
X152729898Y-78171195D01*
X152804279Y-78156400D01*
X152880121Y-78156400D01*
X152954502Y-78171195D01*
G37*
G36*
X73922800Y-77834400D02*
G01*
X71720800Y-77834400D01*
X71720800Y-75632400D01*
X73922800Y-75632400D01*
X73922800Y-77834400D01*
G37*
G36*
X154254502Y-76871195D02*
G01*
X154324563Y-76900215D01*
X154387622Y-76942350D01*
X154441250Y-76995978D01*
X154483385Y-77059037D01*
X154512405Y-77129098D01*
X154527200Y-77203479D01*
X154527200Y-77279321D01*
X154512405Y-77353702D01*
X154483385Y-77423763D01*
X154441250Y-77486822D01*
X154387622Y-77540450D01*
X154324563Y-77582585D01*
X154254502Y-77611605D01*
X154180121Y-77626400D01*
X154104279Y-77626400D01*
X154029898Y-77611605D01*
X153959837Y-77582585D01*
X153896778Y-77540450D01*
X153843150Y-77486822D01*
X153801015Y-77423763D01*
X153771995Y-77353702D01*
X153757200Y-77279321D01*
X153757200Y-77203479D01*
X153771995Y-77129098D01*
X153801015Y-77059037D01*
X153843150Y-76995978D01*
X153896778Y-76942350D01*
X153959837Y-76900215D01*
X154029898Y-76871195D01*
X154104279Y-76856400D01*
X154180121Y-76856400D01*
X154254502Y-76871195D01*
G37*
G36*
X152954502Y-76871195D02*
G01*
X153024563Y-76900215D01*
X153087622Y-76942350D01*
X153141250Y-76995978D01*
X153183385Y-77059037D01*
X153212405Y-77129098D01*
X153227200Y-77203479D01*
X153227200Y-77279321D01*
X153212405Y-77353702D01*
X153183385Y-77423763D01*
X153141250Y-77486822D01*
X153087622Y-77540450D01*
X153024563Y-77582585D01*
X152954502Y-77611605D01*
X152880121Y-77626400D01*
X152804279Y-77626400D01*
X152729898Y-77611605D01*
X152659837Y-77582585D01*
X152596778Y-77540450D01*
X152543150Y-77486822D01*
X152501015Y-77423763D01*
X152471995Y-77353702D01*
X152457200Y-77279321D01*
X152457200Y-77203479D01*
X152471995Y-77129098D01*
X152501015Y-77059037D01*
X152543150Y-76995978D01*
X152596778Y-76942350D01*
X152659837Y-76900215D01*
X152729898Y-76871195D01*
X152804279Y-76856400D01*
X152880121Y-76856400D01*
X152954502Y-76871195D01*
G37*
G36*
X152954502Y-75571195D02*
G01*
X153024563Y-75600215D01*
X153087622Y-75642350D01*
X153141250Y-75695978D01*
X153183385Y-75759037D01*
X153212405Y-75829098D01*
X153227200Y-75903479D01*
X153227200Y-75979321D01*
X153212405Y-76053702D01*
X153183385Y-76123763D01*
X153141250Y-76186822D01*
X153087622Y-76240450D01*
X153024563Y-76282585D01*
X152954502Y-76311605D01*
X152880121Y-76326400D01*
X152804279Y-76326400D01*
X152729898Y-76311605D01*
X152659837Y-76282585D01*
X152596778Y-76240450D01*
X152543150Y-76186822D01*
X152501015Y-76123763D01*
X152471995Y-76053702D01*
X152457200Y-75979321D01*
X152457200Y-75903479D01*
X152471995Y-75829098D01*
X152501015Y-75759037D01*
X152543150Y-75695978D01*
X152596778Y-75642350D01*
X152659837Y-75600215D01*
X152729898Y-75571195D01*
X152804279Y-75556400D01*
X152880121Y-75556400D01*
X152954502Y-75571195D01*
G37*
G36*
X154254502Y-75571195D02*
G01*
X154324563Y-75600215D01*
X154387622Y-75642350D01*
X154441250Y-75695978D01*
X154483385Y-75759037D01*
X154512405Y-75829098D01*
X154527200Y-75903479D01*
X154527200Y-75979321D01*
X154512405Y-76053702D01*
X154483385Y-76123763D01*
X154441250Y-76186822D01*
X154387622Y-76240450D01*
X154324563Y-76282585D01*
X154254502Y-76311605D01*
X154180121Y-76326400D01*
X154104279Y-76326400D01*
X154029898Y-76311605D01*
X153959837Y-76282585D01*
X153896778Y-76240450D01*
X153843150Y-76186822D01*
X153801015Y-76123763D01*
X153771995Y-76053702D01*
X153757200Y-75979321D01*
X153757200Y-75903479D01*
X153771995Y-75829098D01*
X153801015Y-75759037D01*
X153843150Y-75695978D01*
X153896778Y-75642350D01*
X153959837Y-75600215D01*
X154029898Y-75571195D01*
X154104279Y-75556400D01*
X154180121Y-75556400D01*
X154254502Y-75571195D01*
G37*
G36*
X170508687Y-72713796D02*
G01*
X170745453Y-72811868D01*
X170745455Y-72811869D01*
X170958539Y-72954247D01*
X171139753Y-73135461D01*
X171282132Y-73348547D01*
X171380204Y-73585313D01*
X171430200Y-73836661D01*
X171430200Y-74092939D01*
X171380204Y-74344287D01*
X171282132Y-74581053D01*
X171282131Y-74581055D01*
X171139753Y-74794139D01*
X170958539Y-74975353D01*
X170745455Y-75117731D01*
X170745454Y-75117732D01*
X170745453Y-75117732D01*
X170508687Y-75215804D01*
X170257339Y-75265800D01*
X170001061Y-75265800D01*
X169749713Y-75215804D01*
X169512947Y-75117732D01*
X169512946Y-75117732D01*
X169512945Y-75117731D01*
X169299861Y-74975353D01*
X169118647Y-74794139D01*
X168976269Y-74581055D01*
X168976268Y-74581053D01*
X168878196Y-74344287D01*
X168828200Y-74092939D01*
X168828200Y-73836661D01*
X168878196Y-73585313D01*
X168976268Y-73348547D01*
X169118647Y-73135461D01*
X169299861Y-72954247D01*
X169512945Y-72811869D01*
X169512947Y-72811868D01*
X169749713Y-72713796D01*
X170001061Y-72663800D01*
X170257339Y-72663800D01*
X170508687Y-72713796D01*
G37*
G36*
X171430200Y-70185800D02*
G01*
X168828200Y-70185800D01*
X168828200Y-67583800D01*
X171430200Y-67583800D01*
X171430200Y-70185800D01*
G37*
G36*
X73036594Y-66001555D02*
G01*
X73142950Y-66022711D01*
X73343320Y-66105707D01*
X73523644Y-66226195D01*
X73677005Y-66379556D01*
X73797493Y-66559880D01*
X73880489Y-66760251D01*
X73922800Y-66972960D01*
X73922800Y-67189840D01*
X73880489Y-67402549D01*
X73797493Y-67602920D01*
X73677005Y-67783244D01*
X73523644Y-67936605D01*
X73343320Y-68057093D01*
X73142950Y-68140089D01*
X73036594Y-68161245D01*
X72930240Y-68182400D01*
X72713360Y-68182400D01*
X72607006Y-68161245D01*
X72500650Y-68140089D01*
X72300280Y-68057093D01*
X72119956Y-67936605D01*
X71966595Y-67783244D01*
X71846107Y-67602920D01*
X71763111Y-67402549D01*
X71720800Y-67189840D01*
X71720800Y-66972960D01*
X71763111Y-66760251D01*
X71846107Y-66559880D01*
X71966595Y-66379556D01*
X72119956Y-66226195D01*
X72300280Y-66105707D01*
X72500650Y-66022711D01*
X72607006Y-66001555D01*
X72713360Y-65980400D01*
X72930240Y-65980400D01*
X73036594Y-66001555D01*
G37*
G36*
X73036594Y-63461555D02*
G01*
X73142950Y-63482711D01*
X73243134Y-63524209D01*
X73343320Y-63565707D01*
X73523644Y-63686195D01*
X73677005Y-63839556D01*
X73797493Y-64019880D01*
X73880489Y-64220251D01*
X73922800Y-64432960D01*
X73922800Y-64649840D01*
X73880489Y-64862549D01*
X73797493Y-65062920D01*
X73677005Y-65243244D01*
X73523644Y-65396605D01*
X73343320Y-65517093D01*
X73142950Y-65600089D01*
X73036594Y-65621245D01*
X72930240Y-65642400D01*
X72713360Y-65642400D01*
X72607006Y-65621245D01*
X72500650Y-65600089D01*
X72300280Y-65517093D01*
X72119956Y-65396605D01*
X71966595Y-65243244D01*
X71846107Y-65062920D01*
X71763111Y-64862549D01*
X71720800Y-64649840D01*
X71720800Y-64432960D01*
X71763111Y-64220251D01*
X71846107Y-64019880D01*
X71966595Y-63839556D01*
X72119956Y-63686195D01*
X72300280Y-63565707D01*
X72400466Y-63524209D01*
X72500650Y-63482711D01*
X72607006Y-63461555D01*
X72713360Y-63440400D01*
X72930240Y-63440400D01*
X73036594Y-63461555D01*
G37*
G36*
X73922800Y-63102400D02*
G01*
X71720800Y-63102400D01*
X71720800Y-60900400D01*
X73922800Y-60900400D01*
X73922800Y-63102400D01*
G37*
G36*
X76154800Y-54666400D02*
G01*
X73552800Y-54666400D01*
X73552800Y-52064400D01*
X76154800Y-52064400D01*
X76154800Y-54666400D01*
G37*
G36*
X90885822Y-50678990D02*
G01*
X90986481Y-50709525D01*
X91036812Y-50724792D01*
X91147495Y-50783954D01*
X91175964Y-50799171D01*
X91297933Y-50899267D01*
X91351287Y-50964280D01*
X91398029Y-51021235D01*
X91472408Y-51160387D01*
X91473701Y-51164650D01*
X91518210Y-51311377D01*
X91529800Y-51429055D01*
X91529800Y-52507745D01*
X91518210Y-52625423D01*
X91487675Y-52726082D01*
X91472408Y-52776413D01*
X91398029Y-52915565D01*
X91297933Y-53037533D01*
X91175965Y-53137629D01*
X91036813Y-53212008D01*
X90986482Y-53227275D01*
X90885823Y-53257810D01*
X90728800Y-53273275D01*
X90571778Y-53257810D01*
X90471119Y-53227275D01*
X90420788Y-53212008D01*
X90281636Y-53137629D01*
X90159668Y-53037533D01*
X90059572Y-52915565D01*
X89985193Y-52776413D01*
X89969926Y-52726082D01*
X89939391Y-52625423D01*
X89927801Y-52507745D01*
X89927800Y-51429056D01*
X89939390Y-51311378D01*
X89985192Y-51160389D01*
X89985192Y-51160388D01*
X90059571Y-51021236D01*
X90059572Y-51021235D01*
X90159667Y-50899267D01*
X90281635Y-50799171D01*
X90310104Y-50783954D01*
X90420787Y-50724792D01*
X90471118Y-50709525D01*
X90571777Y-50678990D01*
X90728800Y-50663525D01*
X90885822Y-50678990D01*
G37*
G36*
X93425822Y-50678990D02*
G01*
X93526481Y-50709525D01*
X93576812Y-50724792D01*
X93687495Y-50783954D01*
X93715964Y-50799171D01*
X93837933Y-50899267D01*
X93891287Y-50964280D01*
X93938029Y-51021235D01*
X94012408Y-51160387D01*
X94013701Y-51164650D01*
X94058210Y-51311377D01*
X94069800Y-51429055D01*
X94069800Y-52507745D01*
X94058210Y-52625423D01*
X94027675Y-52726082D01*
X94012408Y-52776413D01*
X93938029Y-52915565D01*
X93837933Y-53037533D01*
X93715965Y-53137629D01*
X93576813Y-53212008D01*
X93526482Y-53227275D01*
X93425823Y-53257810D01*
X93268800Y-53273275D01*
X93111778Y-53257810D01*
X93011119Y-53227275D01*
X92960788Y-53212008D01*
X92821636Y-53137629D01*
X92699668Y-53037533D01*
X92599572Y-52915565D01*
X92525193Y-52776413D01*
X92509926Y-52726082D01*
X92479391Y-52625423D01*
X92467801Y-52507745D01*
X92467800Y-51429056D01*
X92479390Y-51311378D01*
X92525192Y-51160389D01*
X92525192Y-51160388D01*
X92599571Y-51021236D01*
X92599572Y-51021235D01*
X92699667Y-50899267D01*
X92821635Y-50799171D01*
X92850104Y-50783954D01*
X92960787Y-50724792D01*
X93011118Y-50709525D01*
X93111777Y-50678990D01*
X93268800Y-50663525D01*
X93425822Y-50678990D01*
G37*
G36*
X88989800Y-53269400D02*
G01*
X87387800Y-53269400D01*
X87387800Y-50667400D01*
X88989800Y-50667400D01*
X88989800Y-53269400D01*
G37*
G36*
X172706195Y-50405956D02*
G01*
X172812550Y-50427111D01*
X172905060Y-50465430D01*
X173012920Y-50510107D01*
X173193244Y-50630595D01*
X173346605Y-50783956D01*
X173467093Y-50964280D01*
X173467093Y-50964281D01*
X173548324Y-51160388D01*
X173550089Y-51164651D01*
X173592400Y-51377360D01*
X173592400Y-51594240D01*
X173550089Y-51806949D01*
X173467093Y-52007320D01*
X173346605Y-52187644D01*
X173193244Y-52341005D01*
X173012920Y-52461493D01*
X172912734Y-52502991D01*
X172812550Y-52544489D01*
X172706195Y-52565644D01*
X172599840Y-52586800D01*
X172382960Y-52586800D01*
X172276606Y-52565645D01*
X172170250Y-52544489D01*
X171969880Y-52461493D01*
X171789556Y-52341005D01*
X171636195Y-52187644D01*
X171515707Y-52007320D01*
X171432711Y-51806949D01*
X171390400Y-51594240D01*
X171390400Y-51377360D01*
X171432711Y-51164651D01*
X171434477Y-51160388D01*
X171515707Y-50964281D01*
X171515707Y-50964280D01*
X171636195Y-50783956D01*
X171789556Y-50630595D01*
X171969880Y-50510107D01*
X172077740Y-50465430D01*
X172170250Y-50427111D01*
X172276606Y-50405955D01*
X172382960Y-50384800D01*
X172599840Y-50384800D01*
X172706195Y-50405956D01*
G37*
G36*
X143396849Y-44867226D02*
G01*
X143918821Y-44971052D01*
X144492085Y-45208506D01*
X145008008Y-45553235D01*
X145446765Y-45991992D01*
X145791494Y-46507915D01*
X146028948Y-47081179D01*
X146103516Y-47456061D01*
X146145902Y-47669147D01*
X146150000Y-47689752D01*
X146150000Y-48310248D01*
X146028948Y-48918821D01*
X145791494Y-49492085D01*
X145446765Y-50008008D01*
X145008008Y-50446765D01*
X144492085Y-50791494D01*
X143918821Y-51028948D01*
X143396849Y-51132774D01*
X143310249Y-51150000D01*
X142689751Y-51150000D01*
X142603151Y-51132774D01*
X142081179Y-51028948D01*
X141507915Y-50791494D01*
X140991992Y-50446765D01*
X140553235Y-50008008D01*
X140208506Y-49492085D01*
X139971052Y-48918821D01*
X139850000Y-48310248D01*
X139850000Y-47689752D01*
X139854099Y-47669147D01*
X139896484Y-47456061D01*
X139971052Y-47081179D01*
X140208506Y-46507915D01*
X140553235Y-45991992D01*
X140991992Y-45553235D01*
X141507915Y-45208506D01*
X142081179Y-44971052D01*
X142603151Y-44867226D01*
X142689751Y-44850000D01*
X143310249Y-44850000D01*
X143396849Y-44867226D01*
G37*
G36*
X173592400Y-50046800D02*
G01*
X171390400Y-50046800D01*
X171390400Y-47844800D01*
X173592400Y-47844800D01*
X173592400Y-50046800D01*
G37*
G36*
X75233287Y-47034396D02*
G01*
X75470053Y-47132468D01*
X75470055Y-47132469D01*
X75683139Y-47274847D01*
X75864353Y-47456061D01*
X76002284Y-47662489D01*
X76006732Y-47669147D01*
X76104804Y-47905913D01*
X76154800Y-48157261D01*
X76154800Y-48413539D01*
X76104804Y-48664887D01*
X76006732Y-48901653D01*
X76006731Y-48901655D01*
X75864353Y-49114739D01*
X75683139Y-49295953D01*
X75470055Y-49438331D01*
X75470054Y-49438332D01*
X75470053Y-49438332D01*
X75233287Y-49536404D01*
X74981939Y-49586400D01*
X74725661Y-49586400D01*
X74474313Y-49536404D01*
X74237547Y-49438332D01*
X74237546Y-49438332D01*
X74237545Y-49438331D01*
X74024461Y-49295953D01*
X73843247Y-49114739D01*
X73700869Y-48901655D01*
X73700868Y-48901653D01*
X73602796Y-48664887D01*
X73552800Y-48413539D01*
X73552800Y-48157261D01*
X73602796Y-47905913D01*
X73700868Y-47669147D01*
X73705317Y-47662489D01*
X73843247Y-47456061D01*
X74024461Y-47274847D01*
X74237545Y-47132469D01*
X74237547Y-47132468D01*
X74474313Y-47034396D01*
X74725661Y-46984400D01*
X74981939Y-46984400D01*
X75233287Y-47034396D01*
G37*
M02*
