G04 #@! TF.GenerationSoftware,KiCad,Pcbnew,5.1.6-c6e7f7d~87~ubuntu20.04.1*
G04 #@! TF.CreationDate,2020-08-09T19:44:10+01:00*
G04 #@! TF.ProjectId,scot-motor,73636f74-2d6d-46f7-946f-722e6b696361,rev?*
G04 #@! TF.SameCoordinates,Original*
G04 #@! TF.FileFunction,Paste,Top*
G04 #@! TF.FilePolarity,Positive*
%FSLAX46Y46*%
G04 Gerber Fmt 4.6, Leading zero omitted, Abs format (unit mm)*
G04 Created by KiCad (PCBNEW 5.1.6-c6e7f7d~87~ubuntu20.04.1) date 2020-08-09 19:44:10*
%MOMM*%
%LPD*%
G01*
G04 APERTURE LIST*
%ADD10R,2.000000X1.500000*%
%ADD11R,2.000000X3.800000*%
%ADD12R,1.100000X0.600000*%
%ADD13R,0.500000X0.900000*%
%ADD14R,0.900000X0.800000*%
%ADD15R,1.500000X2.000000*%
%ADD16R,3.800000X2.000000*%
%ADD17R,1.400000X1.200000*%
%ADD18R,1.500000X0.450000*%
%ADD19R,2.200000X0.500000*%
%ADD20R,2.400000X3.100000*%
%ADD21R,0.640000X2.000000*%
%ADD22R,1.550000X0.600000*%
%ADD23R,1.200000X0.500000*%
%ADD24R,0.500000X1.200000*%
%ADD25R,2.402000X3.102000*%
G04 APERTURE END LIST*
G36*
G01*
X89477001Y-80703000D02*
X88576999Y-80703000D01*
G75*
G02*
X88327000Y-80453001I0J249999D01*
G01*
X88327000Y-79802999D01*
G75*
G02*
X88576999Y-79553000I249999J0D01*
G01*
X89477001Y-79553000D01*
G75*
G02*
X89727000Y-79802999I0J-249999D01*
G01*
X89727000Y-80453001D01*
G75*
G02*
X89477001Y-80703000I-249999J0D01*
G01*
G37*
G36*
G01*
X89477001Y-82753000D02*
X88576999Y-82753000D01*
G75*
G02*
X88327000Y-82503001I0J249999D01*
G01*
X88327000Y-81852999D01*
G75*
G02*
X88576999Y-81603000I249999J0D01*
G01*
X89477001Y-81603000D01*
G75*
G02*
X89727000Y-81852999I0J-249999D01*
G01*
X89727000Y-82503001D01*
G75*
G02*
X89477001Y-82753000I-249999J0D01*
G01*
G37*
G36*
G01*
X92149400Y-54871199D02*
X92149400Y-55771201D01*
G75*
G02*
X91899401Y-56021200I-249999J0D01*
G01*
X91249399Y-56021200D01*
G75*
G02*
X90999400Y-55771201I0J249999D01*
G01*
X90999400Y-54871199D01*
G75*
G02*
X91249399Y-54621200I249999J0D01*
G01*
X91899401Y-54621200D01*
G75*
G02*
X92149400Y-54871199I0J-249999D01*
G01*
G37*
G36*
G01*
X94199400Y-54871199D02*
X94199400Y-55771201D01*
G75*
G02*
X93949401Y-56021200I-249999J0D01*
G01*
X93299399Y-56021200D01*
G75*
G02*
X93049400Y-55771201I0J249999D01*
G01*
X93049400Y-54871199D01*
G75*
G02*
X93299399Y-54621200I249999J0D01*
G01*
X93949401Y-54621200D01*
G75*
G02*
X94199400Y-54871199I0J-249999D01*
G01*
G37*
G36*
G01*
X158045999Y-58911800D02*
X158946001Y-58911800D01*
G75*
G02*
X159196000Y-59161799I0J-249999D01*
G01*
X159196000Y-59811801D01*
G75*
G02*
X158946001Y-60061800I-249999J0D01*
G01*
X158045999Y-60061800D01*
G75*
G02*
X157796000Y-59811801I0J249999D01*
G01*
X157796000Y-59161799D01*
G75*
G02*
X158045999Y-58911800I249999J0D01*
G01*
G37*
G36*
G01*
X158045999Y-56861800D02*
X158946001Y-56861800D01*
G75*
G02*
X159196000Y-57111799I0J-249999D01*
G01*
X159196000Y-57761801D01*
G75*
G02*
X158946001Y-58011800I-249999J0D01*
G01*
X158045999Y-58011800D01*
G75*
G02*
X157796000Y-57761801I0J249999D01*
G01*
X157796000Y-57111799D01*
G75*
G02*
X158045999Y-56861800I249999J0D01*
G01*
G37*
G36*
G01*
X163584200Y-57760900D02*
X161434200Y-57760900D01*
G75*
G02*
X161184200Y-57510900I0J250000D01*
G01*
X161184200Y-56585900D01*
G75*
G02*
X161434200Y-56335900I250000J0D01*
G01*
X163584200Y-56335900D01*
G75*
G02*
X163834200Y-56585900I0J-250000D01*
G01*
X163834200Y-57510900D01*
G75*
G02*
X163584200Y-57760900I-250000J0D01*
G01*
G37*
G36*
G01*
X163584200Y-60735900D02*
X161434200Y-60735900D01*
G75*
G02*
X161184200Y-60485900I0J250000D01*
G01*
X161184200Y-59560900D01*
G75*
G02*
X161434200Y-59310900I250000J0D01*
G01*
X163584200Y-59310900D01*
G75*
G02*
X163834200Y-59560900I0J-250000D01*
G01*
X163834200Y-60485900D01*
G75*
G02*
X163584200Y-60735900I-250000J0D01*
G01*
G37*
G36*
G01*
X88724100Y-56098600D02*
X88724100Y-54848600D01*
G75*
G02*
X88974100Y-54598600I250000J0D01*
G01*
X89899100Y-54598600D01*
G75*
G02*
X90149100Y-54848600I0J-250000D01*
G01*
X90149100Y-56098600D01*
G75*
G02*
X89899100Y-56348600I-250000J0D01*
G01*
X88974100Y-56348600D01*
G75*
G02*
X88724100Y-56098600I0J250000D01*
G01*
G37*
G36*
G01*
X85749100Y-56098600D02*
X85749100Y-54848600D01*
G75*
G02*
X85999100Y-54598600I250000J0D01*
G01*
X86924100Y-54598600D01*
G75*
G02*
X87174100Y-54848600I0J-250000D01*
G01*
X87174100Y-56098600D01*
G75*
G02*
X86924100Y-56348600I-250000J0D01*
G01*
X85999100Y-56348600D01*
G75*
G02*
X85749100Y-56098600I0J250000D01*
G01*
G37*
D10*
X104037600Y-59701400D03*
X104037600Y-64301400D03*
X104037600Y-62001400D03*
D11*
X110337600Y-62001400D03*
G36*
G01*
X102193100Y-63316400D02*
X101718100Y-63316400D01*
G75*
G02*
X101480600Y-63078900I0J237500D01*
G01*
X101480600Y-62503900D01*
G75*
G02*
X101718100Y-62266400I237500J0D01*
G01*
X102193100Y-62266400D01*
G75*
G02*
X102430600Y-62503900I0J-237500D01*
G01*
X102430600Y-63078900D01*
G75*
G02*
X102193100Y-63316400I-237500J0D01*
G01*
G37*
G36*
G01*
X102193100Y-65066400D02*
X101718100Y-65066400D01*
G75*
G02*
X101480600Y-64828900I0J237500D01*
G01*
X101480600Y-64253900D01*
G75*
G02*
X101718100Y-64016400I237500J0D01*
G01*
X102193100Y-64016400D01*
G75*
G02*
X102430600Y-64253900I0J-237500D01*
G01*
X102430600Y-64828900D01*
G75*
G02*
X102193100Y-65066400I-237500J0D01*
G01*
G37*
G36*
G01*
X101718100Y-60714400D02*
X102193100Y-60714400D01*
G75*
G02*
X102430600Y-60951900I0J-237500D01*
G01*
X102430600Y-61526900D01*
G75*
G02*
X102193100Y-61764400I-237500J0D01*
G01*
X101718100Y-61764400D01*
G75*
G02*
X101480600Y-61526900I0J237500D01*
G01*
X101480600Y-60951900D01*
G75*
G02*
X101718100Y-60714400I237500J0D01*
G01*
G37*
G36*
G01*
X101718100Y-58964400D02*
X102193100Y-58964400D01*
G75*
G02*
X102430600Y-59201900I0J-237500D01*
G01*
X102430600Y-59776900D01*
G75*
G02*
X102193100Y-60014400I-237500J0D01*
G01*
X101718100Y-60014400D01*
G75*
G02*
X101480600Y-59776900I0J237500D01*
G01*
X101480600Y-59201900D01*
G75*
G02*
X101718100Y-58964400I237500J0D01*
G01*
G37*
D12*
X111734600Y-88209200D03*
X111734600Y-86309200D03*
X114334600Y-86309200D03*
X114334600Y-87259200D03*
X114334600Y-88209200D03*
G36*
G01*
X152391100Y-53345800D02*
X152866100Y-53345800D01*
G75*
G02*
X153103600Y-53583300I0J-237500D01*
G01*
X153103600Y-54158300D01*
G75*
G02*
X152866100Y-54395800I-237500J0D01*
G01*
X152391100Y-54395800D01*
G75*
G02*
X152153600Y-54158300I0J237500D01*
G01*
X152153600Y-53583300D01*
G75*
G02*
X152391100Y-53345800I237500J0D01*
G01*
G37*
G36*
G01*
X152391100Y-51595800D02*
X152866100Y-51595800D01*
G75*
G02*
X153103600Y-51833300I0J-237500D01*
G01*
X153103600Y-52408300D01*
G75*
G02*
X152866100Y-52645800I-237500J0D01*
G01*
X152391100Y-52645800D01*
G75*
G02*
X152153600Y-52408300I0J237500D01*
G01*
X152153600Y-51833300D01*
G75*
G02*
X152391100Y-51595800I237500J0D01*
G01*
G37*
G36*
G01*
X115307600Y-89627700D02*
X115307600Y-90102700D01*
G75*
G02*
X115070100Y-90340200I-237500J0D01*
G01*
X114495100Y-90340200D01*
G75*
G02*
X114257600Y-90102700I0J237500D01*
G01*
X114257600Y-89627700D01*
G75*
G02*
X114495100Y-89390200I237500J0D01*
G01*
X115070100Y-89390200D01*
G75*
G02*
X115307600Y-89627700I0J-237500D01*
G01*
G37*
G36*
G01*
X117057600Y-89627700D02*
X117057600Y-90102700D01*
G75*
G02*
X116820100Y-90340200I-237500J0D01*
G01*
X116245100Y-90340200D01*
G75*
G02*
X116007600Y-90102700I0J237500D01*
G01*
X116007600Y-89627700D01*
G75*
G02*
X116245100Y-89390200I237500J0D01*
G01*
X116820100Y-89390200D01*
G75*
G02*
X117057600Y-89627700I0J-237500D01*
G01*
G37*
G36*
G01*
X111878600Y-89627700D02*
X111878600Y-90102700D01*
G75*
G02*
X111641100Y-90340200I-237500J0D01*
G01*
X111066100Y-90340200D01*
G75*
G02*
X110828600Y-90102700I0J237500D01*
G01*
X110828600Y-89627700D01*
G75*
G02*
X111066100Y-89390200I237500J0D01*
G01*
X111641100Y-89390200D01*
G75*
G02*
X111878600Y-89627700I0J-237500D01*
G01*
G37*
G36*
G01*
X113628600Y-89627700D02*
X113628600Y-90102700D01*
G75*
G02*
X113391100Y-90340200I-237500J0D01*
G01*
X112816100Y-90340200D01*
G75*
G02*
X112578600Y-90102700I0J237500D01*
G01*
X112578600Y-89627700D01*
G75*
G02*
X112816100Y-89390200I237500J0D01*
G01*
X113391100Y-89390200D01*
G75*
G02*
X113628600Y-89627700I0J-237500D01*
G01*
G37*
D13*
X167157400Y-48945800D03*
X167157400Y-51545800D03*
D14*
X156718000Y-52933600D03*
X154718000Y-53883600D03*
X154718000Y-51983600D03*
D15*
X159865000Y-53441600D03*
X164465000Y-53441600D03*
X162165000Y-53441600D03*
D16*
X162165000Y-47141600D03*
D17*
X104784800Y-69621400D03*
X106984800Y-69621400D03*
X106984800Y-71321400D03*
X104784800Y-71321400D03*
D10*
X84682800Y-59701400D03*
X84682800Y-64301400D03*
X84682800Y-62001400D03*
D11*
X90982800Y-62001400D03*
D10*
X123417800Y-59701400D03*
X123417800Y-64301400D03*
X123417800Y-62001400D03*
D11*
X129717800Y-62001400D03*
D18*
X150752600Y-57338800D03*
X150752600Y-57988800D03*
X150752600Y-58638800D03*
X150752600Y-59288800D03*
X150752600Y-59938800D03*
X150752600Y-60588800D03*
X150752600Y-61238800D03*
X150752600Y-61888800D03*
X144852600Y-61888800D03*
X144852600Y-61238800D03*
X144852600Y-60588800D03*
X144852600Y-59938800D03*
X144852600Y-59288800D03*
X144852600Y-58638800D03*
X144852600Y-57988800D03*
X144852600Y-57338800D03*
D19*
X156367200Y-75336400D03*
X156367200Y-76606400D03*
X156367200Y-77876400D03*
X156367200Y-79146400D03*
X150617200Y-79146400D03*
X150617200Y-77876400D03*
X150617200Y-76606400D03*
X150617200Y-75336400D03*
D20*
X153492200Y-77241400D03*
D21*
X130759200Y-97992400D03*
X133299200Y-97992400D03*
X133299200Y-104292400D03*
X130759200Y-104292400D03*
X119710200Y-97992400D03*
X122250200Y-97992400D03*
X122250200Y-104292400D03*
X119710200Y-104292400D03*
D22*
X136093200Y-82956400D03*
X136093200Y-81686400D03*
X136093200Y-80416400D03*
X136093200Y-79146400D03*
X136093200Y-77876400D03*
X136093200Y-76606400D03*
X136093200Y-75336400D03*
X141493200Y-75336400D03*
X141493200Y-76606400D03*
X141493200Y-77876400D03*
X141493200Y-79146400D03*
X141493200Y-80416400D03*
X141493200Y-81686400D03*
X141493200Y-82956400D03*
D21*
X107315000Y-97992400D03*
X109855000Y-97992400D03*
X109855000Y-104292400D03*
X107315000Y-104292400D03*
G36*
G01*
X100582200Y-50324599D02*
X100582200Y-51224601D01*
G75*
G02*
X100332201Y-51474600I-249999J0D01*
G01*
X99682199Y-51474600D01*
G75*
G02*
X99432200Y-51224601I0J249999D01*
G01*
X99432200Y-50324599D01*
G75*
G02*
X99682199Y-50074600I249999J0D01*
G01*
X100332201Y-50074600D01*
G75*
G02*
X100582200Y-50324599I0J-249999D01*
G01*
G37*
G36*
G01*
X102632200Y-50324599D02*
X102632200Y-51224601D01*
G75*
G02*
X102382201Y-51474600I-249999J0D01*
G01*
X101732199Y-51474600D01*
G75*
G02*
X101482200Y-51224601I0J249999D01*
G01*
X101482200Y-50324599D01*
G75*
G02*
X101732199Y-50074600I249999J0D01*
G01*
X102382201Y-50074600D01*
G75*
G02*
X102632200Y-50324599I0J-249999D01*
G01*
G37*
G36*
G01*
X137600200Y-88121500D02*
X137600200Y-87646500D01*
G75*
G02*
X137837700Y-87409000I237500J0D01*
G01*
X138412700Y-87409000D01*
G75*
G02*
X138650200Y-87646500I0J-237500D01*
G01*
X138650200Y-88121500D01*
G75*
G02*
X138412700Y-88359000I-237500J0D01*
G01*
X137837700Y-88359000D01*
G75*
G02*
X137600200Y-88121500I0J237500D01*
G01*
G37*
G36*
G01*
X135850200Y-88121500D02*
X135850200Y-87646500D01*
G75*
G02*
X136087700Y-87409000I237500J0D01*
G01*
X136662700Y-87409000D01*
G75*
G02*
X136900200Y-87646500I0J-237500D01*
G01*
X136900200Y-88121500D01*
G75*
G02*
X136662700Y-88359000I-237500J0D01*
G01*
X136087700Y-88359000D01*
G75*
G02*
X135850200Y-88121500I0J237500D01*
G01*
G37*
G36*
G01*
X140301200Y-84369900D02*
X140301200Y-84844900D01*
G75*
G02*
X140063700Y-85082400I-237500J0D01*
G01*
X139488700Y-85082400D01*
G75*
G02*
X139251200Y-84844900I0J237500D01*
G01*
X139251200Y-84369900D01*
G75*
G02*
X139488700Y-84132400I237500J0D01*
G01*
X140063700Y-84132400D01*
G75*
G02*
X140301200Y-84369900I0J-237500D01*
G01*
G37*
G36*
G01*
X142051200Y-84369900D02*
X142051200Y-84844900D01*
G75*
G02*
X141813700Y-85082400I-237500J0D01*
G01*
X141238700Y-85082400D01*
G75*
G02*
X141001200Y-84844900I0J237500D01*
G01*
X141001200Y-84369900D01*
G75*
G02*
X141238700Y-84132400I237500J0D01*
G01*
X141813700Y-84132400D01*
G75*
G02*
X142051200Y-84369900I0J-237500D01*
G01*
G37*
G36*
G01*
X130563199Y-108030000D02*
X131463201Y-108030000D01*
G75*
G02*
X131713200Y-108279999I0J-249999D01*
G01*
X131713200Y-108930001D01*
G75*
G02*
X131463201Y-109180000I-249999J0D01*
G01*
X130563199Y-109180000D01*
G75*
G02*
X130313200Y-108930001I0J249999D01*
G01*
X130313200Y-108279999D01*
G75*
G02*
X130563199Y-108030000I249999J0D01*
G01*
G37*
G36*
G01*
X130563199Y-105980000D02*
X131463201Y-105980000D01*
G75*
G02*
X131713200Y-106229999I0J-249999D01*
G01*
X131713200Y-106880001D01*
G75*
G02*
X131463201Y-107130000I-249999J0D01*
G01*
X130563199Y-107130000D01*
G75*
G02*
X130313200Y-106880001I0J249999D01*
G01*
X130313200Y-106229999D01*
G75*
G02*
X130563199Y-105980000I249999J0D01*
G01*
G37*
G36*
G01*
X135135199Y-108030000D02*
X136035201Y-108030000D01*
G75*
G02*
X136285200Y-108279999I0J-249999D01*
G01*
X136285200Y-108930001D01*
G75*
G02*
X136035201Y-109180000I-249999J0D01*
G01*
X135135199Y-109180000D01*
G75*
G02*
X134885200Y-108930001I0J249999D01*
G01*
X134885200Y-108279999D01*
G75*
G02*
X135135199Y-108030000I249999J0D01*
G01*
G37*
G36*
G01*
X135135199Y-105980000D02*
X136035201Y-105980000D01*
G75*
G02*
X136285200Y-106229999I0J-249999D01*
G01*
X136285200Y-106880001D01*
G75*
G02*
X136035201Y-107130000I-249999J0D01*
G01*
X135135199Y-107130000D01*
G75*
G02*
X134885200Y-106880001I0J249999D01*
G01*
X134885200Y-106229999D01*
G75*
G02*
X135135199Y-105980000I249999J0D01*
G01*
G37*
G36*
G01*
X119387199Y-108030000D02*
X120287201Y-108030000D01*
G75*
G02*
X120537200Y-108279999I0J-249999D01*
G01*
X120537200Y-108930001D01*
G75*
G02*
X120287201Y-109180000I-249999J0D01*
G01*
X119387199Y-109180000D01*
G75*
G02*
X119137200Y-108930001I0J249999D01*
G01*
X119137200Y-108279999D01*
G75*
G02*
X119387199Y-108030000I249999J0D01*
G01*
G37*
G36*
G01*
X119387199Y-105980000D02*
X120287201Y-105980000D01*
G75*
G02*
X120537200Y-106229999I0J-249999D01*
G01*
X120537200Y-106880001D01*
G75*
G02*
X120287201Y-107130000I-249999J0D01*
G01*
X119387199Y-107130000D01*
G75*
G02*
X119137200Y-106880001I0J249999D01*
G01*
X119137200Y-106229999D01*
G75*
G02*
X119387199Y-105980000I249999J0D01*
G01*
G37*
G36*
G01*
X123959199Y-108030000D02*
X124859201Y-108030000D01*
G75*
G02*
X125109200Y-108279999I0J-249999D01*
G01*
X125109200Y-108930001D01*
G75*
G02*
X124859201Y-109180000I-249999J0D01*
G01*
X123959199Y-109180000D01*
G75*
G02*
X123709200Y-108930001I0J249999D01*
G01*
X123709200Y-108279999D01*
G75*
G02*
X123959199Y-108030000I249999J0D01*
G01*
G37*
G36*
G01*
X123959199Y-105980000D02*
X124859201Y-105980000D01*
G75*
G02*
X125109200Y-106229999I0J-249999D01*
G01*
X125109200Y-106880001D01*
G75*
G02*
X124859201Y-107130000I-249999J0D01*
G01*
X123959199Y-107130000D01*
G75*
G02*
X123709200Y-106880001I0J249999D01*
G01*
X123709200Y-106229999D01*
G75*
G02*
X123959199Y-105980000I249999J0D01*
G01*
G37*
G36*
G01*
X91675799Y-98104000D02*
X92575801Y-98104000D01*
G75*
G02*
X92825800Y-98353999I0J-249999D01*
G01*
X92825800Y-99004001D01*
G75*
G02*
X92575801Y-99254000I-249999J0D01*
G01*
X91675799Y-99254000D01*
G75*
G02*
X91425800Y-99004001I0J249999D01*
G01*
X91425800Y-98353999D01*
G75*
G02*
X91675799Y-98104000I249999J0D01*
G01*
G37*
G36*
G01*
X91675799Y-96054000D02*
X92575801Y-96054000D01*
G75*
G02*
X92825800Y-96303999I0J-249999D01*
G01*
X92825800Y-96954001D01*
G75*
G02*
X92575801Y-97204000I-249999J0D01*
G01*
X91675799Y-97204000D01*
G75*
G02*
X91425800Y-96954001I0J249999D01*
G01*
X91425800Y-96303999D01*
G75*
G02*
X91675799Y-96054000I249999J0D01*
G01*
G37*
G36*
G01*
X140900999Y-94566000D02*
X141801001Y-94566000D01*
G75*
G02*
X142051000Y-94815999I0J-249999D01*
G01*
X142051000Y-95466001D01*
G75*
G02*
X141801001Y-95716000I-249999J0D01*
G01*
X140900999Y-95716000D01*
G75*
G02*
X140651000Y-95466001I0J249999D01*
G01*
X140651000Y-94815999D01*
G75*
G02*
X140900999Y-94566000I249999J0D01*
G01*
G37*
G36*
G01*
X140900999Y-92516000D02*
X141801001Y-92516000D01*
G75*
G02*
X142051000Y-92765999I0J-249999D01*
G01*
X142051000Y-93416001D01*
G75*
G02*
X141801001Y-93666000I-249999J0D01*
G01*
X140900999Y-93666000D01*
G75*
G02*
X140651000Y-93416001I0J249999D01*
G01*
X140651000Y-92765999D01*
G75*
G02*
X140900999Y-92516000I249999J0D01*
G01*
G37*
G36*
G01*
X142731000Y-91677500D02*
X142731000Y-91202500D01*
G75*
G02*
X142968500Y-90965000I237500J0D01*
G01*
X143543500Y-90965000D01*
G75*
G02*
X143781000Y-91202500I0J-237500D01*
G01*
X143781000Y-91677500D01*
G75*
G02*
X143543500Y-91915000I-237500J0D01*
G01*
X142968500Y-91915000D01*
G75*
G02*
X142731000Y-91677500I0J237500D01*
G01*
G37*
G36*
G01*
X140981000Y-91677500D02*
X140981000Y-91202500D01*
G75*
G02*
X141218500Y-90965000I237500J0D01*
G01*
X141793500Y-90965000D01*
G75*
G02*
X142031000Y-91202500I0J-237500D01*
G01*
X142031000Y-91677500D01*
G75*
G02*
X141793500Y-91915000I-237500J0D01*
G01*
X141218500Y-91915000D01*
G75*
G02*
X140981000Y-91677500I0J237500D01*
G01*
G37*
G36*
G01*
X98660799Y-97977000D02*
X99560801Y-97977000D01*
G75*
G02*
X99810800Y-98226999I0J-249999D01*
G01*
X99810800Y-98877001D01*
G75*
G02*
X99560801Y-99127000I-249999J0D01*
G01*
X98660799Y-99127000D01*
G75*
G02*
X98410800Y-98877001I0J249999D01*
G01*
X98410800Y-98226999D01*
G75*
G02*
X98660799Y-97977000I249999J0D01*
G01*
G37*
G36*
G01*
X98660799Y-95927000D02*
X99560801Y-95927000D01*
G75*
G02*
X99810800Y-96176999I0J-249999D01*
G01*
X99810800Y-96827001D01*
G75*
G02*
X99560801Y-97077000I-249999J0D01*
G01*
X98660799Y-97077000D01*
G75*
G02*
X98410800Y-96827001I0J249999D01*
G01*
X98410800Y-96176999D01*
G75*
G02*
X98660799Y-95927000I249999J0D01*
G01*
G37*
G36*
G01*
X106991999Y-108030000D02*
X107892001Y-108030000D01*
G75*
G02*
X108142000Y-108279999I0J-249999D01*
G01*
X108142000Y-108930001D01*
G75*
G02*
X107892001Y-109180000I-249999J0D01*
G01*
X106991999Y-109180000D01*
G75*
G02*
X106742000Y-108930001I0J249999D01*
G01*
X106742000Y-108279999D01*
G75*
G02*
X106991999Y-108030000I249999J0D01*
G01*
G37*
G36*
G01*
X106991999Y-105980000D02*
X107892001Y-105980000D01*
G75*
G02*
X108142000Y-106229999I0J-249999D01*
G01*
X108142000Y-106880001D01*
G75*
G02*
X107892001Y-107130000I-249999J0D01*
G01*
X106991999Y-107130000D01*
G75*
G02*
X106742000Y-106880001I0J249999D01*
G01*
X106742000Y-106229999D01*
G75*
G02*
X106991999Y-105980000I249999J0D01*
G01*
G37*
G36*
G01*
X111563999Y-108030000D02*
X112464001Y-108030000D01*
G75*
G02*
X112714000Y-108279999I0J-249999D01*
G01*
X112714000Y-108930001D01*
G75*
G02*
X112464001Y-109180000I-249999J0D01*
G01*
X111563999Y-109180000D01*
G75*
G02*
X111314000Y-108930001I0J249999D01*
G01*
X111314000Y-108279999D01*
G75*
G02*
X111563999Y-108030000I249999J0D01*
G01*
G37*
G36*
G01*
X111563999Y-105980000D02*
X112464001Y-105980000D01*
G75*
G02*
X112714000Y-106229999I0J-249999D01*
G01*
X112714000Y-106880001D01*
G75*
G02*
X112464001Y-107130000I-249999J0D01*
G01*
X111563999Y-107130000D01*
G75*
G02*
X111314000Y-106880001I0J249999D01*
G01*
X111314000Y-106229999D01*
G75*
G02*
X111563999Y-105980000I249999J0D01*
G01*
G37*
G36*
G01*
X115589600Y-73600300D02*
X115589600Y-74075300D01*
G75*
G02*
X115352100Y-74312800I-237500J0D01*
G01*
X114777100Y-74312800D01*
G75*
G02*
X114539600Y-74075300I0J237500D01*
G01*
X114539600Y-73600300D01*
G75*
G02*
X114777100Y-73362800I237500J0D01*
G01*
X115352100Y-73362800D01*
G75*
G02*
X115589600Y-73600300I0J-237500D01*
G01*
G37*
G36*
G01*
X117339600Y-73600300D02*
X117339600Y-74075300D01*
G75*
G02*
X117102100Y-74312800I-237500J0D01*
G01*
X116527100Y-74312800D01*
G75*
G02*
X116289600Y-74075300I0J237500D01*
G01*
X116289600Y-73600300D01*
G75*
G02*
X116527100Y-73362800I237500J0D01*
G01*
X117102100Y-73362800D01*
G75*
G02*
X117339600Y-73600300I0J-237500D01*
G01*
G37*
G36*
G01*
X83674799Y-98104000D02*
X84574801Y-98104000D01*
G75*
G02*
X84824800Y-98353999I0J-249999D01*
G01*
X84824800Y-99004001D01*
G75*
G02*
X84574801Y-99254000I-249999J0D01*
G01*
X83674799Y-99254000D01*
G75*
G02*
X83424800Y-99004001I0J249999D01*
G01*
X83424800Y-98353999D01*
G75*
G02*
X83674799Y-98104000I249999J0D01*
G01*
G37*
G36*
G01*
X83674799Y-96054000D02*
X84574801Y-96054000D01*
G75*
G02*
X84824800Y-96303999I0J-249999D01*
G01*
X84824800Y-96954001D01*
G75*
G02*
X84574801Y-97204000I-249999J0D01*
G01*
X83674799Y-97204000D01*
G75*
G02*
X83424800Y-96954001I0J249999D01*
G01*
X83424800Y-96303999D01*
G75*
G02*
X83674799Y-96054000I249999J0D01*
G01*
G37*
G36*
G01*
X115589600Y-72000100D02*
X115589600Y-72475100D01*
G75*
G02*
X115352100Y-72712600I-237500J0D01*
G01*
X114777100Y-72712600D01*
G75*
G02*
X114539600Y-72475100I0J237500D01*
G01*
X114539600Y-72000100D01*
G75*
G02*
X114777100Y-71762600I237500J0D01*
G01*
X115352100Y-71762600D01*
G75*
G02*
X115589600Y-72000100I0J-237500D01*
G01*
G37*
G36*
G01*
X117339600Y-72000100D02*
X117339600Y-72475100D01*
G75*
G02*
X117102100Y-72712600I-237500J0D01*
G01*
X116527100Y-72712600D01*
G75*
G02*
X116289600Y-72475100I0J237500D01*
G01*
X116289600Y-72000100D01*
G75*
G02*
X116527100Y-71762600I237500J0D01*
G01*
X117102100Y-71762600D01*
G75*
G02*
X117339600Y-72000100I0J-237500D01*
G01*
G37*
G36*
G01*
X115589600Y-70399900D02*
X115589600Y-70874900D01*
G75*
G02*
X115352100Y-71112400I-237500J0D01*
G01*
X114777100Y-71112400D01*
G75*
G02*
X114539600Y-70874900I0J237500D01*
G01*
X114539600Y-70399900D01*
G75*
G02*
X114777100Y-70162400I237500J0D01*
G01*
X115352100Y-70162400D01*
G75*
G02*
X115589600Y-70399900I0J-237500D01*
G01*
G37*
G36*
G01*
X117339600Y-70399900D02*
X117339600Y-70874900D01*
G75*
G02*
X117102100Y-71112400I-237500J0D01*
G01*
X116527100Y-71112400D01*
G75*
G02*
X116289600Y-70874900I0J237500D01*
G01*
X116289600Y-70399900D01*
G75*
G02*
X116527100Y-70162400I237500J0D01*
G01*
X117102100Y-70162400D01*
G75*
G02*
X117339600Y-70399900I0J-237500D01*
G01*
G37*
G36*
G01*
X74278800Y-72103401D02*
X74278800Y-71203399D01*
G75*
G02*
X74528799Y-70953400I249999J0D01*
G01*
X75178801Y-70953400D01*
G75*
G02*
X75428800Y-71203399I0J-249999D01*
G01*
X75428800Y-72103401D01*
G75*
G02*
X75178801Y-72353400I-249999J0D01*
G01*
X74528799Y-72353400D01*
G75*
G02*
X74278800Y-72103401I0J249999D01*
G01*
G37*
G36*
G01*
X72228800Y-72103401D02*
X72228800Y-71203399D01*
G75*
G02*
X72478799Y-70953400I249999J0D01*
G01*
X73128801Y-70953400D01*
G75*
G02*
X73378800Y-71203399I0J-249999D01*
G01*
X73378800Y-72103401D01*
G75*
G02*
X73128801Y-72353400I-249999J0D01*
G01*
X72478799Y-72353400D01*
G75*
G02*
X72228800Y-72103401I0J249999D01*
G01*
G37*
D23*
X109279800Y-77870400D03*
X109279800Y-78670400D03*
X109279800Y-79470400D03*
X109279800Y-80270400D03*
X109279800Y-81070400D03*
X109279800Y-81870400D03*
X109279800Y-82670400D03*
X109279800Y-83470400D03*
D24*
X107879800Y-84870400D03*
X107079800Y-84870400D03*
X106279800Y-84870400D03*
X105479800Y-84870400D03*
X104679800Y-84870400D03*
X103879800Y-84870400D03*
X103079800Y-84870400D03*
X102279800Y-84870400D03*
D23*
X100879800Y-83470400D03*
X100879800Y-82670400D03*
X100879800Y-81870400D03*
X100879800Y-81070400D03*
X100879800Y-80270400D03*
X100879800Y-79470400D03*
X100879800Y-78670400D03*
X100879800Y-77870400D03*
D24*
X102279800Y-76470400D03*
X103079800Y-76470400D03*
X103879800Y-76470400D03*
X104679800Y-76470400D03*
X105479800Y-76470400D03*
X106279800Y-76470400D03*
X107079800Y-76470400D03*
X107879800Y-76470400D03*
D25*
X82600800Y-81178400D03*
D22*
X79900800Y-83083400D03*
X79900800Y-81813400D03*
X79900800Y-80543400D03*
X79900800Y-79273400D03*
X85300800Y-79273400D03*
X85300800Y-80543400D03*
X85300800Y-81813400D03*
X85300800Y-83083400D03*
G36*
G01*
X96222400Y-54871199D02*
X96222400Y-55771201D01*
G75*
G02*
X95972401Y-56021200I-249999J0D01*
G01*
X95322399Y-56021200D01*
G75*
G02*
X95072400Y-55771201I0J249999D01*
G01*
X95072400Y-54871199D01*
G75*
G02*
X95322399Y-54621200I249999J0D01*
G01*
X95972401Y-54621200D01*
G75*
G02*
X96222400Y-54871199I0J-249999D01*
G01*
G37*
G36*
G01*
X98272400Y-54871199D02*
X98272400Y-55771201D01*
G75*
G02*
X98022401Y-56021200I-249999J0D01*
G01*
X97372399Y-56021200D01*
G75*
G02*
X97122400Y-55771201I0J249999D01*
G01*
X97122400Y-54871199D01*
G75*
G02*
X97372399Y-54621200I249999J0D01*
G01*
X98022401Y-54621200D01*
G75*
G02*
X98272400Y-54871199I0J-249999D01*
G01*
G37*
G36*
G01*
X102304001Y-69866200D02*
X101403999Y-69866200D01*
G75*
G02*
X101154000Y-69616201I0J249999D01*
G01*
X101154000Y-68966199D01*
G75*
G02*
X101403999Y-68716200I249999J0D01*
G01*
X102304001Y-68716200D01*
G75*
G02*
X102554000Y-68966199I0J-249999D01*
G01*
X102554000Y-69616201D01*
G75*
G02*
X102304001Y-69866200I-249999J0D01*
G01*
G37*
G36*
G01*
X102304001Y-71916200D02*
X101403999Y-71916200D01*
G75*
G02*
X101154000Y-71666201I0J249999D01*
G01*
X101154000Y-71016199D01*
G75*
G02*
X101403999Y-70766200I249999J0D01*
G01*
X102304001Y-70766200D01*
G75*
G02*
X102554000Y-71016199I0J-249999D01*
G01*
X102554000Y-71666201D01*
G75*
G02*
X102304001Y-71916200I-249999J0D01*
G01*
G37*
G36*
G01*
X104360400Y-53037100D02*
X106510400Y-53037100D01*
G75*
G02*
X106760400Y-53287100I0J-250000D01*
G01*
X106760400Y-54212100D01*
G75*
G02*
X106510400Y-54462100I-250000J0D01*
G01*
X104360400Y-54462100D01*
G75*
G02*
X104110400Y-54212100I0J250000D01*
G01*
X104110400Y-53287100D01*
G75*
G02*
X104360400Y-53037100I250000J0D01*
G01*
G37*
G36*
G01*
X104360400Y-50062100D02*
X106510400Y-50062100D01*
G75*
G02*
X106760400Y-50312100I0J-250000D01*
G01*
X106760400Y-51237100D01*
G75*
G02*
X106510400Y-51487100I-250000J0D01*
G01*
X104360400Y-51487100D01*
G75*
G02*
X104110400Y-51237100I0J250000D01*
G01*
X104110400Y-50312100D01*
G75*
G02*
X104360400Y-50062100I250000J0D01*
G01*
G37*
G36*
G01*
X93200800Y-102464900D02*
X91050800Y-102464900D01*
G75*
G02*
X90800800Y-102214900I0J250000D01*
G01*
X90800800Y-101289900D01*
G75*
G02*
X91050800Y-101039900I250000J0D01*
G01*
X93200800Y-101039900D01*
G75*
G02*
X93450800Y-101289900I0J-250000D01*
G01*
X93450800Y-102214900D01*
G75*
G02*
X93200800Y-102464900I-250000J0D01*
G01*
G37*
G36*
G01*
X93200800Y-105439900D02*
X91050800Y-105439900D01*
G75*
G02*
X90800800Y-105189900I0J250000D01*
G01*
X90800800Y-104264900D01*
G75*
G02*
X91050800Y-104014900I250000J0D01*
G01*
X93200800Y-104014900D01*
G75*
G02*
X93450800Y-104264900I0J-250000D01*
G01*
X93450800Y-105189900D01*
G75*
G02*
X93200800Y-105439900I-250000J0D01*
G01*
G37*
G36*
G01*
X144111400Y-106718400D02*
X146261400Y-106718400D01*
G75*
G02*
X146511400Y-106968400I0J-250000D01*
G01*
X146511400Y-107893400D01*
G75*
G02*
X146261400Y-108143400I-250000J0D01*
G01*
X144111400Y-108143400D01*
G75*
G02*
X143861400Y-107893400I0J250000D01*
G01*
X143861400Y-106968400D01*
G75*
G02*
X144111400Y-106718400I250000J0D01*
G01*
G37*
G36*
G01*
X144111400Y-103743400D02*
X146261400Y-103743400D01*
G75*
G02*
X146511400Y-103993400I0J-250000D01*
G01*
X146511400Y-104918400D01*
G75*
G02*
X146261400Y-105168400I-250000J0D01*
G01*
X144111400Y-105168400D01*
G75*
G02*
X143861400Y-104918400I0J250000D01*
G01*
X143861400Y-103993400D01*
G75*
G02*
X144111400Y-103743400I250000J0D01*
G01*
G37*
G36*
G01*
X100185800Y-102337900D02*
X98035800Y-102337900D01*
G75*
G02*
X97785800Y-102087900I0J250000D01*
G01*
X97785800Y-101162900D01*
G75*
G02*
X98035800Y-100912900I250000J0D01*
G01*
X100185800Y-100912900D01*
G75*
G02*
X100435800Y-101162900I0J-250000D01*
G01*
X100435800Y-102087900D01*
G75*
G02*
X100185800Y-102337900I-250000J0D01*
G01*
G37*
G36*
G01*
X100185800Y-105312900D02*
X98035800Y-105312900D01*
G75*
G02*
X97785800Y-105062900I0J250000D01*
G01*
X97785800Y-104137900D01*
G75*
G02*
X98035800Y-103887900I250000J0D01*
G01*
X100185800Y-103887900D01*
G75*
G02*
X100435800Y-104137900I0J-250000D01*
G01*
X100435800Y-105062900D01*
G75*
G02*
X100185800Y-105312900I-250000J0D01*
G01*
G37*
G36*
G01*
X85199800Y-102464900D02*
X83049800Y-102464900D01*
G75*
G02*
X82799800Y-102214900I0J250000D01*
G01*
X82799800Y-101289900D01*
G75*
G02*
X83049800Y-101039900I250000J0D01*
G01*
X85199800Y-101039900D01*
G75*
G02*
X85449800Y-101289900I0J-250000D01*
G01*
X85449800Y-102214900D01*
G75*
G02*
X85199800Y-102464900I-250000J0D01*
G01*
G37*
G36*
G01*
X85199800Y-105439900D02*
X83049800Y-105439900D01*
G75*
G02*
X82799800Y-105189900I0J250000D01*
G01*
X82799800Y-104264900D01*
G75*
G02*
X83049800Y-104014900I250000J0D01*
G01*
X85199800Y-104014900D01*
G75*
G02*
X85449800Y-104264900I0J-250000D01*
G01*
X85449800Y-105189900D01*
G75*
G02*
X85199800Y-105439900I-250000J0D01*
G01*
G37*
G36*
G01*
X82863700Y-63341800D02*
X82388700Y-63341800D01*
G75*
G02*
X82151200Y-63104300I0J237500D01*
G01*
X82151200Y-62529300D01*
G75*
G02*
X82388700Y-62291800I237500J0D01*
G01*
X82863700Y-62291800D01*
G75*
G02*
X83101200Y-62529300I0J-237500D01*
G01*
X83101200Y-63104300D01*
G75*
G02*
X82863700Y-63341800I-237500J0D01*
G01*
G37*
G36*
G01*
X82863700Y-65091800D02*
X82388700Y-65091800D01*
G75*
G02*
X82151200Y-64854300I0J237500D01*
G01*
X82151200Y-64279300D01*
G75*
G02*
X82388700Y-64041800I237500J0D01*
G01*
X82863700Y-64041800D01*
G75*
G02*
X83101200Y-64279300I0J-237500D01*
G01*
X83101200Y-64854300D01*
G75*
G02*
X82863700Y-65091800I-237500J0D01*
G01*
G37*
G36*
G01*
X121598700Y-63341800D02*
X121123700Y-63341800D01*
G75*
G02*
X120886200Y-63104300I0J237500D01*
G01*
X120886200Y-62529300D01*
G75*
G02*
X121123700Y-62291800I237500J0D01*
G01*
X121598700Y-62291800D01*
G75*
G02*
X121836200Y-62529300I0J-237500D01*
G01*
X121836200Y-63104300D01*
G75*
G02*
X121598700Y-63341800I-237500J0D01*
G01*
G37*
G36*
G01*
X121598700Y-65091800D02*
X121123700Y-65091800D01*
G75*
G02*
X120886200Y-64854300I0J237500D01*
G01*
X120886200Y-64279300D01*
G75*
G02*
X121123700Y-64041800I237500J0D01*
G01*
X121598700Y-64041800D01*
G75*
G02*
X121836200Y-64279300I0J-237500D01*
G01*
X121836200Y-64854300D01*
G75*
G02*
X121598700Y-65091800I-237500J0D01*
G01*
G37*
G36*
G01*
X82388700Y-60663600D02*
X82863700Y-60663600D01*
G75*
G02*
X83101200Y-60901100I0J-237500D01*
G01*
X83101200Y-61476100D01*
G75*
G02*
X82863700Y-61713600I-237500J0D01*
G01*
X82388700Y-61713600D01*
G75*
G02*
X82151200Y-61476100I0J237500D01*
G01*
X82151200Y-60901100D01*
G75*
G02*
X82388700Y-60663600I237500J0D01*
G01*
G37*
G36*
G01*
X82388700Y-58913600D02*
X82863700Y-58913600D01*
G75*
G02*
X83101200Y-59151100I0J-237500D01*
G01*
X83101200Y-59726100D01*
G75*
G02*
X82863700Y-59963600I-237500J0D01*
G01*
X82388700Y-59963600D01*
G75*
G02*
X82151200Y-59726100I0J237500D01*
G01*
X82151200Y-59151100D01*
G75*
G02*
X82388700Y-58913600I237500J0D01*
G01*
G37*
G36*
G01*
X121123700Y-60661000D02*
X121598700Y-60661000D01*
G75*
G02*
X121836200Y-60898500I0J-237500D01*
G01*
X121836200Y-61473500D01*
G75*
G02*
X121598700Y-61711000I-237500J0D01*
G01*
X121123700Y-61711000D01*
G75*
G02*
X120886200Y-61473500I0J237500D01*
G01*
X120886200Y-60898500D01*
G75*
G02*
X121123700Y-60661000I237500J0D01*
G01*
G37*
G36*
G01*
X121123700Y-58911000D02*
X121598700Y-58911000D01*
G75*
G02*
X121836200Y-59148500I0J-237500D01*
G01*
X121836200Y-59723500D01*
G75*
G02*
X121598700Y-59961000I-237500J0D01*
G01*
X121123700Y-59961000D01*
G75*
G02*
X120886200Y-59723500I0J237500D01*
G01*
X120886200Y-59148500D01*
G75*
G02*
X121123700Y-58911000I237500J0D01*
G01*
G37*
G36*
G01*
X98468601Y-51908400D02*
X97568599Y-51908400D01*
G75*
G02*
X97318600Y-51658401I0J249999D01*
G01*
X97318600Y-51008399D01*
G75*
G02*
X97568599Y-50758400I249999J0D01*
G01*
X98468601Y-50758400D01*
G75*
G02*
X98718600Y-51008399I0J-249999D01*
G01*
X98718600Y-51658401D01*
G75*
G02*
X98468601Y-51908400I-249999J0D01*
G01*
G37*
G36*
G01*
X98468601Y-53958400D02*
X97568599Y-53958400D01*
G75*
G02*
X97318600Y-53708401I0J249999D01*
G01*
X97318600Y-53058399D01*
G75*
G02*
X97568599Y-52808400I249999J0D01*
G01*
X98468601Y-52808400D01*
G75*
G02*
X98718600Y-53058399I0J-249999D01*
G01*
X98718600Y-53708401D01*
G75*
G02*
X98468601Y-53958400I-249999J0D01*
G01*
G37*
G36*
G01*
X153094700Y-61614600D02*
X152619700Y-61614600D01*
G75*
G02*
X152382200Y-61377100I0J237500D01*
G01*
X152382200Y-60802100D01*
G75*
G02*
X152619700Y-60564600I237500J0D01*
G01*
X153094700Y-60564600D01*
G75*
G02*
X153332200Y-60802100I0J-237500D01*
G01*
X153332200Y-61377100D01*
G75*
G02*
X153094700Y-61614600I-237500J0D01*
G01*
G37*
G36*
G01*
X153094700Y-63364600D02*
X152619700Y-63364600D01*
G75*
G02*
X152382200Y-63127100I0J237500D01*
G01*
X152382200Y-62552100D01*
G75*
G02*
X152619700Y-62314600I237500J0D01*
G01*
X153094700Y-62314600D01*
G75*
G02*
X153332200Y-62552100I0J-237500D01*
G01*
X153332200Y-63127100D01*
G75*
G02*
X153094700Y-63364600I-237500J0D01*
G01*
G37*
G36*
G01*
X155438200Y-85131400D02*
X155438200Y-87131400D01*
G75*
G02*
X155188200Y-87381400I-250000J0D01*
G01*
X151288200Y-87381400D01*
G75*
G02*
X151038200Y-87131400I0J250000D01*
G01*
X151038200Y-85131400D01*
G75*
G02*
X151288200Y-84881400I250000J0D01*
G01*
X155188200Y-84881400D01*
G75*
G02*
X155438200Y-85131400I0J-250000D01*
G01*
G37*
G36*
G01*
X162838200Y-85131400D02*
X162838200Y-87131400D01*
G75*
G02*
X162588200Y-87381400I-250000J0D01*
G01*
X158688200Y-87381400D01*
G75*
G02*
X158438200Y-87131400I0J250000D01*
G01*
X158438200Y-85131400D01*
G75*
G02*
X158688200Y-84881400I250000J0D01*
G01*
X162588200Y-84881400D01*
G75*
G02*
X162838200Y-85131400I0J-250000D01*
G01*
G37*
G36*
G01*
X162238700Y-76270400D02*
X161763700Y-76270400D01*
G75*
G02*
X161526200Y-76032900I0J237500D01*
G01*
X161526200Y-75457900D01*
G75*
G02*
X161763700Y-75220400I237500J0D01*
G01*
X162238700Y-75220400D01*
G75*
G02*
X162476200Y-75457900I0J-237500D01*
G01*
X162476200Y-76032900D01*
G75*
G02*
X162238700Y-76270400I-237500J0D01*
G01*
G37*
G36*
G01*
X162238700Y-78020400D02*
X161763700Y-78020400D01*
G75*
G02*
X161526200Y-77782900I0J237500D01*
G01*
X161526200Y-77207900D01*
G75*
G02*
X161763700Y-76970400I237500J0D01*
G01*
X162238700Y-76970400D01*
G75*
G02*
X162476200Y-77207900I0J-237500D01*
G01*
X162476200Y-77782900D01*
G75*
G02*
X162238700Y-78020400I-237500J0D01*
G01*
G37*
G36*
G01*
X155438200Y-94275400D02*
X155438200Y-96275400D01*
G75*
G02*
X155188200Y-96525400I-250000J0D01*
G01*
X151288200Y-96525400D01*
G75*
G02*
X151038200Y-96275400I0J250000D01*
G01*
X151038200Y-94275400D01*
G75*
G02*
X151288200Y-94025400I250000J0D01*
G01*
X155188200Y-94025400D01*
G75*
G02*
X155438200Y-94275400I0J-250000D01*
G01*
G37*
G36*
G01*
X162838200Y-94275400D02*
X162838200Y-96275400D01*
G75*
G02*
X162588200Y-96525400I-250000J0D01*
G01*
X158688200Y-96525400D01*
G75*
G02*
X158438200Y-96275400I0J250000D01*
G01*
X158438200Y-94275400D01*
G75*
G02*
X158688200Y-94025400I250000J0D01*
G01*
X162588200Y-94025400D01*
G75*
G02*
X162838200Y-94275400I0J-250000D01*
G01*
G37*
G36*
G01*
X160536200Y-77064900D02*
X158386200Y-77064900D01*
G75*
G02*
X158136200Y-76814900I0J250000D01*
G01*
X158136200Y-75889900D01*
G75*
G02*
X158386200Y-75639900I250000J0D01*
G01*
X160536200Y-75639900D01*
G75*
G02*
X160786200Y-75889900I0J-250000D01*
G01*
X160786200Y-76814900D01*
G75*
G02*
X160536200Y-77064900I-250000J0D01*
G01*
G37*
G36*
G01*
X160536200Y-80039900D02*
X158386200Y-80039900D01*
G75*
G02*
X158136200Y-79789900I0J250000D01*
G01*
X158136200Y-78864900D01*
G75*
G02*
X158386200Y-78614900I250000J0D01*
G01*
X160536200Y-78614900D01*
G75*
G02*
X160786200Y-78864900I0J-250000D01*
G01*
X160786200Y-79789900D01*
G75*
G02*
X160536200Y-80039900I-250000J0D01*
G01*
G37*
G36*
G01*
X155033200Y-80559900D02*
X155033200Y-81034900D01*
G75*
G02*
X154795700Y-81272400I-237500J0D01*
G01*
X154220700Y-81272400D01*
G75*
G02*
X153983200Y-81034900I0J237500D01*
G01*
X153983200Y-80559900D01*
G75*
G02*
X154220700Y-80322400I237500J0D01*
G01*
X154795700Y-80322400D01*
G75*
G02*
X155033200Y-80559900I0J-237500D01*
G01*
G37*
G36*
G01*
X156783200Y-80559900D02*
X156783200Y-81034900D01*
G75*
G02*
X156545700Y-81272400I-237500J0D01*
G01*
X155970700Y-81272400D01*
G75*
G02*
X155733200Y-81034900I0J237500D01*
G01*
X155733200Y-80559900D01*
G75*
G02*
X155970700Y-80322400I237500J0D01*
G01*
X156545700Y-80322400D01*
G75*
G02*
X156783200Y-80559900I0J-237500D01*
G01*
G37*
G36*
G01*
X137600200Y-84844900D02*
X137600200Y-84369900D01*
G75*
G02*
X137837700Y-84132400I237500J0D01*
G01*
X138412700Y-84132400D01*
G75*
G02*
X138650200Y-84369900I0J-237500D01*
G01*
X138650200Y-84844900D01*
G75*
G02*
X138412700Y-85082400I-237500J0D01*
G01*
X137837700Y-85082400D01*
G75*
G02*
X137600200Y-84844900I0J237500D01*
G01*
G37*
G36*
G01*
X135850200Y-84844900D02*
X135850200Y-84369900D01*
G75*
G02*
X136087700Y-84132400I237500J0D01*
G01*
X136662700Y-84132400D01*
G75*
G02*
X136900200Y-84369900I0J-237500D01*
G01*
X136900200Y-84844900D01*
G75*
G02*
X136662700Y-85082400I-237500J0D01*
G01*
X136087700Y-85082400D01*
G75*
G02*
X135850200Y-84844900I0J237500D01*
G01*
G37*
G36*
G01*
X77842100Y-106917000D02*
X78317100Y-106917000D01*
G75*
G02*
X78554600Y-107154500I0J-237500D01*
G01*
X78554600Y-107729500D01*
G75*
G02*
X78317100Y-107967000I-237500J0D01*
G01*
X77842100Y-107967000D01*
G75*
G02*
X77604600Y-107729500I0J237500D01*
G01*
X77604600Y-107154500D01*
G75*
G02*
X77842100Y-106917000I237500J0D01*
G01*
G37*
G36*
G01*
X77842100Y-105167000D02*
X78317100Y-105167000D01*
G75*
G02*
X78554600Y-105404500I0J-237500D01*
G01*
X78554600Y-105979500D01*
G75*
G02*
X78317100Y-106217000I-237500J0D01*
G01*
X77842100Y-106217000D01*
G75*
G02*
X77604600Y-105979500I0J237500D01*
G01*
X77604600Y-105404500D01*
G75*
G02*
X77842100Y-105167000I237500J0D01*
G01*
G37*
G36*
G01*
X98673200Y-71212700D02*
X98673200Y-71687700D01*
G75*
G02*
X98435700Y-71925200I-237500J0D01*
G01*
X97860700Y-71925200D01*
G75*
G02*
X97623200Y-71687700I0J237500D01*
G01*
X97623200Y-71212700D01*
G75*
G02*
X97860700Y-70975200I237500J0D01*
G01*
X98435700Y-70975200D01*
G75*
G02*
X98673200Y-71212700I0J-237500D01*
G01*
G37*
G36*
G01*
X100423200Y-71212700D02*
X100423200Y-71687700D01*
G75*
G02*
X100185700Y-71925200I-237500J0D01*
G01*
X99610700Y-71925200D01*
G75*
G02*
X99373200Y-71687700I0J237500D01*
G01*
X99373200Y-71212700D01*
G75*
G02*
X99610700Y-70975200I237500J0D01*
G01*
X100185700Y-70975200D01*
G75*
G02*
X100423200Y-71212700I0J-237500D01*
G01*
G37*
G36*
G01*
X106459800Y-73287900D02*
X106459800Y-72812900D01*
G75*
G02*
X106697300Y-72575400I237500J0D01*
G01*
X107272300Y-72575400D01*
G75*
G02*
X107509800Y-72812900I0J-237500D01*
G01*
X107509800Y-73287900D01*
G75*
G02*
X107272300Y-73525400I-237500J0D01*
G01*
X106697300Y-73525400D01*
G75*
G02*
X106459800Y-73287900I0J237500D01*
G01*
G37*
G36*
G01*
X104709800Y-73287900D02*
X104709800Y-72812900D01*
G75*
G02*
X104947300Y-72575400I237500J0D01*
G01*
X105522300Y-72575400D01*
G75*
G02*
X105759800Y-72812900I0J-237500D01*
G01*
X105759800Y-73287900D01*
G75*
G02*
X105522300Y-73525400I-237500J0D01*
G01*
X104947300Y-73525400D01*
G75*
G02*
X104709800Y-73287900I0J237500D01*
G01*
G37*
G36*
G01*
X108652300Y-70874400D02*
X109127300Y-70874400D01*
G75*
G02*
X109364800Y-71111900I0J-237500D01*
G01*
X109364800Y-71686900D01*
G75*
G02*
X109127300Y-71924400I-237500J0D01*
G01*
X108652300Y-71924400D01*
G75*
G02*
X108414800Y-71686900I0J237500D01*
G01*
X108414800Y-71111900D01*
G75*
G02*
X108652300Y-70874400I237500J0D01*
G01*
G37*
G36*
G01*
X108652300Y-69124400D02*
X109127300Y-69124400D01*
G75*
G02*
X109364800Y-69361900I0J-237500D01*
G01*
X109364800Y-69936900D01*
G75*
G02*
X109127300Y-70174400I-237500J0D01*
G01*
X108652300Y-70174400D01*
G75*
G02*
X108414800Y-69936900I0J237500D01*
G01*
X108414800Y-69361900D01*
G75*
G02*
X108652300Y-69124400I237500J0D01*
G01*
G37*
G36*
G01*
X100552800Y-86528900D02*
X100552800Y-87003900D01*
G75*
G02*
X100315300Y-87241400I-237500J0D01*
G01*
X99740300Y-87241400D01*
G75*
G02*
X99502800Y-87003900I0J237500D01*
G01*
X99502800Y-86528900D01*
G75*
G02*
X99740300Y-86291400I237500J0D01*
G01*
X100315300Y-86291400D01*
G75*
G02*
X100552800Y-86528900I0J-237500D01*
G01*
G37*
G36*
G01*
X102302800Y-86528900D02*
X102302800Y-87003900D01*
G75*
G02*
X102065300Y-87241400I-237500J0D01*
G01*
X101490300Y-87241400D01*
G75*
G02*
X101252800Y-87003900I0J237500D01*
G01*
X101252800Y-86528900D01*
G75*
G02*
X101490300Y-86291400I237500J0D01*
G01*
X102065300Y-86291400D01*
G75*
G02*
X102302800Y-86528900I0J-237500D01*
G01*
G37*
G36*
G01*
X110811300Y-76208400D02*
X111286300Y-76208400D01*
G75*
G02*
X111523800Y-76445900I0J-237500D01*
G01*
X111523800Y-77020900D01*
G75*
G02*
X111286300Y-77258400I-237500J0D01*
G01*
X110811300Y-77258400D01*
G75*
G02*
X110573800Y-77020900I0J237500D01*
G01*
X110573800Y-76445900D01*
G75*
G02*
X110811300Y-76208400I237500J0D01*
G01*
G37*
G36*
G01*
X110811300Y-74458400D02*
X111286300Y-74458400D01*
G75*
G02*
X111523800Y-74695900I0J-237500D01*
G01*
X111523800Y-75270900D01*
G75*
G02*
X111286300Y-75508400I-237500J0D01*
G01*
X110811300Y-75508400D01*
G75*
G02*
X110573800Y-75270900I0J237500D01*
G01*
X110573800Y-74695900D01*
G75*
G02*
X110811300Y-74458400I237500J0D01*
G01*
G37*
G36*
G01*
X87509300Y-80814400D02*
X87034300Y-80814400D01*
G75*
G02*
X86796800Y-80576900I0J237500D01*
G01*
X86796800Y-80001900D01*
G75*
G02*
X87034300Y-79764400I237500J0D01*
G01*
X87509300Y-79764400D01*
G75*
G02*
X87746800Y-80001900I0J-237500D01*
G01*
X87746800Y-80576900D01*
G75*
G02*
X87509300Y-80814400I-237500J0D01*
G01*
G37*
G36*
G01*
X87509300Y-82564400D02*
X87034300Y-82564400D01*
G75*
G02*
X86796800Y-82326900I0J237500D01*
G01*
X86796800Y-81751900D01*
G75*
G02*
X87034300Y-81514400I237500J0D01*
G01*
X87509300Y-81514400D01*
G75*
G02*
X87746800Y-81751900I0J-237500D01*
G01*
X87746800Y-82326900D01*
G75*
G02*
X87509300Y-82564400I-237500J0D01*
G01*
G37*
G36*
G01*
X80204800Y-77384900D02*
X80204800Y-77859900D01*
G75*
G02*
X79967300Y-78097400I-237500J0D01*
G01*
X79392300Y-78097400D01*
G75*
G02*
X79154800Y-77859900I0J237500D01*
G01*
X79154800Y-77384900D01*
G75*
G02*
X79392300Y-77147400I237500J0D01*
G01*
X79967300Y-77147400D01*
G75*
G02*
X80204800Y-77384900I0J-237500D01*
G01*
G37*
G36*
G01*
X81954800Y-77384900D02*
X81954800Y-77859900D01*
G75*
G02*
X81717300Y-78097400I-237500J0D01*
G01*
X81142300Y-78097400D01*
G75*
G02*
X80904800Y-77859900I0J237500D01*
G01*
X80904800Y-77384900D01*
G75*
G02*
X81142300Y-77147400I237500J0D01*
G01*
X81717300Y-77147400D01*
G75*
G02*
X81954800Y-77384900I0J-237500D01*
G01*
G37*
M02*
