G04 #@! TF.GenerationSoftware,KiCad,Pcbnew,5.1.5-52549c5~86~ubuntu18.04.1*
G04 #@! TF.CreationDate,2020-04-18T16:00:11+01:00*
G04 #@! TF.ProjectId,scot-motor,73636f74-2d6d-46f7-946f-722e6b696361,rev?*
G04 #@! TF.SameCoordinates,Original*
G04 #@! TF.FileFunction,Soldermask,Top*
G04 #@! TF.FilePolarity,Negative*
%FSLAX46Y46*%
G04 Gerber Fmt 4.6, Leading zero omitted, Abs format (unit mm)*
G04 Created by KiCad (PCBNEW 5.1.5-52549c5~86~ubuntu18.04.1) date 2020-04-18 16:00:11*
%MOMM*%
%LPD*%
G04 APERTURE LIST*
%ADD10C,0.100000*%
G04 APERTURE END LIST*
D10*
G36*
X143396849Y-114867226D02*
G01*
X143918821Y-114971052D01*
X144492085Y-115208506D01*
X145008008Y-115553235D01*
X145446765Y-115991992D01*
X145791494Y-116507915D01*
X146028948Y-117081179D01*
X146150000Y-117689752D01*
X146150000Y-118310248D01*
X146028948Y-118918821D01*
X145791494Y-119492085D01*
X145446765Y-120008008D01*
X145008008Y-120446765D01*
X144492085Y-120791494D01*
X143918821Y-121028948D01*
X143396849Y-121132774D01*
X143310249Y-121150000D01*
X142689751Y-121150000D01*
X142603151Y-121132774D01*
X142081179Y-121028948D01*
X141507915Y-120791494D01*
X140991992Y-120446765D01*
X140553235Y-120008008D01*
X140208506Y-119492085D01*
X139971052Y-118918821D01*
X139850000Y-118310248D01*
X139850000Y-117689752D01*
X139971052Y-117081179D01*
X140208506Y-116507915D01*
X140553235Y-115991992D01*
X140991992Y-115553235D01*
X141507915Y-115208506D01*
X142081179Y-114971052D01*
X142603151Y-114867226D01*
X142689751Y-114850000D01*
X143310249Y-114850000D01*
X143396849Y-114867226D01*
G37*
G36*
X133767994Y-114658555D02*
G01*
X133874350Y-114679711D01*
X133974534Y-114721209D01*
X134074720Y-114762707D01*
X134255044Y-114883195D01*
X134408405Y-115036556D01*
X134528893Y-115216880D01*
X134528893Y-115216881D01*
X134603757Y-115397617D01*
X134611889Y-115417251D01*
X134654200Y-115629960D01*
X134654200Y-115846840D01*
X134611889Y-116059549D01*
X134528893Y-116259920D01*
X134408405Y-116440244D01*
X134255044Y-116593605D01*
X134074720Y-116714093D01*
X133874350Y-116797089D01*
X133767995Y-116818244D01*
X133661640Y-116839400D01*
X133444760Y-116839400D01*
X133338405Y-116818244D01*
X133232050Y-116797089D01*
X133031680Y-116714093D01*
X132851356Y-116593605D01*
X132697995Y-116440244D01*
X132577507Y-116259920D01*
X132494511Y-116059549D01*
X132452200Y-115846840D01*
X132452200Y-115629960D01*
X132494511Y-115417251D01*
X132502644Y-115397617D01*
X132577507Y-115216881D01*
X132577507Y-115216880D01*
X132697995Y-115036556D01*
X132851356Y-114883195D01*
X133031680Y-114762707D01*
X133131866Y-114721209D01*
X133232050Y-114679711D01*
X133338406Y-114658555D01*
X133444760Y-114637400D01*
X133661640Y-114637400D01*
X133767994Y-114658555D01*
G37*
G36*
X122591994Y-114658555D02*
G01*
X122698350Y-114679711D01*
X122798534Y-114721209D01*
X122898720Y-114762707D01*
X123079044Y-114883195D01*
X123232405Y-115036556D01*
X123352893Y-115216880D01*
X123352893Y-115216881D01*
X123427757Y-115397617D01*
X123435889Y-115417251D01*
X123478200Y-115629960D01*
X123478200Y-115846840D01*
X123435889Y-116059549D01*
X123352893Y-116259920D01*
X123232405Y-116440244D01*
X123079044Y-116593605D01*
X122898720Y-116714093D01*
X122698350Y-116797089D01*
X122591995Y-116818244D01*
X122485640Y-116839400D01*
X122268760Y-116839400D01*
X122162405Y-116818244D01*
X122056050Y-116797089D01*
X121855680Y-116714093D01*
X121675356Y-116593605D01*
X121521995Y-116440244D01*
X121401507Y-116259920D01*
X121318511Y-116059549D01*
X121276200Y-115846840D01*
X121276200Y-115629960D01*
X121318511Y-115417251D01*
X121326644Y-115397617D01*
X121401507Y-115216881D01*
X121401507Y-115216880D01*
X121521995Y-115036556D01*
X121675356Y-114883195D01*
X121855680Y-114762707D01*
X121955866Y-114721209D01*
X122056050Y-114679711D01*
X122162406Y-114658555D01*
X122268760Y-114637400D01*
X122485640Y-114637400D01*
X122591994Y-114658555D01*
G37*
G36*
X120938200Y-116839400D02*
G01*
X118736200Y-116839400D01*
X118736200Y-114637400D01*
X120938200Y-114637400D01*
X120938200Y-116839400D01*
G37*
G36*
X108543000Y-116839400D02*
G01*
X106341000Y-116839400D01*
X106341000Y-114637400D01*
X108543000Y-114637400D01*
X108543000Y-116839400D01*
G37*
G36*
X110196794Y-114658555D02*
G01*
X110303150Y-114679711D01*
X110403334Y-114721209D01*
X110503520Y-114762707D01*
X110683844Y-114883195D01*
X110837205Y-115036556D01*
X110957693Y-115216880D01*
X110957693Y-115216881D01*
X111032557Y-115397617D01*
X111040689Y-115417251D01*
X111083000Y-115629960D01*
X111083000Y-115846840D01*
X111040689Y-116059549D01*
X110957693Y-116259920D01*
X110837205Y-116440244D01*
X110683844Y-116593605D01*
X110503520Y-116714093D01*
X110303150Y-116797089D01*
X110196795Y-116818244D01*
X110090440Y-116839400D01*
X109873560Y-116839400D01*
X109767205Y-116818244D01*
X109660850Y-116797089D01*
X109460480Y-116714093D01*
X109280156Y-116593605D01*
X109126795Y-116440244D01*
X109006307Y-116259920D01*
X108923311Y-116059549D01*
X108881000Y-115846840D01*
X108881000Y-115629960D01*
X108923311Y-115417251D01*
X108931444Y-115397617D01*
X109006307Y-115216881D01*
X109006307Y-115216880D01*
X109126795Y-115036556D01*
X109280156Y-114883195D01*
X109460480Y-114762707D01*
X109560666Y-114721209D01*
X109660850Y-114679711D01*
X109767206Y-114658555D01*
X109873560Y-114637400D01*
X110090440Y-114637400D01*
X110196794Y-114658555D01*
G37*
G36*
X132114200Y-116839400D02*
G01*
X129912200Y-116839400D01*
X129912200Y-114637400D01*
X132114200Y-114637400D01*
X132114200Y-116839400D01*
G37*
G36*
X72070451Y-107133080D02*
G01*
X72102931Y-107146534D01*
X72172186Y-107175220D01*
X72263742Y-107236396D01*
X72341604Y-107314258D01*
X72402780Y-107405814D01*
X72426916Y-107464085D01*
X72438468Y-107485695D01*
X72454013Y-107504637D01*
X72472955Y-107520182D01*
X72494566Y-107531733D01*
X72518015Y-107538846D01*
X72542401Y-107541248D01*
X72566787Y-107538846D01*
X72590236Y-107531733D01*
X72611846Y-107520181D01*
X72630788Y-107504636D01*
X72646333Y-107485694D01*
X72657884Y-107464085D01*
X72682020Y-107405814D01*
X72743196Y-107314258D01*
X72821058Y-107236396D01*
X72912614Y-107175220D01*
X72981869Y-107146534D01*
X73014349Y-107133080D01*
X73122341Y-107111600D01*
X73232459Y-107111600D01*
X73340451Y-107133080D01*
X73372931Y-107146534D01*
X73442186Y-107175220D01*
X73533742Y-107236396D01*
X73611604Y-107314258D01*
X73672780Y-107405814D01*
X73693849Y-107456680D01*
X73714920Y-107507549D01*
X73736400Y-107615541D01*
X73736400Y-107725659D01*
X73714920Y-107833651D01*
X73696916Y-107877115D01*
X73672780Y-107935386D01*
X73611604Y-108026942D01*
X73533742Y-108104804D01*
X73442186Y-108165980D01*
X73386001Y-108189252D01*
X73383915Y-108190116D01*
X73362305Y-108201668D01*
X73343363Y-108217213D01*
X73327818Y-108236155D01*
X73316267Y-108257766D01*
X73309154Y-108281215D01*
X73306752Y-108305601D01*
X73309154Y-108329987D01*
X73316267Y-108353436D01*
X73327819Y-108375046D01*
X73343364Y-108393988D01*
X73362306Y-108409533D01*
X73383913Y-108421083D01*
X73442186Y-108445220D01*
X73533742Y-108506396D01*
X73611604Y-108584258D01*
X73672780Y-108675814D01*
X73693849Y-108726680D01*
X73714920Y-108777549D01*
X73736400Y-108885541D01*
X73736400Y-108995659D01*
X73714920Y-109103651D01*
X73696916Y-109147115D01*
X73672780Y-109205386D01*
X73611604Y-109296942D01*
X73533742Y-109374804D01*
X73442186Y-109435980D01*
X73383915Y-109460116D01*
X73362305Y-109471668D01*
X73343363Y-109487213D01*
X73327818Y-109506155D01*
X73316267Y-109527766D01*
X73309154Y-109551215D01*
X73306752Y-109575601D01*
X73309154Y-109599987D01*
X73316267Y-109623436D01*
X73327819Y-109645046D01*
X73343364Y-109663988D01*
X73362306Y-109679533D01*
X73383913Y-109691083D01*
X73442186Y-109715220D01*
X73533742Y-109776396D01*
X73611604Y-109854258D01*
X73672780Y-109945814D01*
X73693849Y-109996680D01*
X73714920Y-110047549D01*
X73736400Y-110155541D01*
X73736400Y-110265659D01*
X73714920Y-110373651D01*
X73705867Y-110395506D01*
X73672780Y-110475386D01*
X73611604Y-110566942D01*
X73533742Y-110644804D01*
X73442186Y-110705980D01*
X73383915Y-110730116D01*
X73362305Y-110741668D01*
X73343363Y-110757213D01*
X73327818Y-110776155D01*
X73316267Y-110797766D01*
X73309154Y-110821215D01*
X73306752Y-110845601D01*
X73309154Y-110869987D01*
X73316267Y-110893436D01*
X73327819Y-110915046D01*
X73343364Y-110933988D01*
X73362306Y-110949533D01*
X73383913Y-110961083D01*
X73442186Y-110985220D01*
X73533742Y-111046396D01*
X73611604Y-111124258D01*
X73672780Y-111215814D01*
X73693849Y-111266680D01*
X73714920Y-111317549D01*
X73736400Y-111425541D01*
X73736400Y-111535659D01*
X73714920Y-111643651D01*
X73705867Y-111665506D01*
X73672780Y-111745386D01*
X73611604Y-111836942D01*
X73533742Y-111914804D01*
X73442186Y-111975980D01*
X73383915Y-112000116D01*
X73362305Y-112011668D01*
X73343363Y-112027213D01*
X73327818Y-112046155D01*
X73316267Y-112067766D01*
X73309154Y-112091215D01*
X73306752Y-112115601D01*
X73309154Y-112139987D01*
X73316267Y-112163436D01*
X73327819Y-112185046D01*
X73343364Y-112203988D01*
X73362306Y-112219533D01*
X73383913Y-112231083D01*
X73442186Y-112255220D01*
X73533742Y-112316396D01*
X73611604Y-112394258D01*
X73672780Y-112485814D01*
X73693849Y-112536680D01*
X73714920Y-112587549D01*
X73736400Y-112695541D01*
X73736400Y-112805659D01*
X73714920Y-112913651D01*
X73705867Y-112935506D01*
X73672780Y-113015386D01*
X73611604Y-113106942D01*
X73533742Y-113184804D01*
X73442186Y-113245980D01*
X73391320Y-113267049D01*
X73340451Y-113288120D01*
X73232459Y-113309600D01*
X73122341Y-113309600D01*
X73014349Y-113288120D01*
X72963480Y-113267049D01*
X72912614Y-113245980D01*
X72821058Y-113184804D01*
X72743196Y-113106942D01*
X72682020Y-113015386D01*
X72657883Y-112957113D01*
X72646332Y-112935505D01*
X72630787Y-112916563D01*
X72611845Y-112901018D01*
X72590234Y-112889467D01*
X72566785Y-112882354D01*
X72542399Y-112879952D01*
X72518013Y-112882354D01*
X72494564Y-112889467D01*
X72472954Y-112901019D01*
X72454012Y-112916564D01*
X72438467Y-112935506D01*
X72426917Y-112957113D01*
X72402780Y-113015386D01*
X72341604Y-113106942D01*
X72263742Y-113184804D01*
X72172186Y-113245980D01*
X72121320Y-113267049D01*
X72070451Y-113288120D01*
X71962459Y-113309600D01*
X71852341Y-113309600D01*
X71744349Y-113288120D01*
X71693480Y-113267049D01*
X71642614Y-113245980D01*
X71551058Y-113184804D01*
X71473196Y-113106942D01*
X71412020Y-113015386D01*
X71378933Y-112935506D01*
X71369880Y-112913651D01*
X71348400Y-112805659D01*
X71348400Y-112695541D01*
X71369880Y-112587549D01*
X71390951Y-112536680D01*
X71412020Y-112485814D01*
X71473196Y-112394258D01*
X71551058Y-112316396D01*
X71642614Y-112255220D01*
X71700887Y-112231083D01*
X71722495Y-112219532D01*
X71741437Y-112203987D01*
X71756982Y-112185045D01*
X71768533Y-112163434D01*
X71775646Y-112139985D01*
X71778047Y-112115601D01*
X72036752Y-112115601D01*
X72039154Y-112139987D01*
X72046267Y-112163436D01*
X72057819Y-112185046D01*
X72073364Y-112203988D01*
X72092306Y-112219533D01*
X72113913Y-112231083D01*
X72172186Y-112255220D01*
X72263742Y-112316396D01*
X72341604Y-112394258D01*
X72402780Y-112485814D01*
X72426916Y-112544085D01*
X72438468Y-112565695D01*
X72454013Y-112584637D01*
X72472955Y-112600182D01*
X72494566Y-112611733D01*
X72518015Y-112618846D01*
X72542401Y-112621248D01*
X72566787Y-112618846D01*
X72590236Y-112611733D01*
X72611846Y-112600181D01*
X72630788Y-112584636D01*
X72646333Y-112565694D01*
X72657884Y-112544085D01*
X72682020Y-112485814D01*
X72743196Y-112394258D01*
X72821058Y-112316396D01*
X72912614Y-112255220D01*
X72970887Y-112231083D01*
X72992495Y-112219532D01*
X73011437Y-112203987D01*
X73026982Y-112185045D01*
X73038533Y-112163434D01*
X73045646Y-112139985D01*
X73048048Y-112115599D01*
X73045646Y-112091213D01*
X73038533Y-112067764D01*
X73026981Y-112046154D01*
X73011436Y-112027212D01*
X72992494Y-112011667D01*
X72970885Y-112000116D01*
X72912614Y-111975980D01*
X72821058Y-111914804D01*
X72743196Y-111836942D01*
X72682020Y-111745386D01*
X72657883Y-111687113D01*
X72646332Y-111665505D01*
X72630787Y-111646563D01*
X72611845Y-111631018D01*
X72590234Y-111619467D01*
X72566785Y-111612354D01*
X72542399Y-111609952D01*
X72518013Y-111612354D01*
X72494564Y-111619467D01*
X72472954Y-111631019D01*
X72454012Y-111646564D01*
X72438467Y-111665506D01*
X72426917Y-111687113D01*
X72402780Y-111745386D01*
X72341604Y-111836942D01*
X72263742Y-111914804D01*
X72172186Y-111975980D01*
X72113915Y-112000116D01*
X72092305Y-112011668D01*
X72073363Y-112027213D01*
X72057818Y-112046155D01*
X72046267Y-112067766D01*
X72039154Y-112091215D01*
X72036752Y-112115601D01*
X71778047Y-112115601D01*
X71778048Y-112115599D01*
X71775646Y-112091213D01*
X71768533Y-112067764D01*
X71756981Y-112046154D01*
X71741436Y-112027212D01*
X71722494Y-112011667D01*
X71700885Y-112000116D01*
X71642614Y-111975980D01*
X71551058Y-111914804D01*
X71473196Y-111836942D01*
X71412020Y-111745386D01*
X71378933Y-111665506D01*
X71369880Y-111643651D01*
X71348400Y-111535659D01*
X71348400Y-111425541D01*
X71369880Y-111317549D01*
X71390951Y-111266680D01*
X71412020Y-111215814D01*
X71473196Y-111124258D01*
X71551058Y-111046396D01*
X71642614Y-110985220D01*
X71700887Y-110961083D01*
X71722495Y-110949532D01*
X71741437Y-110933987D01*
X71756982Y-110915045D01*
X71768533Y-110893434D01*
X71775646Y-110869985D01*
X71778047Y-110845601D01*
X72036752Y-110845601D01*
X72039154Y-110869987D01*
X72046267Y-110893436D01*
X72057819Y-110915046D01*
X72073364Y-110933988D01*
X72092306Y-110949533D01*
X72113913Y-110961083D01*
X72172186Y-110985220D01*
X72263742Y-111046396D01*
X72341604Y-111124258D01*
X72402780Y-111215814D01*
X72426916Y-111274085D01*
X72438468Y-111295695D01*
X72454013Y-111314637D01*
X72472955Y-111330182D01*
X72494566Y-111341733D01*
X72518015Y-111348846D01*
X72542401Y-111351248D01*
X72566787Y-111348846D01*
X72590236Y-111341733D01*
X72611846Y-111330181D01*
X72630788Y-111314636D01*
X72646333Y-111295694D01*
X72657884Y-111274085D01*
X72682020Y-111215814D01*
X72743196Y-111124258D01*
X72821058Y-111046396D01*
X72912614Y-110985220D01*
X72970887Y-110961083D01*
X72992495Y-110949532D01*
X73011437Y-110933987D01*
X73026982Y-110915045D01*
X73038533Y-110893434D01*
X73045646Y-110869985D01*
X73048048Y-110845599D01*
X73045646Y-110821213D01*
X73038533Y-110797764D01*
X73026981Y-110776154D01*
X73011436Y-110757212D01*
X72992494Y-110741667D01*
X72970885Y-110730116D01*
X72912614Y-110705980D01*
X72821058Y-110644804D01*
X72743196Y-110566942D01*
X72682020Y-110475386D01*
X72657883Y-110417113D01*
X72646332Y-110395505D01*
X72630787Y-110376563D01*
X72611845Y-110361018D01*
X72590234Y-110349467D01*
X72566785Y-110342354D01*
X72542399Y-110339952D01*
X72518013Y-110342354D01*
X72494564Y-110349467D01*
X72472954Y-110361019D01*
X72454012Y-110376564D01*
X72438467Y-110395506D01*
X72426917Y-110417113D01*
X72402780Y-110475386D01*
X72341604Y-110566942D01*
X72263742Y-110644804D01*
X72172186Y-110705980D01*
X72113915Y-110730116D01*
X72092305Y-110741668D01*
X72073363Y-110757213D01*
X72057818Y-110776155D01*
X72046267Y-110797766D01*
X72039154Y-110821215D01*
X72036752Y-110845601D01*
X71778047Y-110845601D01*
X71778048Y-110845599D01*
X71775646Y-110821213D01*
X71768533Y-110797764D01*
X71756981Y-110776154D01*
X71741436Y-110757212D01*
X71722494Y-110741667D01*
X71700885Y-110730116D01*
X71642614Y-110705980D01*
X71551058Y-110644804D01*
X71473196Y-110566942D01*
X71412020Y-110475386D01*
X71378933Y-110395506D01*
X71369880Y-110373651D01*
X71348400Y-110265659D01*
X71348400Y-110155541D01*
X71369880Y-110047549D01*
X71390951Y-109996680D01*
X71412020Y-109945814D01*
X71473196Y-109854258D01*
X71551058Y-109776396D01*
X71642614Y-109715220D01*
X71700887Y-109691083D01*
X71722495Y-109679532D01*
X71741437Y-109663987D01*
X71756982Y-109645045D01*
X71768533Y-109623434D01*
X71775646Y-109599985D01*
X71778047Y-109575601D01*
X72036752Y-109575601D01*
X72039154Y-109599987D01*
X72046267Y-109623436D01*
X72057819Y-109645046D01*
X72073364Y-109663988D01*
X72092306Y-109679533D01*
X72113913Y-109691083D01*
X72172186Y-109715220D01*
X72263742Y-109776396D01*
X72341604Y-109854258D01*
X72402780Y-109945814D01*
X72426916Y-110004085D01*
X72438468Y-110025695D01*
X72454013Y-110044637D01*
X72472955Y-110060182D01*
X72494566Y-110071733D01*
X72518015Y-110078846D01*
X72542401Y-110081248D01*
X72566787Y-110078846D01*
X72590236Y-110071733D01*
X72611846Y-110060181D01*
X72630788Y-110044636D01*
X72646333Y-110025694D01*
X72657884Y-110004085D01*
X72682020Y-109945814D01*
X72743196Y-109854258D01*
X72821058Y-109776396D01*
X72912614Y-109715220D01*
X72970887Y-109691083D01*
X72992495Y-109679532D01*
X73011437Y-109663987D01*
X73026982Y-109645045D01*
X73038533Y-109623434D01*
X73045646Y-109599985D01*
X73048048Y-109575599D01*
X73045646Y-109551213D01*
X73038533Y-109527764D01*
X73026981Y-109506154D01*
X73011436Y-109487212D01*
X72992494Y-109471667D01*
X72970885Y-109460116D01*
X72912614Y-109435980D01*
X72821058Y-109374804D01*
X72743196Y-109296942D01*
X72682020Y-109205386D01*
X72657883Y-109147113D01*
X72646332Y-109125505D01*
X72630787Y-109106563D01*
X72611845Y-109091018D01*
X72590234Y-109079467D01*
X72566785Y-109072354D01*
X72542399Y-109069952D01*
X72518013Y-109072354D01*
X72494564Y-109079467D01*
X72472954Y-109091019D01*
X72454012Y-109106564D01*
X72438467Y-109125506D01*
X72426917Y-109147113D01*
X72402780Y-109205386D01*
X72341604Y-109296942D01*
X72263742Y-109374804D01*
X72172186Y-109435980D01*
X72113915Y-109460116D01*
X72092305Y-109471668D01*
X72073363Y-109487213D01*
X72057818Y-109506155D01*
X72046267Y-109527766D01*
X72039154Y-109551215D01*
X72036752Y-109575601D01*
X71778047Y-109575601D01*
X71778048Y-109575599D01*
X71775646Y-109551213D01*
X71768533Y-109527764D01*
X71756981Y-109506154D01*
X71741436Y-109487212D01*
X71722494Y-109471667D01*
X71700885Y-109460116D01*
X71642614Y-109435980D01*
X71551058Y-109374804D01*
X71473196Y-109296942D01*
X71412020Y-109205386D01*
X71387884Y-109147115D01*
X71369880Y-109103651D01*
X71348400Y-108995659D01*
X71348400Y-108885541D01*
X71369880Y-108777549D01*
X71390951Y-108726680D01*
X71412020Y-108675814D01*
X71473196Y-108584258D01*
X71551058Y-108506396D01*
X71642614Y-108445220D01*
X71700887Y-108421083D01*
X71722495Y-108409532D01*
X71741437Y-108393987D01*
X71756982Y-108375045D01*
X71768533Y-108353434D01*
X71775646Y-108329985D01*
X71778047Y-108305601D01*
X72036752Y-108305601D01*
X72039154Y-108329987D01*
X72046267Y-108353436D01*
X72057819Y-108375046D01*
X72073364Y-108393988D01*
X72092306Y-108409533D01*
X72113913Y-108421083D01*
X72172186Y-108445220D01*
X72263742Y-108506396D01*
X72341604Y-108584258D01*
X72402780Y-108675814D01*
X72426916Y-108734085D01*
X72438468Y-108755695D01*
X72454013Y-108774637D01*
X72472955Y-108790182D01*
X72494566Y-108801733D01*
X72518015Y-108808846D01*
X72542401Y-108811248D01*
X72566787Y-108808846D01*
X72590236Y-108801733D01*
X72611846Y-108790181D01*
X72630788Y-108774636D01*
X72646333Y-108755694D01*
X72657884Y-108734085D01*
X72682020Y-108675814D01*
X72743196Y-108584258D01*
X72821058Y-108506396D01*
X72912614Y-108445220D01*
X72970887Y-108421083D01*
X72992495Y-108409532D01*
X73011437Y-108393987D01*
X73026982Y-108375045D01*
X73038533Y-108353434D01*
X73045646Y-108329985D01*
X73048048Y-108305599D01*
X73045646Y-108281213D01*
X73038533Y-108257764D01*
X73026981Y-108236154D01*
X73011436Y-108217212D01*
X72992494Y-108201667D01*
X72970885Y-108190116D01*
X72968799Y-108189252D01*
X72912614Y-108165980D01*
X72821058Y-108104804D01*
X72743196Y-108026942D01*
X72682020Y-107935386D01*
X72657883Y-107877113D01*
X72646332Y-107855505D01*
X72630787Y-107836563D01*
X72611845Y-107821018D01*
X72590234Y-107809467D01*
X72566785Y-107802354D01*
X72542399Y-107799952D01*
X72518013Y-107802354D01*
X72494564Y-107809467D01*
X72472954Y-107821019D01*
X72454012Y-107836564D01*
X72438467Y-107855506D01*
X72426917Y-107877113D01*
X72402780Y-107935386D01*
X72341604Y-108026942D01*
X72263742Y-108104804D01*
X72172186Y-108165980D01*
X72116001Y-108189252D01*
X72113915Y-108190116D01*
X72092305Y-108201668D01*
X72073363Y-108217213D01*
X72057818Y-108236155D01*
X72046267Y-108257766D01*
X72039154Y-108281215D01*
X72036752Y-108305601D01*
X71778047Y-108305601D01*
X71778048Y-108305599D01*
X71775646Y-108281213D01*
X71768533Y-108257764D01*
X71756981Y-108236154D01*
X71741436Y-108217212D01*
X71722494Y-108201667D01*
X71700885Y-108190116D01*
X71698799Y-108189252D01*
X71642614Y-108165980D01*
X71551058Y-108104804D01*
X71473196Y-108026942D01*
X71412020Y-107935386D01*
X71387884Y-107877115D01*
X71369880Y-107833651D01*
X71348400Y-107725659D01*
X71348400Y-107615541D01*
X71369880Y-107507549D01*
X71390951Y-107456680D01*
X71412020Y-107405814D01*
X71473196Y-107314258D01*
X71551058Y-107236396D01*
X71642614Y-107175220D01*
X71711869Y-107146534D01*
X71744349Y-107133080D01*
X71852341Y-107111600D01*
X71962459Y-107111600D01*
X72070451Y-107133080D01*
G37*
G36*
X112602674Y-107983465D02*
G01*
X112640367Y-107994899D01*
X112675103Y-108013466D01*
X112705548Y-108038452D01*
X112730534Y-108068897D01*
X112749101Y-108103633D01*
X112760535Y-108141326D01*
X112765000Y-108186661D01*
X112765000Y-109023339D01*
X112760535Y-109068674D01*
X112749101Y-109106367D01*
X112730534Y-109141103D01*
X112705548Y-109171548D01*
X112675103Y-109196534D01*
X112640367Y-109215101D01*
X112602674Y-109226535D01*
X112557339Y-109231000D01*
X111470661Y-109231000D01*
X111425326Y-109226535D01*
X111387633Y-109215101D01*
X111352897Y-109196534D01*
X111322452Y-109171548D01*
X111297466Y-109141103D01*
X111278899Y-109106367D01*
X111267465Y-109068674D01*
X111263000Y-109023339D01*
X111263000Y-108186661D01*
X111267465Y-108141326D01*
X111278899Y-108103633D01*
X111297466Y-108068897D01*
X111322452Y-108038452D01*
X111352897Y-108013466D01*
X111387633Y-107994899D01*
X111425326Y-107983465D01*
X111470661Y-107979000D01*
X112557339Y-107979000D01*
X112602674Y-107983465D01*
G37*
G36*
X108030674Y-107983465D02*
G01*
X108068367Y-107994899D01*
X108103103Y-108013466D01*
X108133548Y-108038452D01*
X108158534Y-108068897D01*
X108177101Y-108103633D01*
X108188535Y-108141326D01*
X108193000Y-108186661D01*
X108193000Y-109023339D01*
X108188535Y-109068674D01*
X108177101Y-109106367D01*
X108158534Y-109141103D01*
X108133548Y-109171548D01*
X108103103Y-109196534D01*
X108068367Y-109215101D01*
X108030674Y-109226535D01*
X107985339Y-109231000D01*
X106898661Y-109231000D01*
X106853326Y-109226535D01*
X106815633Y-109215101D01*
X106780897Y-109196534D01*
X106750452Y-109171548D01*
X106725466Y-109141103D01*
X106706899Y-109106367D01*
X106695465Y-109068674D01*
X106691000Y-109023339D01*
X106691000Y-108186661D01*
X106695465Y-108141326D01*
X106706899Y-108103633D01*
X106725466Y-108068897D01*
X106750452Y-108038452D01*
X106780897Y-108013466D01*
X106815633Y-107994899D01*
X106853326Y-107983465D01*
X106898661Y-107979000D01*
X107985339Y-107979000D01*
X108030674Y-107983465D01*
G37*
G36*
X124997874Y-107983465D02*
G01*
X125035567Y-107994899D01*
X125070303Y-108013466D01*
X125100748Y-108038452D01*
X125125734Y-108068897D01*
X125144301Y-108103633D01*
X125155735Y-108141326D01*
X125160200Y-108186661D01*
X125160200Y-109023339D01*
X125155735Y-109068674D01*
X125144301Y-109106367D01*
X125125734Y-109141103D01*
X125100748Y-109171548D01*
X125070303Y-109196534D01*
X125035567Y-109215101D01*
X124997874Y-109226535D01*
X124952539Y-109231000D01*
X123865861Y-109231000D01*
X123820526Y-109226535D01*
X123782833Y-109215101D01*
X123748097Y-109196534D01*
X123717652Y-109171548D01*
X123692666Y-109141103D01*
X123674099Y-109106367D01*
X123662665Y-109068674D01*
X123658200Y-109023339D01*
X123658200Y-108186661D01*
X123662665Y-108141326D01*
X123674099Y-108103633D01*
X123692666Y-108068897D01*
X123717652Y-108038452D01*
X123748097Y-108013466D01*
X123782833Y-107994899D01*
X123820526Y-107983465D01*
X123865861Y-107979000D01*
X124952539Y-107979000D01*
X124997874Y-107983465D01*
G37*
G36*
X120425874Y-107983465D02*
G01*
X120463567Y-107994899D01*
X120498303Y-108013466D01*
X120528748Y-108038452D01*
X120553734Y-108068897D01*
X120572301Y-108103633D01*
X120583735Y-108141326D01*
X120588200Y-108186661D01*
X120588200Y-109023339D01*
X120583735Y-109068674D01*
X120572301Y-109106367D01*
X120553734Y-109141103D01*
X120528748Y-109171548D01*
X120498303Y-109196534D01*
X120463567Y-109215101D01*
X120425874Y-109226535D01*
X120380539Y-109231000D01*
X119293861Y-109231000D01*
X119248526Y-109226535D01*
X119210833Y-109215101D01*
X119176097Y-109196534D01*
X119145652Y-109171548D01*
X119120666Y-109141103D01*
X119102099Y-109106367D01*
X119090665Y-109068674D01*
X119086200Y-109023339D01*
X119086200Y-108186661D01*
X119090665Y-108141326D01*
X119102099Y-108103633D01*
X119120666Y-108068897D01*
X119145652Y-108038452D01*
X119176097Y-108013466D01*
X119210833Y-107994899D01*
X119248526Y-107983465D01*
X119293861Y-107979000D01*
X120380539Y-107979000D01*
X120425874Y-107983465D01*
G37*
G36*
X136173874Y-107983465D02*
G01*
X136211567Y-107994899D01*
X136246303Y-108013466D01*
X136276748Y-108038452D01*
X136301734Y-108068897D01*
X136320301Y-108103633D01*
X136331735Y-108141326D01*
X136336200Y-108186661D01*
X136336200Y-109023339D01*
X136331735Y-109068674D01*
X136320301Y-109106367D01*
X136301734Y-109141103D01*
X136276748Y-109171548D01*
X136246303Y-109196534D01*
X136211567Y-109215101D01*
X136173874Y-109226535D01*
X136128539Y-109231000D01*
X135041861Y-109231000D01*
X134996526Y-109226535D01*
X134958833Y-109215101D01*
X134924097Y-109196534D01*
X134893652Y-109171548D01*
X134868666Y-109141103D01*
X134850099Y-109106367D01*
X134838665Y-109068674D01*
X134834200Y-109023339D01*
X134834200Y-108186661D01*
X134838665Y-108141326D01*
X134850099Y-108103633D01*
X134868666Y-108068897D01*
X134893652Y-108038452D01*
X134924097Y-108013466D01*
X134958833Y-107994899D01*
X134996526Y-107983465D01*
X135041861Y-107979000D01*
X136128539Y-107979000D01*
X136173874Y-107983465D01*
G37*
G36*
X131601874Y-107983465D02*
G01*
X131639567Y-107994899D01*
X131674303Y-108013466D01*
X131704748Y-108038452D01*
X131729734Y-108068897D01*
X131748301Y-108103633D01*
X131759735Y-108141326D01*
X131764200Y-108186661D01*
X131764200Y-109023339D01*
X131759735Y-109068674D01*
X131748301Y-109106367D01*
X131729734Y-109141103D01*
X131704748Y-109171548D01*
X131674303Y-109196534D01*
X131639567Y-109215101D01*
X131601874Y-109226535D01*
X131556539Y-109231000D01*
X130469861Y-109231000D01*
X130424526Y-109226535D01*
X130386833Y-109215101D01*
X130352097Y-109196534D01*
X130321652Y-109171548D01*
X130296666Y-109141103D01*
X130278099Y-109106367D01*
X130266665Y-109068674D01*
X130262200Y-109023339D01*
X130262200Y-108186661D01*
X130266665Y-108141326D01*
X130278099Y-108103633D01*
X130296666Y-108068897D01*
X130321652Y-108038452D01*
X130352097Y-108013466D01*
X130386833Y-107994899D01*
X130424526Y-107983465D01*
X130469861Y-107979000D01*
X131556539Y-107979000D01*
X131601874Y-107983465D01*
G37*
G36*
X146411962Y-106671581D02*
G01*
X146446881Y-106682174D01*
X146479063Y-106699376D01*
X146507273Y-106722527D01*
X146530424Y-106750737D01*
X146547626Y-106782919D01*
X146558219Y-106817838D01*
X146562400Y-106860295D01*
X146562400Y-108001505D01*
X146558219Y-108043962D01*
X146547626Y-108078881D01*
X146530424Y-108111063D01*
X146507273Y-108139273D01*
X146479063Y-108162424D01*
X146446881Y-108179626D01*
X146411962Y-108190219D01*
X146369505Y-108194400D01*
X144003295Y-108194400D01*
X143960838Y-108190219D01*
X143925919Y-108179626D01*
X143893737Y-108162424D01*
X143865527Y-108139273D01*
X143842376Y-108111063D01*
X143825174Y-108078881D01*
X143814581Y-108043962D01*
X143810400Y-108001505D01*
X143810400Y-106860295D01*
X143814581Y-106817838D01*
X143825174Y-106782919D01*
X143842376Y-106750737D01*
X143865527Y-106722527D01*
X143893737Y-106699376D01*
X143925919Y-106682174D01*
X143960838Y-106671581D01*
X144003295Y-106667400D01*
X146369505Y-106667400D01*
X146411962Y-106671581D01*
G37*
G36*
X78444099Y-106870445D02*
G01*
X78481595Y-106881820D01*
X78516154Y-106900292D01*
X78546447Y-106925153D01*
X78571308Y-106955446D01*
X78589780Y-106990005D01*
X78601155Y-107027501D01*
X78605600Y-107072638D01*
X78605600Y-107811362D01*
X78601155Y-107856499D01*
X78589780Y-107893995D01*
X78571308Y-107928554D01*
X78546447Y-107958847D01*
X78516154Y-107983708D01*
X78481595Y-108002180D01*
X78444099Y-108013555D01*
X78398962Y-108018000D01*
X77760238Y-108018000D01*
X77715101Y-108013555D01*
X77677605Y-108002180D01*
X77643046Y-107983708D01*
X77612753Y-107958847D01*
X77587892Y-107928554D01*
X77569420Y-107893995D01*
X77558045Y-107856499D01*
X77553600Y-107811362D01*
X77553600Y-107072638D01*
X77558045Y-107027501D01*
X77569420Y-106990005D01*
X77587892Y-106955446D01*
X77612753Y-106925153D01*
X77643046Y-106900292D01*
X77677605Y-106881820D01*
X77715101Y-106870445D01*
X77760238Y-106866000D01*
X78398962Y-106866000D01*
X78444099Y-106870445D01*
G37*
G36*
X108030674Y-105933465D02*
G01*
X108068367Y-105944899D01*
X108103103Y-105963466D01*
X108133548Y-105988452D01*
X108158534Y-106018897D01*
X108177101Y-106053633D01*
X108188535Y-106091326D01*
X108193000Y-106136661D01*
X108193000Y-106973339D01*
X108188535Y-107018674D01*
X108177101Y-107056367D01*
X108158534Y-107091103D01*
X108133548Y-107121548D01*
X108103103Y-107146534D01*
X108068367Y-107165101D01*
X108030674Y-107176535D01*
X107985339Y-107181000D01*
X106898661Y-107181000D01*
X106853326Y-107176535D01*
X106815633Y-107165101D01*
X106780897Y-107146534D01*
X106750452Y-107121548D01*
X106725466Y-107091103D01*
X106706899Y-107056367D01*
X106695465Y-107018674D01*
X106691000Y-106973339D01*
X106691000Y-106136661D01*
X106695465Y-106091326D01*
X106706899Y-106053633D01*
X106725466Y-106018897D01*
X106750452Y-105988452D01*
X106780897Y-105963466D01*
X106815633Y-105944899D01*
X106853326Y-105933465D01*
X106898661Y-105929000D01*
X107985339Y-105929000D01*
X108030674Y-105933465D01*
G37*
G36*
X112602674Y-105933465D02*
G01*
X112640367Y-105944899D01*
X112675103Y-105963466D01*
X112705548Y-105988452D01*
X112730534Y-106018897D01*
X112749101Y-106053633D01*
X112760535Y-106091326D01*
X112765000Y-106136661D01*
X112765000Y-106973339D01*
X112760535Y-107018674D01*
X112749101Y-107056367D01*
X112730534Y-107091103D01*
X112705548Y-107121548D01*
X112675103Y-107146534D01*
X112640367Y-107165101D01*
X112602674Y-107176535D01*
X112557339Y-107181000D01*
X111470661Y-107181000D01*
X111425326Y-107176535D01*
X111387633Y-107165101D01*
X111352897Y-107146534D01*
X111322452Y-107121548D01*
X111297466Y-107091103D01*
X111278899Y-107056367D01*
X111267465Y-107018674D01*
X111263000Y-106973339D01*
X111263000Y-106136661D01*
X111267465Y-106091326D01*
X111278899Y-106053633D01*
X111297466Y-106018897D01*
X111322452Y-105988452D01*
X111352897Y-105963466D01*
X111387633Y-105944899D01*
X111425326Y-105933465D01*
X111470661Y-105929000D01*
X112557339Y-105929000D01*
X112602674Y-105933465D01*
G37*
G36*
X124997874Y-105933465D02*
G01*
X125035567Y-105944899D01*
X125070303Y-105963466D01*
X125100748Y-105988452D01*
X125125734Y-106018897D01*
X125144301Y-106053633D01*
X125155735Y-106091326D01*
X125160200Y-106136661D01*
X125160200Y-106973339D01*
X125155735Y-107018674D01*
X125144301Y-107056367D01*
X125125734Y-107091103D01*
X125100748Y-107121548D01*
X125070303Y-107146534D01*
X125035567Y-107165101D01*
X124997874Y-107176535D01*
X124952539Y-107181000D01*
X123865861Y-107181000D01*
X123820526Y-107176535D01*
X123782833Y-107165101D01*
X123748097Y-107146534D01*
X123717652Y-107121548D01*
X123692666Y-107091103D01*
X123674099Y-107056367D01*
X123662665Y-107018674D01*
X123658200Y-106973339D01*
X123658200Y-106136661D01*
X123662665Y-106091326D01*
X123674099Y-106053633D01*
X123692666Y-106018897D01*
X123717652Y-105988452D01*
X123748097Y-105963466D01*
X123782833Y-105944899D01*
X123820526Y-105933465D01*
X123865861Y-105929000D01*
X124952539Y-105929000D01*
X124997874Y-105933465D01*
G37*
G36*
X120425874Y-105933465D02*
G01*
X120463567Y-105944899D01*
X120498303Y-105963466D01*
X120528748Y-105988452D01*
X120553734Y-106018897D01*
X120572301Y-106053633D01*
X120583735Y-106091326D01*
X120588200Y-106136661D01*
X120588200Y-106973339D01*
X120583735Y-107018674D01*
X120572301Y-107056367D01*
X120553734Y-107091103D01*
X120528748Y-107121548D01*
X120498303Y-107146534D01*
X120463567Y-107165101D01*
X120425874Y-107176535D01*
X120380539Y-107181000D01*
X119293861Y-107181000D01*
X119248526Y-107176535D01*
X119210833Y-107165101D01*
X119176097Y-107146534D01*
X119145652Y-107121548D01*
X119120666Y-107091103D01*
X119102099Y-107056367D01*
X119090665Y-107018674D01*
X119086200Y-106973339D01*
X119086200Y-106136661D01*
X119090665Y-106091326D01*
X119102099Y-106053633D01*
X119120666Y-106018897D01*
X119145652Y-105988452D01*
X119176097Y-105963466D01*
X119210833Y-105944899D01*
X119248526Y-105933465D01*
X119293861Y-105929000D01*
X120380539Y-105929000D01*
X120425874Y-105933465D01*
G37*
G36*
X136173874Y-105933465D02*
G01*
X136211567Y-105944899D01*
X136246303Y-105963466D01*
X136276748Y-105988452D01*
X136301734Y-106018897D01*
X136320301Y-106053633D01*
X136331735Y-106091326D01*
X136336200Y-106136661D01*
X136336200Y-106973339D01*
X136331735Y-107018674D01*
X136320301Y-107056367D01*
X136301734Y-107091103D01*
X136276748Y-107121548D01*
X136246303Y-107146534D01*
X136211567Y-107165101D01*
X136173874Y-107176535D01*
X136128539Y-107181000D01*
X135041861Y-107181000D01*
X134996526Y-107176535D01*
X134958833Y-107165101D01*
X134924097Y-107146534D01*
X134893652Y-107121548D01*
X134868666Y-107091103D01*
X134850099Y-107056367D01*
X134838665Y-107018674D01*
X134834200Y-106973339D01*
X134834200Y-106136661D01*
X134838665Y-106091326D01*
X134850099Y-106053633D01*
X134868666Y-106018897D01*
X134893652Y-105988452D01*
X134924097Y-105963466D01*
X134958833Y-105944899D01*
X134996526Y-105933465D01*
X135041861Y-105929000D01*
X136128539Y-105929000D01*
X136173874Y-105933465D01*
G37*
G36*
X131601874Y-105933465D02*
G01*
X131639567Y-105944899D01*
X131674303Y-105963466D01*
X131704748Y-105988452D01*
X131729734Y-106018897D01*
X131748301Y-106053633D01*
X131759735Y-106091326D01*
X131764200Y-106136661D01*
X131764200Y-106973339D01*
X131759735Y-107018674D01*
X131748301Y-107056367D01*
X131729734Y-107091103D01*
X131704748Y-107121548D01*
X131674303Y-107146534D01*
X131639567Y-107165101D01*
X131601874Y-107176535D01*
X131556539Y-107181000D01*
X130469861Y-107181000D01*
X130424526Y-107176535D01*
X130386833Y-107165101D01*
X130352097Y-107146534D01*
X130321652Y-107121548D01*
X130296666Y-107091103D01*
X130278099Y-107056367D01*
X130266665Y-107018674D01*
X130262200Y-106973339D01*
X130262200Y-106136661D01*
X130266665Y-106091326D01*
X130278099Y-106053633D01*
X130296666Y-106018897D01*
X130321652Y-105988452D01*
X130352097Y-105963466D01*
X130386833Y-105944899D01*
X130424526Y-105933465D01*
X130469861Y-105929000D01*
X131556539Y-105929000D01*
X131601874Y-105933465D01*
G37*
G36*
X78444099Y-105120445D02*
G01*
X78481595Y-105131820D01*
X78516154Y-105150292D01*
X78546447Y-105175153D01*
X78571308Y-105205446D01*
X78589780Y-105240005D01*
X78601155Y-105277501D01*
X78605600Y-105322638D01*
X78605600Y-106061362D01*
X78601155Y-106106499D01*
X78589780Y-106143995D01*
X78571308Y-106178554D01*
X78546447Y-106208847D01*
X78516154Y-106233708D01*
X78481595Y-106252180D01*
X78444099Y-106263555D01*
X78398962Y-106268000D01*
X77760238Y-106268000D01*
X77715101Y-106263555D01*
X77677605Y-106252180D01*
X77643046Y-106233708D01*
X77612753Y-106208847D01*
X77587892Y-106178554D01*
X77569420Y-106143995D01*
X77558045Y-106106499D01*
X77553600Y-106061362D01*
X77553600Y-105322638D01*
X77558045Y-105277501D01*
X77569420Y-105240005D01*
X77587892Y-105205446D01*
X77612753Y-105175153D01*
X77643046Y-105150292D01*
X77677605Y-105131820D01*
X77715101Y-105120445D01*
X77760238Y-105116000D01*
X78398962Y-105116000D01*
X78444099Y-105120445D01*
G37*
G36*
X93351362Y-103968081D02*
G01*
X93386281Y-103978674D01*
X93418463Y-103995876D01*
X93446673Y-104019027D01*
X93469824Y-104047237D01*
X93487026Y-104079419D01*
X93497619Y-104114338D01*
X93501800Y-104156795D01*
X93501800Y-105298005D01*
X93497619Y-105340462D01*
X93487026Y-105375381D01*
X93469824Y-105407563D01*
X93446673Y-105435773D01*
X93418463Y-105458924D01*
X93386281Y-105476126D01*
X93351362Y-105486719D01*
X93308905Y-105490900D01*
X90942695Y-105490900D01*
X90900238Y-105486719D01*
X90865319Y-105476126D01*
X90833137Y-105458924D01*
X90804927Y-105435773D01*
X90781776Y-105407563D01*
X90764574Y-105375381D01*
X90753981Y-105340462D01*
X90749800Y-105298005D01*
X90749800Y-104156795D01*
X90753981Y-104114338D01*
X90764574Y-104079419D01*
X90781776Y-104047237D01*
X90804927Y-104019027D01*
X90833137Y-103995876D01*
X90865319Y-103978674D01*
X90900238Y-103968081D01*
X90942695Y-103963900D01*
X93308905Y-103963900D01*
X93351362Y-103968081D01*
G37*
G36*
X85350362Y-103968081D02*
G01*
X85385281Y-103978674D01*
X85417463Y-103995876D01*
X85445673Y-104019027D01*
X85468824Y-104047237D01*
X85486026Y-104079419D01*
X85496619Y-104114338D01*
X85500800Y-104156795D01*
X85500800Y-105298005D01*
X85496619Y-105340462D01*
X85486026Y-105375381D01*
X85468824Y-105407563D01*
X85445673Y-105435773D01*
X85417463Y-105458924D01*
X85385281Y-105476126D01*
X85350362Y-105486719D01*
X85307905Y-105490900D01*
X82941695Y-105490900D01*
X82899238Y-105486719D01*
X82864319Y-105476126D01*
X82832137Y-105458924D01*
X82803927Y-105435773D01*
X82780776Y-105407563D01*
X82763574Y-105375381D01*
X82752981Y-105340462D01*
X82748800Y-105298005D01*
X82748800Y-104156795D01*
X82752981Y-104114338D01*
X82763574Y-104079419D01*
X82780776Y-104047237D01*
X82803927Y-104019027D01*
X82832137Y-103995876D01*
X82864319Y-103978674D01*
X82899238Y-103968081D01*
X82941695Y-103963900D01*
X85307905Y-103963900D01*
X85350362Y-103968081D01*
G37*
G36*
X100336362Y-103841081D02*
G01*
X100371281Y-103851674D01*
X100403463Y-103868876D01*
X100431673Y-103892027D01*
X100454824Y-103920237D01*
X100472026Y-103952419D01*
X100482619Y-103987338D01*
X100486800Y-104029795D01*
X100486800Y-105171005D01*
X100482619Y-105213462D01*
X100472026Y-105248381D01*
X100454824Y-105280563D01*
X100431673Y-105308773D01*
X100403463Y-105331924D01*
X100371281Y-105349126D01*
X100336362Y-105359719D01*
X100293905Y-105363900D01*
X97927695Y-105363900D01*
X97885238Y-105359719D01*
X97850319Y-105349126D01*
X97818137Y-105331924D01*
X97789927Y-105308773D01*
X97766776Y-105280563D01*
X97749574Y-105248381D01*
X97738981Y-105213462D01*
X97734800Y-105171005D01*
X97734800Y-104029795D01*
X97738981Y-103987338D01*
X97749574Y-103952419D01*
X97766776Y-103920237D01*
X97789927Y-103892027D01*
X97818137Y-103868876D01*
X97850319Y-103851674D01*
X97885238Y-103841081D01*
X97927695Y-103836900D01*
X100293905Y-103836900D01*
X100336362Y-103841081D01*
G37*
G36*
X122621200Y-105343400D02*
G01*
X121879200Y-105343400D01*
X121879200Y-103241400D01*
X122621200Y-103241400D01*
X122621200Y-105343400D01*
G37*
G36*
X133670200Y-105343400D02*
G01*
X132928200Y-105343400D01*
X132928200Y-103241400D01*
X133670200Y-103241400D01*
X133670200Y-105343400D01*
G37*
G36*
X120081200Y-105343400D02*
G01*
X119339200Y-105343400D01*
X119339200Y-103241400D01*
X120081200Y-103241400D01*
X120081200Y-105343400D01*
G37*
G36*
X107686000Y-105343400D02*
G01*
X106944000Y-105343400D01*
X106944000Y-103241400D01*
X107686000Y-103241400D01*
X107686000Y-105343400D01*
G37*
G36*
X131130200Y-105343400D02*
G01*
X130388200Y-105343400D01*
X130388200Y-103241400D01*
X131130200Y-103241400D01*
X131130200Y-105343400D01*
G37*
G36*
X110226000Y-105343400D02*
G01*
X109484000Y-105343400D01*
X109484000Y-103241400D01*
X110226000Y-103241400D01*
X110226000Y-105343400D01*
G37*
G36*
X146411962Y-103696581D02*
G01*
X146446881Y-103707174D01*
X146479063Y-103724376D01*
X146507273Y-103747527D01*
X146530424Y-103775737D01*
X146547626Y-103807919D01*
X146558219Y-103842838D01*
X146562400Y-103885295D01*
X146562400Y-105026505D01*
X146558219Y-105068962D01*
X146547626Y-105103881D01*
X146530424Y-105136063D01*
X146507273Y-105164273D01*
X146479063Y-105187424D01*
X146446881Y-105204626D01*
X146411962Y-105215219D01*
X146369505Y-105219400D01*
X144003295Y-105219400D01*
X143960838Y-105215219D01*
X143925919Y-105204626D01*
X143893737Y-105187424D01*
X143865527Y-105164273D01*
X143842376Y-105136063D01*
X143825174Y-105103881D01*
X143814581Y-105068962D01*
X143810400Y-105026505D01*
X143810400Y-103885295D01*
X143814581Y-103842838D01*
X143825174Y-103807919D01*
X143842376Y-103775737D01*
X143865527Y-103747527D01*
X143893737Y-103724376D01*
X143925919Y-103707174D01*
X143960838Y-103696581D01*
X144003295Y-103692400D01*
X146369505Y-103692400D01*
X146411962Y-103696581D01*
G37*
G36*
X93351362Y-100993081D02*
G01*
X93386281Y-101003674D01*
X93418463Y-101020876D01*
X93446673Y-101044027D01*
X93469824Y-101072237D01*
X93487026Y-101104419D01*
X93497619Y-101139338D01*
X93501800Y-101181795D01*
X93501800Y-102323005D01*
X93497619Y-102365462D01*
X93487026Y-102400381D01*
X93469824Y-102432563D01*
X93446673Y-102460773D01*
X93418463Y-102483924D01*
X93386281Y-102501126D01*
X93351362Y-102511719D01*
X93308905Y-102515900D01*
X90942695Y-102515900D01*
X90900238Y-102511719D01*
X90865319Y-102501126D01*
X90833137Y-102483924D01*
X90804927Y-102460773D01*
X90781776Y-102432563D01*
X90764574Y-102400381D01*
X90753981Y-102365462D01*
X90749800Y-102323005D01*
X90749800Y-101181795D01*
X90753981Y-101139338D01*
X90764574Y-101104419D01*
X90781776Y-101072237D01*
X90804927Y-101044027D01*
X90833137Y-101020876D01*
X90865319Y-101003674D01*
X90900238Y-100993081D01*
X90942695Y-100988900D01*
X93308905Y-100988900D01*
X93351362Y-100993081D01*
G37*
G36*
X85350362Y-100993081D02*
G01*
X85385281Y-101003674D01*
X85417463Y-101020876D01*
X85445673Y-101044027D01*
X85468824Y-101072237D01*
X85486026Y-101104419D01*
X85496619Y-101139338D01*
X85500800Y-101181795D01*
X85500800Y-102323005D01*
X85496619Y-102365462D01*
X85486026Y-102400381D01*
X85468824Y-102432563D01*
X85445673Y-102460773D01*
X85417463Y-102483924D01*
X85385281Y-102501126D01*
X85350362Y-102511719D01*
X85307905Y-102515900D01*
X82941695Y-102515900D01*
X82899238Y-102511719D01*
X82864319Y-102501126D01*
X82832137Y-102483924D01*
X82803927Y-102460773D01*
X82780776Y-102432563D01*
X82763574Y-102400381D01*
X82752981Y-102365462D01*
X82748800Y-102323005D01*
X82748800Y-101181795D01*
X82752981Y-101139338D01*
X82763574Y-101104419D01*
X82780776Y-101072237D01*
X82803927Y-101044027D01*
X82832137Y-101020876D01*
X82864319Y-101003674D01*
X82899238Y-100993081D01*
X82941695Y-100988900D01*
X85307905Y-100988900D01*
X85350362Y-100993081D01*
G37*
G36*
X100336362Y-100866081D02*
G01*
X100371281Y-100876674D01*
X100403463Y-100893876D01*
X100431673Y-100917027D01*
X100454824Y-100945237D01*
X100472026Y-100977419D01*
X100482619Y-101012338D01*
X100486800Y-101054795D01*
X100486800Y-102196005D01*
X100482619Y-102238462D01*
X100472026Y-102273381D01*
X100454824Y-102305563D01*
X100431673Y-102333773D01*
X100403463Y-102356924D01*
X100371281Y-102374126D01*
X100336362Y-102384719D01*
X100293905Y-102388900D01*
X97927695Y-102388900D01*
X97885238Y-102384719D01*
X97850319Y-102374126D01*
X97818137Y-102356924D01*
X97789927Y-102333773D01*
X97766776Y-102305563D01*
X97749574Y-102273381D01*
X97738981Y-102238462D01*
X97734800Y-102196005D01*
X97734800Y-101054795D01*
X97738981Y-101012338D01*
X97749574Y-100977419D01*
X97766776Y-100945237D01*
X97789927Y-100917027D01*
X97818137Y-100893876D01*
X97850319Y-100876674D01*
X97885238Y-100866081D01*
X97927695Y-100861900D01*
X100293905Y-100861900D01*
X100336362Y-100866081D01*
G37*
G36*
X92714474Y-98057465D02*
G01*
X92752167Y-98068899D01*
X92786903Y-98087466D01*
X92817348Y-98112452D01*
X92842334Y-98142897D01*
X92860901Y-98177633D01*
X92872335Y-98215326D01*
X92876800Y-98260661D01*
X92876800Y-99097339D01*
X92872335Y-99142674D01*
X92860901Y-99180367D01*
X92842334Y-99215103D01*
X92817348Y-99245548D01*
X92786903Y-99270534D01*
X92752167Y-99289101D01*
X92714474Y-99300535D01*
X92669139Y-99305000D01*
X91582461Y-99305000D01*
X91537126Y-99300535D01*
X91499433Y-99289101D01*
X91464697Y-99270534D01*
X91434252Y-99245548D01*
X91409266Y-99215103D01*
X91390699Y-99180367D01*
X91379265Y-99142674D01*
X91374800Y-99097339D01*
X91374800Y-98260661D01*
X91379265Y-98215326D01*
X91390699Y-98177633D01*
X91409266Y-98142897D01*
X91434252Y-98112452D01*
X91464697Y-98087466D01*
X91499433Y-98068899D01*
X91537126Y-98057465D01*
X91582461Y-98053000D01*
X92669139Y-98053000D01*
X92714474Y-98057465D01*
G37*
G36*
X84713474Y-98057465D02*
G01*
X84751167Y-98068899D01*
X84785903Y-98087466D01*
X84816348Y-98112452D01*
X84841334Y-98142897D01*
X84859901Y-98177633D01*
X84871335Y-98215326D01*
X84875800Y-98260661D01*
X84875800Y-99097339D01*
X84871335Y-99142674D01*
X84859901Y-99180367D01*
X84841334Y-99215103D01*
X84816348Y-99245548D01*
X84785903Y-99270534D01*
X84751167Y-99289101D01*
X84713474Y-99300535D01*
X84668139Y-99305000D01*
X83581461Y-99305000D01*
X83536126Y-99300535D01*
X83498433Y-99289101D01*
X83463697Y-99270534D01*
X83433252Y-99245548D01*
X83408266Y-99215103D01*
X83389699Y-99180367D01*
X83378265Y-99142674D01*
X83373800Y-99097339D01*
X83373800Y-98260661D01*
X83378265Y-98215326D01*
X83389699Y-98177633D01*
X83408266Y-98142897D01*
X83433252Y-98112452D01*
X83463697Y-98087466D01*
X83498433Y-98068899D01*
X83536126Y-98057465D01*
X83581461Y-98053000D01*
X84668139Y-98053000D01*
X84713474Y-98057465D01*
G37*
G36*
X99699474Y-97930465D02*
G01*
X99737167Y-97941899D01*
X99771903Y-97960466D01*
X99802348Y-97985452D01*
X99827334Y-98015897D01*
X99845901Y-98050633D01*
X99857335Y-98088326D01*
X99861800Y-98133661D01*
X99861800Y-98970339D01*
X99857335Y-99015674D01*
X99845901Y-99053367D01*
X99827334Y-99088103D01*
X99802348Y-99118548D01*
X99771903Y-99143534D01*
X99737167Y-99162101D01*
X99699474Y-99173535D01*
X99654139Y-99178000D01*
X98567461Y-99178000D01*
X98522126Y-99173535D01*
X98484433Y-99162101D01*
X98449697Y-99143534D01*
X98419252Y-99118548D01*
X98394266Y-99088103D01*
X98375699Y-99053367D01*
X98364265Y-99015674D01*
X98359800Y-98970339D01*
X98359800Y-98133661D01*
X98364265Y-98088326D01*
X98375699Y-98050633D01*
X98394266Y-98015897D01*
X98419252Y-97985452D01*
X98449697Y-97960466D01*
X98484433Y-97941899D01*
X98522126Y-97930465D01*
X98567461Y-97926000D01*
X99654139Y-97926000D01*
X99699474Y-97930465D01*
G37*
G36*
X131130200Y-99043400D02*
G01*
X130388200Y-99043400D01*
X130388200Y-96941400D01*
X131130200Y-96941400D01*
X131130200Y-99043400D01*
G37*
G36*
X110226000Y-99043400D02*
G01*
X109484000Y-99043400D01*
X109484000Y-96941400D01*
X110226000Y-96941400D01*
X110226000Y-99043400D01*
G37*
G36*
X120081200Y-99043400D02*
G01*
X119339200Y-99043400D01*
X119339200Y-96941400D01*
X120081200Y-96941400D01*
X120081200Y-99043400D01*
G37*
G36*
X133670200Y-99043400D02*
G01*
X132928200Y-99043400D01*
X132928200Y-96941400D01*
X133670200Y-96941400D01*
X133670200Y-99043400D01*
G37*
G36*
X107686000Y-99043400D02*
G01*
X106944000Y-99043400D01*
X106944000Y-96941400D01*
X107686000Y-96941400D01*
X107686000Y-99043400D01*
G37*
G36*
X122621200Y-99043400D02*
G01*
X121879200Y-99043400D01*
X121879200Y-96941400D01*
X122621200Y-96941400D01*
X122621200Y-99043400D01*
G37*
G36*
X73265600Y-97624200D02*
G01*
X71463600Y-97624200D01*
X71463600Y-95822200D01*
X73265600Y-95822200D01*
X73265600Y-97624200D01*
G37*
G36*
X92714474Y-96007465D02*
G01*
X92752167Y-96018899D01*
X92786903Y-96037466D01*
X92817348Y-96062452D01*
X92842334Y-96092897D01*
X92860901Y-96127633D01*
X92872335Y-96165326D01*
X92876800Y-96210661D01*
X92876800Y-97047339D01*
X92872335Y-97092674D01*
X92860901Y-97130367D01*
X92842334Y-97165103D01*
X92817348Y-97195548D01*
X92786903Y-97220534D01*
X92752167Y-97239101D01*
X92714474Y-97250535D01*
X92669139Y-97255000D01*
X91582461Y-97255000D01*
X91537126Y-97250535D01*
X91499433Y-97239101D01*
X91464697Y-97220534D01*
X91434252Y-97195548D01*
X91409266Y-97165103D01*
X91390699Y-97130367D01*
X91379265Y-97092674D01*
X91374800Y-97047339D01*
X91374800Y-96210661D01*
X91379265Y-96165326D01*
X91390699Y-96127633D01*
X91409266Y-96092897D01*
X91434252Y-96062452D01*
X91464697Y-96037466D01*
X91499433Y-96018899D01*
X91537126Y-96007465D01*
X91582461Y-96003000D01*
X92669139Y-96003000D01*
X92714474Y-96007465D01*
G37*
G36*
X84713474Y-96007465D02*
G01*
X84751167Y-96018899D01*
X84785903Y-96037466D01*
X84816348Y-96062452D01*
X84841334Y-96092897D01*
X84859901Y-96127633D01*
X84871335Y-96165326D01*
X84875800Y-96210661D01*
X84875800Y-97047339D01*
X84871335Y-97092674D01*
X84859901Y-97130367D01*
X84841334Y-97165103D01*
X84816348Y-97195548D01*
X84785903Y-97220534D01*
X84751167Y-97239101D01*
X84713474Y-97250535D01*
X84668139Y-97255000D01*
X83581461Y-97255000D01*
X83536126Y-97250535D01*
X83498433Y-97239101D01*
X83463697Y-97220534D01*
X83433252Y-97195548D01*
X83408266Y-97165103D01*
X83389699Y-97130367D01*
X83378265Y-97092674D01*
X83373800Y-97047339D01*
X83373800Y-96210661D01*
X83378265Y-96165326D01*
X83389699Y-96127633D01*
X83408266Y-96092897D01*
X83433252Y-96062452D01*
X83463697Y-96037466D01*
X83498433Y-96018899D01*
X83536126Y-96007465D01*
X83581461Y-96003000D01*
X84668139Y-96003000D01*
X84713474Y-96007465D01*
G37*
G36*
X99699474Y-95880465D02*
G01*
X99737167Y-95891899D01*
X99771903Y-95910466D01*
X99802348Y-95935452D01*
X99827334Y-95965897D01*
X99845901Y-96000633D01*
X99857335Y-96038326D01*
X99861800Y-96083661D01*
X99861800Y-96920339D01*
X99857335Y-96965674D01*
X99845901Y-97003367D01*
X99827334Y-97038103D01*
X99802348Y-97068548D01*
X99771903Y-97093534D01*
X99737167Y-97112101D01*
X99699474Y-97123535D01*
X99654139Y-97128000D01*
X98567461Y-97128000D01*
X98522126Y-97123535D01*
X98484433Y-97112101D01*
X98449697Y-97093534D01*
X98419252Y-97068548D01*
X98394266Y-97038103D01*
X98375699Y-97003367D01*
X98364265Y-96965674D01*
X98359800Y-96920339D01*
X98359800Y-96083661D01*
X98364265Y-96038326D01*
X98375699Y-96000633D01*
X98394266Y-95965897D01*
X98419252Y-95935452D01*
X98449697Y-95910466D01*
X98484433Y-95891899D01*
X98522126Y-95880465D01*
X98567461Y-95876000D01*
X99654139Y-95876000D01*
X99699474Y-95880465D01*
G37*
G36*
X162760134Y-93978071D02*
G01*
X162790077Y-93987154D01*
X162817665Y-94001900D01*
X162841851Y-94021749D01*
X162861700Y-94045935D01*
X162876446Y-94073523D01*
X162885529Y-94103466D01*
X162889200Y-94140740D01*
X162889200Y-96410060D01*
X162885529Y-96447334D01*
X162876446Y-96477277D01*
X162861700Y-96504865D01*
X162841851Y-96529051D01*
X162817665Y-96548900D01*
X162790077Y-96563646D01*
X162760134Y-96572729D01*
X162722860Y-96576400D01*
X158553540Y-96576400D01*
X158516266Y-96572729D01*
X158486323Y-96563646D01*
X158458735Y-96548900D01*
X158434549Y-96529051D01*
X158414700Y-96504865D01*
X158399954Y-96477277D01*
X158390871Y-96447334D01*
X158387200Y-96410060D01*
X158387200Y-94140740D01*
X158390871Y-94103466D01*
X158399954Y-94073523D01*
X158414700Y-94045935D01*
X158434549Y-94021749D01*
X158458735Y-94001900D01*
X158486323Y-93987154D01*
X158516266Y-93978071D01*
X158553540Y-93974400D01*
X162722860Y-93974400D01*
X162760134Y-93978071D01*
G37*
G36*
X155360134Y-93978071D02*
G01*
X155390077Y-93987154D01*
X155417665Y-94001900D01*
X155441851Y-94021749D01*
X155461700Y-94045935D01*
X155476446Y-94073523D01*
X155485529Y-94103466D01*
X155489200Y-94140740D01*
X155489200Y-96410060D01*
X155485529Y-96447334D01*
X155476446Y-96477277D01*
X155461700Y-96504865D01*
X155441851Y-96529051D01*
X155417665Y-96548900D01*
X155390077Y-96563646D01*
X155360134Y-96572729D01*
X155322860Y-96576400D01*
X151153540Y-96576400D01*
X151116266Y-96572729D01*
X151086323Y-96563646D01*
X151058735Y-96548900D01*
X151034549Y-96529051D01*
X151014700Y-96504865D01*
X150999954Y-96477277D01*
X150990871Y-96447334D01*
X150987200Y-96410060D01*
X150987200Y-94140740D01*
X150990871Y-94103466D01*
X150999954Y-94073523D01*
X151014700Y-94045935D01*
X151034549Y-94021749D01*
X151058735Y-94001900D01*
X151086323Y-93987154D01*
X151116266Y-93978071D01*
X151153540Y-93974400D01*
X155322860Y-93974400D01*
X155360134Y-93978071D01*
G37*
G36*
X141939674Y-94519465D02*
G01*
X141977367Y-94530899D01*
X142012103Y-94549466D01*
X142042548Y-94574452D01*
X142067534Y-94604897D01*
X142086101Y-94639633D01*
X142097535Y-94677326D01*
X142102000Y-94722661D01*
X142102000Y-95559339D01*
X142097535Y-95604674D01*
X142086101Y-95642367D01*
X142067534Y-95677103D01*
X142042548Y-95707548D01*
X142012103Y-95732534D01*
X141977367Y-95751101D01*
X141939674Y-95762535D01*
X141894339Y-95767000D01*
X140807661Y-95767000D01*
X140762326Y-95762535D01*
X140724633Y-95751101D01*
X140689897Y-95732534D01*
X140659452Y-95707548D01*
X140634466Y-95677103D01*
X140615899Y-95642367D01*
X140604465Y-95604674D01*
X140600000Y-95559339D01*
X140600000Y-94722661D01*
X140604465Y-94677326D01*
X140615899Y-94639633D01*
X140634466Y-94604897D01*
X140659452Y-94574452D01*
X140689897Y-94549466D01*
X140724633Y-94530899D01*
X140762326Y-94519465D01*
X140807661Y-94515000D01*
X141894339Y-94515000D01*
X141939674Y-94519465D01*
G37*
G36*
X72478112Y-93287127D02*
G01*
X72627412Y-93316824D01*
X72791384Y-93384744D01*
X72938954Y-93483347D01*
X73064453Y-93608846D01*
X73163056Y-93756416D01*
X73230976Y-93920388D01*
X73265600Y-94094459D01*
X73265600Y-94271941D01*
X73230976Y-94446012D01*
X73163056Y-94609984D01*
X73064453Y-94757554D01*
X72938954Y-94883053D01*
X72791384Y-94981656D01*
X72627412Y-95049576D01*
X72478112Y-95079273D01*
X72453342Y-95084200D01*
X72275858Y-95084200D01*
X72251088Y-95079273D01*
X72101788Y-95049576D01*
X71937816Y-94981656D01*
X71790246Y-94883053D01*
X71664747Y-94757554D01*
X71566144Y-94609984D01*
X71498224Y-94446012D01*
X71463600Y-94271941D01*
X71463600Y-94094459D01*
X71498224Y-93920388D01*
X71566144Y-93756416D01*
X71664747Y-93608846D01*
X71790246Y-93483347D01*
X71937816Y-93384744D01*
X72101788Y-93316824D01*
X72251088Y-93287127D01*
X72275858Y-93282200D01*
X72453342Y-93282200D01*
X72478112Y-93287127D01*
G37*
G36*
X141939674Y-92469465D02*
G01*
X141977367Y-92480899D01*
X142012103Y-92499466D01*
X142042548Y-92524452D01*
X142067534Y-92554897D01*
X142086101Y-92589633D01*
X142097535Y-92627326D01*
X142102000Y-92672661D01*
X142102000Y-93509339D01*
X142097535Y-93554674D01*
X142086101Y-93592367D01*
X142067534Y-93627103D01*
X142042548Y-93657548D01*
X142012103Y-93682534D01*
X141977367Y-93701101D01*
X141939674Y-93712535D01*
X141894339Y-93717000D01*
X140807661Y-93717000D01*
X140762326Y-93712535D01*
X140724633Y-93701101D01*
X140689897Y-93682534D01*
X140659452Y-93657548D01*
X140634466Y-93627103D01*
X140615899Y-93592367D01*
X140604465Y-93554674D01*
X140600000Y-93509339D01*
X140600000Y-92672661D01*
X140604465Y-92627326D01*
X140615899Y-92589633D01*
X140634466Y-92554897D01*
X140659452Y-92524452D01*
X140689897Y-92499466D01*
X140724633Y-92480899D01*
X140762326Y-92469465D01*
X140807661Y-92465000D01*
X141894339Y-92465000D01*
X141939674Y-92469465D01*
G37*
G36*
X72478112Y-90747127D02*
G01*
X72627412Y-90776824D01*
X72791384Y-90844744D01*
X72938954Y-90943347D01*
X73064453Y-91068846D01*
X73163056Y-91216416D01*
X73230976Y-91380388D01*
X73265600Y-91554459D01*
X73265600Y-91731941D01*
X73230976Y-91906012D01*
X73163056Y-92069984D01*
X73064453Y-92217554D01*
X72938954Y-92343053D01*
X72791384Y-92441656D01*
X72627412Y-92509576D01*
X72478112Y-92539273D01*
X72453342Y-92544200D01*
X72275858Y-92544200D01*
X72251088Y-92539273D01*
X72101788Y-92509576D01*
X71937816Y-92441656D01*
X71790246Y-92343053D01*
X71664747Y-92217554D01*
X71566144Y-92069984D01*
X71498224Y-91906012D01*
X71463600Y-91731941D01*
X71463600Y-91554459D01*
X71498224Y-91380388D01*
X71566144Y-91216416D01*
X71664747Y-91068846D01*
X71790246Y-90943347D01*
X71937816Y-90844744D01*
X72101788Y-90776824D01*
X72251088Y-90747127D01*
X72275858Y-90742200D01*
X72453342Y-90742200D01*
X72478112Y-90747127D01*
G37*
G36*
X141920499Y-90918445D02*
G01*
X141957995Y-90929820D01*
X141992554Y-90948292D01*
X142022847Y-90973153D01*
X142047708Y-91003446D01*
X142066180Y-91038005D01*
X142077555Y-91075501D01*
X142082000Y-91120638D01*
X142082000Y-91759362D01*
X142077555Y-91804499D01*
X142066180Y-91841995D01*
X142047708Y-91876554D01*
X142022847Y-91906847D01*
X141992554Y-91931708D01*
X141957995Y-91950180D01*
X141920499Y-91961555D01*
X141875362Y-91966000D01*
X141136638Y-91966000D01*
X141091501Y-91961555D01*
X141054005Y-91950180D01*
X141019446Y-91931708D01*
X140989153Y-91906847D01*
X140964292Y-91876554D01*
X140945820Y-91841995D01*
X140934445Y-91804499D01*
X140930000Y-91759362D01*
X140930000Y-91120638D01*
X140934445Y-91075501D01*
X140945820Y-91038005D01*
X140964292Y-91003446D01*
X140989153Y-90973153D01*
X141019446Y-90948292D01*
X141054005Y-90929820D01*
X141091501Y-90918445D01*
X141136638Y-90914000D01*
X141875362Y-90914000D01*
X141920499Y-90918445D01*
G37*
G36*
X143670499Y-90918445D02*
G01*
X143707995Y-90929820D01*
X143742554Y-90948292D01*
X143772847Y-90973153D01*
X143797708Y-91003446D01*
X143816180Y-91038005D01*
X143827555Y-91075501D01*
X143832000Y-91120638D01*
X143832000Y-91759362D01*
X143827555Y-91804499D01*
X143816180Y-91841995D01*
X143797708Y-91876554D01*
X143772847Y-91906847D01*
X143742554Y-91931708D01*
X143707995Y-91950180D01*
X143670499Y-91961555D01*
X143625362Y-91966000D01*
X142886638Y-91966000D01*
X142841501Y-91961555D01*
X142804005Y-91950180D01*
X142769446Y-91931708D01*
X142739153Y-91906847D01*
X142714292Y-91876554D01*
X142695820Y-91841995D01*
X142684445Y-91804499D01*
X142680000Y-91759362D01*
X142680000Y-91120638D01*
X142684445Y-91075501D01*
X142695820Y-91038005D01*
X142714292Y-91003446D01*
X142739153Y-90973153D01*
X142769446Y-90948292D01*
X142804005Y-90929820D01*
X142841501Y-90918445D01*
X142886638Y-90914000D01*
X143625362Y-90914000D01*
X143670499Y-90918445D01*
G37*
G36*
X116947099Y-89343645D02*
G01*
X116984595Y-89355020D01*
X117019154Y-89373492D01*
X117049447Y-89398353D01*
X117074308Y-89428646D01*
X117092780Y-89463205D01*
X117104155Y-89500701D01*
X117108600Y-89545838D01*
X117108600Y-90184562D01*
X117104155Y-90229699D01*
X117092780Y-90267195D01*
X117074308Y-90301754D01*
X117049447Y-90332047D01*
X117019154Y-90356908D01*
X116984595Y-90375380D01*
X116947099Y-90386755D01*
X116901962Y-90391200D01*
X116163238Y-90391200D01*
X116118101Y-90386755D01*
X116080605Y-90375380D01*
X116046046Y-90356908D01*
X116015753Y-90332047D01*
X115990892Y-90301754D01*
X115972420Y-90267195D01*
X115961045Y-90229699D01*
X115956600Y-90184562D01*
X115956600Y-89545838D01*
X115961045Y-89500701D01*
X115972420Y-89463205D01*
X115990892Y-89428646D01*
X116015753Y-89398353D01*
X116046046Y-89373492D01*
X116080605Y-89355020D01*
X116118101Y-89343645D01*
X116163238Y-89339200D01*
X116901962Y-89339200D01*
X116947099Y-89343645D01*
G37*
G36*
X113518099Y-89343645D02*
G01*
X113555595Y-89355020D01*
X113590154Y-89373492D01*
X113620447Y-89398353D01*
X113645308Y-89428646D01*
X113663780Y-89463205D01*
X113675155Y-89500701D01*
X113679600Y-89545838D01*
X113679600Y-90184562D01*
X113675155Y-90229699D01*
X113663780Y-90267195D01*
X113645308Y-90301754D01*
X113620447Y-90332047D01*
X113590154Y-90356908D01*
X113555595Y-90375380D01*
X113518099Y-90386755D01*
X113472962Y-90391200D01*
X112734238Y-90391200D01*
X112689101Y-90386755D01*
X112651605Y-90375380D01*
X112617046Y-90356908D01*
X112586753Y-90332047D01*
X112561892Y-90301754D01*
X112543420Y-90267195D01*
X112532045Y-90229699D01*
X112527600Y-90184562D01*
X112527600Y-89545838D01*
X112532045Y-89500701D01*
X112543420Y-89463205D01*
X112561892Y-89428646D01*
X112586753Y-89398353D01*
X112617046Y-89373492D01*
X112651605Y-89355020D01*
X112689101Y-89343645D01*
X112734238Y-89339200D01*
X113472962Y-89339200D01*
X113518099Y-89343645D01*
G37*
G36*
X111768099Y-89343645D02*
G01*
X111805595Y-89355020D01*
X111840154Y-89373492D01*
X111870447Y-89398353D01*
X111895308Y-89428646D01*
X111913780Y-89463205D01*
X111925155Y-89500701D01*
X111929600Y-89545838D01*
X111929600Y-90184562D01*
X111925155Y-90229699D01*
X111913780Y-90267195D01*
X111895308Y-90301754D01*
X111870447Y-90332047D01*
X111840154Y-90356908D01*
X111805595Y-90375380D01*
X111768099Y-90386755D01*
X111722962Y-90391200D01*
X110984238Y-90391200D01*
X110939101Y-90386755D01*
X110901605Y-90375380D01*
X110867046Y-90356908D01*
X110836753Y-90332047D01*
X110811892Y-90301754D01*
X110793420Y-90267195D01*
X110782045Y-90229699D01*
X110777600Y-90184562D01*
X110777600Y-89545838D01*
X110782045Y-89500701D01*
X110793420Y-89463205D01*
X110811892Y-89428646D01*
X110836753Y-89398353D01*
X110867046Y-89373492D01*
X110901605Y-89355020D01*
X110939101Y-89343645D01*
X110984238Y-89339200D01*
X111722962Y-89339200D01*
X111768099Y-89343645D01*
G37*
G36*
X115197099Y-89343645D02*
G01*
X115234595Y-89355020D01*
X115269154Y-89373492D01*
X115299447Y-89398353D01*
X115324308Y-89428646D01*
X115342780Y-89463205D01*
X115354155Y-89500701D01*
X115358600Y-89545838D01*
X115358600Y-90184562D01*
X115354155Y-90229699D01*
X115342780Y-90267195D01*
X115324308Y-90301754D01*
X115299447Y-90332047D01*
X115269154Y-90356908D01*
X115234595Y-90375380D01*
X115197099Y-90386755D01*
X115151962Y-90391200D01*
X114413238Y-90391200D01*
X114368101Y-90386755D01*
X114330605Y-90375380D01*
X114296046Y-90356908D01*
X114265753Y-90332047D01*
X114240892Y-90301754D01*
X114222420Y-90267195D01*
X114211045Y-90229699D01*
X114206600Y-90184562D01*
X114206600Y-89545838D01*
X114211045Y-89500701D01*
X114222420Y-89463205D01*
X114240892Y-89428646D01*
X114265753Y-89398353D01*
X114296046Y-89373492D01*
X114330605Y-89355020D01*
X114368101Y-89343645D01*
X114413238Y-89339200D01*
X115151962Y-89339200D01*
X115197099Y-89343645D01*
G37*
G36*
X114935600Y-88560200D02*
G01*
X113733600Y-88560200D01*
X113733600Y-85958200D01*
X114935600Y-85958200D01*
X114935600Y-88560200D01*
G37*
G36*
X112335600Y-88560200D02*
G01*
X111133600Y-88560200D01*
X111133600Y-87858200D01*
X112335600Y-87858200D01*
X112335600Y-88560200D01*
G37*
G36*
X138539699Y-87362445D02*
G01*
X138577195Y-87373820D01*
X138611754Y-87392292D01*
X138642047Y-87417153D01*
X138666908Y-87447446D01*
X138685380Y-87482005D01*
X138696755Y-87519501D01*
X138701200Y-87564638D01*
X138701200Y-88203362D01*
X138696755Y-88248499D01*
X138685380Y-88285995D01*
X138666908Y-88320554D01*
X138642047Y-88350847D01*
X138611754Y-88375708D01*
X138577195Y-88394180D01*
X138539699Y-88405555D01*
X138494562Y-88410000D01*
X137755838Y-88410000D01*
X137710701Y-88405555D01*
X137673205Y-88394180D01*
X137638646Y-88375708D01*
X137608353Y-88350847D01*
X137583492Y-88320554D01*
X137565020Y-88285995D01*
X137553645Y-88248499D01*
X137549200Y-88203362D01*
X137549200Y-87564638D01*
X137553645Y-87519501D01*
X137565020Y-87482005D01*
X137583492Y-87447446D01*
X137608353Y-87417153D01*
X137638646Y-87392292D01*
X137673205Y-87373820D01*
X137710701Y-87362445D01*
X137755838Y-87358000D01*
X138494562Y-87358000D01*
X138539699Y-87362445D01*
G37*
G36*
X136789699Y-87362445D02*
G01*
X136827195Y-87373820D01*
X136861754Y-87392292D01*
X136892047Y-87417153D01*
X136916908Y-87447446D01*
X136935380Y-87482005D01*
X136946755Y-87519501D01*
X136951200Y-87564638D01*
X136951200Y-88203362D01*
X136946755Y-88248499D01*
X136935380Y-88285995D01*
X136916908Y-88320554D01*
X136892047Y-88350847D01*
X136861754Y-88375708D01*
X136827195Y-88394180D01*
X136789699Y-88405555D01*
X136744562Y-88410000D01*
X136005838Y-88410000D01*
X135960701Y-88405555D01*
X135923205Y-88394180D01*
X135888646Y-88375708D01*
X135858353Y-88350847D01*
X135833492Y-88320554D01*
X135815020Y-88285995D01*
X135803645Y-88248499D01*
X135799200Y-88203362D01*
X135799200Y-87564638D01*
X135803645Y-87519501D01*
X135815020Y-87482005D01*
X135833492Y-87447446D01*
X135858353Y-87417153D01*
X135888646Y-87392292D01*
X135923205Y-87373820D01*
X135960701Y-87362445D01*
X136005838Y-87358000D01*
X136744562Y-87358000D01*
X136789699Y-87362445D01*
G37*
G36*
X155360134Y-84834071D02*
G01*
X155390077Y-84843154D01*
X155417665Y-84857900D01*
X155441851Y-84877749D01*
X155461700Y-84901935D01*
X155476446Y-84929523D01*
X155485529Y-84959466D01*
X155489200Y-84996740D01*
X155489200Y-87266060D01*
X155485529Y-87303334D01*
X155476446Y-87333277D01*
X155461700Y-87360865D01*
X155441851Y-87385051D01*
X155417665Y-87404900D01*
X155390077Y-87419646D01*
X155360134Y-87428729D01*
X155322860Y-87432400D01*
X151153540Y-87432400D01*
X151116266Y-87428729D01*
X151086323Y-87419646D01*
X151058735Y-87404900D01*
X151034549Y-87385051D01*
X151014700Y-87360865D01*
X150999954Y-87333277D01*
X150990871Y-87303334D01*
X150987200Y-87266060D01*
X150987200Y-84996740D01*
X150990871Y-84959466D01*
X150999954Y-84929523D01*
X151014700Y-84901935D01*
X151034549Y-84877749D01*
X151058735Y-84857900D01*
X151086323Y-84843154D01*
X151116266Y-84834071D01*
X151153540Y-84830400D01*
X155322860Y-84830400D01*
X155360134Y-84834071D01*
G37*
G36*
X162760134Y-84834071D02*
G01*
X162790077Y-84843154D01*
X162817665Y-84857900D01*
X162841851Y-84877749D01*
X162861700Y-84901935D01*
X162876446Y-84929523D01*
X162885529Y-84959466D01*
X162889200Y-84996740D01*
X162889200Y-87266060D01*
X162885529Y-87303334D01*
X162876446Y-87333277D01*
X162861700Y-87360865D01*
X162841851Y-87385051D01*
X162817665Y-87404900D01*
X162790077Y-87419646D01*
X162760134Y-87428729D01*
X162722860Y-87432400D01*
X158553540Y-87432400D01*
X158516266Y-87428729D01*
X158486323Y-87419646D01*
X158458735Y-87404900D01*
X158434549Y-87385051D01*
X158414700Y-87360865D01*
X158399954Y-87333277D01*
X158390871Y-87303334D01*
X158387200Y-87266060D01*
X158387200Y-84996740D01*
X158390871Y-84959466D01*
X158399954Y-84929523D01*
X158414700Y-84901935D01*
X158434549Y-84877749D01*
X158458735Y-84857900D01*
X158486323Y-84843154D01*
X158516266Y-84834071D01*
X158553540Y-84830400D01*
X162722860Y-84830400D01*
X162760134Y-84834071D01*
G37*
G36*
X100442299Y-86244845D02*
G01*
X100479795Y-86256220D01*
X100514354Y-86274692D01*
X100544647Y-86299553D01*
X100569508Y-86329846D01*
X100587980Y-86364405D01*
X100599355Y-86401901D01*
X100603800Y-86447038D01*
X100603800Y-87085762D01*
X100599355Y-87130899D01*
X100587980Y-87168395D01*
X100569508Y-87202954D01*
X100544647Y-87233247D01*
X100514354Y-87258108D01*
X100479795Y-87276580D01*
X100442299Y-87287955D01*
X100397162Y-87292400D01*
X99658438Y-87292400D01*
X99613301Y-87287955D01*
X99575805Y-87276580D01*
X99541246Y-87258108D01*
X99510953Y-87233247D01*
X99486092Y-87202954D01*
X99467620Y-87168395D01*
X99456245Y-87130899D01*
X99451800Y-87085762D01*
X99451800Y-86447038D01*
X99456245Y-86401901D01*
X99467620Y-86364405D01*
X99486092Y-86329846D01*
X99510953Y-86299553D01*
X99541246Y-86274692D01*
X99575805Y-86256220D01*
X99613301Y-86244845D01*
X99658438Y-86240400D01*
X100397162Y-86240400D01*
X100442299Y-86244845D01*
G37*
G36*
X102192299Y-86244845D02*
G01*
X102229795Y-86256220D01*
X102264354Y-86274692D01*
X102294647Y-86299553D01*
X102319508Y-86329846D01*
X102337980Y-86364405D01*
X102349355Y-86401901D01*
X102353800Y-86447038D01*
X102353800Y-87085762D01*
X102349355Y-87130899D01*
X102337980Y-87168395D01*
X102319508Y-87202954D01*
X102294647Y-87233247D01*
X102264354Y-87258108D01*
X102229795Y-87276580D01*
X102192299Y-87287955D01*
X102147162Y-87292400D01*
X101408438Y-87292400D01*
X101363301Y-87287955D01*
X101325805Y-87276580D01*
X101291246Y-87258108D01*
X101260953Y-87233247D01*
X101236092Y-87202954D01*
X101217620Y-87168395D01*
X101206245Y-87130899D01*
X101201800Y-87085762D01*
X101201800Y-86447038D01*
X101206245Y-86401901D01*
X101217620Y-86364405D01*
X101236092Y-86329846D01*
X101260953Y-86299553D01*
X101291246Y-86274692D01*
X101325805Y-86256220D01*
X101363301Y-86244845D01*
X101408438Y-86240400D01*
X102147162Y-86240400D01*
X102192299Y-86244845D01*
G37*
G36*
X112335600Y-86660200D02*
G01*
X111133600Y-86660200D01*
X111133600Y-85958200D01*
X112335600Y-85958200D01*
X112335600Y-86660200D01*
G37*
G36*
X108180800Y-85521400D02*
G01*
X101978800Y-85521400D01*
X101978800Y-84219400D01*
X108180800Y-84219400D01*
X108180800Y-85521400D01*
G37*
G36*
X140190699Y-84085845D02*
G01*
X140228195Y-84097220D01*
X140262754Y-84115692D01*
X140293047Y-84140553D01*
X140317908Y-84170846D01*
X140336380Y-84205405D01*
X140347755Y-84242901D01*
X140352200Y-84288038D01*
X140352200Y-84926762D01*
X140347755Y-84971899D01*
X140336380Y-85009395D01*
X140317908Y-85043954D01*
X140293047Y-85074247D01*
X140262754Y-85099108D01*
X140228195Y-85117580D01*
X140190699Y-85128955D01*
X140145562Y-85133400D01*
X139406838Y-85133400D01*
X139361701Y-85128955D01*
X139324205Y-85117580D01*
X139289646Y-85099108D01*
X139259353Y-85074247D01*
X139234492Y-85043954D01*
X139216020Y-85009395D01*
X139204645Y-84971899D01*
X139200200Y-84926762D01*
X139200200Y-84288038D01*
X139204645Y-84242901D01*
X139216020Y-84205405D01*
X139234492Y-84170846D01*
X139259353Y-84140553D01*
X139289646Y-84115692D01*
X139324205Y-84097220D01*
X139361701Y-84085845D01*
X139406838Y-84081400D01*
X140145562Y-84081400D01*
X140190699Y-84085845D01*
G37*
G36*
X141940699Y-84085845D02*
G01*
X141978195Y-84097220D01*
X142012754Y-84115692D01*
X142043047Y-84140553D01*
X142067908Y-84170846D01*
X142086380Y-84205405D01*
X142097755Y-84242901D01*
X142102200Y-84288038D01*
X142102200Y-84926762D01*
X142097755Y-84971899D01*
X142086380Y-85009395D01*
X142067908Y-85043954D01*
X142043047Y-85074247D01*
X142012754Y-85099108D01*
X141978195Y-85117580D01*
X141940699Y-85128955D01*
X141895562Y-85133400D01*
X141156838Y-85133400D01*
X141111701Y-85128955D01*
X141074205Y-85117580D01*
X141039646Y-85099108D01*
X141009353Y-85074247D01*
X140984492Y-85043954D01*
X140966020Y-85009395D01*
X140954645Y-84971899D01*
X140950200Y-84926762D01*
X140950200Y-84288038D01*
X140954645Y-84242901D01*
X140966020Y-84205405D01*
X140984492Y-84170846D01*
X141009353Y-84140553D01*
X141039646Y-84115692D01*
X141074205Y-84097220D01*
X141111701Y-84085845D01*
X141156838Y-84081400D01*
X141895562Y-84081400D01*
X141940699Y-84085845D01*
G37*
G36*
X138539699Y-84085845D02*
G01*
X138577195Y-84097220D01*
X138611754Y-84115692D01*
X138642047Y-84140553D01*
X138666908Y-84170846D01*
X138685380Y-84205405D01*
X138696755Y-84242901D01*
X138701200Y-84288038D01*
X138701200Y-84926762D01*
X138696755Y-84971899D01*
X138685380Y-85009395D01*
X138666908Y-85043954D01*
X138642047Y-85074247D01*
X138611754Y-85099108D01*
X138577195Y-85117580D01*
X138539699Y-85128955D01*
X138494562Y-85133400D01*
X137755838Y-85133400D01*
X137710701Y-85128955D01*
X137673205Y-85117580D01*
X137638646Y-85099108D01*
X137608353Y-85074247D01*
X137583492Y-85043954D01*
X137565020Y-85009395D01*
X137553645Y-84971899D01*
X137549200Y-84926762D01*
X137549200Y-84288038D01*
X137553645Y-84242901D01*
X137565020Y-84205405D01*
X137583492Y-84170846D01*
X137608353Y-84140553D01*
X137638646Y-84115692D01*
X137673205Y-84097220D01*
X137710701Y-84085845D01*
X137755838Y-84081400D01*
X138494562Y-84081400D01*
X138539699Y-84085845D01*
G37*
G36*
X136789699Y-84085845D02*
G01*
X136827195Y-84097220D01*
X136861754Y-84115692D01*
X136892047Y-84140553D01*
X136916908Y-84170846D01*
X136935380Y-84205405D01*
X136946755Y-84242901D01*
X136951200Y-84288038D01*
X136951200Y-84926762D01*
X136946755Y-84971899D01*
X136935380Y-85009395D01*
X136916908Y-85043954D01*
X136892047Y-85074247D01*
X136861754Y-85099108D01*
X136827195Y-85117580D01*
X136789699Y-85128955D01*
X136744562Y-85133400D01*
X136005838Y-85133400D01*
X135960701Y-85128955D01*
X135923205Y-85117580D01*
X135888646Y-85099108D01*
X135858353Y-85074247D01*
X135833492Y-85043954D01*
X135815020Y-85009395D01*
X135803645Y-84971899D01*
X135799200Y-84926762D01*
X135799200Y-84288038D01*
X135803645Y-84242901D01*
X135815020Y-84205405D01*
X135833492Y-84170846D01*
X135858353Y-84140553D01*
X135888646Y-84115692D01*
X135923205Y-84097220D01*
X135960701Y-84085845D01*
X136005838Y-84081400D01*
X136744562Y-84081400D01*
X136789699Y-84085845D01*
G37*
G36*
X109930800Y-83771400D02*
G01*
X108628800Y-83771400D01*
X108628800Y-77569400D01*
X109930800Y-77569400D01*
X109930800Y-83771400D01*
G37*
G36*
X101530800Y-83771400D02*
G01*
X100228800Y-83771400D01*
X100228800Y-77569400D01*
X101530800Y-77569400D01*
X101530800Y-83771400D01*
G37*
G36*
X80726800Y-83434400D02*
G01*
X79074800Y-83434400D01*
X79074800Y-82732400D01*
X80726800Y-82732400D01*
X80726800Y-83434400D01*
G37*
G36*
X86126800Y-83434400D02*
G01*
X84474800Y-83434400D01*
X84474800Y-82732400D01*
X86126800Y-82732400D01*
X86126800Y-83434400D01*
G37*
G36*
X136919200Y-83307400D02*
G01*
X135267200Y-83307400D01*
X135267200Y-82605400D01*
X136919200Y-82605400D01*
X136919200Y-83307400D01*
G37*
G36*
X142319200Y-83307400D02*
G01*
X140667200Y-83307400D01*
X140667200Y-82605400D01*
X142319200Y-82605400D01*
X142319200Y-83307400D01*
G37*
G36*
X73036594Y-80733555D02*
G01*
X73142950Y-80754711D01*
X73224207Y-80788369D01*
X73343320Y-80837707D01*
X73523644Y-80958195D01*
X73677005Y-81111556D01*
X73797493Y-81291880D01*
X73810549Y-81323400D01*
X73880489Y-81492250D01*
X73886517Y-81522553D01*
X73916859Y-81675091D01*
X73922800Y-81704961D01*
X73922800Y-81921839D01*
X73880489Y-82134550D01*
X73865225Y-82171400D01*
X73797493Y-82334920D01*
X73677005Y-82515244D01*
X73523644Y-82668605D01*
X73343320Y-82789093D01*
X73142950Y-82872089D01*
X73036595Y-82893244D01*
X72930240Y-82914400D01*
X72713360Y-82914400D01*
X72607005Y-82893244D01*
X72500650Y-82872089D01*
X72300280Y-82789093D01*
X72119956Y-82668605D01*
X71966595Y-82515244D01*
X71846107Y-82334920D01*
X71778375Y-82171400D01*
X71763111Y-82134550D01*
X71720800Y-81921839D01*
X71720800Y-81704961D01*
X71726742Y-81675091D01*
X71757083Y-81522553D01*
X71763111Y-81492250D01*
X71833051Y-81323400D01*
X71846107Y-81291880D01*
X71966595Y-81111556D01*
X72119956Y-80958195D01*
X72300280Y-80837707D01*
X72419393Y-80788369D01*
X72500650Y-80754711D01*
X72607006Y-80733555D01*
X72713360Y-80712400D01*
X72930240Y-80712400D01*
X73036594Y-80733555D01*
G37*
G36*
X83801800Y-82729400D02*
G01*
X81399800Y-82729400D01*
X81399800Y-79627400D01*
X83801800Y-79627400D01*
X83801800Y-82729400D01*
G37*
G36*
X89188299Y-81481845D02*
G01*
X89225795Y-81493220D01*
X89260354Y-81511692D01*
X89290647Y-81536553D01*
X89315508Y-81566846D01*
X89333980Y-81601405D01*
X89345355Y-81638901D01*
X89349800Y-81684038D01*
X89349800Y-82422762D01*
X89345355Y-82467899D01*
X89333980Y-82505395D01*
X89315508Y-82539954D01*
X89290647Y-82570247D01*
X89260354Y-82595108D01*
X89225795Y-82613580D01*
X89188299Y-82624955D01*
X89143162Y-82629400D01*
X88504438Y-82629400D01*
X88459301Y-82624955D01*
X88421805Y-82613580D01*
X88387246Y-82595108D01*
X88356953Y-82570247D01*
X88332092Y-82539954D01*
X88313620Y-82505395D01*
X88302245Y-82467899D01*
X88297800Y-82422762D01*
X88297800Y-81684038D01*
X88302245Y-81638901D01*
X88313620Y-81601405D01*
X88332092Y-81566846D01*
X88356953Y-81536553D01*
X88387246Y-81511692D01*
X88421805Y-81493220D01*
X88459301Y-81481845D01*
X88504438Y-81477400D01*
X89143162Y-81477400D01*
X89188299Y-81481845D01*
G37*
G36*
X87636299Y-81467845D02*
G01*
X87673795Y-81479220D01*
X87708354Y-81497692D01*
X87738647Y-81522553D01*
X87763508Y-81552846D01*
X87781980Y-81587405D01*
X87793355Y-81624901D01*
X87797800Y-81670038D01*
X87797800Y-82408762D01*
X87793355Y-82453899D01*
X87781980Y-82491395D01*
X87763508Y-82525954D01*
X87738647Y-82556247D01*
X87708354Y-82581108D01*
X87673795Y-82599580D01*
X87636299Y-82610955D01*
X87591162Y-82615400D01*
X86952438Y-82615400D01*
X86907301Y-82610955D01*
X86869805Y-82599580D01*
X86835246Y-82581108D01*
X86804953Y-82556247D01*
X86780092Y-82525954D01*
X86761620Y-82491395D01*
X86750245Y-82453899D01*
X86745800Y-82408762D01*
X86745800Y-81670038D01*
X86750245Y-81624901D01*
X86761620Y-81587405D01*
X86780092Y-81552846D01*
X86804953Y-81522553D01*
X86835246Y-81497692D01*
X86869805Y-81479220D01*
X86907301Y-81467845D01*
X86952438Y-81463400D01*
X87591162Y-81463400D01*
X87636299Y-81467845D01*
G37*
G36*
X80726800Y-82164400D02*
G01*
X79074800Y-82164400D01*
X79074800Y-81462400D01*
X80726800Y-81462400D01*
X80726800Y-82164400D01*
G37*
G36*
X86126800Y-82164400D02*
G01*
X84474800Y-82164400D01*
X84474800Y-81462400D01*
X86126800Y-81462400D01*
X86126800Y-82164400D01*
G37*
G36*
X142319200Y-82037400D02*
G01*
X140667200Y-82037400D01*
X140667200Y-81335400D01*
X142319200Y-81335400D01*
X142319200Y-82037400D01*
G37*
G36*
X136919200Y-82037400D02*
G01*
X135267200Y-82037400D01*
X135267200Y-81335400D01*
X136919200Y-81335400D01*
X136919200Y-82037400D01*
G37*
G36*
X156672699Y-80275845D02*
G01*
X156710195Y-80287220D01*
X156744754Y-80305692D01*
X156775047Y-80330553D01*
X156799908Y-80360846D01*
X156818380Y-80395405D01*
X156829755Y-80432901D01*
X156834200Y-80478038D01*
X156834200Y-81116762D01*
X156829755Y-81161899D01*
X156818380Y-81199395D01*
X156799908Y-81233954D01*
X156775047Y-81264247D01*
X156744754Y-81289108D01*
X156710195Y-81307580D01*
X156672699Y-81318955D01*
X156627562Y-81323400D01*
X155888838Y-81323400D01*
X155843701Y-81318955D01*
X155806205Y-81307580D01*
X155771646Y-81289108D01*
X155741353Y-81264247D01*
X155716492Y-81233954D01*
X155698020Y-81199395D01*
X155686645Y-81161899D01*
X155682200Y-81116762D01*
X155682200Y-80478038D01*
X155686645Y-80432901D01*
X155698020Y-80395405D01*
X155716492Y-80360846D01*
X155741353Y-80330553D01*
X155771646Y-80305692D01*
X155806205Y-80287220D01*
X155843701Y-80275845D01*
X155888838Y-80271400D01*
X156627562Y-80271400D01*
X156672699Y-80275845D01*
G37*
G36*
X154922699Y-80275845D02*
G01*
X154960195Y-80287220D01*
X154994754Y-80305692D01*
X155025047Y-80330553D01*
X155049908Y-80360846D01*
X155068380Y-80395405D01*
X155079755Y-80432901D01*
X155084200Y-80478038D01*
X155084200Y-81116762D01*
X155079755Y-81161899D01*
X155068380Y-81199395D01*
X155049908Y-81233954D01*
X155025047Y-81264247D01*
X154994754Y-81289108D01*
X154960195Y-81307580D01*
X154922699Y-81318955D01*
X154877562Y-81323400D01*
X154138838Y-81323400D01*
X154093701Y-81318955D01*
X154056205Y-81307580D01*
X154021646Y-81289108D01*
X153991353Y-81264247D01*
X153966492Y-81233954D01*
X153948020Y-81199395D01*
X153936645Y-81161899D01*
X153932200Y-81116762D01*
X153932200Y-80478038D01*
X153936645Y-80432901D01*
X153948020Y-80395405D01*
X153966492Y-80360846D01*
X153991353Y-80330553D01*
X154021646Y-80305692D01*
X154056205Y-80287220D01*
X154093701Y-80275845D01*
X154138838Y-80271400D01*
X154877562Y-80271400D01*
X154922699Y-80275845D01*
G37*
G36*
X86126800Y-80894400D02*
G01*
X84474800Y-80894400D01*
X84474800Y-80192400D01*
X86126800Y-80192400D01*
X86126800Y-80894400D01*
G37*
G36*
X80726800Y-80894400D02*
G01*
X79074800Y-80894400D01*
X79074800Y-80192400D01*
X80726800Y-80192400D01*
X80726800Y-80894400D01*
G37*
G36*
X89188299Y-79731845D02*
G01*
X89225795Y-79743220D01*
X89260354Y-79761692D01*
X89290647Y-79786553D01*
X89315508Y-79816846D01*
X89333980Y-79851405D01*
X89345355Y-79888901D01*
X89349800Y-79934038D01*
X89349800Y-80672762D01*
X89345355Y-80717899D01*
X89333980Y-80755395D01*
X89315508Y-80789954D01*
X89290647Y-80820247D01*
X89260354Y-80845108D01*
X89225795Y-80863580D01*
X89188299Y-80874955D01*
X89143162Y-80879400D01*
X88504438Y-80879400D01*
X88459301Y-80874955D01*
X88421805Y-80863580D01*
X88387246Y-80845108D01*
X88356953Y-80820247D01*
X88332092Y-80789954D01*
X88313620Y-80755395D01*
X88302245Y-80717899D01*
X88297800Y-80672762D01*
X88297800Y-79934038D01*
X88302245Y-79888901D01*
X88313620Y-79851405D01*
X88332092Y-79816846D01*
X88356953Y-79786553D01*
X88387246Y-79761692D01*
X88421805Y-79743220D01*
X88459301Y-79731845D01*
X88504438Y-79727400D01*
X89143162Y-79727400D01*
X89188299Y-79731845D01*
G37*
G36*
X87636299Y-79717845D02*
G01*
X87673795Y-79729220D01*
X87708354Y-79747692D01*
X87738647Y-79772553D01*
X87763508Y-79802846D01*
X87781980Y-79837405D01*
X87793355Y-79874901D01*
X87797800Y-79920038D01*
X87797800Y-80658762D01*
X87793355Y-80703899D01*
X87781980Y-80741395D01*
X87763508Y-80775954D01*
X87738647Y-80806247D01*
X87708354Y-80831108D01*
X87673795Y-80849580D01*
X87636299Y-80860955D01*
X87591162Y-80865400D01*
X86952438Y-80865400D01*
X86907301Y-80860955D01*
X86869805Y-80849580D01*
X86835246Y-80831108D01*
X86804953Y-80806247D01*
X86780092Y-80775954D01*
X86761620Y-80741395D01*
X86750245Y-80703899D01*
X86745800Y-80658762D01*
X86745800Y-79920038D01*
X86750245Y-79874901D01*
X86761620Y-79837405D01*
X86780092Y-79802846D01*
X86804953Y-79772553D01*
X86835246Y-79747692D01*
X86869805Y-79729220D01*
X86907301Y-79717845D01*
X86952438Y-79713400D01*
X87591162Y-79713400D01*
X87636299Y-79717845D01*
G37*
G36*
X136919200Y-80767400D02*
G01*
X135267200Y-80767400D01*
X135267200Y-80065400D01*
X136919200Y-80065400D01*
X136919200Y-80767400D01*
G37*
G36*
X142319200Y-80767400D02*
G01*
X140667200Y-80767400D01*
X140667200Y-80065400D01*
X142319200Y-80065400D01*
X142319200Y-80767400D01*
G37*
G36*
X73036595Y-78193556D02*
G01*
X73142950Y-78214711D01*
X73343320Y-78297707D01*
X73523644Y-78418195D01*
X73677005Y-78571556D01*
X73797493Y-78751880D01*
X73815519Y-78795400D01*
X73880489Y-78952250D01*
X73922800Y-79164961D01*
X73922800Y-79381839D01*
X73880489Y-79594550D01*
X73797493Y-79794920D01*
X73677005Y-79975244D01*
X73523644Y-80128605D01*
X73343320Y-80249093D01*
X73251273Y-80287220D01*
X73142950Y-80332089D01*
X73036594Y-80353245D01*
X72930240Y-80374400D01*
X72713360Y-80374400D01*
X72607006Y-80353245D01*
X72500650Y-80332089D01*
X72392327Y-80287220D01*
X72300280Y-80249093D01*
X72119956Y-80128605D01*
X71966595Y-79975244D01*
X71846107Y-79794920D01*
X71763111Y-79594550D01*
X71720800Y-79381839D01*
X71720800Y-79164961D01*
X71763111Y-78952250D01*
X71828081Y-78795400D01*
X71846107Y-78751880D01*
X71966595Y-78571556D01*
X72119956Y-78418195D01*
X72300280Y-78297707D01*
X72500650Y-78214711D01*
X72607005Y-78193556D01*
X72713360Y-78172400D01*
X72930240Y-78172400D01*
X73036595Y-78193556D01*
G37*
G36*
X170508687Y-77793796D02*
G01*
X170745453Y-77891868D01*
X170745455Y-77891869D01*
X170958539Y-78034247D01*
X171139753Y-78215461D01*
X171242612Y-78369400D01*
X171282132Y-78428547D01*
X171380204Y-78665313D01*
X171430200Y-78916661D01*
X171430200Y-79172939D01*
X171380204Y-79424287D01*
X171282132Y-79661053D01*
X171282131Y-79661055D01*
X171139753Y-79874139D01*
X170958539Y-80055353D01*
X170745455Y-80197731D01*
X170745454Y-80197732D01*
X170745453Y-80197732D01*
X170508687Y-80295804D01*
X170257339Y-80345800D01*
X170001061Y-80345800D01*
X169749713Y-80295804D01*
X169512947Y-80197732D01*
X169512946Y-80197732D01*
X169512945Y-80197731D01*
X169299861Y-80055353D01*
X169118647Y-79874139D01*
X168976269Y-79661055D01*
X168976268Y-79661053D01*
X168878196Y-79424287D01*
X168828200Y-79172939D01*
X168828200Y-78916661D01*
X168878196Y-78665313D01*
X168976268Y-78428547D01*
X169015789Y-78369400D01*
X169118647Y-78215461D01*
X169299861Y-78034247D01*
X169512945Y-77891869D01*
X169512947Y-77891868D01*
X169749713Y-77793796D01*
X170001061Y-77743800D01*
X170257339Y-77743800D01*
X170508687Y-77793796D01*
G37*
G36*
X160686762Y-78568081D02*
G01*
X160721681Y-78578674D01*
X160753863Y-78595876D01*
X160782073Y-78619027D01*
X160805224Y-78647237D01*
X160822426Y-78679419D01*
X160833019Y-78714338D01*
X160837200Y-78756795D01*
X160837200Y-79898005D01*
X160833019Y-79940462D01*
X160822426Y-79975381D01*
X160805224Y-80007563D01*
X160782073Y-80035773D01*
X160753863Y-80058924D01*
X160721681Y-80076126D01*
X160686762Y-80086719D01*
X160644305Y-80090900D01*
X158278095Y-80090900D01*
X158235638Y-80086719D01*
X158200719Y-80076126D01*
X158168537Y-80058924D01*
X158140327Y-80035773D01*
X158117176Y-80007563D01*
X158099974Y-79975381D01*
X158089381Y-79940462D01*
X158085200Y-79898005D01*
X158085200Y-78756795D01*
X158089381Y-78714338D01*
X158099974Y-78679419D01*
X158117176Y-78647237D01*
X158140327Y-78619027D01*
X158168537Y-78595876D01*
X158200719Y-78578674D01*
X158235638Y-78568081D01*
X158278095Y-78563900D01*
X160644305Y-78563900D01*
X160686762Y-78568081D01*
G37*
G36*
X86126800Y-79624400D02*
G01*
X84474800Y-79624400D01*
X84474800Y-78922400D01*
X86126800Y-78922400D01*
X86126800Y-79624400D01*
G37*
G36*
X80726800Y-79624400D02*
G01*
X79074800Y-79624400D01*
X79074800Y-78922400D01*
X80726800Y-78922400D01*
X80726800Y-79624400D01*
G37*
G36*
X142319200Y-79497400D02*
G01*
X140667200Y-79497400D01*
X140667200Y-78795400D01*
X142319200Y-78795400D01*
X142319200Y-79497400D01*
G37*
G36*
X136919200Y-79497400D02*
G01*
X135267200Y-79497400D01*
X135267200Y-78795400D01*
X136919200Y-78795400D01*
X136919200Y-79497400D01*
G37*
G36*
X157537200Y-79466400D02*
G01*
X155197200Y-79466400D01*
X155197200Y-78826400D01*
X157537200Y-78826400D01*
X157537200Y-79466400D01*
G37*
G36*
X151787200Y-79466400D02*
G01*
X149447200Y-79466400D01*
X149447200Y-78826400D01*
X151787200Y-78826400D01*
X151787200Y-79466400D01*
G37*
G36*
X152954502Y-75571195D02*
G01*
X153024563Y-75600215D01*
X153087622Y-75642350D01*
X153100061Y-75654789D01*
X153119003Y-75670334D01*
X153140614Y-75681885D01*
X153164063Y-75688998D01*
X153188449Y-75691400D01*
X153795951Y-75691400D01*
X153820337Y-75688998D01*
X153843786Y-75681885D01*
X153865397Y-75670334D01*
X153884339Y-75654789D01*
X153896778Y-75642350D01*
X153959837Y-75600215D01*
X154029898Y-75571195D01*
X154104279Y-75556400D01*
X154180121Y-75556400D01*
X154254502Y-75571195D01*
X154324563Y-75600215D01*
X154387622Y-75642350D01*
X154400061Y-75654789D01*
X154419003Y-75670334D01*
X154440614Y-75681885D01*
X154464063Y-75688998D01*
X154488449Y-75691400D01*
X154692200Y-75691400D01*
X154692200Y-78791400D01*
X154488449Y-78791400D01*
X154464063Y-78793802D01*
X154440614Y-78800915D01*
X154419003Y-78812466D01*
X154400061Y-78828011D01*
X154387622Y-78840450D01*
X154324563Y-78882585D01*
X154254502Y-78911605D01*
X154180121Y-78926400D01*
X154104279Y-78926400D01*
X154029898Y-78911605D01*
X153959837Y-78882585D01*
X153896778Y-78840450D01*
X153884339Y-78828011D01*
X153865397Y-78812466D01*
X153843786Y-78800915D01*
X153820337Y-78793802D01*
X153795951Y-78791400D01*
X153188449Y-78791400D01*
X153164063Y-78793802D01*
X153140614Y-78800915D01*
X153119003Y-78812466D01*
X153100061Y-78828011D01*
X153087622Y-78840450D01*
X153024563Y-78882585D01*
X152954502Y-78911605D01*
X152880121Y-78926400D01*
X152804279Y-78926400D01*
X152729898Y-78911605D01*
X152659837Y-78882585D01*
X152596778Y-78840450D01*
X152584339Y-78828011D01*
X152565397Y-78812466D01*
X152543786Y-78800915D01*
X152520337Y-78793802D01*
X152495951Y-78791400D01*
X152292200Y-78791400D01*
X152292200Y-75691400D01*
X152495951Y-75691400D01*
X152520337Y-75688998D01*
X152543786Y-75681885D01*
X152565397Y-75670334D01*
X152584339Y-75654789D01*
X152596778Y-75642350D01*
X152659837Y-75600215D01*
X152729898Y-75571195D01*
X152804279Y-75556400D01*
X152880121Y-75556400D01*
X152954502Y-75571195D01*
G37*
G36*
X136919200Y-78227400D02*
G01*
X135267200Y-78227400D01*
X135267200Y-77525400D01*
X136919200Y-77525400D01*
X136919200Y-78227400D01*
G37*
G36*
X142319200Y-78227400D02*
G01*
X140667200Y-78227400D01*
X140667200Y-77525400D01*
X142319200Y-77525400D01*
X142319200Y-78227400D01*
G37*
G36*
X151787200Y-78196400D02*
G01*
X149447200Y-78196400D01*
X149447200Y-77556400D01*
X151787200Y-77556400D01*
X151787200Y-78196400D01*
G37*
G36*
X157537200Y-78196400D02*
G01*
X155197200Y-78196400D01*
X155197200Y-77556400D01*
X157537200Y-77556400D01*
X157537200Y-78196400D01*
G37*
G36*
X81844299Y-77100845D02*
G01*
X81881795Y-77112220D01*
X81916354Y-77130692D01*
X81946647Y-77155553D01*
X81971508Y-77185846D01*
X81989980Y-77220405D01*
X82001355Y-77257901D01*
X82005800Y-77303038D01*
X82005800Y-77941762D01*
X82001355Y-77986899D01*
X81989980Y-78024395D01*
X81971508Y-78058954D01*
X81946647Y-78089247D01*
X81916354Y-78114108D01*
X81881795Y-78132580D01*
X81844299Y-78143955D01*
X81799162Y-78148400D01*
X81060438Y-78148400D01*
X81015301Y-78143955D01*
X80977805Y-78132580D01*
X80943246Y-78114108D01*
X80912953Y-78089247D01*
X80888092Y-78058954D01*
X80869620Y-78024395D01*
X80858245Y-77986899D01*
X80853800Y-77941762D01*
X80853800Y-77303038D01*
X80858245Y-77257901D01*
X80869620Y-77220405D01*
X80888092Y-77185846D01*
X80912953Y-77155553D01*
X80943246Y-77130692D01*
X80977805Y-77112220D01*
X81015301Y-77100845D01*
X81060438Y-77096400D01*
X81799162Y-77096400D01*
X81844299Y-77100845D01*
G37*
G36*
X80094299Y-77100845D02*
G01*
X80131795Y-77112220D01*
X80166354Y-77130692D01*
X80196647Y-77155553D01*
X80221508Y-77185846D01*
X80239980Y-77220405D01*
X80251355Y-77257901D01*
X80255800Y-77303038D01*
X80255800Y-77941762D01*
X80251355Y-77986899D01*
X80239980Y-78024395D01*
X80221508Y-78058954D01*
X80196647Y-78089247D01*
X80166354Y-78114108D01*
X80131795Y-78132580D01*
X80094299Y-78143955D01*
X80049162Y-78148400D01*
X79310438Y-78148400D01*
X79265301Y-78143955D01*
X79227805Y-78132580D01*
X79193246Y-78114108D01*
X79162953Y-78089247D01*
X79138092Y-78058954D01*
X79119620Y-78024395D01*
X79108245Y-77986899D01*
X79103800Y-77941762D01*
X79103800Y-77303038D01*
X79108245Y-77257901D01*
X79119620Y-77220405D01*
X79138092Y-77185846D01*
X79162953Y-77155553D01*
X79193246Y-77130692D01*
X79227805Y-77112220D01*
X79265301Y-77100845D01*
X79310438Y-77096400D01*
X80049162Y-77096400D01*
X80094299Y-77100845D01*
G37*
G36*
X162365699Y-76923845D02*
G01*
X162403195Y-76935220D01*
X162437754Y-76953692D01*
X162468047Y-76978553D01*
X162492908Y-77008846D01*
X162511380Y-77043405D01*
X162522755Y-77080901D01*
X162527200Y-77126038D01*
X162527200Y-77864762D01*
X162522755Y-77909899D01*
X162511380Y-77947395D01*
X162492908Y-77981954D01*
X162468047Y-78012247D01*
X162437754Y-78037108D01*
X162403195Y-78055580D01*
X162365699Y-78066955D01*
X162320562Y-78071400D01*
X161681838Y-78071400D01*
X161636701Y-78066955D01*
X161599205Y-78055580D01*
X161564646Y-78037108D01*
X161534353Y-78012247D01*
X161509492Y-77981954D01*
X161491020Y-77947395D01*
X161479645Y-77909899D01*
X161475200Y-77864762D01*
X161475200Y-77126038D01*
X161479645Y-77080901D01*
X161491020Y-77043405D01*
X161509492Y-77008846D01*
X161534353Y-76978553D01*
X161564646Y-76953692D01*
X161599205Y-76935220D01*
X161636701Y-76923845D01*
X161681838Y-76919400D01*
X162320562Y-76919400D01*
X162365699Y-76923845D01*
G37*
G36*
X73922800Y-77834400D02*
G01*
X71720800Y-77834400D01*
X71720800Y-75632400D01*
X73922800Y-75632400D01*
X73922800Y-77834400D01*
G37*
G36*
X111413299Y-76161845D02*
G01*
X111450795Y-76173220D01*
X111485354Y-76191692D01*
X111515647Y-76216553D01*
X111540508Y-76246846D01*
X111558980Y-76281405D01*
X111570355Y-76318901D01*
X111574800Y-76364038D01*
X111574800Y-77102762D01*
X111570355Y-77147899D01*
X111558980Y-77185395D01*
X111540508Y-77219954D01*
X111515647Y-77250247D01*
X111485354Y-77275108D01*
X111450795Y-77293580D01*
X111413299Y-77304955D01*
X111368162Y-77309400D01*
X110729438Y-77309400D01*
X110684301Y-77304955D01*
X110646805Y-77293580D01*
X110612246Y-77275108D01*
X110581953Y-77250247D01*
X110557092Y-77219954D01*
X110538620Y-77185395D01*
X110527245Y-77147899D01*
X110522800Y-77102762D01*
X110522800Y-76364038D01*
X110527245Y-76318901D01*
X110538620Y-76281405D01*
X110557092Y-76246846D01*
X110581953Y-76216553D01*
X110612246Y-76191692D01*
X110646805Y-76173220D01*
X110684301Y-76161845D01*
X110729438Y-76157400D01*
X111368162Y-76157400D01*
X111413299Y-76161845D01*
G37*
G36*
X108180800Y-77121400D02*
G01*
X101978800Y-77121400D01*
X101978800Y-75819400D01*
X108180800Y-75819400D01*
X108180800Y-77121400D01*
G37*
G36*
X160686762Y-75593081D02*
G01*
X160721681Y-75603674D01*
X160753863Y-75620876D01*
X160782073Y-75644027D01*
X160805224Y-75672237D01*
X160822426Y-75704419D01*
X160833019Y-75739338D01*
X160837200Y-75781795D01*
X160837200Y-76923005D01*
X160833019Y-76965462D01*
X160822426Y-77000381D01*
X160805224Y-77032563D01*
X160782073Y-77060773D01*
X160753863Y-77083924D01*
X160721681Y-77101126D01*
X160686762Y-77111719D01*
X160644305Y-77115900D01*
X158278095Y-77115900D01*
X158235638Y-77111719D01*
X158200719Y-77101126D01*
X158168537Y-77083924D01*
X158140327Y-77060773D01*
X158117176Y-77032563D01*
X158099974Y-77000381D01*
X158089381Y-76965462D01*
X158085200Y-76923005D01*
X158085200Y-75781795D01*
X158089381Y-75739338D01*
X158099974Y-75704419D01*
X158117176Y-75672237D01*
X158140327Y-75644027D01*
X158168537Y-75620876D01*
X158200719Y-75603674D01*
X158235638Y-75593081D01*
X158278095Y-75588900D01*
X160644305Y-75588900D01*
X160686762Y-75593081D01*
G37*
G36*
X136919200Y-76957400D02*
G01*
X135267200Y-76957400D01*
X135267200Y-76255400D01*
X136919200Y-76255400D01*
X136919200Y-76957400D01*
G37*
G36*
X142319200Y-76957400D02*
G01*
X140667200Y-76957400D01*
X140667200Y-76255400D01*
X142319200Y-76255400D01*
X142319200Y-76957400D01*
G37*
G36*
X157537200Y-76926400D02*
G01*
X155197200Y-76926400D01*
X155197200Y-76286400D01*
X157537200Y-76286400D01*
X157537200Y-76926400D01*
G37*
G36*
X151787200Y-76926400D02*
G01*
X149447200Y-76926400D01*
X149447200Y-76286400D01*
X151787200Y-76286400D01*
X151787200Y-76926400D01*
G37*
G36*
X162365699Y-75173845D02*
G01*
X162403195Y-75185220D01*
X162437754Y-75203692D01*
X162468047Y-75228553D01*
X162492908Y-75258846D01*
X162511380Y-75293405D01*
X162522755Y-75330901D01*
X162527200Y-75376038D01*
X162527200Y-76114762D01*
X162522755Y-76159899D01*
X162511380Y-76197395D01*
X162492908Y-76231954D01*
X162468047Y-76262247D01*
X162437754Y-76287108D01*
X162403195Y-76305580D01*
X162365699Y-76316955D01*
X162320562Y-76321400D01*
X161681838Y-76321400D01*
X161636701Y-76316955D01*
X161599205Y-76305580D01*
X161564646Y-76287108D01*
X161534353Y-76262247D01*
X161509492Y-76231954D01*
X161491020Y-76197395D01*
X161479645Y-76159899D01*
X161475200Y-76114762D01*
X161475200Y-75376038D01*
X161479645Y-75330901D01*
X161491020Y-75293405D01*
X161509492Y-75258846D01*
X161534353Y-75228553D01*
X161564646Y-75203692D01*
X161599205Y-75185220D01*
X161636701Y-75173845D01*
X161681838Y-75169400D01*
X162320562Y-75169400D01*
X162365699Y-75173845D01*
G37*
G36*
X142319200Y-75687400D02*
G01*
X140667200Y-75687400D01*
X140667200Y-74985400D01*
X142319200Y-74985400D01*
X142319200Y-75687400D01*
G37*
G36*
X136919200Y-75687400D02*
G01*
X135267200Y-75687400D01*
X135267200Y-74985400D01*
X136919200Y-74985400D01*
X136919200Y-75687400D01*
G37*
G36*
X157537200Y-75656400D02*
G01*
X155197200Y-75656400D01*
X155197200Y-75016400D01*
X157537200Y-75016400D01*
X157537200Y-75656400D01*
G37*
G36*
X151787200Y-75656400D02*
G01*
X149447200Y-75656400D01*
X149447200Y-75016400D01*
X151787200Y-75016400D01*
X151787200Y-75656400D01*
G37*
G36*
X111413299Y-74411845D02*
G01*
X111450795Y-74423220D01*
X111485354Y-74441692D01*
X111515647Y-74466553D01*
X111540508Y-74496846D01*
X111558980Y-74531405D01*
X111570355Y-74568901D01*
X111574800Y-74614038D01*
X111574800Y-75352762D01*
X111570355Y-75397899D01*
X111558980Y-75435395D01*
X111540508Y-75469954D01*
X111515647Y-75500247D01*
X111485354Y-75525108D01*
X111450795Y-75543580D01*
X111413299Y-75554955D01*
X111368162Y-75559400D01*
X110729438Y-75559400D01*
X110684301Y-75554955D01*
X110646805Y-75543580D01*
X110612246Y-75525108D01*
X110581953Y-75500247D01*
X110557092Y-75469954D01*
X110538620Y-75435395D01*
X110527245Y-75397899D01*
X110522800Y-75352762D01*
X110522800Y-74614038D01*
X110527245Y-74568901D01*
X110538620Y-74531405D01*
X110557092Y-74496846D01*
X110581953Y-74466553D01*
X110612246Y-74441692D01*
X110646805Y-74423220D01*
X110684301Y-74411845D01*
X110729438Y-74407400D01*
X111368162Y-74407400D01*
X111413299Y-74411845D01*
G37*
G36*
X170508687Y-72713796D02*
G01*
X170686382Y-72787400D01*
X170745455Y-72811869D01*
X170958539Y-72954247D01*
X171139753Y-73135461D01*
X171270956Y-73331820D01*
X171282132Y-73348547D01*
X171380204Y-73585313D01*
X171430200Y-73836661D01*
X171430200Y-74092939D01*
X171380204Y-74344287D01*
X171286812Y-74569754D01*
X171282131Y-74581055D01*
X171139753Y-74794139D01*
X170958539Y-74975353D01*
X170745455Y-75117731D01*
X170745454Y-75117732D01*
X170745453Y-75117732D01*
X170508687Y-75215804D01*
X170257339Y-75265800D01*
X170001061Y-75265800D01*
X169749713Y-75215804D01*
X169512947Y-75117732D01*
X169512946Y-75117732D01*
X169512945Y-75117731D01*
X169299861Y-74975353D01*
X169118647Y-74794139D01*
X168976269Y-74581055D01*
X168971588Y-74569754D01*
X168878196Y-74344287D01*
X168828200Y-74092939D01*
X168828200Y-73836661D01*
X168878196Y-73585313D01*
X168976268Y-73348547D01*
X168987445Y-73331820D01*
X169118647Y-73135461D01*
X169299861Y-72954247D01*
X169512945Y-72811869D01*
X169572018Y-72787400D01*
X169749713Y-72713796D01*
X170001061Y-72663800D01*
X170257339Y-72663800D01*
X170508687Y-72713796D01*
G37*
G36*
X117229099Y-73316245D02*
G01*
X117266595Y-73327620D01*
X117301154Y-73346092D01*
X117331447Y-73370953D01*
X117356308Y-73401246D01*
X117374780Y-73435805D01*
X117386155Y-73473301D01*
X117390600Y-73518438D01*
X117390600Y-74157162D01*
X117386155Y-74202299D01*
X117374780Y-74239795D01*
X117356308Y-74274354D01*
X117331447Y-74304647D01*
X117301154Y-74329508D01*
X117266595Y-74347980D01*
X117229099Y-74359355D01*
X117183962Y-74363800D01*
X116445238Y-74363800D01*
X116400101Y-74359355D01*
X116362605Y-74347980D01*
X116328046Y-74329508D01*
X116297753Y-74304647D01*
X116272892Y-74274354D01*
X116254420Y-74239795D01*
X116243045Y-74202299D01*
X116238600Y-74157162D01*
X116238600Y-73518438D01*
X116243045Y-73473301D01*
X116254420Y-73435805D01*
X116272892Y-73401246D01*
X116297753Y-73370953D01*
X116328046Y-73346092D01*
X116362605Y-73327620D01*
X116400101Y-73316245D01*
X116445238Y-73311800D01*
X117183962Y-73311800D01*
X117229099Y-73316245D01*
G37*
G36*
X115479099Y-73316245D02*
G01*
X115516595Y-73327620D01*
X115551154Y-73346092D01*
X115581447Y-73370953D01*
X115606308Y-73401246D01*
X115624780Y-73435805D01*
X115636155Y-73473301D01*
X115640600Y-73518438D01*
X115640600Y-74157162D01*
X115636155Y-74202299D01*
X115624780Y-74239795D01*
X115606308Y-74274354D01*
X115581447Y-74304647D01*
X115551154Y-74329508D01*
X115516595Y-74347980D01*
X115479099Y-74359355D01*
X115433962Y-74363800D01*
X114695238Y-74363800D01*
X114650101Y-74359355D01*
X114612605Y-74347980D01*
X114578046Y-74329508D01*
X114547753Y-74304647D01*
X114522892Y-74274354D01*
X114504420Y-74239795D01*
X114493045Y-74202299D01*
X114488600Y-74157162D01*
X114488600Y-73518438D01*
X114493045Y-73473301D01*
X114504420Y-73435805D01*
X114522892Y-73401246D01*
X114547753Y-73370953D01*
X114578046Y-73346092D01*
X114612605Y-73327620D01*
X114650101Y-73316245D01*
X114695238Y-73311800D01*
X115433962Y-73311800D01*
X115479099Y-73316245D01*
G37*
G36*
X162153600Y-71892958D02*
G01*
X161968505Y-72196739D01*
X161632754Y-72747780D01*
X161556700Y-72872600D01*
X155735989Y-72872600D01*
X155711603Y-72875002D01*
X155688154Y-72882115D01*
X155666543Y-72893666D01*
X155647601Y-72909211D01*
X155639086Y-72918640D01*
X154559000Y-74244200D01*
X146913600Y-74244200D01*
X143992600Y-70256400D01*
X143992600Y-66598800D01*
X143998716Y-66598796D01*
X143998719Y-66598796D01*
X153217614Y-66593234D01*
X162153600Y-66587842D01*
X162153600Y-71892958D01*
G37*
G36*
X107399299Y-72528845D02*
G01*
X107436795Y-72540220D01*
X107471354Y-72558692D01*
X107501647Y-72583553D01*
X107526508Y-72613846D01*
X107544980Y-72648405D01*
X107556355Y-72685901D01*
X107560800Y-72731038D01*
X107560800Y-73369762D01*
X107556355Y-73414899D01*
X107544980Y-73452395D01*
X107526508Y-73486954D01*
X107501647Y-73517247D01*
X107471354Y-73542108D01*
X107436795Y-73560580D01*
X107399299Y-73571955D01*
X107354162Y-73576400D01*
X106615438Y-73576400D01*
X106570301Y-73571955D01*
X106532805Y-73560580D01*
X106498246Y-73542108D01*
X106467953Y-73517247D01*
X106443092Y-73486954D01*
X106424620Y-73452395D01*
X106413245Y-73414899D01*
X106408800Y-73369762D01*
X106408800Y-72731038D01*
X106413245Y-72685901D01*
X106424620Y-72648405D01*
X106443092Y-72613846D01*
X106467953Y-72583553D01*
X106498246Y-72558692D01*
X106532805Y-72540220D01*
X106570301Y-72528845D01*
X106615438Y-72524400D01*
X107354162Y-72524400D01*
X107399299Y-72528845D01*
G37*
G36*
X105649299Y-72528845D02*
G01*
X105686795Y-72540220D01*
X105721354Y-72558692D01*
X105751647Y-72583553D01*
X105776508Y-72613846D01*
X105794980Y-72648405D01*
X105806355Y-72685901D01*
X105810800Y-72731038D01*
X105810800Y-73369762D01*
X105806355Y-73414899D01*
X105794980Y-73452395D01*
X105776508Y-73486954D01*
X105751647Y-73517247D01*
X105721354Y-73542108D01*
X105686795Y-73560580D01*
X105649299Y-73571955D01*
X105604162Y-73576400D01*
X104865438Y-73576400D01*
X104820301Y-73571955D01*
X104782805Y-73560580D01*
X104748246Y-73542108D01*
X104717953Y-73517247D01*
X104693092Y-73486954D01*
X104674620Y-73452395D01*
X104663245Y-73414899D01*
X104658800Y-73369762D01*
X104658800Y-72731038D01*
X104663245Y-72685901D01*
X104674620Y-72648405D01*
X104693092Y-72613846D01*
X104717953Y-72583553D01*
X104748246Y-72558692D01*
X104782805Y-72540220D01*
X104820301Y-72528845D01*
X104865438Y-72524400D01*
X105604162Y-72524400D01*
X105649299Y-72528845D01*
G37*
G36*
X115479099Y-71716045D02*
G01*
X115516595Y-71727420D01*
X115551154Y-71745892D01*
X115581447Y-71770753D01*
X115606308Y-71801046D01*
X115624780Y-71835605D01*
X115636155Y-71873101D01*
X115640600Y-71918238D01*
X115640600Y-72556962D01*
X115636155Y-72602099D01*
X115624780Y-72639595D01*
X115606308Y-72674154D01*
X115581447Y-72704447D01*
X115551154Y-72729308D01*
X115516595Y-72747780D01*
X115479099Y-72759155D01*
X115433962Y-72763600D01*
X114695238Y-72763600D01*
X114650101Y-72759155D01*
X114612605Y-72747780D01*
X114578046Y-72729308D01*
X114547753Y-72704447D01*
X114522892Y-72674154D01*
X114504420Y-72639595D01*
X114493045Y-72602099D01*
X114488600Y-72556962D01*
X114488600Y-71918238D01*
X114493045Y-71873101D01*
X114504420Y-71835605D01*
X114522892Y-71801046D01*
X114547753Y-71770753D01*
X114578046Y-71745892D01*
X114612605Y-71727420D01*
X114650101Y-71716045D01*
X114695238Y-71711600D01*
X115433962Y-71711600D01*
X115479099Y-71716045D01*
G37*
G36*
X117229099Y-71716045D02*
G01*
X117266595Y-71727420D01*
X117301154Y-71745892D01*
X117331447Y-71770753D01*
X117356308Y-71801046D01*
X117374780Y-71835605D01*
X117386155Y-71873101D01*
X117390600Y-71918238D01*
X117390600Y-72556962D01*
X117386155Y-72602099D01*
X117374780Y-72639595D01*
X117356308Y-72674154D01*
X117331447Y-72704447D01*
X117301154Y-72729308D01*
X117266595Y-72747780D01*
X117229099Y-72759155D01*
X117183962Y-72763600D01*
X116445238Y-72763600D01*
X116400101Y-72759155D01*
X116362605Y-72747780D01*
X116328046Y-72729308D01*
X116297753Y-72704447D01*
X116272892Y-72674154D01*
X116254420Y-72639595D01*
X116243045Y-72602099D01*
X116238600Y-72556962D01*
X116238600Y-71918238D01*
X116243045Y-71873101D01*
X116254420Y-71835605D01*
X116272892Y-71801046D01*
X116297753Y-71770753D01*
X116328046Y-71745892D01*
X116362605Y-71727420D01*
X116400101Y-71716045D01*
X116445238Y-71711600D01*
X117183962Y-71711600D01*
X117229099Y-71716045D01*
G37*
G36*
X77365799Y-70853137D02*
G01*
X77375408Y-70856052D01*
X77384272Y-70860790D01*
X77392037Y-70867163D01*
X77402248Y-70879606D01*
X77409178Y-70889975D01*
X77426505Y-70907302D01*
X77446880Y-70920915D01*
X77469520Y-70930291D01*
X77493553Y-70935071D01*
X77518057Y-70935070D01*
X77542090Y-70930288D01*
X77564729Y-70920910D01*
X77585102Y-70907295D01*
X77602429Y-70889968D01*
X77609358Y-70879598D01*
X77619563Y-70867163D01*
X77627328Y-70860790D01*
X77636192Y-70856052D01*
X77645801Y-70853137D01*
X77661940Y-70851548D01*
X78149661Y-70851548D01*
X78167999Y-70853354D01*
X78180250Y-70853956D01*
X78198669Y-70853956D01*
X78220949Y-70856150D01*
X78305033Y-70872876D01*
X78326460Y-70879376D01*
X78405658Y-70912180D01*
X78411103Y-70915091D01*
X78411109Y-70915093D01*
X78419969Y-70919829D01*
X78419973Y-70919832D01*
X78425414Y-70922740D01*
X78496699Y-70970371D01*
X78514004Y-70984572D01*
X78574628Y-71045196D01*
X78588829Y-71062501D01*
X78636460Y-71133786D01*
X78639368Y-71139227D01*
X78639371Y-71139231D01*
X78644107Y-71148091D01*
X78644109Y-71148097D01*
X78647020Y-71153542D01*
X78679824Y-71232740D01*
X78686324Y-71254167D01*
X78703050Y-71338251D01*
X78705244Y-71360531D01*
X78705244Y-71378950D01*
X78705846Y-71391201D01*
X78707652Y-71409539D01*
X78707652Y-71897262D01*
X78705846Y-71915599D01*
X78705244Y-71927850D01*
X78705244Y-71946269D01*
X78703050Y-71968549D01*
X78686324Y-72052633D01*
X78679824Y-72074060D01*
X78647020Y-72153258D01*
X78644109Y-72158703D01*
X78644107Y-72158709D01*
X78639371Y-72167569D01*
X78639368Y-72167573D01*
X78636460Y-72173014D01*
X78588829Y-72244299D01*
X78574628Y-72261604D01*
X78514004Y-72322228D01*
X78496699Y-72336429D01*
X78425414Y-72384060D01*
X78419973Y-72386968D01*
X78419969Y-72386971D01*
X78411109Y-72391707D01*
X78411103Y-72391709D01*
X78405658Y-72394620D01*
X78326460Y-72427424D01*
X78305033Y-72433924D01*
X78220949Y-72450650D01*
X78198669Y-72452844D01*
X78180250Y-72452844D01*
X78167999Y-72453446D01*
X78149662Y-72455252D01*
X77661940Y-72455252D01*
X77645801Y-72453663D01*
X77636192Y-72450748D01*
X77627328Y-72446010D01*
X77619563Y-72439637D01*
X77609352Y-72427194D01*
X77602422Y-72416825D01*
X77585095Y-72399498D01*
X77564720Y-72385885D01*
X77542080Y-72376509D01*
X77518047Y-72371729D01*
X77493543Y-72371730D01*
X77469510Y-72376512D01*
X77446871Y-72385890D01*
X77426498Y-72399505D01*
X77409171Y-72416832D01*
X77402242Y-72427202D01*
X77392037Y-72439637D01*
X77384272Y-72446010D01*
X77375408Y-72450748D01*
X77365799Y-72453663D01*
X77349660Y-72455252D01*
X76861938Y-72455252D01*
X76843601Y-72453446D01*
X76831350Y-72452844D01*
X76812931Y-72452844D01*
X76790651Y-72450650D01*
X76706567Y-72433924D01*
X76685140Y-72427424D01*
X76605942Y-72394620D01*
X76600497Y-72391709D01*
X76600491Y-72391707D01*
X76591631Y-72386971D01*
X76591627Y-72386968D01*
X76586186Y-72384060D01*
X76514901Y-72336429D01*
X76497596Y-72322228D01*
X76436972Y-72261604D01*
X76422771Y-72244299D01*
X76375140Y-72173014D01*
X76372232Y-72167573D01*
X76372229Y-72167569D01*
X76367493Y-72158709D01*
X76367491Y-72158703D01*
X76364580Y-72153258D01*
X76331776Y-72074060D01*
X76325276Y-72052633D01*
X76308550Y-71968549D01*
X76306356Y-71946269D01*
X76306356Y-71927850D01*
X76305754Y-71915599D01*
X76303948Y-71897262D01*
X76303948Y-71409539D01*
X76305754Y-71391201D01*
X76306356Y-71378950D01*
X76306356Y-71360531D01*
X76308550Y-71338251D01*
X76325276Y-71254167D01*
X76331776Y-71232740D01*
X76364580Y-71153542D01*
X76367491Y-71148097D01*
X76367493Y-71148091D01*
X76372229Y-71139231D01*
X76372232Y-71139227D01*
X76375140Y-71133786D01*
X76422771Y-71062501D01*
X76436972Y-71045196D01*
X76497596Y-70984572D01*
X76514901Y-70970371D01*
X76586186Y-70922740D01*
X76591627Y-70919832D01*
X76591631Y-70919829D01*
X76600491Y-70915093D01*
X76600497Y-70915091D01*
X76605942Y-70912180D01*
X76685140Y-70879376D01*
X76706567Y-70872876D01*
X76790651Y-70856150D01*
X76812931Y-70853956D01*
X76831350Y-70853956D01*
X76843601Y-70853354D01*
X76861939Y-70851548D01*
X77349660Y-70851548D01*
X77365799Y-70853137D01*
G37*
G36*
X75317474Y-70906865D02*
G01*
X75355167Y-70918299D01*
X75389903Y-70936866D01*
X75420348Y-70961852D01*
X75445334Y-70992297D01*
X75463901Y-71027033D01*
X75475335Y-71064726D01*
X75479800Y-71110061D01*
X75479800Y-72196739D01*
X75475335Y-72242074D01*
X75463901Y-72279767D01*
X75445334Y-72314503D01*
X75420348Y-72344948D01*
X75389903Y-72369934D01*
X75355167Y-72388501D01*
X75317474Y-72399935D01*
X75272139Y-72404400D01*
X74435461Y-72404400D01*
X74390126Y-72399935D01*
X74352433Y-72388501D01*
X74317697Y-72369934D01*
X74287252Y-72344948D01*
X74262266Y-72314503D01*
X74243699Y-72279767D01*
X74232265Y-72242074D01*
X74227800Y-72196739D01*
X74227800Y-71110061D01*
X74232265Y-71064726D01*
X74243699Y-71027033D01*
X74262266Y-70992297D01*
X74287252Y-70961852D01*
X74317697Y-70936866D01*
X74352433Y-70918299D01*
X74390126Y-70906865D01*
X74435461Y-70902400D01*
X75272139Y-70902400D01*
X75317474Y-70906865D01*
G37*
G36*
X73267474Y-70906865D02*
G01*
X73305167Y-70918299D01*
X73339903Y-70936866D01*
X73370348Y-70961852D01*
X73395334Y-70992297D01*
X73413901Y-71027033D01*
X73425335Y-71064726D01*
X73429800Y-71110061D01*
X73429800Y-72196739D01*
X73425335Y-72242074D01*
X73413901Y-72279767D01*
X73395334Y-72314503D01*
X73370348Y-72344948D01*
X73339903Y-72369934D01*
X73305167Y-72388501D01*
X73267474Y-72399935D01*
X73222139Y-72404400D01*
X72385461Y-72404400D01*
X72340126Y-72399935D01*
X72302433Y-72388501D01*
X72267697Y-72369934D01*
X72237252Y-72344948D01*
X72212266Y-72314503D01*
X72193699Y-72279767D01*
X72182265Y-72242074D01*
X72177800Y-72196739D01*
X72177800Y-71110061D01*
X72182265Y-71064726D01*
X72193699Y-71027033D01*
X72212266Y-70992297D01*
X72237252Y-70961852D01*
X72267697Y-70936866D01*
X72302433Y-70918299D01*
X72340126Y-70906865D01*
X72385461Y-70902400D01*
X73222139Y-70902400D01*
X73267474Y-70906865D01*
G37*
G36*
X98562699Y-70928645D02*
G01*
X98600195Y-70940020D01*
X98634754Y-70958492D01*
X98665047Y-70983353D01*
X98689908Y-71013646D01*
X98708380Y-71048205D01*
X98719755Y-71085701D01*
X98724200Y-71130838D01*
X98724200Y-71769562D01*
X98719755Y-71814699D01*
X98708380Y-71852195D01*
X98689908Y-71886754D01*
X98665047Y-71917047D01*
X98634754Y-71941908D01*
X98600195Y-71960380D01*
X98562699Y-71971755D01*
X98517562Y-71976200D01*
X97778838Y-71976200D01*
X97733701Y-71971755D01*
X97696205Y-71960380D01*
X97661646Y-71941908D01*
X97631353Y-71917047D01*
X97606492Y-71886754D01*
X97588020Y-71852195D01*
X97576645Y-71814699D01*
X97572200Y-71769562D01*
X97572200Y-71130838D01*
X97576645Y-71085701D01*
X97588020Y-71048205D01*
X97606492Y-71013646D01*
X97631353Y-70983353D01*
X97661646Y-70958492D01*
X97696205Y-70940020D01*
X97733701Y-70928645D01*
X97778838Y-70924200D01*
X98517562Y-70924200D01*
X98562699Y-70928645D01*
G37*
G36*
X100312699Y-70928645D02*
G01*
X100350195Y-70940020D01*
X100384754Y-70958492D01*
X100415047Y-70983353D01*
X100439908Y-71013646D01*
X100458380Y-71048205D01*
X100469755Y-71085701D01*
X100474200Y-71130838D01*
X100474200Y-71769562D01*
X100469755Y-71814699D01*
X100458380Y-71852195D01*
X100439908Y-71886754D01*
X100415047Y-71917047D01*
X100384754Y-71941908D01*
X100350195Y-71960380D01*
X100312699Y-71971755D01*
X100267562Y-71976200D01*
X99528838Y-71976200D01*
X99483701Y-71971755D01*
X99446205Y-71960380D01*
X99411646Y-71941908D01*
X99381353Y-71917047D01*
X99356492Y-71886754D01*
X99338020Y-71852195D01*
X99326645Y-71814699D01*
X99322200Y-71769562D01*
X99322200Y-71130838D01*
X99326645Y-71085701D01*
X99338020Y-71048205D01*
X99356492Y-71013646D01*
X99381353Y-70983353D01*
X99411646Y-70958492D01*
X99446205Y-70940020D01*
X99483701Y-70928645D01*
X99528838Y-70924200D01*
X100267562Y-70924200D01*
X100312699Y-70928645D01*
G37*
G36*
X109254299Y-70827845D02*
G01*
X109291795Y-70839220D01*
X109326354Y-70857692D01*
X109356647Y-70882553D01*
X109381508Y-70912846D01*
X109399980Y-70947405D01*
X109411355Y-70984901D01*
X109415800Y-71030038D01*
X109415800Y-71768762D01*
X109411355Y-71813899D01*
X109399980Y-71851395D01*
X109381508Y-71885954D01*
X109356647Y-71916247D01*
X109326354Y-71941108D01*
X109291795Y-71959580D01*
X109254299Y-71970955D01*
X109209162Y-71975400D01*
X108570438Y-71975400D01*
X108525301Y-71970955D01*
X108487805Y-71959580D01*
X108453246Y-71941108D01*
X108422953Y-71916247D01*
X108398092Y-71885954D01*
X108379620Y-71851395D01*
X108368245Y-71813899D01*
X108363800Y-71768762D01*
X108363800Y-71030038D01*
X108368245Y-70984901D01*
X108379620Y-70947405D01*
X108398092Y-70912846D01*
X108422953Y-70882553D01*
X108453246Y-70857692D01*
X108487805Y-70839220D01*
X108525301Y-70827845D01*
X108570438Y-70823400D01*
X109209162Y-70823400D01*
X109254299Y-70827845D01*
G37*
G36*
X107735800Y-71972400D02*
G01*
X106233800Y-71972400D01*
X106233800Y-70670400D01*
X107735800Y-70670400D01*
X107735800Y-71972400D01*
G37*
G36*
X105535800Y-71972400D02*
G01*
X104033800Y-71972400D01*
X104033800Y-70670400D01*
X105535800Y-70670400D01*
X105535800Y-71972400D01*
G37*
G36*
X102442674Y-70719665D02*
G01*
X102480367Y-70731099D01*
X102515103Y-70749666D01*
X102545548Y-70774652D01*
X102570534Y-70805097D01*
X102589101Y-70839833D01*
X102600535Y-70877526D01*
X102605000Y-70922861D01*
X102605000Y-71759539D01*
X102600535Y-71804874D01*
X102589101Y-71842567D01*
X102570534Y-71877303D01*
X102545548Y-71907748D01*
X102515103Y-71932734D01*
X102480367Y-71951301D01*
X102442674Y-71962735D01*
X102397339Y-71967200D01*
X101310661Y-71967200D01*
X101265326Y-71962735D01*
X101227633Y-71951301D01*
X101192897Y-71932734D01*
X101162452Y-71907748D01*
X101137466Y-71877303D01*
X101118899Y-71842567D01*
X101107465Y-71804874D01*
X101103000Y-71759539D01*
X101103000Y-70922861D01*
X101107465Y-70877526D01*
X101118899Y-70839833D01*
X101137466Y-70805097D01*
X101162452Y-70774652D01*
X101192897Y-70749666D01*
X101227633Y-70731099D01*
X101265326Y-70719665D01*
X101310661Y-70715200D01*
X102397339Y-70715200D01*
X102442674Y-70719665D01*
G37*
G36*
X115479099Y-70115845D02*
G01*
X115516595Y-70127220D01*
X115551154Y-70145692D01*
X115581447Y-70170553D01*
X115606308Y-70200846D01*
X115624780Y-70235405D01*
X115636155Y-70272901D01*
X115640600Y-70318038D01*
X115640600Y-70956762D01*
X115636155Y-71001899D01*
X115624780Y-71039395D01*
X115606308Y-71073954D01*
X115581447Y-71104247D01*
X115551154Y-71129108D01*
X115516595Y-71147580D01*
X115479099Y-71158955D01*
X115433962Y-71163400D01*
X114695238Y-71163400D01*
X114650101Y-71158955D01*
X114612605Y-71147580D01*
X114578046Y-71129108D01*
X114547753Y-71104247D01*
X114522892Y-71073954D01*
X114504420Y-71039395D01*
X114493045Y-71001899D01*
X114488600Y-70956762D01*
X114488600Y-70318038D01*
X114493045Y-70272901D01*
X114504420Y-70235405D01*
X114522892Y-70200846D01*
X114547753Y-70170553D01*
X114578046Y-70145692D01*
X114612605Y-70127220D01*
X114650101Y-70115845D01*
X114695238Y-70111400D01*
X115433962Y-70111400D01*
X115479099Y-70115845D01*
G37*
G36*
X117229099Y-70115845D02*
G01*
X117266595Y-70127220D01*
X117301154Y-70145692D01*
X117331447Y-70170553D01*
X117356308Y-70200846D01*
X117374780Y-70235405D01*
X117386155Y-70272901D01*
X117390600Y-70318038D01*
X117390600Y-70956762D01*
X117386155Y-71001899D01*
X117374780Y-71039395D01*
X117356308Y-71073954D01*
X117331447Y-71104247D01*
X117301154Y-71129108D01*
X117266595Y-71147580D01*
X117229099Y-71158955D01*
X117183962Y-71163400D01*
X116445238Y-71163400D01*
X116400101Y-71158955D01*
X116362605Y-71147580D01*
X116328046Y-71129108D01*
X116297753Y-71104247D01*
X116272892Y-71073954D01*
X116254420Y-71039395D01*
X116243045Y-71001899D01*
X116238600Y-70956762D01*
X116238600Y-70318038D01*
X116243045Y-70272901D01*
X116254420Y-70235405D01*
X116272892Y-70200846D01*
X116297753Y-70170553D01*
X116328046Y-70145692D01*
X116362605Y-70127220D01*
X116400101Y-70115845D01*
X116445238Y-70111400D01*
X117183962Y-70111400D01*
X117229099Y-70115845D01*
G37*
G36*
X105535800Y-70272400D02*
G01*
X104033800Y-70272400D01*
X104033800Y-68970400D01*
X105535800Y-68970400D01*
X105535800Y-70272400D01*
G37*
G36*
X107735800Y-70272400D02*
G01*
X106233800Y-70272400D01*
X106233800Y-68970400D01*
X107735800Y-68970400D01*
X107735800Y-70272400D01*
G37*
G36*
X109254299Y-69077845D02*
G01*
X109291795Y-69089220D01*
X109326354Y-69107692D01*
X109356647Y-69132553D01*
X109381508Y-69162846D01*
X109399980Y-69197405D01*
X109411355Y-69234901D01*
X109415800Y-69280038D01*
X109415800Y-70018762D01*
X109411355Y-70063899D01*
X109399980Y-70101395D01*
X109381508Y-70135954D01*
X109356647Y-70166247D01*
X109326354Y-70191108D01*
X109291795Y-70209580D01*
X109254299Y-70220955D01*
X109209162Y-70225400D01*
X108570438Y-70225400D01*
X108525301Y-70220955D01*
X108487805Y-70209580D01*
X108453246Y-70191108D01*
X108422953Y-70166247D01*
X108398092Y-70135954D01*
X108379620Y-70101395D01*
X108368245Y-70063899D01*
X108363800Y-70018762D01*
X108363800Y-69280038D01*
X108368245Y-69234901D01*
X108379620Y-69197405D01*
X108398092Y-69162846D01*
X108422953Y-69132553D01*
X108453246Y-69107692D01*
X108487805Y-69089220D01*
X108525301Y-69077845D01*
X108570438Y-69073400D01*
X109209162Y-69073400D01*
X109254299Y-69077845D01*
G37*
G36*
X171430200Y-70185800D02*
G01*
X168828200Y-70185800D01*
X168828200Y-67583800D01*
X171430200Y-67583800D01*
X171430200Y-70185800D01*
G37*
G36*
X102442674Y-68669665D02*
G01*
X102480367Y-68681099D01*
X102515103Y-68699666D01*
X102545548Y-68724652D01*
X102570534Y-68755097D01*
X102589101Y-68789833D01*
X102600535Y-68827526D01*
X102605000Y-68872861D01*
X102605000Y-69709539D01*
X102600535Y-69754874D01*
X102589101Y-69792567D01*
X102570534Y-69827303D01*
X102545548Y-69857748D01*
X102515103Y-69882734D01*
X102480367Y-69901301D01*
X102442674Y-69912735D01*
X102397339Y-69917200D01*
X101310661Y-69917200D01*
X101265326Y-69912735D01*
X101227633Y-69901301D01*
X101192897Y-69882734D01*
X101162452Y-69857748D01*
X101137466Y-69827303D01*
X101118899Y-69792567D01*
X101107465Y-69754874D01*
X101103000Y-69709539D01*
X101103000Y-68872861D01*
X101107465Y-68827526D01*
X101118899Y-68789833D01*
X101137466Y-68755097D01*
X101162452Y-68724652D01*
X101192897Y-68699666D01*
X101227633Y-68681099D01*
X101265326Y-68669665D01*
X101310661Y-68665200D01*
X102397339Y-68665200D01*
X102442674Y-68669665D01*
G37*
G36*
X73036594Y-66001555D02*
G01*
X73142950Y-66022711D01*
X73343320Y-66105707D01*
X73523644Y-66226195D01*
X73677005Y-66379556D01*
X73797493Y-66559880D01*
X73880489Y-66760251D01*
X73922800Y-66972960D01*
X73922800Y-67189840D01*
X73880489Y-67402549D01*
X73797493Y-67602920D01*
X73677005Y-67783244D01*
X73523644Y-67936605D01*
X73343320Y-68057093D01*
X73142950Y-68140089D01*
X73036594Y-68161245D01*
X72930240Y-68182400D01*
X72713360Y-68182400D01*
X72607006Y-68161245D01*
X72500650Y-68140089D01*
X72300280Y-68057093D01*
X72119956Y-67936605D01*
X71966595Y-67783244D01*
X71846107Y-67602920D01*
X71763111Y-67402549D01*
X71720800Y-67189840D01*
X71720800Y-66972960D01*
X71763111Y-66760251D01*
X71846107Y-66559880D01*
X71966595Y-66379556D01*
X72119956Y-66226195D01*
X72300280Y-66105707D01*
X72500650Y-66022711D01*
X72607006Y-66001555D01*
X72713360Y-65980400D01*
X72930240Y-65980400D01*
X73036594Y-66001555D01*
G37*
G36*
X73036594Y-63461555D02*
G01*
X73142950Y-63482711D01*
X73243134Y-63524209D01*
X73343320Y-63565707D01*
X73523644Y-63686195D01*
X73677005Y-63839556D01*
X73797493Y-64019880D01*
X73811976Y-64054846D01*
X73880489Y-64220250D01*
X73922800Y-64432961D01*
X73922800Y-64649839D01*
X73880489Y-64862550D01*
X73862612Y-64905709D01*
X73797493Y-65062920D01*
X73677005Y-65243244D01*
X73523644Y-65396605D01*
X73343320Y-65517093D01*
X73142950Y-65600089D01*
X73036594Y-65621245D01*
X72930240Y-65642400D01*
X72713360Y-65642400D01*
X72607006Y-65621245D01*
X72500650Y-65600089D01*
X72300280Y-65517093D01*
X72119956Y-65396605D01*
X71966595Y-65243244D01*
X71846107Y-65062920D01*
X71780988Y-64905709D01*
X71763111Y-64862550D01*
X71720800Y-64649839D01*
X71720800Y-64432961D01*
X71763111Y-64220250D01*
X71831624Y-64054846D01*
X71846107Y-64019880D01*
X71966595Y-63839556D01*
X72119956Y-63686195D01*
X72300280Y-63565707D01*
X72400466Y-63524209D01*
X72500650Y-63482711D01*
X72607006Y-63461555D01*
X72713360Y-63440400D01*
X72930240Y-63440400D01*
X73036594Y-63461555D01*
G37*
G36*
X121725699Y-63995245D02*
G01*
X121763195Y-64006620D01*
X121797754Y-64025092D01*
X121828047Y-64049953D01*
X121852908Y-64080246D01*
X121871380Y-64114805D01*
X121882755Y-64152301D01*
X121887200Y-64197438D01*
X121887200Y-64936162D01*
X121882755Y-64981299D01*
X121871380Y-65018795D01*
X121852908Y-65053354D01*
X121828047Y-65083647D01*
X121797754Y-65108508D01*
X121763195Y-65126980D01*
X121725699Y-65138355D01*
X121680562Y-65142800D01*
X121041838Y-65142800D01*
X120996701Y-65138355D01*
X120959205Y-65126980D01*
X120924646Y-65108508D01*
X120894353Y-65083647D01*
X120869492Y-65053354D01*
X120851020Y-65018795D01*
X120839645Y-64981299D01*
X120835200Y-64936162D01*
X120835200Y-64197438D01*
X120839645Y-64152301D01*
X120851020Y-64114805D01*
X120869492Y-64080246D01*
X120894353Y-64049953D01*
X120924646Y-64025092D01*
X120959205Y-64006620D01*
X120996701Y-63995245D01*
X121041838Y-63990800D01*
X121680562Y-63990800D01*
X121725699Y-63995245D01*
G37*
G36*
X82990699Y-63995245D02*
G01*
X83028195Y-64006620D01*
X83062754Y-64025092D01*
X83093047Y-64049953D01*
X83117908Y-64080246D01*
X83136380Y-64114805D01*
X83147755Y-64152301D01*
X83152200Y-64197438D01*
X83152200Y-64936162D01*
X83147755Y-64981299D01*
X83136380Y-65018795D01*
X83117908Y-65053354D01*
X83093047Y-65083647D01*
X83062754Y-65108508D01*
X83028195Y-65126980D01*
X82990699Y-65138355D01*
X82945562Y-65142800D01*
X82306838Y-65142800D01*
X82261701Y-65138355D01*
X82224205Y-65126980D01*
X82189646Y-65108508D01*
X82159353Y-65083647D01*
X82134492Y-65053354D01*
X82116020Y-65018795D01*
X82104645Y-64981299D01*
X82100200Y-64936162D01*
X82100200Y-64197438D01*
X82104645Y-64152301D01*
X82116020Y-64114805D01*
X82134492Y-64080246D01*
X82159353Y-64049953D01*
X82189646Y-64025092D01*
X82224205Y-64006620D01*
X82261701Y-63995245D01*
X82306838Y-63990800D01*
X82945562Y-63990800D01*
X82990699Y-63995245D01*
G37*
G36*
X102320099Y-63969845D02*
G01*
X102357595Y-63981220D01*
X102392154Y-63999692D01*
X102422447Y-64024553D01*
X102447308Y-64054846D01*
X102465780Y-64089405D01*
X102477155Y-64126901D01*
X102481600Y-64172038D01*
X102481600Y-64910762D01*
X102477155Y-64955899D01*
X102465780Y-64993395D01*
X102447308Y-65027954D01*
X102422447Y-65058247D01*
X102392154Y-65083108D01*
X102357595Y-65101580D01*
X102320099Y-65112955D01*
X102274962Y-65117400D01*
X101636238Y-65117400D01*
X101591101Y-65112955D01*
X101553605Y-65101580D01*
X101519046Y-65083108D01*
X101488753Y-65058247D01*
X101463892Y-65027954D01*
X101445420Y-64993395D01*
X101434045Y-64955899D01*
X101429600Y-64910762D01*
X101429600Y-64172038D01*
X101434045Y-64126901D01*
X101445420Y-64089405D01*
X101463892Y-64054846D01*
X101488753Y-64024553D01*
X101519046Y-63999692D01*
X101553605Y-63981220D01*
X101591101Y-63969845D01*
X101636238Y-63965400D01*
X102274962Y-63965400D01*
X102320099Y-63969845D01*
G37*
G36*
X105088600Y-65102400D02*
G01*
X102986600Y-65102400D01*
X102986600Y-63500400D01*
X105088600Y-63500400D01*
X105088600Y-65102400D01*
G37*
G36*
X124468800Y-65102400D02*
G01*
X122366800Y-65102400D01*
X122366800Y-63500400D01*
X124468800Y-63500400D01*
X124468800Y-65102400D01*
G37*
G36*
X85733800Y-65102400D02*
G01*
X83631800Y-65102400D01*
X83631800Y-63500400D01*
X85733800Y-63500400D01*
X85733800Y-65102400D01*
G37*
G36*
X130768800Y-63952400D02*
G01*
X128666800Y-63952400D01*
X128666800Y-60050400D01*
X130768800Y-60050400D01*
X130768800Y-63952400D01*
G37*
G36*
X111388600Y-63952400D02*
G01*
X109286600Y-63952400D01*
X109286600Y-60050400D01*
X111388600Y-60050400D01*
X111388600Y-63952400D01*
G37*
G36*
X92033800Y-63952400D02*
G01*
X89931800Y-63952400D01*
X89931800Y-60050400D01*
X92033800Y-60050400D01*
X92033800Y-63952400D01*
G37*
G36*
X153221699Y-62268045D02*
G01*
X153259195Y-62279420D01*
X153293754Y-62297892D01*
X153324047Y-62322753D01*
X153348908Y-62353046D01*
X153367380Y-62387605D01*
X153378755Y-62425101D01*
X153383200Y-62470238D01*
X153383200Y-63208962D01*
X153378755Y-63254099D01*
X153367380Y-63291595D01*
X153348908Y-63326154D01*
X153324047Y-63356447D01*
X153293754Y-63381308D01*
X153259195Y-63399780D01*
X153221699Y-63411155D01*
X153176562Y-63415600D01*
X152537838Y-63415600D01*
X152492701Y-63411155D01*
X152455205Y-63399780D01*
X152420646Y-63381308D01*
X152390353Y-63356447D01*
X152365492Y-63326154D01*
X152347020Y-63291595D01*
X152335645Y-63254099D01*
X152331200Y-63208962D01*
X152331200Y-62470238D01*
X152335645Y-62425101D01*
X152347020Y-62387605D01*
X152365492Y-62353046D01*
X152390353Y-62322753D01*
X152420646Y-62297892D01*
X152455205Y-62279420D01*
X152492701Y-62268045D01*
X152537838Y-62263600D01*
X153176562Y-62263600D01*
X153221699Y-62268045D01*
G37*
G36*
X121725699Y-62245245D02*
G01*
X121763195Y-62256620D01*
X121797754Y-62275092D01*
X121828047Y-62299953D01*
X121852908Y-62330246D01*
X121871380Y-62364805D01*
X121882755Y-62402301D01*
X121887200Y-62447438D01*
X121887200Y-63186162D01*
X121882755Y-63231299D01*
X121871380Y-63268795D01*
X121852908Y-63303354D01*
X121828047Y-63333647D01*
X121797754Y-63358508D01*
X121763195Y-63376980D01*
X121725699Y-63388355D01*
X121680562Y-63392800D01*
X121041838Y-63392800D01*
X120996701Y-63388355D01*
X120959205Y-63376980D01*
X120924646Y-63358508D01*
X120894353Y-63333647D01*
X120869492Y-63303354D01*
X120851020Y-63268795D01*
X120839645Y-63231299D01*
X120835200Y-63186162D01*
X120835200Y-62447438D01*
X120839645Y-62402301D01*
X120851020Y-62364805D01*
X120869492Y-62330246D01*
X120894353Y-62299953D01*
X120924646Y-62275092D01*
X120959205Y-62256620D01*
X120996701Y-62245245D01*
X121041838Y-62240800D01*
X121680562Y-62240800D01*
X121725699Y-62245245D01*
G37*
G36*
X82990699Y-62245245D02*
G01*
X83028195Y-62256620D01*
X83062754Y-62275092D01*
X83093047Y-62299953D01*
X83117908Y-62330246D01*
X83136380Y-62364805D01*
X83147755Y-62402301D01*
X83152200Y-62447438D01*
X83152200Y-63186162D01*
X83147755Y-63231299D01*
X83136380Y-63268795D01*
X83117908Y-63303354D01*
X83093047Y-63333647D01*
X83062754Y-63358508D01*
X83028195Y-63376980D01*
X82990699Y-63388355D01*
X82945562Y-63392800D01*
X82306838Y-63392800D01*
X82261701Y-63388355D01*
X82224205Y-63376980D01*
X82189646Y-63358508D01*
X82159353Y-63333647D01*
X82134492Y-63303354D01*
X82116020Y-63268795D01*
X82104645Y-63231299D01*
X82100200Y-63186162D01*
X82100200Y-62447438D01*
X82104645Y-62402301D01*
X82116020Y-62364805D01*
X82134492Y-62330246D01*
X82159353Y-62299953D01*
X82189646Y-62275092D01*
X82224205Y-62256620D01*
X82261701Y-62245245D01*
X82306838Y-62240800D01*
X82945562Y-62240800D01*
X82990699Y-62245245D01*
G37*
G36*
X102320099Y-62219845D02*
G01*
X102357595Y-62231220D01*
X102392154Y-62249692D01*
X102422447Y-62274553D01*
X102447308Y-62304846D01*
X102465780Y-62339405D01*
X102477155Y-62376901D01*
X102481600Y-62422038D01*
X102481600Y-63160762D01*
X102477155Y-63205899D01*
X102465780Y-63243395D01*
X102447308Y-63277954D01*
X102422447Y-63308247D01*
X102392154Y-63333108D01*
X102357595Y-63351580D01*
X102320099Y-63362955D01*
X102274962Y-63367400D01*
X101636238Y-63367400D01*
X101591101Y-63362955D01*
X101553605Y-63351580D01*
X101519046Y-63333108D01*
X101488753Y-63308247D01*
X101463892Y-63277954D01*
X101445420Y-63243395D01*
X101434045Y-63205899D01*
X101429600Y-63160762D01*
X101429600Y-62422038D01*
X101434045Y-62376901D01*
X101445420Y-62339405D01*
X101463892Y-62304846D01*
X101488753Y-62274553D01*
X101519046Y-62249692D01*
X101553605Y-62231220D01*
X101591101Y-62219845D01*
X101636238Y-62215400D01*
X102274962Y-62215400D01*
X102320099Y-62219845D01*
G37*
G36*
X73922800Y-63102400D02*
G01*
X71720800Y-63102400D01*
X71720800Y-60900400D01*
X73922800Y-60900400D01*
X73922800Y-63102400D01*
G37*
G36*
X78284799Y-61201137D02*
G01*
X78294408Y-61204052D01*
X78303272Y-61208790D01*
X78311037Y-61215163D01*
X78321248Y-61227606D01*
X78328178Y-61237975D01*
X78345505Y-61255302D01*
X78365880Y-61268915D01*
X78388520Y-61278291D01*
X78412553Y-61283071D01*
X78437057Y-61283070D01*
X78461090Y-61278288D01*
X78483729Y-61268910D01*
X78504102Y-61255295D01*
X78521429Y-61237968D01*
X78528358Y-61227598D01*
X78538563Y-61215163D01*
X78546328Y-61208790D01*
X78555192Y-61204052D01*
X78564801Y-61201137D01*
X78580940Y-61199548D01*
X79068661Y-61199548D01*
X79086999Y-61201354D01*
X79099250Y-61201956D01*
X79117669Y-61201956D01*
X79139949Y-61204150D01*
X79224033Y-61220876D01*
X79245460Y-61227376D01*
X79324658Y-61260180D01*
X79330103Y-61263091D01*
X79330109Y-61263093D01*
X79338969Y-61267829D01*
X79338973Y-61267832D01*
X79344414Y-61270740D01*
X79415699Y-61318371D01*
X79433004Y-61332572D01*
X79493628Y-61393196D01*
X79507829Y-61410501D01*
X79555460Y-61481786D01*
X79558368Y-61487227D01*
X79558371Y-61487231D01*
X79563107Y-61496091D01*
X79563109Y-61496097D01*
X79566020Y-61501542D01*
X79598824Y-61580740D01*
X79605324Y-61602167D01*
X79622050Y-61686251D01*
X79624244Y-61708531D01*
X79624244Y-61726950D01*
X79624846Y-61739201D01*
X79626652Y-61757539D01*
X79626652Y-62245262D01*
X79624846Y-62263599D01*
X79624244Y-62275850D01*
X79624244Y-62294269D01*
X79622050Y-62316549D01*
X79605324Y-62400633D01*
X79598824Y-62422060D01*
X79566020Y-62501258D01*
X79563109Y-62506703D01*
X79563107Y-62506709D01*
X79558371Y-62515569D01*
X79558368Y-62515573D01*
X79555460Y-62521014D01*
X79507829Y-62592299D01*
X79493628Y-62609604D01*
X79433004Y-62670228D01*
X79415699Y-62684429D01*
X79344414Y-62732060D01*
X79338973Y-62734968D01*
X79338969Y-62734971D01*
X79330109Y-62739707D01*
X79330103Y-62739709D01*
X79324658Y-62742620D01*
X79245460Y-62775424D01*
X79224033Y-62781924D01*
X79139949Y-62798650D01*
X79117669Y-62800844D01*
X79099250Y-62800844D01*
X79086999Y-62801446D01*
X79068662Y-62803252D01*
X78580940Y-62803252D01*
X78564801Y-62801663D01*
X78555192Y-62798748D01*
X78546328Y-62794010D01*
X78538563Y-62787637D01*
X78528352Y-62775194D01*
X78521422Y-62764825D01*
X78504095Y-62747498D01*
X78483720Y-62733885D01*
X78461080Y-62724509D01*
X78437047Y-62719729D01*
X78412543Y-62719730D01*
X78388510Y-62724512D01*
X78365871Y-62733890D01*
X78345498Y-62747505D01*
X78328171Y-62764832D01*
X78321242Y-62775202D01*
X78311037Y-62787637D01*
X78303272Y-62794010D01*
X78294408Y-62798748D01*
X78284799Y-62801663D01*
X78268660Y-62803252D01*
X77780938Y-62803252D01*
X77762601Y-62801446D01*
X77750350Y-62800844D01*
X77731931Y-62800844D01*
X77709651Y-62798650D01*
X77625567Y-62781924D01*
X77604140Y-62775424D01*
X77524942Y-62742620D01*
X77519497Y-62739709D01*
X77519491Y-62739707D01*
X77510631Y-62734971D01*
X77510627Y-62734968D01*
X77505186Y-62732060D01*
X77433901Y-62684429D01*
X77416596Y-62670228D01*
X77355972Y-62609604D01*
X77341771Y-62592299D01*
X77294140Y-62521014D01*
X77291232Y-62515573D01*
X77291229Y-62515569D01*
X77286493Y-62506709D01*
X77286491Y-62506703D01*
X77283580Y-62501258D01*
X77250776Y-62422060D01*
X77244276Y-62400633D01*
X77227550Y-62316549D01*
X77225356Y-62294269D01*
X77225356Y-62275850D01*
X77224754Y-62263599D01*
X77222948Y-62245262D01*
X77222948Y-61757539D01*
X77224754Y-61739201D01*
X77225356Y-61726950D01*
X77225356Y-61708531D01*
X77227550Y-61686251D01*
X77244276Y-61602167D01*
X77250776Y-61580740D01*
X77283580Y-61501542D01*
X77286491Y-61496097D01*
X77286493Y-61496091D01*
X77291229Y-61487231D01*
X77291232Y-61487227D01*
X77294140Y-61481786D01*
X77341771Y-61410501D01*
X77355972Y-61393196D01*
X77416596Y-61332572D01*
X77433901Y-61318371D01*
X77505186Y-61270740D01*
X77510627Y-61267832D01*
X77510631Y-61267829D01*
X77519491Y-61263093D01*
X77519497Y-61263091D01*
X77524942Y-61260180D01*
X77604140Y-61227376D01*
X77625567Y-61220876D01*
X77709651Y-61204150D01*
X77731931Y-61201956D01*
X77750350Y-61201956D01*
X77762601Y-61201354D01*
X77780939Y-61199548D01*
X78268660Y-61199548D01*
X78284799Y-61201137D01*
G37*
G36*
X105088600Y-62802400D02*
G01*
X102986600Y-62802400D01*
X102986600Y-61200400D01*
X105088600Y-61200400D01*
X105088600Y-62802400D01*
G37*
G36*
X85733800Y-62802400D02*
G01*
X83631800Y-62802400D01*
X83631800Y-61200400D01*
X85733800Y-61200400D01*
X85733800Y-62802400D01*
G37*
G36*
X124468800Y-62802400D02*
G01*
X122366800Y-62802400D01*
X122366800Y-61200400D01*
X124468800Y-61200400D01*
X124468800Y-62802400D01*
G37*
G36*
X151553600Y-62164800D02*
G01*
X149951600Y-62164800D01*
X149951600Y-57062800D01*
X151553600Y-57062800D01*
X151553600Y-62164800D01*
G37*
G36*
X145653600Y-62164800D02*
G01*
X144051600Y-62164800D01*
X144051600Y-57062800D01*
X145653600Y-57062800D01*
X145653600Y-62164800D01*
G37*
G36*
X102320099Y-60667845D02*
G01*
X102357595Y-60679220D01*
X102392154Y-60697692D01*
X102422447Y-60722553D01*
X102447308Y-60752846D01*
X102465780Y-60787405D01*
X102477155Y-60824901D01*
X102481600Y-60870038D01*
X102481600Y-61608762D01*
X102477155Y-61653899D01*
X102465780Y-61691395D01*
X102447308Y-61725954D01*
X102422447Y-61756247D01*
X102392154Y-61781108D01*
X102357595Y-61799580D01*
X102320099Y-61810955D01*
X102274962Y-61815400D01*
X101636238Y-61815400D01*
X101591101Y-61810955D01*
X101553605Y-61799580D01*
X101519046Y-61781108D01*
X101488753Y-61756247D01*
X101463892Y-61725954D01*
X101445420Y-61691395D01*
X101434045Y-61653899D01*
X101429600Y-61608762D01*
X101429600Y-60870038D01*
X101434045Y-60824901D01*
X101445420Y-60787405D01*
X101463892Y-60752846D01*
X101488753Y-60722553D01*
X101519046Y-60697692D01*
X101553605Y-60679220D01*
X101591101Y-60667845D01*
X101636238Y-60663400D01*
X102274962Y-60663400D01*
X102320099Y-60667845D01*
G37*
G36*
X82990699Y-60617045D02*
G01*
X83028195Y-60628420D01*
X83062754Y-60646892D01*
X83093047Y-60671753D01*
X83117908Y-60702046D01*
X83136380Y-60736605D01*
X83147755Y-60774101D01*
X83152200Y-60819238D01*
X83152200Y-61557962D01*
X83147755Y-61603099D01*
X83136380Y-61640595D01*
X83117908Y-61675154D01*
X83093047Y-61705447D01*
X83062754Y-61730308D01*
X83028195Y-61748780D01*
X82990699Y-61760155D01*
X82945562Y-61764600D01*
X82306838Y-61764600D01*
X82261701Y-61760155D01*
X82224205Y-61748780D01*
X82189646Y-61730308D01*
X82159353Y-61705447D01*
X82134492Y-61675154D01*
X82116020Y-61640595D01*
X82104645Y-61603099D01*
X82100200Y-61557962D01*
X82100200Y-60819238D01*
X82104645Y-60774101D01*
X82116020Y-60736605D01*
X82134492Y-60702046D01*
X82159353Y-60671753D01*
X82189646Y-60646892D01*
X82224205Y-60628420D01*
X82261701Y-60617045D01*
X82306838Y-60612600D01*
X82945562Y-60612600D01*
X82990699Y-60617045D01*
G37*
G36*
X121725699Y-60614445D02*
G01*
X121763195Y-60625820D01*
X121797754Y-60644292D01*
X121828047Y-60669153D01*
X121852908Y-60699446D01*
X121871380Y-60734005D01*
X121882755Y-60771501D01*
X121887200Y-60816638D01*
X121887200Y-61555362D01*
X121882755Y-61600499D01*
X121871380Y-61637995D01*
X121852908Y-61672554D01*
X121828047Y-61702847D01*
X121797754Y-61727708D01*
X121763195Y-61746180D01*
X121725699Y-61757555D01*
X121680562Y-61762000D01*
X121041838Y-61762000D01*
X120996701Y-61757555D01*
X120959205Y-61746180D01*
X120924646Y-61727708D01*
X120894353Y-61702847D01*
X120869492Y-61672554D01*
X120851020Y-61637995D01*
X120839645Y-61600499D01*
X120835200Y-61555362D01*
X120835200Y-60816638D01*
X120839645Y-60771501D01*
X120851020Y-60734005D01*
X120869492Y-60699446D01*
X120894353Y-60669153D01*
X120924646Y-60644292D01*
X120959205Y-60625820D01*
X120996701Y-60614445D01*
X121041838Y-60610000D01*
X121680562Y-60610000D01*
X121725699Y-60614445D01*
G37*
G36*
X153221699Y-60518045D02*
G01*
X153259195Y-60529420D01*
X153293754Y-60547892D01*
X153324047Y-60572753D01*
X153348908Y-60603046D01*
X153367380Y-60637605D01*
X153378755Y-60675101D01*
X153383200Y-60720238D01*
X153383200Y-61458962D01*
X153378755Y-61504099D01*
X153367380Y-61541595D01*
X153348908Y-61576154D01*
X153324047Y-61606447D01*
X153293754Y-61631308D01*
X153259195Y-61649780D01*
X153221699Y-61661155D01*
X153176562Y-61665600D01*
X152537838Y-61665600D01*
X152492701Y-61661155D01*
X152455205Y-61649780D01*
X152420646Y-61631308D01*
X152390353Y-61606447D01*
X152365492Y-61576154D01*
X152347020Y-61541595D01*
X152335645Y-61504099D01*
X152331200Y-61458962D01*
X152331200Y-60720238D01*
X152335645Y-60675101D01*
X152347020Y-60637605D01*
X152365492Y-60603046D01*
X152390353Y-60572753D01*
X152420646Y-60547892D01*
X152455205Y-60529420D01*
X152492701Y-60518045D01*
X152537838Y-60513600D01*
X153176562Y-60513600D01*
X153221699Y-60518045D01*
G37*
G36*
X163734762Y-59264081D02*
G01*
X163769681Y-59274674D01*
X163801863Y-59291876D01*
X163830073Y-59315027D01*
X163853224Y-59343237D01*
X163870426Y-59375419D01*
X163881019Y-59410338D01*
X163885200Y-59452795D01*
X163885200Y-60594005D01*
X163881019Y-60636462D01*
X163870426Y-60671381D01*
X163853224Y-60703563D01*
X163830073Y-60731773D01*
X163801863Y-60754924D01*
X163769681Y-60772126D01*
X163734762Y-60782719D01*
X163692305Y-60786900D01*
X161326095Y-60786900D01*
X161283638Y-60782719D01*
X161248719Y-60772126D01*
X161216537Y-60754924D01*
X161188327Y-60731773D01*
X161165176Y-60703563D01*
X161147974Y-60671381D01*
X161137381Y-60636462D01*
X161133200Y-60594005D01*
X161133200Y-59452795D01*
X161137381Y-59410338D01*
X161147974Y-59375419D01*
X161165176Y-59343237D01*
X161188327Y-59315027D01*
X161216537Y-59291876D01*
X161248719Y-59274674D01*
X161283638Y-59264081D01*
X161326095Y-59259900D01*
X163692305Y-59259900D01*
X163734762Y-59264081D01*
G37*
G36*
X124468800Y-60502400D02*
G01*
X122366800Y-60502400D01*
X122366800Y-58900400D01*
X124468800Y-58900400D01*
X124468800Y-60502400D01*
G37*
G36*
X85733800Y-60502400D02*
G01*
X83631800Y-60502400D01*
X83631800Y-58900400D01*
X85733800Y-58900400D01*
X85733800Y-60502400D01*
G37*
G36*
X105088600Y-60502400D02*
G01*
X102986600Y-60502400D01*
X102986600Y-58900400D01*
X105088600Y-58900400D01*
X105088600Y-60502400D01*
G37*
G36*
X159084674Y-58865265D02*
G01*
X159122367Y-58876699D01*
X159157103Y-58895266D01*
X159187548Y-58920252D01*
X159212534Y-58950697D01*
X159231101Y-58985433D01*
X159242535Y-59023126D01*
X159247000Y-59068461D01*
X159247000Y-59905139D01*
X159242535Y-59950474D01*
X159231101Y-59988167D01*
X159212534Y-60022903D01*
X159187548Y-60053348D01*
X159157103Y-60078334D01*
X159122367Y-60096901D01*
X159084674Y-60108335D01*
X159039339Y-60112800D01*
X157952661Y-60112800D01*
X157907326Y-60108335D01*
X157869633Y-60096901D01*
X157834897Y-60078334D01*
X157804452Y-60053348D01*
X157779466Y-60022903D01*
X157760899Y-59988167D01*
X157749465Y-59950474D01*
X157745000Y-59905139D01*
X157745000Y-59068461D01*
X157749465Y-59023126D01*
X157760899Y-58985433D01*
X157779466Y-58950697D01*
X157804452Y-58920252D01*
X157834897Y-58895266D01*
X157869633Y-58876699D01*
X157907326Y-58865265D01*
X157952661Y-58860800D01*
X159039339Y-58860800D01*
X159084674Y-58865265D01*
G37*
G36*
X102320099Y-58917845D02*
G01*
X102357595Y-58929220D01*
X102392154Y-58947692D01*
X102422447Y-58972553D01*
X102447308Y-59002846D01*
X102465780Y-59037405D01*
X102477155Y-59074901D01*
X102481600Y-59120038D01*
X102481600Y-59858762D01*
X102477155Y-59903899D01*
X102465780Y-59941395D01*
X102447308Y-59975954D01*
X102422447Y-60006247D01*
X102392154Y-60031108D01*
X102357595Y-60049580D01*
X102320099Y-60060955D01*
X102274962Y-60065400D01*
X101636238Y-60065400D01*
X101591101Y-60060955D01*
X101553605Y-60049580D01*
X101519046Y-60031108D01*
X101488753Y-60006247D01*
X101463892Y-59975954D01*
X101445420Y-59941395D01*
X101434045Y-59903899D01*
X101429600Y-59858762D01*
X101429600Y-59120038D01*
X101434045Y-59074901D01*
X101445420Y-59037405D01*
X101463892Y-59002846D01*
X101488753Y-58972553D01*
X101519046Y-58947692D01*
X101553605Y-58929220D01*
X101591101Y-58917845D01*
X101636238Y-58913400D01*
X102274962Y-58913400D01*
X102320099Y-58917845D01*
G37*
G36*
X82990699Y-58867045D02*
G01*
X83028195Y-58878420D01*
X83062754Y-58896892D01*
X83093047Y-58921753D01*
X83117908Y-58952046D01*
X83136380Y-58986605D01*
X83147755Y-59024101D01*
X83152200Y-59069238D01*
X83152200Y-59807962D01*
X83147755Y-59853099D01*
X83136380Y-59890595D01*
X83117908Y-59925154D01*
X83093047Y-59955447D01*
X83062754Y-59980308D01*
X83028195Y-59998780D01*
X82990699Y-60010155D01*
X82945562Y-60014600D01*
X82306838Y-60014600D01*
X82261701Y-60010155D01*
X82224205Y-59998780D01*
X82189646Y-59980308D01*
X82159353Y-59955447D01*
X82134492Y-59925154D01*
X82116020Y-59890595D01*
X82104645Y-59853099D01*
X82100200Y-59807962D01*
X82100200Y-59069238D01*
X82104645Y-59024101D01*
X82116020Y-58986605D01*
X82134492Y-58952046D01*
X82159353Y-58921753D01*
X82189646Y-58896892D01*
X82224205Y-58878420D01*
X82261701Y-58867045D01*
X82306838Y-58862600D01*
X82945562Y-58862600D01*
X82990699Y-58867045D01*
G37*
G36*
X121725699Y-58864445D02*
G01*
X121763195Y-58875820D01*
X121797754Y-58894292D01*
X121828047Y-58919153D01*
X121852908Y-58949446D01*
X121871380Y-58984005D01*
X121882755Y-59021501D01*
X121887200Y-59066638D01*
X121887200Y-59805362D01*
X121882755Y-59850499D01*
X121871380Y-59887995D01*
X121852908Y-59922554D01*
X121828047Y-59952847D01*
X121797754Y-59977708D01*
X121763195Y-59996180D01*
X121725699Y-60007555D01*
X121680562Y-60012000D01*
X121041838Y-60012000D01*
X120996701Y-60007555D01*
X120959205Y-59996180D01*
X120924646Y-59977708D01*
X120894353Y-59952847D01*
X120869492Y-59922554D01*
X120851020Y-59887995D01*
X120839645Y-59850499D01*
X120835200Y-59805362D01*
X120835200Y-59066638D01*
X120839645Y-59021501D01*
X120851020Y-58984005D01*
X120869492Y-58949446D01*
X120894353Y-58919153D01*
X120924646Y-58894292D01*
X120959205Y-58875820D01*
X120996701Y-58864445D01*
X121041838Y-58860000D01*
X121680562Y-58860000D01*
X121725699Y-58864445D01*
G37*
G36*
X159084674Y-56815265D02*
G01*
X159122367Y-56826699D01*
X159157103Y-56845266D01*
X159187548Y-56870252D01*
X159212534Y-56900697D01*
X159231101Y-56935433D01*
X159242535Y-56973126D01*
X159247000Y-57018461D01*
X159247000Y-57855139D01*
X159242535Y-57900474D01*
X159231101Y-57938167D01*
X159212534Y-57972903D01*
X159187548Y-58003348D01*
X159157103Y-58028334D01*
X159122367Y-58046901D01*
X159084674Y-58058335D01*
X159039339Y-58062800D01*
X157952661Y-58062800D01*
X157907326Y-58058335D01*
X157869633Y-58046901D01*
X157834897Y-58028334D01*
X157804452Y-58003348D01*
X157779466Y-57972903D01*
X157760899Y-57938167D01*
X157749465Y-57900474D01*
X157745000Y-57855139D01*
X157745000Y-57018461D01*
X157749465Y-56973126D01*
X157760899Y-56935433D01*
X157779466Y-56900697D01*
X157804452Y-56870252D01*
X157834897Y-56845266D01*
X157869633Y-56826699D01*
X157907326Y-56815265D01*
X157952661Y-56810800D01*
X159039339Y-56810800D01*
X159084674Y-56815265D01*
G37*
G36*
X163734762Y-56289081D02*
G01*
X163769681Y-56299674D01*
X163801863Y-56316876D01*
X163830073Y-56340027D01*
X163853224Y-56368237D01*
X163870426Y-56400419D01*
X163881019Y-56435338D01*
X163885200Y-56477795D01*
X163885200Y-57619005D01*
X163881019Y-57661462D01*
X163870426Y-57696381D01*
X163853224Y-57728563D01*
X163830073Y-57756773D01*
X163801863Y-57779924D01*
X163769681Y-57797126D01*
X163734762Y-57807719D01*
X163692305Y-57811900D01*
X161326095Y-57811900D01*
X161283638Y-57807719D01*
X161248719Y-57797126D01*
X161216537Y-57779924D01*
X161188327Y-57756773D01*
X161165176Y-57728563D01*
X161147974Y-57696381D01*
X161137381Y-57661462D01*
X161133200Y-57619005D01*
X161133200Y-56477795D01*
X161137381Y-56435338D01*
X161147974Y-56400419D01*
X161165176Y-56368237D01*
X161188327Y-56340027D01*
X161216537Y-56316876D01*
X161248719Y-56299674D01*
X161283638Y-56289081D01*
X161326095Y-56284900D01*
X163692305Y-56284900D01*
X163734762Y-56289081D01*
G37*
G36*
X90049662Y-54551781D02*
G01*
X90084581Y-54562374D01*
X90116763Y-54579576D01*
X90144973Y-54602727D01*
X90168124Y-54630937D01*
X90185326Y-54663119D01*
X90195919Y-54698038D01*
X90200100Y-54740495D01*
X90200100Y-56206705D01*
X90195919Y-56249162D01*
X90185326Y-56284081D01*
X90168124Y-56316263D01*
X90144973Y-56344473D01*
X90116763Y-56367624D01*
X90084581Y-56384826D01*
X90049662Y-56395419D01*
X90007205Y-56399600D01*
X88865995Y-56399600D01*
X88823538Y-56395419D01*
X88788619Y-56384826D01*
X88756437Y-56367624D01*
X88728227Y-56344473D01*
X88705076Y-56316263D01*
X88687874Y-56284081D01*
X88677281Y-56249162D01*
X88673100Y-56206705D01*
X88673100Y-54740495D01*
X88677281Y-54698038D01*
X88687874Y-54663119D01*
X88705076Y-54630937D01*
X88728227Y-54602727D01*
X88756437Y-54579576D01*
X88788619Y-54562374D01*
X88823538Y-54551781D01*
X88865995Y-54547600D01*
X90007205Y-54547600D01*
X90049662Y-54551781D01*
G37*
G36*
X87074662Y-54551781D02*
G01*
X87109581Y-54562374D01*
X87141763Y-54579576D01*
X87169973Y-54602727D01*
X87193124Y-54630937D01*
X87210326Y-54663119D01*
X87220919Y-54698038D01*
X87225100Y-54740495D01*
X87225100Y-56206705D01*
X87220919Y-56249162D01*
X87210326Y-56284081D01*
X87193124Y-56316263D01*
X87169973Y-56344473D01*
X87141763Y-56367624D01*
X87109581Y-56384826D01*
X87074662Y-56395419D01*
X87032205Y-56399600D01*
X85890995Y-56399600D01*
X85848538Y-56395419D01*
X85813619Y-56384826D01*
X85781437Y-56367624D01*
X85753227Y-56344473D01*
X85730076Y-56316263D01*
X85712874Y-56284081D01*
X85702281Y-56249162D01*
X85698100Y-56206705D01*
X85698100Y-54740495D01*
X85702281Y-54698038D01*
X85712874Y-54663119D01*
X85730076Y-54630937D01*
X85753227Y-54602727D01*
X85781437Y-54579576D01*
X85813619Y-54562374D01*
X85848538Y-54551781D01*
X85890995Y-54547600D01*
X87032205Y-54547600D01*
X87074662Y-54551781D01*
G37*
G36*
X98161074Y-54574665D02*
G01*
X98198767Y-54586099D01*
X98233503Y-54604666D01*
X98263948Y-54629652D01*
X98288934Y-54660097D01*
X98307501Y-54694833D01*
X98318935Y-54732526D01*
X98323400Y-54777861D01*
X98323400Y-55864539D01*
X98318935Y-55909874D01*
X98307501Y-55947567D01*
X98288934Y-55982303D01*
X98263948Y-56012748D01*
X98233503Y-56037734D01*
X98198767Y-56056301D01*
X98161074Y-56067735D01*
X98115739Y-56072200D01*
X97279061Y-56072200D01*
X97233726Y-56067735D01*
X97196033Y-56056301D01*
X97161297Y-56037734D01*
X97130852Y-56012748D01*
X97105866Y-55982303D01*
X97087299Y-55947567D01*
X97075865Y-55909874D01*
X97071400Y-55864539D01*
X97071400Y-54777861D01*
X97075865Y-54732526D01*
X97087299Y-54694833D01*
X97105866Y-54660097D01*
X97130852Y-54629652D01*
X97161297Y-54604666D01*
X97196033Y-54586099D01*
X97233726Y-54574665D01*
X97279061Y-54570200D01*
X98115739Y-54570200D01*
X98161074Y-54574665D01*
G37*
G36*
X92038074Y-54574665D02*
G01*
X92075767Y-54586099D01*
X92110503Y-54604666D01*
X92140948Y-54629652D01*
X92165934Y-54660097D01*
X92184501Y-54694833D01*
X92195935Y-54732526D01*
X92200400Y-54777861D01*
X92200400Y-55864539D01*
X92195935Y-55909874D01*
X92184501Y-55947567D01*
X92165934Y-55982303D01*
X92140948Y-56012748D01*
X92110503Y-56037734D01*
X92075767Y-56056301D01*
X92038074Y-56067735D01*
X91992739Y-56072200D01*
X91156061Y-56072200D01*
X91110726Y-56067735D01*
X91073033Y-56056301D01*
X91038297Y-56037734D01*
X91007852Y-56012748D01*
X90982866Y-55982303D01*
X90964299Y-55947567D01*
X90952865Y-55909874D01*
X90948400Y-55864539D01*
X90948400Y-54777861D01*
X90952865Y-54732526D01*
X90964299Y-54694833D01*
X90982866Y-54660097D01*
X91007852Y-54629652D01*
X91038297Y-54604666D01*
X91073033Y-54586099D01*
X91110726Y-54574665D01*
X91156061Y-54570200D01*
X91992739Y-54570200D01*
X92038074Y-54574665D01*
G37*
G36*
X96111074Y-54574665D02*
G01*
X96148767Y-54586099D01*
X96183503Y-54604666D01*
X96213948Y-54629652D01*
X96238934Y-54660097D01*
X96257501Y-54694833D01*
X96268935Y-54732526D01*
X96273400Y-54777861D01*
X96273400Y-55864539D01*
X96268935Y-55909874D01*
X96257501Y-55947567D01*
X96238934Y-55982303D01*
X96213948Y-56012748D01*
X96183503Y-56037734D01*
X96148767Y-56056301D01*
X96111074Y-56067735D01*
X96065739Y-56072200D01*
X95229061Y-56072200D01*
X95183726Y-56067735D01*
X95146033Y-56056301D01*
X95111297Y-56037734D01*
X95080852Y-56012748D01*
X95055866Y-55982303D01*
X95037299Y-55947567D01*
X95025865Y-55909874D01*
X95021400Y-55864539D01*
X95021400Y-54777861D01*
X95025865Y-54732526D01*
X95037299Y-54694833D01*
X95055866Y-54660097D01*
X95080852Y-54629652D01*
X95111297Y-54604666D01*
X95146033Y-54586099D01*
X95183726Y-54574665D01*
X95229061Y-54570200D01*
X96065739Y-54570200D01*
X96111074Y-54574665D01*
G37*
G36*
X94088074Y-54574665D02*
G01*
X94125767Y-54586099D01*
X94160503Y-54604666D01*
X94190948Y-54629652D01*
X94215934Y-54660097D01*
X94234501Y-54694833D01*
X94245935Y-54732526D01*
X94250400Y-54777861D01*
X94250400Y-55864539D01*
X94245935Y-55909874D01*
X94234501Y-55947567D01*
X94215934Y-55982303D01*
X94190948Y-56012748D01*
X94160503Y-56037734D01*
X94125767Y-56056301D01*
X94088074Y-56067735D01*
X94042739Y-56072200D01*
X93206061Y-56072200D01*
X93160726Y-56067735D01*
X93123033Y-56056301D01*
X93088297Y-56037734D01*
X93057852Y-56012748D01*
X93032866Y-55982303D01*
X93014299Y-55947567D01*
X93002865Y-55909874D01*
X92998400Y-55864539D01*
X92998400Y-54777861D01*
X93002865Y-54732526D01*
X93014299Y-54694833D01*
X93032866Y-54660097D01*
X93057852Y-54629652D01*
X93088297Y-54604666D01*
X93123033Y-54586099D01*
X93160726Y-54574665D01*
X93206061Y-54570200D01*
X94042739Y-54570200D01*
X94088074Y-54574665D01*
G37*
G36*
X76154800Y-54666400D02*
G01*
X73552800Y-54666400D01*
X73552800Y-52064400D01*
X76154800Y-52064400D01*
X76154800Y-54666400D01*
G37*
G36*
X106660962Y-52990281D02*
G01*
X106695881Y-53000874D01*
X106728063Y-53018076D01*
X106756273Y-53041227D01*
X106779424Y-53069437D01*
X106796626Y-53101619D01*
X106807219Y-53136538D01*
X106811400Y-53178995D01*
X106811400Y-54320205D01*
X106807219Y-54362662D01*
X106796626Y-54397581D01*
X106779424Y-54429763D01*
X106756273Y-54457973D01*
X106728063Y-54481124D01*
X106695881Y-54498326D01*
X106660962Y-54508919D01*
X106618505Y-54513100D01*
X104252295Y-54513100D01*
X104209838Y-54508919D01*
X104174919Y-54498326D01*
X104142737Y-54481124D01*
X104114527Y-54457973D01*
X104091376Y-54429763D01*
X104074174Y-54397581D01*
X104063581Y-54362662D01*
X104059400Y-54320205D01*
X104059400Y-53178995D01*
X104063581Y-53136538D01*
X104074174Y-53101619D01*
X104091376Y-53069437D01*
X104114527Y-53041227D01*
X104142737Y-53018076D01*
X104174919Y-53000874D01*
X104209838Y-52990281D01*
X104252295Y-52986100D01*
X106618505Y-52986100D01*
X106660962Y-52990281D01*
G37*
G36*
X162966000Y-54492600D02*
G01*
X161364000Y-54492600D01*
X161364000Y-52390600D01*
X162966000Y-52390600D01*
X162966000Y-54492600D01*
G37*
G36*
X160666000Y-54492600D02*
G01*
X159064000Y-54492600D01*
X159064000Y-52390600D01*
X160666000Y-52390600D01*
X160666000Y-54492600D01*
G37*
G36*
X165266000Y-54492600D02*
G01*
X163664000Y-54492600D01*
X163664000Y-52390600D01*
X165266000Y-52390600D01*
X165266000Y-54492600D01*
G37*
G36*
X152993099Y-53299245D02*
G01*
X153030595Y-53310620D01*
X153065154Y-53329092D01*
X153095447Y-53353953D01*
X153120308Y-53384246D01*
X153138780Y-53418805D01*
X153150155Y-53456301D01*
X153154600Y-53501438D01*
X153154600Y-54240162D01*
X153150155Y-54285299D01*
X153138780Y-54322795D01*
X153120308Y-54357354D01*
X153095447Y-54387647D01*
X153065154Y-54412508D01*
X153030595Y-54430980D01*
X152993099Y-54442355D01*
X152947962Y-54446800D01*
X152309238Y-54446800D01*
X152264101Y-54442355D01*
X152226605Y-54430980D01*
X152192046Y-54412508D01*
X152161753Y-54387647D01*
X152136892Y-54357354D01*
X152118420Y-54322795D01*
X152107045Y-54285299D01*
X152102600Y-54240162D01*
X152102600Y-53501438D01*
X152107045Y-53456301D01*
X152118420Y-53418805D01*
X152136892Y-53384246D01*
X152161753Y-53353953D01*
X152192046Y-53329092D01*
X152226605Y-53310620D01*
X152264101Y-53299245D01*
X152309238Y-53294800D01*
X152947962Y-53294800D01*
X152993099Y-53299245D01*
G37*
G36*
X155219000Y-54334600D02*
G01*
X154217000Y-54334600D01*
X154217000Y-53432600D01*
X155219000Y-53432600D01*
X155219000Y-54334600D01*
G37*
G36*
X98607274Y-52761865D02*
G01*
X98644967Y-52773299D01*
X98679703Y-52791866D01*
X98710148Y-52816852D01*
X98735134Y-52847297D01*
X98753701Y-52882033D01*
X98765135Y-52919726D01*
X98769600Y-52965061D01*
X98769600Y-53801739D01*
X98765135Y-53847074D01*
X98753701Y-53884767D01*
X98735134Y-53919503D01*
X98710148Y-53949948D01*
X98679703Y-53974934D01*
X98644967Y-53993501D01*
X98607274Y-54004935D01*
X98561939Y-54009400D01*
X97475261Y-54009400D01*
X97429926Y-54004935D01*
X97392233Y-53993501D01*
X97357497Y-53974934D01*
X97327052Y-53949948D01*
X97302066Y-53919503D01*
X97283499Y-53884767D01*
X97272065Y-53847074D01*
X97267600Y-53801739D01*
X97267600Y-52965061D01*
X97272065Y-52919726D01*
X97283499Y-52882033D01*
X97302066Y-52847297D01*
X97327052Y-52816852D01*
X97357497Y-52791866D01*
X97392233Y-52773299D01*
X97429926Y-52761865D01*
X97475261Y-52757400D01*
X98561939Y-52757400D01*
X98607274Y-52761865D01*
G37*
G36*
X157219000Y-53384600D02*
G01*
X156217000Y-53384600D01*
X156217000Y-52482600D01*
X157219000Y-52482600D01*
X157219000Y-53384600D01*
G37*
G36*
X90885822Y-50678990D02*
G01*
X90979477Y-50707400D01*
X91036812Y-50724792D01*
X91161601Y-50791494D01*
X91175964Y-50799171D01*
X91297933Y-50899267D01*
X91351287Y-50964280D01*
X91398029Y-51021235D01*
X91472408Y-51160387D01*
X91473701Y-51164650D01*
X91518210Y-51311377D01*
X91529800Y-51429055D01*
X91529800Y-52507745D01*
X91518210Y-52625423D01*
X91510003Y-52652477D01*
X91472408Y-52776413D01*
X91398029Y-52915565D01*
X91297933Y-53037533D01*
X91175965Y-53137629D01*
X91036813Y-53212008D01*
X90986482Y-53227275D01*
X90885823Y-53257810D01*
X90728800Y-53273275D01*
X90571778Y-53257810D01*
X90471119Y-53227275D01*
X90420788Y-53212008D01*
X90281636Y-53137629D01*
X90159668Y-53037533D01*
X90059572Y-52915565D01*
X89985193Y-52776413D01*
X89947598Y-52652477D01*
X89939391Y-52625423D01*
X89927801Y-52507745D01*
X89927800Y-51429056D01*
X89928787Y-51419039D01*
X89932891Y-51377361D01*
X89939390Y-51311378D01*
X89985192Y-51160389D01*
X89985192Y-51160388D01*
X90059571Y-51021236D01*
X90059572Y-51021235D01*
X90159667Y-50899267D01*
X90281635Y-50799171D01*
X90295998Y-50791494D01*
X90420787Y-50724792D01*
X90478122Y-50707400D01*
X90571777Y-50678990D01*
X90728800Y-50663525D01*
X90885822Y-50678990D01*
G37*
G36*
X93425822Y-50678990D02*
G01*
X93519477Y-50707400D01*
X93576812Y-50724792D01*
X93701601Y-50791494D01*
X93715964Y-50799171D01*
X93837933Y-50899267D01*
X93891287Y-50964280D01*
X93938029Y-51021235D01*
X94012408Y-51160387D01*
X94013701Y-51164650D01*
X94058210Y-51311377D01*
X94069800Y-51429055D01*
X94069800Y-52507745D01*
X94058210Y-52625423D01*
X94050003Y-52652477D01*
X94012408Y-52776413D01*
X93938029Y-52915565D01*
X93837933Y-53037533D01*
X93715965Y-53137629D01*
X93576813Y-53212008D01*
X93526482Y-53227275D01*
X93425823Y-53257810D01*
X93268800Y-53273275D01*
X93111778Y-53257810D01*
X93011119Y-53227275D01*
X92960788Y-53212008D01*
X92821636Y-53137629D01*
X92699668Y-53037533D01*
X92599572Y-52915565D01*
X92525193Y-52776413D01*
X92487598Y-52652477D01*
X92479391Y-52625423D01*
X92467801Y-52507745D01*
X92467800Y-51429056D01*
X92468787Y-51419039D01*
X92472891Y-51377361D01*
X92479390Y-51311378D01*
X92525192Y-51160389D01*
X92525192Y-51160388D01*
X92599571Y-51021236D01*
X92599572Y-51021235D01*
X92699667Y-50899267D01*
X92821635Y-50799171D01*
X92835998Y-50791494D01*
X92960787Y-50724792D01*
X93018122Y-50707400D01*
X93111777Y-50678990D01*
X93268800Y-50663525D01*
X93425822Y-50678990D01*
G37*
G36*
X88989800Y-53269400D02*
G01*
X87387800Y-53269400D01*
X87387800Y-50667400D01*
X88989800Y-50667400D01*
X88989800Y-53269400D01*
G37*
G36*
X152993099Y-51549245D02*
G01*
X153030595Y-51560620D01*
X153065154Y-51579092D01*
X153095447Y-51603953D01*
X153120308Y-51634246D01*
X153138780Y-51668805D01*
X153150155Y-51706301D01*
X153154600Y-51751438D01*
X153154600Y-52490162D01*
X153150155Y-52535299D01*
X153138780Y-52572795D01*
X153120308Y-52607354D01*
X153095447Y-52637647D01*
X153065154Y-52662508D01*
X153030595Y-52680980D01*
X152993099Y-52692355D01*
X152947962Y-52696800D01*
X152309238Y-52696800D01*
X152264101Y-52692355D01*
X152226605Y-52680980D01*
X152192046Y-52662508D01*
X152161753Y-52637647D01*
X152136892Y-52607354D01*
X152118420Y-52572795D01*
X152107045Y-52535299D01*
X152102600Y-52490162D01*
X152102600Y-51751438D01*
X152107045Y-51706301D01*
X152118420Y-51668805D01*
X152136892Y-51634246D01*
X152161753Y-51603953D01*
X152192046Y-51579092D01*
X152226605Y-51560620D01*
X152264101Y-51549245D01*
X152309238Y-51544800D01*
X152947962Y-51544800D01*
X152993099Y-51549245D01*
G37*
G36*
X172706195Y-50405956D02*
G01*
X172812550Y-50427111D01*
X172905060Y-50465430D01*
X173012920Y-50510107D01*
X173193244Y-50630595D01*
X173346605Y-50783956D01*
X173467093Y-50964280D01*
X173490684Y-51021235D01*
X173550089Y-51164650D01*
X173592400Y-51377361D01*
X173592400Y-51594239D01*
X173550089Y-51806950D01*
X173519962Y-51879682D01*
X173467093Y-52007320D01*
X173346605Y-52187644D01*
X173193244Y-52341005D01*
X173012920Y-52461493D01*
X172912734Y-52502991D01*
X172812550Y-52544489D01*
X172706195Y-52565644D01*
X172599840Y-52586800D01*
X172382960Y-52586800D01*
X172276606Y-52565645D01*
X172170250Y-52544489D01*
X171969880Y-52461493D01*
X171789556Y-52341005D01*
X171636195Y-52187644D01*
X171515707Y-52007320D01*
X171462838Y-51879682D01*
X171432711Y-51806950D01*
X171390400Y-51594239D01*
X171390400Y-51377361D01*
X171432711Y-51164650D01*
X171492116Y-51021235D01*
X171515707Y-50964280D01*
X171636195Y-50783956D01*
X171789556Y-50630595D01*
X171969880Y-50510107D01*
X172077740Y-50465430D01*
X172170250Y-50427111D01*
X172276606Y-50405955D01*
X172382960Y-50384800D01*
X172599840Y-50384800D01*
X172706195Y-50405956D01*
G37*
G36*
X155219000Y-52434600D02*
G01*
X154217000Y-52434600D01*
X154217000Y-51532600D01*
X155219000Y-51532600D01*
X155219000Y-52434600D01*
G37*
G36*
X167458400Y-52046800D02*
G01*
X166856400Y-52046800D01*
X166856400Y-51044800D01*
X167458400Y-51044800D01*
X167458400Y-52046800D01*
G37*
G36*
X98607274Y-50711865D02*
G01*
X98644967Y-50723299D01*
X98679703Y-50741866D01*
X98710148Y-50766852D01*
X98735134Y-50797297D01*
X98753701Y-50832033D01*
X98765135Y-50869726D01*
X98769600Y-50915061D01*
X98769600Y-51751739D01*
X98765135Y-51797074D01*
X98753701Y-51834767D01*
X98735134Y-51869503D01*
X98710148Y-51899948D01*
X98679703Y-51924934D01*
X98644967Y-51943501D01*
X98607274Y-51954935D01*
X98561939Y-51959400D01*
X97475261Y-51959400D01*
X97429926Y-51954935D01*
X97392233Y-51943501D01*
X97357497Y-51924934D01*
X97327052Y-51899948D01*
X97302066Y-51869503D01*
X97283499Y-51834767D01*
X97272065Y-51797074D01*
X97267600Y-51751739D01*
X97267600Y-50915061D01*
X97272065Y-50869726D01*
X97283499Y-50832033D01*
X97302066Y-50797297D01*
X97327052Y-50766852D01*
X97357497Y-50741866D01*
X97392233Y-50723299D01*
X97429926Y-50711865D01*
X97475261Y-50707400D01*
X98561939Y-50707400D01*
X98607274Y-50711865D01*
G37*
G36*
X106660962Y-50015281D02*
G01*
X106695881Y-50025874D01*
X106728063Y-50043076D01*
X106756273Y-50066227D01*
X106779424Y-50094437D01*
X106796626Y-50126619D01*
X106807219Y-50161538D01*
X106811400Y-50203995D01*
X106811400Y-51345205D01*
X106807219Y-51387662D01*
X106796626Y-51422581D01*
X106779424Y-51454763D01*
X106756273Y-51482973D01*
X106728063Y-51506124D01*
X106695881Y-51523326D01*
X106660962Y-51533919D01*
X106618505Y-51538100D01*
X104252295Y-51538100D01*
X104209838Y-51533919D01*
X104174919Y-51523326D01*
X104142737Y-51506124D01*
X104114527Y-51482973D01*
X104091376Y-51454763D01*
X104074174Y-51422581D01*
X104063581Y-51387662D01*
X104059400Y-51345205D01*
X104059400Y-50203995D01*
X104063581Y-50161538D01*
X104074174Y-50126619D01*
X104091376Y-50094437D01*
X104114527Y-50066227D01*
X104142737Y-50043076D01*
X104174919Y-50025874D01*
X104209838Y-50015281D01*
X104252295Y-50011100D01*
X106618505Y-50011100D01*
X106660962Y-50015281D01*
G37*
G36*
X102520874Y-50028065D02*
G01*
X102558567Y-50039499D01*
X102593303Y-50058066D01*
X102623748Y-50083052D01*
X102648734Y-50113497D01*
X102667301Y-50148233D01*
X102678735Y-50185926D01*
X102683200Y-50231261D01*
X102683200Y-51317939D01*
X102678735Y-51363274D01*
X102667301Y-51400967D01*
X102648734Y-51435703D01*
X102623748Y-51466148D01*
X102593303Y-51491134D01*
X102558567Y-51509701D01*
X102520874Y-51521135D01*
X102475539Y-51525600D01*
X101638861Y-51525600D01*
X101593526Y-51521135D01*
X101555833Y-51509701D01*
X101521097Y-51491134D01*
X101490652Y-51466148D01*
X101465666Y-51435703D01*
X101447099Y-51400967D01*
X101435665Y-51363274D01*
X101431200Y-51317939D01*
X101431200Y-50231261D01*
X101435665Y-50185926D01*
X101447099Y-50148233D01*
X101465666Y-50113497D01*
X101490652Y-50083052D01*
X101521097Y-50058066D01*
X101555833Y-50039499D01*
X101593526Y-50028065D01*
X101638861Y-50023600D01*
X102475539Y-50023600D01*
X102520874Y-50028065D01*
G37*
G36*
X100470874Y-50028065D02*
G01*
X100508567Y-50039499D01*
X100543303Y-50058066D01*
X100573748Y-50083052D01*
X100598734Y-50113497D01*
X100617301Y-50148233D01*
X100628735Y-50185926D01*
X100633200Y-50231261D01*
X100633200Y-51317939D01*
X100628735Y-51363274D01*
X100617301Y-51400967D01*
X100598734Y-51435703D01*
X100573748Y-51466148D01*
X100543303Y-51491134D01*
X100508567Y-51509701D01*
X100470874Y-51521135D01*
X100425539Y-51525600D01*
X99588861Y-51525600D01*
X99543526Y-51521135D01*
X99505833Y-51509701D01*
X99471097Y-51491134D01*
X99440652Y-51466148D01*
X99415666Y-51435703D01*
X99397099Y-51400967D01*
X99385665Y-51363274D01*
X99381200Y-51317939D01*
X99381200Y-50231261D01*
X99385665Y-50185926D01*
X99397099Y-50148233D01*
X99415666Y-50113497D01*
X99440652Y-50083052D01*
X99471097Y-50058066D01*
X99505833Y-50039499D01*
X99543526Y-50028065D01*
X99588861Y-50023600D01*
X100425539Y-50023600D01*
X100470874Y-50028065D01*
G37*
G36*
X143396849Y-44867226D02*
G01*
X143918821Y-44971052D01*
X144492085Y-45208506D01*
X145008008Y-45553235D01*
X145446765Y-45991992D01*
X145791494Y-46507915D01*
X146028948Y-47081179D01*
X146103516Y-47456061D01*
X146145902Y-47669147D01*
X146150000Y-47689752D01*
X146150000Y-48310248D01*
X146028948Y-48918821D01*
X145791494Y-49492085D01*
X145446765Y-50008008D01*
X145008008Y-50446765D01*
X144492085Y-50791494D01*
X143918821Y-51028948D01*
X143396849Y-51132774D01*
X143310249Y-51150000D01*
X142689751Y-51150000D01*
X142603151Y-51132774D01*
X142081179Y-51028948D01*
X141507915Y-50791494D01*
X140991992Y-50446765D01*
X140553235Y-50008008D01*
X140208506Y-49492085D01*
X139971052Y-48918821D01*
X139850000Y-48310248D01*
X139850000Y-47689752D01*
X139854099Y-47669147D01*
X139896484Y-47456061D01*
X139971052Y-47081179D01*
X140208506Y-46507915D01*
X140553235Y-45991992D01*
X140991992Y-45553235D01*
X141507915Y-45208506D01*
X142081179Y-44971052D01*
X142603151Y-44867226D01*
X142689751Y-44850000D01*
X143310249Y-44850000D01*
X143396849Y-44867226D01*
G37*
G36*
X173592400Y-50046800D02*
G01*
X171390400Y-50046800D01*
X171390400Y-47844800D01*
X173592400Y-47844800D01*
X173592400Y-50046800D01*
G37*
G36*
X75233287Y-47034396D02*
G01*
X75470053Y-47132468D01*
X75470055Y-47132469D01*
X75683139Y-47274847D01*
X75864353Y-47456061D01*
X76002284Y-47662489D01*
X76006732Y-47669147D01*
X76104804Y-47905913D01*
X76154800Y-48157261D01*
X76154800Y-48413539D01*
X76104804Y-48664887D01*
X76006732Y-48901653D01*
X76006731Y-48901655D01*
X75864353Y-49114739D01*
X75683139Y-49295953D01*
X75470055Y-49438331D01*
X75470054Y-49438332D01*
X75470053Y-49438332D01*
X75233287Y-49536404D01*
X74981939Y-49586400D01*
X74725661Y-49586400D01*
X74474313Y-49536404D01*
X74237547Y-49438332D01*
X74237546Y-49438332D01*
X74237545Y-49438331D01*
X74024461Y-49295953D01*
X73843247Y-49114739D01*
X73700869Y-48901655D01*
X73700868Y-48901653D01*
X73602796Y-48664887D01*
X73552800Y-48413539D01*
X73552800Y-48157261D01*
X73602796Y-47905913D01*
X73700868Y-47669147D01*
X73705317Y-47662489D01*
X73843247Y-47456061D01*
X74024461Y-47274847D01*
X74237545Y-47132469D01*
X74237547Y-47132468D01*
X74474313Y-47034396D01*
X74725661Y-46984400D01*
X74981939Y-46984400D01*
X75233287Y-47034396D01*
G37*
G36*
X167458400Y-49446800D02*
G01*
X166856400Y-49446800D01*
X166856400Y-48444800D01*
X167458400Y-48444800D01*
X167458400Y-49446800D01*
G37*
G36*
X164116000Y-48192600D02*
G01*
X160214000Y-48192600D01*
X160214000Y-46090600D01*
X164116000Y-46090600D01*
X164116000Y-48192600D01*
G37*
M02*
