G04 #@! TF.GenerationSoftware,KiCad,Pcbnew,5.1.6-c6e7f7d~87~ubuntu20.04.1*
G04 #@! TF.CreationDate,2020-08-09T19:44:10+01:00*
G04 #@! TF.ProjectId,scot-motor,73636f74-2d6d-46f7-946f-722e6b696361,rev?*
G04 #@! TF.SameCoordinates,Original*
G04 #@! TF.FileFunction,Copper,L1,Top*
G04 #@! TF.FilePolarity,Positive*
%FSLAX46Y46*%
G04 Gerber Fmt 4.6, Leading zero omitted, Abs format (unit mm)*
G04 Created by KiCad (PCBNEW 5.1.6-c6e7f7d~87~ubuntu20.04.1) date 2020-08-09 19:44:10*
%MOMM*%
%LPD*%
G01*
G04 APERTURE LIST*
G04 #@! TA.AperFunction,ComponentPad*
%ADD10C,2.500000*%
G04 #@! TD*
G04 #@! TA.AperFunction,ComponentPad*
%ADD11R,2.500000X2.500000*%
G04 #@! TD*
G04 #@! TA.AperFunction,ComponentPad*
%ADD12C,2.100000*%
G04 #@! TD*
G04 #@! TA.AperFunction,ComponentPad*
%ADD13R,2.100000X2.100000*%
G04 #@! TD*
G04 #@! TA.AperFunction,SMDPad,CuDef*
%ADD14R,2.000000X1.500000*%
G04 #@! TD*
G04 #@! TA.AperFunction,SMDPad,CuDef*
%ADD15R,2.000000X3.800000*%
G04 #@! TD*
G04 #@! TA.AperFunction,SMDPad,CuDef*
%ADD16R,1.100000X0.600000*%
G04 #@! TD*
G04 #@! TA.AperFunction,SMDPad,CuDef*
%ADD17R,0.500000X0.900000*%
G04 #@! TD*
G04 #@! TA.AperFunction,SMDPad,CuDef*
%ADD18R,0.900000X0.800000*%
G04 #@! TD*
G04 #@! TA.AperFunction,SMDPad,CuDef*
%ADD19R,1.500000X2.000000*%
G04 #@! TD*
G04 #@! TA.AperFunction,SMDPad,CuDef*
%ADD20R,3.800000X2.000000*%
G04 #@! TD*
G04 #@! TA.AperFunction,SMDPad,CuDef*
%ADD21R,1.400000X1.200000*%
G04 #@! TD*
G04 #@! TA.AperFunction,SMDPad,CuDef*
%ADD22R,1.500000X0.450000*%
G04 #@! TD*
G04 #@! TA.AperFunction,ComponentPad*
%ADD23O,1.500000X2.500000*%
G04 #@! TD*
G04 #@! TA.AperFunction,ComponentPad*
%ADD24R,1.500000X2.500000*%
G04 #@! TD*
G04 #@! TA.AperFunction,ComponentPad*
%ADD25C,0.630000*%
G04 #@! TD*
G04 #@! TA.AperFunction,Conductor*
%ADD26R,2.950000X4.900000*%
G04 #@! TD*
G04 #@! TA.AperFunction,SMDPad,CuDef*
%ADD27R,2.200000X0.500000*%
G04 #@! TD*
G04 #@! TA.AperFunction,SMDPad,CuDef*
%ADD28R,0.640000X2.000000*%
G04 #@! TD*
G04 #@! TA.AperFunction,SMDPad,CuDef*
%ADD29R,1.550000X0.600000*%
G04 #@! TD*
G04 #@! TA.AperFunction,ComponentPad*
%ADD30C,1.016000*%
G04 #@! TD*
G04 #@! TA.AperFunction,SMDPad,CuDef*
%ADD31C,0.100000*%
G04 #@! TD*
G04 #@! TA.AperFunction,ComponentPad*
%ADD32O,1.700000X1.700000*%
G04 #@! TD*
G04 #@! TA.AperFunction,ComponentPad*
%ADD33R,1.700000X1.700000*%
G04 #@! TD*
G04 #@! TA.AperFunction,SMDPad,CuDef*
%ADD34R,1.200000X0.500000*%
G04 #@! TD*
G04 #@! TA.AperFunction,SMDPad,CuDef*
%ADD35R,0.500000X1.200000*%
G04 #@! TD*
G04 #@! TA.AperFunction,SMDPad,CuDef*
%ADD36R,2.400000X3.100000*%
G04 #@! TD*
G04 #@! TA.AperFunction,ViaPad*
%ADD37C,0.650000*%
G04 #@! TD*
G04 #@! TA.AperFunction,ViaPad*
%ADD38C,0.800000*%
G04 #@! TD*
G04 #@! TA.AperFunction,Conductor*
%ADD39C,0.600000*%
G04 #@! TD*
G04 #@! TA.AperFunction,Conductor*
%ADD40C,1.000000*%
G04 #@! TD*
G04 #@! TA.AperFunction,Conductor*
%ADD41C,0.500000*%
G04 #@! TD*
G04 #@! TA.AperFunction,Conductor*
%ADD42C,0.350000*%
G04 #@! TD*
G04 #@! TA.AperFunction,Conductor*
%ADD43C,0.700000*%
G04 #@! TD*
G04 #@! TA.AperFunction,Conductor*
%ADD44C,0.800000*%
G04 #@! TD*
G04 #@! TA.AperFunction,Conductor*
%ADD45C,1.200000*%
G04 #@! TD*
G04 #@! TA.AperFunction,Conductor*
%ADD46C,1.400000*%
G04 #@! TD*
G04 #@! TA.AperFunction,Conductor*
%ADD47C,3.000000*%
G04 #@! TD*
G04 #@! TA.AperFunction,Conductor*
%ADD48C,0.254000*%
G04 #@! TD*
G04 APERTURE END LIST*
G04 #@! TA.AperFunction,SMDPad,CuDef*
G36*
G01*
X89477001Y-80703000D02*
X88576999Y-80703000D01*
G75*
G02*
X88327000Y-80453001I0J249999D01*
G01*
X88327000Y-79802999D01*
G75*
G02*
X88576999Y-79553000I249999J0D01*
G01*
X89477001Y-79553000D01*
G75*
G02*
X89727000Y-79802999I0J-249999D01*
G01*
X89727000Y-80453001D01*
G75*
G02*
X89477001Y-80703000I-249999J0D01*
G01*
G37*
G04 #@! TD.AperFunction*
G04 #@! TA.AperFunction,SMDPad,CuDef*
G36*
G01*
X89477001Y-82753000D02*
X88576999Y-82753000D01*
G75*
G02*
X88327000Y-82503001I0J249999D01*
G01*
X88327000Y-81852999D01*
G75*
G02*
X88576999Y-81603000I249999J0D01*
G01*
X89477001Y-81603000D01*
G75*
G02*
X89727000Y-81852999I0J-249999D01*
G01*
X89727000Y-82503001D01*
G75*
G02*
X89477001Y-82753000I-249999J0D01*
G01*
G37*
G04 #@! TD.AperFunction*
G04 #@! TA.AperFunction,SMDPad,CuDef*
G36*
G01*
X92149400Y-54871199D02*
X92149400Y-55771201D01*
G75*
G02*
X91899401Y-56021200I-249999J0D01*
G01*
X91249399Y-56021200D01*
G75*
G02*
X90999400Y-55771201I0J249999D01*
G01*
X90999400Y-54871199D01*
G75*
G02*
X91249399Y-54621200I249999J0D01*
G01*
X91899401Y-54621200D01*
G75*
G02*
X92149400Y-54871199I0J-249999D01*
G01*
G37*
G04 #@! TD.AperFunction*
G04 #@! TA.AperFunction,SMDPad,CuDef*
G36*
G01*
X94199400Y-54871199D02*
X94199400Y-55771201D01*
G75*
G02*
X93949401Y-56021200I-249999J0D01*
G01*
X93299399Y-56021200D01*
G75*
G02*
X93049400Y-55771201I0J249999D01*
G01*
X93049400Y-54871199D01*
G75*
G02*
X93299399Y-54621200I249999J0D01*
G01*
X93949401Y-54621200D01*
G75*
G02*
X94199400Y-54871199I0J-249999D01*
G01*
G37*
G04 #@! TD.AperFunction*
G04 #@! TA.AperFunction,SMDPad,CuDef*
G36*
G01*
X158045999Y-58911800D02*
X158946001Y-58911800D01*
G75*
G02*
X159196000Y-59161799I0J-249999D01*
G01*
X159196000Y-59811801D01*
G75*
G02*
X158946001Y-60061800I-249999J0D01*
G01*
X158045999Y-60061800D01*
G75*
G02*
X157796000Y-59811801I0J249999D01*
G01*
X157796000Y-59161799D01*
G75*
G02*
X158045999Y-58911800I249999J0D01*
G01*
G37*
G04 #@! TD.AperFunction*
G04 #@! TA.AperFunction,SMDPad,CuDef*
G36*
G01*
X158045999Y-56861800D02*
X158946001Y-56861800D01*
G75*
G02*
X159196000Y-57111799I0J-249999D01*
G01*
X159196000Y-57761801D01*
G75*
G02*
X158946001Y-58011800I-249999J0D01*
G01*
X158045999Y-58011800D01*
G75*
G02*
X157796000Y-57761801I0J249999D01*
G01*
X157796000Y-57111799D01*
G75*
G02*
X158045999Y-56861800I249999J0D01*
G01*
G37*
G04 #@! TD.AperFunction*
G04 #@! TA.AperFunction,SMDPad,CuDef*
G36*
G01*
X163584200Y-57760900D02*
X161434200Y-57760900D01*
G75*
G02*
X161184200Y-57510900I0J250000D01*
G01*
X161184200Y-56585900D01*
G75*
G02*
X161434200Y-56335900I250000J0D01*
G01*
X163584200Y-56335900D01*
G75*
G02*
X163834200Y-56585900I0J-250000D01*
G01*
X163834200Y-57510900D01*
G75*
G02*
X163584200Y-57760900I-250000J0D01*
G01*
G37*
G04 #@! TD.AperFunction*
G04 #@! TA.AperFunction,SMDPad,CuDef*
G36*
G01*
X163584200Y-60735900D02*
X161434200Y-60735900D01*
G75*
G02*
X161184200Y-60485900I0J250000D01*
G01*
X161184200Y-59560900D01*
G75*
G02*
X161434200Y-59310900I250000J0D01*
G01*
X163584200Y-59310900D01*
G75*
G02*
X163834200Y-59560900I0J-250000D01*
G01*
X163834200Y-60485900D01*
G75*
G02*
X163584200Y-60735900I-250000J0D01*
G01*
G37*
G04 #@! TD.AperFunction*
D10*
X170129200Y-79044800D03*
X170129200Y-73964800D03*
D11*
X170129200Y-68884800D03*
D12*
X122377200Y-115738400D03*
D13*
X119837200Y-115738400D03*
G04 #@! TA.AperFunction,SMDPad,CuDef*
G36*
G01*
X88724100Y-56098600D02*
X88724100Y-54848600D01*
G75*
G02*
X88974100Y-54598600I250000J0D01*
G01*
X89899100Y-54598600D01*
G75*
G02*
X90149100Y-54848600I0J-250000D01*
G01*
X90149100Y-56098600D01*
G75*
G02*
X89899100Y-56348600I-250000J0D01*
G01*
X88974100Y-56348600D01*
G75*
G02*
X88724100Y-56098600I0J250000D01*
G01*
G37*
G04 #@! TD.AperFunction*
G04 #@! TA.AperFunction,SMDPad,CuDef*
G36*
G01*
X85749100Y-56098600D02*
X85749100Y-54848600D01*
G75*
G02*
X85999100Y-54598600I250000J0D01*
G01*
X86924100Y-54598600D01*
G75*
G02*
X87174100Y-54848600I0J-250000D01*
G01*
X87174100Y-56098600D01*
G75*
G02*
X86924100Y-56348600I-250000J0D01*
G01*
X85999100Y-56348600D01*
G75*
G02*
X85749100Y-56098600I0J250000D01*
G01*
G37*
G04 #@! TD.AperFunction*
D14*
X104037600Y-59701400D03*
X104037600Y-64301400D03*
X104037600Y-62001400D03*
D15*
X110337600Y-62001400D03*
G04 #@! TA.AperFunction,SMDPad,CuDef*
G36*
G01*
X102193100Y-63316400D02*
X101718100Y-63316400D01*
G75*
G02*
X101480600Y-63078900I0J237500D01*
G01*
X101480600Y-62503900D01*
G75*
G02*
X101718100Y-62266400I237500J0D01*
G01*
X102193100Y-62266400D01*
G75*
G02*
X102430600Y-62503900I0J-237500D01*
G01*
X102430600Y-63078900D01*
G75*
G02*
X102193100Y-63316400I-237500J0D01*
G01*
G37*
G04 #@! TD.AperFunction*
G04 #@! TA.AperFunction,SMDPad,CuDef*
G36*
G01*
X102193100Y-65066400D02*
X101718100Y-65066400D01*
G75*
G02*
X101480600Y-64828900I0J237500D01*
G01*
X101480600Y-64253900D01*
G75*
G02*
X101718100Y-64016400I237500J0D01*
G01*
X102193100Y-64016400D01*
G75*
G02*
X102430600Y-64253900I0J-237500D01*
G01*
X102430600Y-64828900D01*
G75*
G02*
X102193100Y-65066400I-237500J0D01*
G01*
G37*
G04 #@! TD.AperFunction*
G04 #@! TA.AperFunction,SMDPad,CuDef*
G36*
G01*
X101718100Y-60714400D02*
X102193100Y-60714400D01*
G75*
G02*
X102430600Y-60951900I0J-237500D01*
G01*
X102430600Y-61526900D01*
G75*
G02*
X102193100Y-61764400I-237500J0D01*
G01*
X101718100Y-61764400D01*
G75*
G02*
X101480600Y-61526900I0J237500D01*
G01*
X101480600Y-60951900D01*
G75*
G02*
X101718100Y-60714400I237500J0D01*
G01*
G37*
G04 #@! TD.AperFunction*
G04 #@! TA.AperFunction,SMDPad,CuDef*
G36*
G01*
X101718100Y-58964400D02*
X102193100Y-58964400D01*
G75*
G02*
X102430600Y-59201900I0J-237500D01*
G01*
X102430600Y-59776900D01*
G75*
G02*
X102193100Y-60014400I-237500J0D01*
G01*
X101718100Y-60014400D01*
G75*
G02*
X101480600Y-59776900I0J237500D01*
G01*
X101480600Y-59201900D01*
G75*
G02*
X101718100Y-58964400I237500J0D01*
G01*
G37*
G04 #@! TD.AperFunction*
D16*
X111734600Y-88209200D03*
X111734600Y-86309200D03*
X114334600Y-86309200D03*
X114334600Y-87259200D03*
X114334600Y-88209200D03*
G04 #@! TA.AperFunction,SMDPad,CuDef*
G36*
G01*
X152391100Y-53345800D02*
X152866100Y-53345800D01*
G75*
G02*
X153103600Y-53583300I0J-237500D01*
G01*
X153103600Y-54158300D01*
G75*
G02*
X152866100Y-54395800I-237500J0D01*
G01*
X152391100Y-54395800D01*
G75*
G02*
X152153600Y-54158300I0J237500D01*
G01*
X152153600Y-53583300D01*
G75*
G02*
X152391100Y-53345800I237500J0D01*
G01*
G37*
G04 #@! TD.AperFunction*
G04 #@! TA.AperFunction,SMDPad,CuDef*
G36*
G01*
X152391100Y-51595800D02*
X152866100Y-51595800D01*
G75*
G02*
X153103600Y-51833300I0J-237500D01*
G01*
X153103600Y-52408300D01*
G75*
G02*
X152866100Y-52645800I-237500J0D01*
G01*
X152391100Y-52645800D01*
G75*
G02*
X152153600Y-52408300I0J237500D01*
G01*
X152153600Y-51833300D01*
G75*
G02*
X152391100Y-51595800I237500J0D01*
G01*
G37*
G04 #@! TD.AperFunction*
G04 #@! TA.AperFunction,SMDPad,CuDef*
G36*
G01*
X115307600Y-89627700D02*
X115307600Y-90102700D01*
G75*
G02*
X115070100Y-90340200I-237500J0D01*
G01*
X114495100Y-90340200D01*
G75*
G02*
X114257600Y-90102700I0J237500D01*
G01*
X114257600Y-89627700D01*
G75*
G02*
X114495100Y-89390200I237500J0D01*
G01*
X115070100Y-89390200D01*
G75*
G02*
X115307600Y-89627700I0J-237500D01*
G01*
G37*
G04 #@! TD.AperFunction*
G04 #@! TA.AperFunction,SMDPad,CuDef*
G36*
G01*
X117057600Y-89627700D02*
X117057600Y-90102700D01*
G75*
G02*
X116820100Y-90340200I-237500J0D01*
G01*
X116245100Y-90340200D01*
G75*
G02*
X116007600Y-90102700I0J237500D01*
G01*
X116007600Y-89627700D01*
G75*
G02*
X116245100Y-89390200I237500J0D01*
G01*
X116820100Y-89390200D01*
G75*
G02*
X117057600Y-89627700I0J-237500D01*
G01*
G37*
G04 #@! TD.AperFunction*
G04 #@! TA.AperFunction,SMDPad,CuDef*
G36*
G01*
X111878600Y-89627700D02*
X111878600Y-90102700D01*
G75*
G02*
X111641100Y-90340200I-237500J0D01*
G01*
X111066100Y-90340200D01*
G75*
G02*
X110828600Y-90102700I0J237500D01*
G01*
X110828600Y-89627700D01*
G75*
G02*
X111066100Y-89390200I237500J0D01*
G01*
X111641100Y-89390200D01*
G75*
G02*
X111878600Y-89627700I0J-237500D01*
G01*
G37*
G04 #@! TD.AperFunction*
G04 #@! TA.AperFunction,SMDPad,CuDef*
G36*
G01*
X113628600Y-89627700D02*
X113628600Y-90102700D01*
G75*
G02*
X113391100Y-90340200I-237500J0D01*
G01*
X112816100Y-90340200D01*
G75*
G02*
X112578600Y-90102700I0J237500D01*
G01*
X112578600Y-89627700D01*
G75*
G02*
X112816100Y-89390200I237500J0D01*
G01*
X113391100Y-89390200D01*
G75*
G02*
X113628600Y-89627700I0J-237500D01*
G01*
G37*
G04 #@! TD.AperFunction*
D17*
X167157400Y-48945800D03*
X167157400Y-51545800D03*
D18*
X156718000Y-52933600D03*
X154718000Y-53883600D03*
X154718000Y-51983600D03*
D12*
X172491400Y-51485800D03*
D13*
X172491400Y-48945800D03*
D19*
X159865000Y-53441600D03*
X164465000Y-53441600D03*
X162165000Y-53441600D03*
D20*
X162165000Y-47141600D03*
D21*
X104784800Y-69621400D03*
X106984800Y-69621400D03*
X106984800Y-71321400D03*
X104784800Y-71321400D03*
D14*
X84682800Y-59701400D03*
X84682800Y-64301400D03*
X84682800Y-62001400D03*
D15*
X90982800Y-62001400D03*
D14*
X123417800Y-59701400D03*
X123417800Y-64301400D03*
X123417800Y-62001400D03*
D15*
X129717800Y-62001400D03*
D22*
X150752600Y-57338800D03*
X150752600Y-57988800D03*
X150752600Y-58638800D03*
X150752600Y-59288800D03*
X150752600Y-59938800D03*
X150752600Y-60588800D03*
X150752600Y-61238800D03*
X150752600Y-61888800D03*
X144852600Y-61888800D03*
X144852600Y-61238800D03*
X144852600Y-60588800D03*
X144852600Y-59938800D03*
X144852600Y-59288800D03*
X144852600Y-58638800D03*
X144852600Y-57988800D03*
X144852600Y-57338800D03*
D23*
X93268800Y-51968400D03*
X90728800Y-51968400D03*
D24*
X88188800Y-51968400D03*
D25*
X154142200Y-78541400D03*
X152842200Y-78541400D03*
X154142200Y-75941400D03*
X154142200Y-77241400D03*
X152842200Y-77241400D03*
X152842200Y-75941400D03*
D26*
X153492200Y-77241400D03*
D27*
X156367200Y-75336400D03*
X156367200Y-76606400D03*
X156367200Y-77876400D03*
X156367200Y-79146400D03*
X150617200Y-79146400D03*
X150617200Y-77876400D03*
X150617200Y-76606400D03*
X150617200Y-75336400D03*
D28*
X130759200Y-97992400D03*
X133299200Y-97992400D03*
X133299200Y-104292400D03*
X130759200Y-104292400D03*
X119710200Y-97992400D03*
X122250200Y-97992400D03*
X122250200Y-104292400D03*
X119710200Y-104292400D03*
D29*
X136093200Y-82956400D03*
X136093200Y-81686400D03*
X136093200Y-80416400D03*
X136093200Y-79146400D03*
X136093200Y-77876400D03*
X136093200Y-76606400D03*
X136093200Y-75336400D03*
X141493200Y-75336400D03*
X141493200Y-76606400D03*
X141493200Y-77876400D03*
X141493200Y-79146400D03*
X141493200Y-80416400D03*
X141493200Y-81686400D03*
X141493200Y-82956400D03*
D28*
X107315000Y-97992400D03*
X109855000Y-97992400D03*
X109855000Y-104292400D03*
X107315000Y-104292400D03*
G04 #@! TA.AperFunction,SMDPad,CuDef*
G36*
G01*
X100582200Y-50324599D02*
X100582200Y-51224601D01*
G75*
G02*
X100332201Y-51474600I-249999J0D01*
G01*
X99682199Y-51474600D01*
G75*
G02*
X99432200Y-51224601I0J249999D01*
G01*
X99432200Y-50324599D01*
G75*
G02*
X99682199Y-50074600I249999J0D01*
G01*
X100332201Y-50074600D01*
G75*
G02*
X100582200Y-50324599I0J-249999D01*
G01*
G37*
G04 #@! TD.AperFunction*
G04 #@! TA.AperFunction,SMDPad,CuDef*
G36*
G01*
X102632200Y-50324599D02*
X102632200Y-51224601D01*
G75*
G02*
X102382201Y-51474600I-249999J0D01*
G01*
X101732199Y-51474600D01*
G75*
G02*
X101482200Y-51224601I0J249999D01*
G01*
X101482200Y-50324599D01*
G75*
G02*
X101732199Y-50074600I249999J0D01*
G01*
X102382201Y-50074600D01*
G75*
G02*
X102632200Y-50324599I0J-249999D01*
G01*
G37*
G04 #@! TD.AperFunction*
G04 #@! TA.AperFunction,SMDPad,CuDef*
G36*
G01*
X137600200Y-88121500D02*
X137600200Y-87646500D01*
G75*
G02*
X137837700Y-87409000I237500J0D01*
G01*
X138412700Y-87409000D01*
G75*
G02*
X138650200Y-87646500I0J-237500D01*
G01*
X138650200Y-88121500D01*
G75*
G02*
X138412700Y-88359000I-237500J0D01*
G01*
X137837700Y-88359000D01*
G75*
G02*
X137600200Y-88121500I0J237500D01*
G01*
G37*
G04 #@! TD.AperFunction*
G04 #@! TA.AperFunction,SMDPad,CuDef*
G36*
G01*
X135850200Y-88121500D02*
X135850200Y-87646500D01*
G75*
G02*
X136087700Y-87409000I237500J0D01*
G01*
X136662700Y-87409000D01*
G75*
G02*
X136900200Y-87646500I0J-237500D01*
G01*
X136900200Y-88121500D01*
G75*
G02*
X136662700Y-88359000I-237500J0D01*
G01*
X136087700Y-88359000D01*
G75*
G02*
X135850200Y-88121500I0J237500D01*
G01*
G37*
G04 #@! TD.AperFunction*
G04 #@! TA.AperFunction,SMDPad,CuDef*
G36*
G01*
X140301200Y-84369900D02*
X140301200Y-84844900D01*
G75*
G02*
X140063700Y-85082400I-237500J0D01*
G01*
X139488700Y-85082400D01*
G75*
G02*
X139251200Y-84844900I0J237500D01*
G01*
X139251200Y-84369900D01*
G75*
G02*
X139488700Y-84132400I237500J0D01*
G01*
X140063700Y-84132400D01*
G75*
G02*
X140301200Y-84369900I0J-237500D01*
G01*
G37*
G04 #@! TD.AperFunction*
G04 #@! TA.AperFunction,SMDPad,CuDef*
G36*
G01*
X142051200Y-84369900D02*
X142051200Y-84844900D01*
G75*
G02*
X141813700Y-85082400I-237500J0D01*
G01*
X141238700Y-85082400D01*
G75*
G02*
X141001200Y-84844900I0J237500D01*
G01*
X141001200Y-84369900D01*
G75*
G02*
X141238700Y-84132400I237500J0D01*
G01*
X141813700Y-84132400D01*
G75*
G02*
X142051200Y-84369900I0J-237500D01*
G01*
G37*
G04 #@! TD.AperFunction*
G04 #@! TA.AperFunction,SMDPad,CuDef*
G36*
G01*
X130563199Y-108030000D02*
X131463201Y-108030000D01*
G75*
G02*
X131713200Y-108279999I0J-249999D01*
G01*
X131713200Y-108930001D01*
G75*
G02*
X131463201Y-109180000I-249999J0D01*
G01*
X130563199Y-109180000D01*
G75*
G02*
X130313200Y-108930001I0J249999D01*
G01*
X130313200Y-108279999D01*
G75*
G02*
X130563199Y-108030000I249999J0D01*
G01*
G37*
G04 #@! TD.AperFunction*
G04 #@! TA.AperFunction,SMDPad,CuDef*
G36*
G01*
X130563199Y-105980000D02*
X131463201Y-105980000D01*
G75*
G02*
X131713200Y-106229999I0J-249999D01*
G01*
X131713200Y-106880001D01*
G75*
G02*
X131463201Y-107130000I-249999J0D01*
G01*
X130563199Y-107130000D01*
G75*
G02*
X130313200Y-106880001I0J249999D01*
G01*
X130313200Y-106229999D01*
G75*
G02*
X130563199Y-105980000I249999J0D01*
G01*
G37*
G04 #@! TD.AperFunction*
G04 #@! TA.AperFunction,SMDPad,CuDef*
G36*
G01*
X135135199Y-108030000D02*
X136035201Y-108030000D01*
G75*
G02*
X136285200Y-108279999I0J-249999D01*
G01*
X136285200Y-108930001D01*
G75*
G02*
X136035201Y-109180000I-249999J0D01*
G01*
X135135199Y-109180000D01*
G75*
G02*
X134885200Y-108930001I0J249999D01*
G01*
X134885200Y-108279999D01*
G75*
G02*
X135135199Y-108030000I249999J0D01*
G01*
G37*
G04 #@! TD.AperFunction*
G04 #@! TA.AperFunction,SMDPad,CuDef*
G36*
G01*
X135135199Y-105980000D02*
X136035201Y-105980000D01*
G75*
G02*
X136285200Y-106229999I0J-249999D01*
G01*
X136285200Y-106880001D01*
G75*
G02*
X136035201Y-107130000I-249999J0D01*
G01*
X135135199Y-107130000D01*
G75*
G02*
X134885200Y-106880001I0J249999D01*
G01*
X134885200Y-106229999D01*
G75*
G02*
X135135199Y-105980000I249999J0D01*
G01*
G37*
G04 #@! TD.AperFunction*
G04 #@! TA.AperFunction,SMDPad,CuDef*
G36*
G01*
X119387199Y-108030000D02*
X120287201Y-108030000D01*
G75*
G02*
X120537200Y-108279999I0J-249999D01*
G01*
X120537200Y-108930001D01*
G75*
G02*
X120287201Y-109180000I-249999J0D01*
G01*
X119387199Y-109180000D01*
G75*
G02*
X119137200Y-108930001I0J249999D01*
G01*
X119137200Y-108279999D01*
G75*
G02*
X119387199Y-108030000I249999J0D01*
G01*
G37*
G04 #@! TD.AperFunction*
G04 #@! TA.AperFunction,SMDPad,CuDef*
G36*
G01*
X119387199Y-105980000D02*
X120287201Y-105980000D01*
G75*
G02*
X120537200Y-106229999I0J-249999D01*
G01*
X120537200Y-106880001D01*
G75*
G02*
X120287201Y-107130000I-249999J0D01*
G01*
X119387199Y-107130000D01*
G75*
G02*
X119137200Y-106880001I0J249999D01*
G01*
X119137200Y-106229999D01*
G75*
G02*
X119387199Y-105980000I249999J0D01*
G01*
G37*
G04 #@! TD.AperFunction*
G04 #@! TA.AperFunction,SMDPad,CuDef*
G36*
G01*
X123959199Y-108030000D02*
X124859201Y-108030000D01*
G75*
G02*
X125109200Y-108279999I0J-249999D01*
G01*
X125109200Y-108930001D01*
G75*
G02*
X124859201Y-109180000I-249999J0D01*
G01*
X123959199Y-109180000D01*
G75*
G02*
X123709200Y-108930001I0J249999D01*
G01*
X123709200Y-108279999D01*
G75*
G02*
X123959199Y-108030000I249999J0D01*
G01*
G37*
G04 #@! TD.AperFunction*
G04 #@! TA.AperFunction,SMDPad,CuDef*
G36*
G01*
X123959199Y-105980000D02*
X124859201Y-105980000D01*
G75*
G02*
X125109200Y-106229999I0J-249999D01*
G01*
X125109200Y-106880001D01*
G75*
G02*
X124859201Y-107130000I-249999J0D01*
G01*
X123959199Y-107130000D01*
G75*
G02*
X123709200Y-106880001I0J249999D01*
G01*
X123709200Y-106229999D01*
G75*
G02*
X123959199Y-105980000I249999J0D01*
G01*
G37*
G04 #@! TD.AperFunction*
G04 #@! TA.AperFunction,SMDPad,CuDef*
G36*
G01*
X91675799Y-98104000D02*
X92575801Y-98104000D01*
G75*
G02*
X92825800Y-98353999I0J-249999D01*
G01*
X92825800Y-99004001D01*
G75*
G02*
X92575801Y-99254000I-249999J0D01*
G01*
X91675799Y-99254000D01*
G75*
G02*
X91425800Y-99004001I0J249999D01*
G01*
X91425800Y-98353999D01*
G75*
G02*
X91675799Y-98104000I249999J0D01*
G01*
G37*
G04 #@! TD.AperFunction*
G04 #@! TA.AperFunction,SMDPad,CuDef*
G36*
G01*
X91675799Y-96054000D02*
X92575801Y-96054000D01*
G75*
G02*
X92825800Y-96303999I0J-249999D01*
G01*
X92825800Y-96954001D01*
G75*
G02*
X92575801Y-97204000I-249999J0D01*
G01*
X91675799Y-97204000D01*
G75*
G02*
X91425800Y-96954001I0J249999D01*
G01*
X91425800Y-96303999D01*
G75*
G02*
X91675799Y-96054000I249999J0D01*
G01*
G37*
G04 #@! TD.AperFunction*
G04 #@! TA.AperFunction,SMDPad,CuDef*
G36*
G01*
X140900999Y-94566000D02*
X141801001Y-94566000D01*
G75*
G02*
X142051000Y-94815999I0J-249999D01*
G01*
X142051000Y-95466001D01*
G75*
G02*
X141801001Y-95716000I-249999J0D01*
G01*
X140900999Y-95716000D01*
G75*
G02*
X140651000Y-95466001I0J249999D01*
G01*
X140651000Y-94815999D01*
G75*
G02*
X140900999Y-94566000I249999J0D01*
G01*
G37*
G04 #@! TD.AperFunction*
G04 #@! TA.AperFunction,SMDPad,CuDef*
G36*
G01*
X140900999Y-92516000D02*
X141801001Y-92516000D01*
G75*
G02*
X142051000Y-92765999I0J-249999D01*
G01*
X142051000Y-93416001D01*
G75*
G02*
X141801001Y-93666000I-249999J0D01*
G01*
X140900999Y-93666000D01*
G75*
G02*
X140651000Y-93416001I0J249999D01*
G01*
X140651000Y-92765999D01*
G75*
G02*
X140900999Y-92516000I249999J0D01*
G01*
G37*
G04 #@! TD.AperFunction*
G04 #@! TA.AperFunction,SMDPad,CuDef*
G36*
G01*
X142731000Y-91677500D02*
X142731000Y-91202500D01*
G75*
G02*
X142968500Y-90965000I237500J0D01*
G01*
X143543500Y-90965000D01*
G75*
G02*
X143781000Y-91202500I0J-237500D01*
G01*
X143781000Y-91677500D01*
G75*
G02*
X143543500Y-91915000I-237500J0D01*
G01*
X142968500Y-91915000D01*
G75*
G02*
X142731000Y-91677500I0J237500D01*
G01*
G37*
G04 #@! TD.AperFunction*
G04 #@! TA.AperFunction,SMDPad,CuDef*
G36*
G01*
X140981000Y-91677500D02*
X140981000Y-91202500D01*
G75*
G02*
X141218500Y-90965000I237500J0D01*
G01*
X141793500Y-90965000D01*
G75*
G02*
X142031000Y-91202500I0J-237500D01*
G01*
X142031000Y-91677500D01*
G75*
G02*
X141793500Y-91915000I-237500J0D01*
G01*
X141218500Y-91915000D01*
G75*
G02*
X140981000Y-91677500I0J237500D01*
G01*
G37*
G04 #@! TD.AperFunction*
G04 #@! TA.AperFunction,SMDPad,CuDef*
G36*
G01*
X98660799Y-97977000D02*
X99560801Y-97977000D01*
G75*
G02*
X99810800Y-98226999I0J-249999D01*
G01*
X99810800Y-98877001D01*
G75*
G02*
X99560801Y-99127000I-249999J0D01*
G01*
X98660799Y-99127000D01*
G75*
G02*
X98410800Y-98877001I0J249999D01*
G01*
X98410800Y-98226999D01*
G75*
G02*
X98660799Y-97977000I249999J0D01*
G01*
G37*
G04 #@! TD.AperFunction*
G04 #@! TA.AperFunction,SMDPad,CuDef*
G36*
G01*
X98660799Y-95927000D02*
X99560801Y-95927000D01*
G75*
G02*
X99810800Y-96176999I0J-249999D01*
G01*
X99810800Y-96827001D01*
G75*
G02*
X99560801Y-97077000I-249999J0D01*
G01*
X98660799Y-97077000D01*
G75*
G02*
X98410800Y-96827001I0J249999D01*
G01*
X98410800Y-96176999D01*
G75*
G02*
X98660799Y-95927000I249999J0D01*
G01*
G37*
G04 #@! TD.AperFunction*
G04 #@! TA.AperFunction,SMDPad,CuDef*
G36*
G01*
X106991999Y-108030000D02*
X107892001Y-108030000D01*
G75*
G02*
X108142000Y-108279999I0J-249999D01*
G01*
X108142000Y-108930001D01*
G75*
G02*
X107892001Y-109180000I-249999J0D01*
G01*
X106991999Y-109180000D01*
G75*
G02*
X106742000Y-108930001I0J249999D01*
G01*
X106742000Y-108279999D01*
G75*
G02*
X106991999Y-108030000I249999J0D01*
G01*
G37*
G04 #@! TD.AperFunction*
G04 #@! TA.AperFunction,SMDPad,CuDef*
G36*
G01*
X106991999Y-105980000D02*
X107892001Y-105980000D01*
G75*
G02*
X108142000Y-106229999I0J-249999D01*
G01*
X108142000Y-106880001D01*
G75*
G02*
X107892001Y-107130000I-249999J0D01*
G01*
X106991999Y-107130000D01*
G75*
G02*
X106742000Y-106880001I0J249999D01*
G01*
X106742000Y-106229999D01*
G75*
G02*
X106991999Y-105980000I249999J0D01*
G01*
G37*
G04 #@! TD.AperFunction*
G04 #@! TA.AperFunction,SMDPad,CuDef*
G36*
G01*
X111563999Y-108030000D02*
X112464001Y-108030000D01*
G75*
G02*
X112714000Y-108279999I0J-249999D01*
G01*
X112714000Y-108930001D01*
G75*
G02*
X112464001Y-109180000I-249999J0D01*
G01*
X111563999Y-109180000D01*
G75*
G02*
X111314000Y-108930001I0J249999D01*
G01*
X111314000Y-108279999D01*
G75*
G02*
X111563999Y-108030000I249999J0D01*
G01*
G37*
G04 #@! TD.AperFunction*
G04 #@! TA.AperFunction,SMDPad,CuDef*
G36*
G01*
X111563999Y-105980000D02*
X112464001Y-105980000D01*
G75*
G02*
X112714000Y-106229999I0J-249999D01*
G01*
X112714000Y-106880001D01*
G75*
G02*
X112464001Y-107130000I-249999J0D01*
G01*
X111563999Y-107130000D01*
G75*
G02*
X111314000Y-106880001I0J249999D01*
G01*
X111314000Y-106229999D01*
G75*
G02*
X111563999Y-105980000I249999J0D01*
G01*
G37*
G04 #@! TD.AperFunction*
G04 #@! TA.AperFunction,SMDPad,CuDef*
G36*
G01*
X115589600Y-73600300D02*
X115589600Y-74075300D01*
G75*
G02*
X115352100Y-74312800I-237500J0D01*
G01*
X114777100Y-74312800D01*
G75*
G02*
X114539600Y-74075300I0J237500D01*
G01*
X114539600Y-73600300D01*
G75*
G02*
X114777100Y-73362800I237500J0D01*
G01*
X115352100Y-73362800D01*
G75*
G02*
X115589600Y-73600300I0J-237500D01*
G01*
G37*
G04 #@! TD.AperFunction*
G04 #@! TA.AperFunction,SMDPad,CuDef*
G36*
G01*
X117339600Y-73600300D02*
X117339600Y-74075300D01*
G75*
G02*
X117102100Y-74312800I-237500J0D01*
G01*
X116527100Y-74312800D01*
G75*
G02*
X116289600Y-74075300I0J237500D01*
G01*
X116289600Y-73600300D01*
G75*
G02*
X116527100Y-73362800I237500J0D01*
G01*
X117102100Y-73362800D01*
G75*
G02*
X117339600Y-73600300I0J-237500D01*
G01*
G37*
G04 #@! TD.AperFunction*
G04 #@! TA.AperFunction,SMDPad,CuDef*
G36*
G01*
X83674799Y-98104000D02*
X84574801Y-98104000D01*
G75*
G02*
X84824800Y-98353999I0J-249999D01*
G01*
X84824800Y-99004001D01*
G75*
G02*
X84574801Y-99254000I-249999J0D01*
G01*
X83674799Y-99254000D01*
G75*
G02*
X83424800Y-99004001I0J249999D01*
G01*
X83424800Y-98353999D01*
G75*
G02*
X83674799Y-98104000I249999J0D01*
G01*
G37*
G04 #@! TD.AperFunction*
G04 #@! TA.AperFunction,SMDPad,CuDef*
G36*
G01*
X83674799Y-96054000D02*
X84574801Y-96054000D01*
G75*
G02*
X84824800Y-96303999I0J-249999D01*
G01*
X84824800Y-96954001D01*
G75*
G02*
X84574801Y-97204000I-249999J0D01*
G01*
X83674799Y-97204000D01*
G75*
G02*
X83424800Y-96954001I0J249999D01*
G01*
X83424800Y-96303999D01*
G75*
G02*
X83674799Y-96054000I249999J0D01*
G01*
G37*
G04 #@! TD.AperFunction*
G04 #@! TA.AperFunction,SMDPad,CuDef*
G36*
G01*
X115589600Y-72000100D02*
X115589600Y-72475100D01*
G75*
G02*
X115352100Y-72712600I-237500J0D01*
G01*
X114777100Y-72712600D01*
G75*
G02*
X114539600Y-72475100I0J237500D01*
G01*
X114539600Y-72000100D01*
G75*
G02*
X114777100Y-71762600I237500J0D01*
G01*
X115352100Y-71762600D01*
G75*
G02*
X115589600Y-72000100I0J-237500D01*
G01*
G37*
G04 #@! TD.AperFunction*
G04 #@! TA.AperFunction,SMDPad,CuDef*
G36*
G01*
X117339600Y-72000100D02*
X117339600Y-72475100D01*
G75*
G02*
X117102100Y-72712600I-237500J0D01*
G01*
X116527100Y-72712600D01*
G75*
G02*
X116289600Y-72475100I0J237500D01*
G01*
X116289600Y-72000100D01*
G75*
G02*
X116527100Y-71762600I237500J0D01*
G01*
X117102100Y-71762600D01*
G75*
G02*
X117339600Y-72000100I0J-237500D01*
G01*
G37*
G04 #@! TD.AperFunction*
G04 #@! TA.AperFunction,SMDPad,CuDef*
G36*
G01*
X115589600Y-70399900D02*
X115589600Y-70874900D01*
G75*
G02*
X115352100Y-71112400I-237500J0D01*
G01*
X114777100Y-71112400D01*
G75*
G02*
X114539600Y-70874900I0J237500D01*
G01*
X114539600Y-70399900D01*
G75*
G02*
X114777100Y-70162400I237500J0D01*
G01*
X115352100Y-70162400D01*
G75*
G02*
X115589600Y-70399900I0J-237500D01*
G01*
G37*
G04 #@! TD.AperFunction*
G04 #@! TA.AperFunction,SMDPad,CuDef*
G36*
G01*
X117339600Y-70399900D02*
X117339600Y-70874900D01*
G75*
G02*
X117102100Y-71112400I-237500J0D01*
G01*
X116527100Y-71112400D01*
G75*
G02*
X116289600Y-70874900I0J237500D01*
G01*
X116289600Y-70399900D01*
G75*
G02*
X116527100Y-70162400I237500J0D01*
G01*
X117102100Y-70162400D01*
G75*
G02*
X117339600Y-70399900I0J-237500D01*
G01*
G37*
G04 #@! TD.AperFunction*
G04 #@! TA.AperFunction,SMDPad,CuDef*
G36*
G01*
X74278800Y-72103401D02*
X74278800Y-71203399D01*
G75*
G02*
X74528799Y-70953400I249999J0D01*
G01*
X75178801Y-70953400D01*
G75*
G02*
X75428800Y-71203399I0J-249999D01*
G01*
X75428800Y-72103401D01*
G75*
G02*
X75178801Y-72353400I-249999J0D01*
G01*
X74528799Y-72353400D01*
G75*
G02*
X74278800Y-72103401I0J249999D01*
G01*
G37*
G04 #@! TD.AperFunction*
G04 #@! TA.AperFunction,SMDPad,CuDef*
G36*
G01*
X72228800Y-72103401D02*
X72228800Y-71203399D01*
G75*
G02*
X72478799Y-70953400I249999J0D01*
G01*
X73128801Y-70953400D01*
G75*
G02*
X73378800Y-71203399I0J-249999D01*
G01*
X73378800Y-72103401D01*
G75*
G02*
X73128801Y-72353400I-249999J0D01*
G01*
X72478799Y-72353400D01*
G75*
G02*
X72228800Y-72103401I0J249999D01*
G01*
G37*
G04 #@! TD.AperFunction*
D30*
X71907400Y-107670600D03*
X73177400Y-107670600D03*
X71907400Y-108940600D03*
X73177400Y-108940600D03*
X71907400Y-110210600D03*
X73177400Y-110210600D03*
X71907400Y-111480600D03*
X73177400Y-111480600D03*
X71907400Y-112750600D03*
X73177400Y-112750600D03*
G04 #@! TA.AperFunction,SMDPad,CuDef*
D31*
G36*
X76855800Y-72402798D02*
G01*
X76831266Y-72402798D01*
X76782435Y-72397988D01*
X76734310Y-72388416D01*
X76687355Y-72374172D01*
X76642022Y-72355395D01*
X76598749Y-72332264D01*
X76557950Y-72305004D01*
X76520021Y-72273876D01*
X76485324Y-72239179D01*
X76454196Y-72201250D01*
X76426936Y-72160451D01*
X76403805Y-72117178D01*
X76385028Y-72071845D01*
X76370784Y-72024890D01*
X76361212Y-71976765D01*
X76356402Y-71927934D01*
X76356402Y-71903400D01*
X76355800Y-71903400D01*
X76355800Y-71403400D01*
X76356402Y-71403400D01*
X76356402Y-71378866D01*
X76361212Y-71330035D01*
X76370784Y-71281910D01*
X76385028Y-71234955D01*
X76403805Y-71189622D01*
X76426936Y-71146349D01*
X76454196Y-71105550D01*
X76485324Y-71067621D01*
X76520021Y-71032924D01*
X76557950Y-71001796D01*
X76598749Y-70974536D01*
X76642022Y-70951405D01*
X76687355Y-70932628D01*
X76734310Y-70918384D01*
X76782435Y-70908812D01*
X76831266Y-70904002D01*
X76855800Y-70904002D01*
X76855800Y-70903400D01*
X77355800Y-70903400D01*
X77355800Y-72403400D01*
X76855800Y-72403400D01*
X76855800Y-72402798D01*
G37*
G04 #@! TD.AperFunction*
G04 #@! TA.AperFunction,SMDPad,CuDef*
G36*
X77655800Y-70903400D02*
G01*
X78155800Y-70903400D01*
X78155800Y-70904002D01*
X78180334Y-70904002D01*
X78229165Y-70908812D01*
X78277290Y-70918384D01*
X78324245Y-70932628D01*
X78369578Y-70951405D01*
X78412851Y-70974536D01*
X78453650Y-71001796D01*
X78491579Y-71032924D01*
X78526276Y-71067621D01*
X78557404Y-71105550D01*
X78584664Y-71146349D01*
X78607795Y-71189622D01*
X78626572Y-71234955D01*
X78640816Y-71281910D01*
X78650388Y-71330035D01*
X78655198Y-71378866D01*
X78655198Y-71403400D01*
X78655800Y-71403400D01*
X78655800Y-71903400D01*
X78655198Y-71903400D01*
X78655198Y-71927934D01*
X78650388Y-71976765D01*
X78640816Y-72024890D01*
X78626572Y-72071845D01*
X78607795Y-72117178D01*
X78584664Y-72160451D01*
X78557404Y-72201250D01*
X78526276Y-72239179D01*
X78491579Y-72273876D01*
X78453650Y-72305004D01*
X78412851Y-72332264D01*
X78369578Y-72355395D01*
X78324245Y-72374172D01*
X78277290Y-72388416D01*
X78229165Y-72397988D01*
X78180334Y-72402798D01*
X78155800Y-72402798D01*
X78155800Y-72403400D01*
X77655800Y-72403400D01*
X77655800Y-70903400D01*
G37*
G04 #@! TD.AperFunction*
G04 #@! TA.AperFunction,SMDPad,CuDef*
G36*
X79074800Y-61252002D02*
G01*
X79099334Y-61252002D01*
X79148165Y-61256812D01*
X79196290Y-61266384D01*
X79243245Y-61280628D01*
X79288578Y-61299405D01*
X79331851Y-61322536D01*
X79372650Y-61349796D01*
X79410579Y-61380924D01*
X79445276Y-61415621D01*
X79476404Y-61453550D01*
X79503664Y-61494349D01*
X79526795Y-61537622D01*
X79545572Y-61582955D01*
X79559816Y-61629910D01*
X79569388Y-61678035D01*
X79574198Y-61726866D01*
X79574198Y-61751400D01*
X79574800Y-61751400D01*
X79574800Y-62251400D01*
X79574198Y-62251400D01*
X79574198Y-62275934D01*
X79569388Y-62324765D01*
X79559816Y-62372890D01*
X79545572Y-62419845D01*
X79526795Y-62465178D01*
X79503664Y-62508451D01*
X79476404Y-62549250D01*
X79445276Y-62587179D01*
X79410579Y-62621876D01*
X79372650Y-62653004D01*
X79331851Y-62680264D01*
X79288578Y-62703395D01*
X79243245Y-62722172D01*
X79196290Y-62736416D01*
X79148165Y-62745988D01*
X79099334Y-62750798D01*
X79074800Y-62750798D01*
X79074800Y-62751400D01*
X78574800Y-62751400D01*
X78574800Y-61251400D01*
X79074800Y-61251400D01*
X79074800Y-61252002D01*
G37*
G04 #@! TD.AperFunction*
G04 #@! TA.AperFunction,SMDPad,CuDef*
G36*
X78274800Y-62751400D02*
G01*
X77774800Y-62751400D01*
X77774800Y-62750798D01*
X77750266Y-62750798D01*
X77701435Y-62745988D01*
X77653310Y-62736416D01*
X77606355Y-62722172D01*
X77561022Y-62703395D01*
X77517749Y-62680264D01*
X77476950Y-62653004D01*
X77439021Y-62621876D01*
X77404324Y-62587179D01*
X77373196Y-62549250D01*
X77345936Y-62508451D01*
X77322805Y-62465178D01*
X77304028Y-62419845D01*
X77289784Y-62372890D01*
X77280212Y-62324765D01*
X77275402Y-62275934D01*
X77275402Y-62251400D01*
X77274800Y-62251400D01*
X77274800Y-61751400D01*
X77275402Y-61751400D01*
X77275402Y-61726866D01*
X77280212Y-61678035D01*
X77289784Y-61629910D01*
X77304028Y-61582955D01*
X77322805Y-61537622D01*
X77345936Y-61494349D01*
X77373196Y-61453550D01*
X77404324Y-61415621D01*
X77439021Y-61380924D01*
X77476950Y-61349796D01*
X77517749Y-61322536D01*
X77561022Y-61299405D01*
X77606355Y-61280628D01*
X77653310Y-61266384D01*
X77701435Y-61256812D01*
X77750266Y-61252002D01*
X77774800Y-61252002D01*
X77774800Y-61251400D01*
X78274800Y-61251400D01*
X78274800Y-62751400D01*
G37*
G04 #@! TD.AperFunction*
D32*
X72364600Y-91643200D03*
X72364600Y-94183200D03*
D33*
X72364600Y-96723200D03*
D12*
X109982000Y-115738400D03*
D13*
X107442000Y-115738400D03*
D12*
X133553200Y-115738400D03*
D13*
X131013200Y-115738400D03*
D10*
X74853800Y-48285400D03*
D11*
X74853800Y-53365400D03*
D12*
X72821800Y-81813400D03*
X72821800Y-79273400D03*
D13*
X72821800Y-76733400D03*
D12*
X72821800Y-67081400D03*
X72821800Y-64541400D03*
D13*
X72821800Y-62001400D03*
D34*
X109279800Y-77870400D03*
X109279800Y-78670400D03*
X109279800Y-79470400D03*
X109279800Y-80270400D03*
X109279800Y-81070400D03*
X109279800Y-81870400D03*
X109279800Y-82670400D03*
X109279800Y-83470400D03*
D35*
X107879800Y-84870400D03*
X107079800Y-84870400D03*
X106279800Y-84870400D03*
X105479800Y-84870400D03*
X104679800Y-84870400D03*
X103879800Y-84870400D03*
X103079800Y-84870400D03*
X102279800Y-84870400D03*
D34*
X100879800Y-83470400D03*
X100879800Y-82670400D03*
X100879800Y-81870400D03*
X100879800Y-81070400D03*
X100879800Y-80270400D03*
X100879800Y-79470400D03*
X100879800Y-78670400D03*
X100879800Y-77870400D03*
D35*
X102279800Y-76470400D03*
X103079800Y-76470400D03*
X103879800Y-76470400D03*
X104679800Y-76470400D03*
X105479800Y-76470400D03*
X106279800Y-76470400D03*
X107079800Y-76470400D03*
X107879800Y-76470400D03*
D36*
X82600800Y-81178400D03*
D37*
X82125800Y-80228400D03*
X82125800Y-81178400D03*
X82125800Y-82128400D03*
X83075800Y-80228400D03*
X83075800Y-81178400D03*
X83075800Y-82128400D03*
D29*
X79900800Y-83083400D03*
X79900800Y-81813400D03*
X79900800Y-80543400D03*
X79900800Y-79273400D03*
X85300800Y-79273400D03*
X85300800Y-80543400D03*
X85300800Y-81813400D03*
X85300800Y-83083400D03*
G04 #@! TA.AperFunction,SMDPad,CuDef*
G36*
G01*
X96222400Y-54871199D02*
X96222400Y-55771201D01*
G75*
G02*
X95972401Y-56021200I-249999J0D01*
G01*
X95322399Y-56021200D01*
G75*
G02*
X95072400Y-55771201I0J249999D01*
G01*
X95072400Y-54871199D01*
G75*
G02*
X95322399Y-54621200I249999J0D01*
G01*
X95972401Y-54621200D01*
G75*
G02*
X96222400Y-54871199I0J-249999D01*
G01*
G37*
G04 #@! TD.AperFunction*
G04 #@! TA.AperFunction,SMDPad,CuDef*
G36*
G01*
X98272400Y-54871199D02*
X98272400Y-55771201D01*
G75*
G02*
X98022401Y-56021200I-249999J0D01*
G01*
X97372399Y-56021200D01*
G75*
G02*
X97122400Y-55771201I0J249999D01*
G01*
X97122400Y-54871199D01*
G75*
G02*
X97372399Y-54621200I249999J0D01*
G01*
X98022401Y-54621200D01*
G75*
G02*
X98272400Y-54871199I0J-249999D01*
G01*
G37*
G04 #@! TD.AperFunction*
G04 #@! TA.AperFunction,SMDPad,CuDef*
G36*
G01*
X102304001Y-69866200D02*
X101403999Y-69866200D01*
G75*
G02*
X101154000Y-69616201I0J249999D01*
G01*
X101154000Y-68966199D01*
G75*
G02*
X101403999Y-68716200I249999J0D01*
G01*
X102304001Y-68716200D01*
G75*
G02*
X102554000Y-68966199I0J-249999D01*
G01*
X102554000Y-69616201D01*
G75*
G02*
X102304001Y-69866200I-249999J0D01*
G01*
G37*
G04 #@! TD.AperFunction*
G04 #@! TA.AperFunction,SMDPad,CuDef*
G36*
G01*
X102304001Y-71916200D02*
X101403999Y-71916200D01*
G75*
G02*
X101154000Y-71666201I0J249999D01*
G01*
X101154000Y-71016199D01*
G75*
G02*
X101403999Y-70766200I249999J0D01*
G01*
X102304001Y-70766200D01*
G75*
G02*
X102554000Y-71016199I0J-249999D01*
G01*
X102554000Y-71666201D01*
G75*
G02*
X102304001Y-71916200I-249999J0D01*
G01*
G37*
G04 #@! TD.AperFunction*
G04 #@! TA.AperFunction,SMDPad,CuDef*
G36*
G01*
X104360400Y-53037100D02*
X106510400Y-53037100D01*
G75*
G02*
X106760400Y-53287100I0J-250000D01*
G01*
X106760400Y-54212100D01*
G75*
G02*
X106510400Y-54462100I-250000J0D01*
G01*
X104360400Y-54462100D01*
G75*
G02*
X104110400Y-54212100I0J250000D01*
G01*
X104110400Y-53287100D01*
G75*
G02*
X104360400Y-53037100I250000J0D01*
G01*
G37*
G04 #@! TD.AperFunction*
G04 #@! TA.AperFunction,SMDPad,CuDef*
G36*
G01*
X104360400Y-50062100D02*
X106510400Y-50062100D01*
G75*
G02*
X106760400Y-50312100I0J-250000D01*
G01*
X106760400Y-51237100D01*
G75*
G02*
X106510400Y-51487100I-250000J0D01*
G01*
X104360400Y-51487100D01*
G75*
G02*
X104110400Y-51237100I0J250000D01*
G01*
X104110400Y-50312100D01*
G75*
G02*
X104360400Y-50062100I250000J0D01*
G01*
G37*
G04 #@! TD.AperFunction*
G04 #@! TA.AperFunction,SMDPad,CuDef*
G36*
G01*
X93200800Y-102464900D02*
X91050800Y-102464900D01*
G75*
G02*
X90800800Y-102214900I0J250000D01*
G01*
X90800800Y-101289900D01*
G75*
G02*
X91050800Y-101039900I250000J0D01*
G01*
X93200800Y-101039900D01*
G75*
G02*
X93450800Y-101289900I0J-250000D01*
G01*
X93450800Y-102214900D01*
G75*
G02*
X93200800Y-102464900I-250000J0D01*
G01*
G37*
G04 #@! TD.AperFunction*
G04 #@! TA.AperFunction,SMDPad,CuDef*
G36*
G01*
X93200800Y-105439900D02*
X91050800Y-105439900D01*
G75*
G02*
X90800800Y-105189900I0J250000D01*
G01*
X90800800Y-104264900D01*
G75*
G02*
X91050800Y-104014900I250000J0D01*
G01*
X93200800Y-104014900D01*
G75*
G02*
X93450800Y-104264900I0J-250000D01*
G01*
X93450800Y-105189900D01*
G75*
G02*
X93200800Y-105439900I-250000J0D01*
G01*
G37*
G04 #@! TD.AperFunction*
G04 #@! TA.AperFunction,SMDPad,CuDef*
G36*
G01*
X144111400Y-106718400D02*
X146261400Y-106718400D01*
G75*
G02*
X146511400Y-106968400I0J-250000D01*
G01*
X146511400Y-107893400D01*
G75*
G02*
X146261400Y-108143400I-250000J0D01*
G01*
X144111400Y-108143400D01*
G75*
G02*
X143861400Y-107893400I0J250000D01*
G01*
X143861400Y-106968400D01*
G75*
G02*
X144111400Y-106718400I250000J0D01*
G01*
G37*
G04 #@! TD.AperFunction*
G04 #@! TA.AperFunction,SMDPad,CuDef*
G36*
G01*
X144111400Y-103743400D02*
X146261400Y-103743400D01*
G75*
G02*
X146511400Y-103993400I0J-250000D01*
G01*
X146511400Y-104918400D01*
G75*
G02*
X146261400Y-105168400I-250000J0D01*
G01*
X144111400Y-105168400D01*
G75*
G02*
X143861400Y-104918400I0J250000D01*
G01*
X143861400Y-103993400D01*
G75*
G02*
X144111400Y-103743400I250000J0D01*
G01*
G37*
G04 #@! TD.AperFunction*
G04 #@! TA.AperFunction,SMDPad,CuDef*
G36*
G01*
X100185800Y-102337900D02*
X98035800Y-102337900D01*
G75*
G02*
X97785800Y-102087900I0J250000D01*
G01*
X97785800Y-101162900D01*
G75*
G02*
X98035800Y-100912900I250000J0D01*
G01*
X100185800Y-100912900D01*
G75*
G02*
X100435800Y-101162900I0J-250000D01*
G01*
X100435800Y-102087900D01*
G75*
G02*
X100185800Y-102337900I-250000J0D01*
G01*
G37*
G04 #@! TD.AperFunction*
G04 #@! TA.AperFunction,SMDPad,CuDef*
G36*
G01*
X100185800Y-105312900D02*
X98035800Y-105312900D01*
G75*
G02*
X97785800Y-105062900I0J250000D01*
G01*
X97785800Y-104137900D01*
G75*
G02*
X98035800Y-103887900I250000J0D01*
G01*
X100185800Y-103887900D01*
G75*
G02*
X100435800Y-104137900I0J-250000D01*
G01*
X100435800Y-105062900D01*
G75*
G02*
X100185800Y-105312900I-250000J0D01*
G01*
G37*
G04 #@! TD.AperFunction*
G04 #@! TA.AperFunction,SMDPad,CuDef*
G36*
G01*
X85199800Y-102464900D02*
X83049800Y-102464900D01*
G75*
G02*
X82799800Y-102214900I0J250000D01*
G01*
X82799800Y-101289900D01*
G75*
G02*
X83049800Y-101039900I250000J0D01*
G01*
X85199800Y-101039900D01*
G75*
G02*
X85449800Y-101289900I0J-250000D01*
G01*
X85449800Y-102214900D01*
G75*
G02*
X85199800Y-102464900I-250000J0D01*
G01*
G37*
G04 #@! TD.AperFunction*
G04 #@! TA.AperFunction,SMDPad,CuDef*
G36*
G01*
X85199800Y-105439900D02*
X83049800Y-105439900D01*
G75*
G02*
X82799800Y-105189900I0J250000D01*
G01*
X82799800Y-104264900D01*
G75*
G02*
X83049800Y-104014900I250000J0D01*
G01*
X85199800Y-104014900D01*
G75*
G02*
X85449800Y-104264900I0J-250000D01*
G01*
X85449800Y-105189900D01*
G75*
G02*
X85199800Y-105439900I-250000J0D01*
G01*
G37*
G04 #@! TD.AperFunction*
G04 #@! TA.AperFunction,SMDPad,CuDef*
G36*
G01*
X82863700Y-63341800D02*
X82388700Y-63341800D01*
G75*
G02*
X82151200Y-63104300I0J237500D01*
G01*
X82151200Y-62529300D01*
G75*
G02*
X82388700Y-62291800I237500J0D01*
G01*
X82863700Y-62291800D01*
G75*
G02*
X83101200Y-62529300I0J-237500D01*
G01*
X83101200Y-63104300D01*
G75*
G02*
X82863700Y-63341800I-237500J0D01*
G01*
G37*
G04 #@! TD.AperFunction*
G04 #@! TA.AperFunction,SMDPad,CuDef*
G36*
G01*
X82863700Y-65091800D02*
X82388700Y-65091800D01*
G75*
G02*
X82151200Y-64854300I0J237500D01*
G01*
X82151200Y-64279300D01*
G75*
G02*
X82388700Y-64041800I237500J0D01*
G01*
X82863700Y-64041800D01*
G75*
G02*
X83101200Y-64279300I0J-237500D01*
G01*
X83101200Y-64854300D01*
G75*
G02*
X82863700Y-65091800I-237500J0D01*
G01*
G37*
G04 #@! TD.AperFunction*
G04 #@! TA.AperFunction,SMDPad,CuDef*
G36*
G01*
X121598700Y-63341800D02*
X121123700Y-63341800D01*
G75*
G02*
X120886200Y-63104300I0J237500D01*
G01*
X120886200Y-62529300D01*
G75*
G02*
X121123700Y-62291800I237500J0D01*
G01*
X121598700Y-62291800D01*
G75*
G02*
X121836200Y-62529300I0J-237500D01*
G01*
X121836200Y-63104300D01*
G75*
G02*
X121598700Y-63341800I-237500J0D01*
G01*
G37*
G04 #@! TD.AperFunction*
G04 #@! TA.AperFunction,SMDPad,CuDef*
G36*
G01*
X121598700Y-65091800D02*
X121123700Y-65091800D01*
G75*
G02*
X120886200Y-64854300I0J237500D01*
G01*
X120886200Y-64279300D01*
G75*
G02*
X121123700Y-64041800I237500J0D01*
G01*
X121598700Y-64041800D01*
G75*
G02*
X121836200Y-64279300I0J-237500D01*
G01*
X121836200Y-64854300D01*
G75*
G02*
X121598700Y-65091800I-237500J0D01*
G01*
G37*
G04 #@! TD.AperFunction*
G04 #@! TA.AperFunction,SMDPad,CuDef*
G36*
G01*
X82388700Y-60663600D02*
X82863700Y-60663600D01*
G75*
G02*
X83101200Y-60901100I0J-237500D01*
G01*
X83101200Y-61476100D01*
G75*
G02*
X82863700Y-61713600I-237500J0D01*
G01*
X82388700Y-61713600D01*
G75*
G02*
X82151200Y-61476100I0J237500D01*
G01*
X82151200Y-60901100D01*
G75*
G02*
X82388700Y-60663600I237500J0D01*
G01*
G37*
G04 #@! TD.AperFunction*
G04 #@! TA.AperFunction,SMDPad,CuDef*
G36*
G01*
X82388700Y-58913600D02*
X82863700Y-58913600D01*
G75*
G02*
X83101200Y-59151100I0J-237500D01*
G01*
X83101200Y-59726100D01*
G75*
G02*
X82863700Y-59963600I-237500J0D01*
G01*
X82388700Y-59963600D01*
G75*
G02*
X82151200Y-59726100I0J237500D01*
G01*
X82151200Y-59151100D01*
G75*
G02*
X82388700Y-58913600I237500J0D01*
G01*
G37*
G04 #@! TD.AperFunction*
G04 #@! TA.AperFunction,SMDPad,CuDef*
G36*
G01*
X121123700Y-60661000D02*
X121598700Y-60661000D01*
G75*
G02*
X121836200Y-60898500I0J-237500D01*
G01*
X121836200Y-61473500D01*
G75*
G02*
X121598700Y-61711000I-237500J0D01*
G01*
X121123700Y-61711000D01*
G75*
G02*
X120886200Y-61473500I0J237500D01*
G01*
X120886200Y-60898500D01*
G75*
G02*
X121123700Y-60661000I237500J0D01*
G01*
G37*
G04 #@! TD.AperFunction*
G04 #@! TA.AperFunction,SMDPad,CuDef*
G36*
G01*
X121123700Y-58911000D02*
X121598700Y-58911000D01*
G75*
G02*
X121836200Y-59148500I0J-237500D01*
G01*
X121836200Y-59723500D01*
G75*
G02*
X121598700Y-59961000I-237500J0D01*
G01*
X121123700Y-59961000D01*
G75*
G02*
X120886200Y-59723500I0J237500D01*
G01*
X120886200Y-59148500D01*
G75*
G02*
X121123700Y-58911000I237500J0D01*
G01*
G37*
G04 #@! TD.AperFunction*
G04 #@! TA.AperFunction,SMDPad,CuDef*
G36*
G01*
X98468601Y-51908400D02*
X97568599Y-51908400D01*
G75*
G02*
X97318600Y-51658401I0J249999D01*
G01*
X97318600Y-51008399D01*
G75*
G02*
X97568599Y-50758400I249999J0D01*
G01*
X98468601Y-50758400D01*
G75*
G02*
X98718600Y-51008399I0J-249999D01*
G01*
X98718600Y-51658401D01*
G75*
G02*
X98468601Y-51908400I-249999J0D01*
G01*
G37*
G04 #@! TD.AperFunction*
G04 #@! TA.AperFunction,SMDPad,CuDef*
G36*
G01*
X98468601Y-53958400D02*
X97568599Y-53958400D01*
G75*
G02*
X97318600Y-53708401I0J249999D01*
G01*
X97318600Y-53058399D01*
G75*
G02*
X97568599Y-52808400I249999J0D01*
G01*
X98468601Y-52808400D01*
G75*
G02*
X98718600Y-53058399I0J-249999D01*
G01*
X98718600Y-53708401D01*
G75*
G02*
X98468601Y-53958400I-249999J0D01*
G01*
G37*
G04 #@! TD.AperFunction*
G04 #@! TA.AperFunction,SMDPad,CuDef*
G36*
G01*
X153094700Y-61614600D02*
X152619700Y-61614600D01*
G75*
G02*
X152382200Y-61377100I0J237500D01*
G01*
X152382200Y-60802100D01*
G75*
G02*
X152619700Y-60564600I237500J0D01*
G01*
X153094700Y-60564600D01*
G75*
G02*
X153332200Y-60802100I0J-237500D01*
G01*
X153332200Y-61377100D01*
G75*
G02*
X153094700Y-61614600I-237500J0D01*
G01*
G37*
G04 #@! TD.AperFunction*
G04 #@! TA.AperFunction,SMDPad,CuDef*
G36*
G01*
X153094700Y-63364600D02*
X152619700Y-63364600D01*
G75*
G02*
X152382200Y-63127100I0J237500D01*
G01*
X152382200Y-62552100D01*
G75*
G02*
X152619700Y-62314600I237500J0D01*
G01*
X153094700Y-62314600D01*
G75*
G02*
X153332200Y-62552100I0J-237500D01*
G01*
X153332200Y-63127100D01*
G75*
G02*
X153094700Y-63364600I-237500J0D01*
G01*
G37*
G04 #@! TD.AperFunction*
G04 #@! TA.AperFunction,SMDPad,CuDef*
G36*
G01*
X155438200Y-85131400D02*
X155438200Y-87131400D01*
G75*
G02*
X155188200Y-87381400I-250000J0D01*
G01*
X151288200Y-87381400D01*
G75*
G02*
X151038200Y-87131400I0J250000D01*
G01*
X151038200Y-85131400D01*
G75*
G02*
X151288200Y-84881400I250000J0D01*
G01*
X155188200Y-84881400D01*
G75*
G02*
X155438200Y-85131400I0J-250000D01*
G01*
G37*
G04 #@! TD.AperFunction*
G04 #@! TA.AperFunction,SMDPad,CuDef*
G36*
G01*
X162838200Y-85131400D02*
X162838200Y-87131400D01*
G75*
G02*
X162588200Y-87381400I-250000J0D01*
G01*
X158688200Y-87381400D01*
G75*
G02*
X158438200Y-87131400I0J250000D01*
G01*
X158438200Y-85131400D01*
G75*
G02*
X158688200Y-84881400I250000J0D01*
G01*
X162588200Y-84881400D01*
G75*
G02*
X162838200Y-85131400I0J-250000D01*
G01*
G37*
G04 #@! TD.AperFunction*
G04 #@! TA.AperFunction,SMDPad,CuDef*
G36*
G01*
X162238700Y-76270400D02*
X161763700Y-76270400D01*
G75*
G02*
X161526200Y-76032900I0J237500D01*
G01*
X161526200Y-75457900D01*
G75*
G02*
X161763700Y-75220400I237500J0D01*
G01*
X162238700Y-75220400D01*
G75*
G02*
X162476200Y-75457900I0J-237500D01*
G01*
X162476200Y-76032900D01*
G75*
G02*
X162238700Y-76270400I-237500J0D01*
G01*
G37*
G04 #@! TD.AperFunction*
G04 #@! TA.AperFunction,SMDPad,CuDef*
G36*
G01*
X162238700Y-78020400D02*
X161763700Y-78020400D01*
G75*
G02*
X161526200Y-77782900I0J237500D01*
G01*
X161526200Y-77207900D01*
G75*
G02*
X161763700Y-76970400I237500J0D01*
G01*
X162238700Y-76970400D01*
G75*
G02*
X162476200Y-77207900I0J-237500D01*
G01*
X162476200Y-77782900D01*
G75*
G02*
X162238700Y-78020400I-237500J0D01*
G01*
G37*
G04 #@! TD.AperFunction*
G04 #@! TA.AperFunction,SMDPad,CuDef*
G36*
G01*
X155438200Y-94275400D02*
X155438200Y-96275400D01*
G75*
G02*
X155188200Y-96525400I-250000J0D01*
G01*
X151288200Y-96525400D01*
G75*
G02*
X151038200Y-96275400I0J250000D01*
G01*
X151038200Y-94275400D01*
G75*
G02*
X151288200Y-94025400I250000J0D01*
G01*
X155188200Y-94025400D01*
G75*
G02*
X155438200Y-94275400I0J-250000D01*
G01*
G37*
G04 #@! TD.AperFunction*
G04 #@! TA.AperFunction,SMDPad,CuDef*
G36*
G01*
X162838200Y-94275400D02*
X162838200Y-96275400D01*
G75*
G02*
X162588200Y-96525400I-250000J0D01*
G01*
X158688200Y-96525400D01*
G75*
G02*
X158438200Y-96275400I0J250000D01*
G01*
X158438200Y-94275400D01*
G75*
G02*
X158688200Y-94025400I250000J0D01*
G01*
X162588200Y-94025400D01*
G75*
G02*
X162838200Y-94275400I0J-250000D01*
G01*
G37*
G04 #@! TD.AperFunction*
G04 #@! TA.AperFunction,SMDPad,CuDef*
G36*
G01*
X160536200Y-77064900D02*
X158386200Y-77064900D01*
G75*
G02*
X158136200Y-76814900I0J250000D01*
G01*
X158136200Y-75889900D01*
G75*
G02*
X158386200Y-75639900I250000J0D01*
G01*
X160536200Y-75639900D01*
G75*
G02*
X160786200Y-75889900I0J-250000D01*
G01*
X160786200Y-76814900D01*
G75*
G02*
X160536200Y-77064900I-250000J0D01*
G01*
G37*
G04 #@! TD.AperFunction*
G04 #@! TA.AperFunction,SMDPad,CuDef*
G36*
G01*
X160536200Y-80039900D02*
X158386200Y-80039900D01*
G75*
G02*
X158136200Y-79789900I0J250000D01*
G01*
X158136200Y-78864900D01*
G75*
G02*
X158386200Y-78614900I250000J0D01*
G01*
X160536200Y-78614900D01*
G75*
G02*
X160786200Y-78864900I0J-250000D01*
G01*
X160786200Y-79789900D01*
G75*
G02*
X160536200Y-80039900I-250000J0D01*
G01*
G37*
G04 #@! TD.AperFunction*
G04 #@! TA.AperFunction,SMDPad,CuDef*
G36*
G01*
X155033200Y-80559900D02*
X155033200Y-81034900D01*
G75*
G02*
X154795700Y-81272400I-237500J0D01*
G01*
X154220700Y-81272400D01*
G75*
G02*
X153983200Y-81034900I0J237500D01*
G01*
X153983200Y-80559900D01*
G75*
G02*
X154220700Y-80322400I237500J0D01*
G01*
X154795700Y-80322400D01*
G75*
G02*
X155033200Y-80559900I0J-237500D01*
G01*
G37*
G04 #@! TD.AperFunction*
G04 #@! TA.AperFunction,SMDPad,CuDef*
G36*
G01*
X156783200Y-80559900D02*
X156783200Y-81034900D01*
G75*
G02*
X156545700Y-81272400I-237500J0D01*
G01*
X155970700Y-81272400D01*
G75*
G02*
X155733200Y-81034900I0J237500D01*
G01*
X155733200Y-80559900D01*
G75*
G02*
X155970700Y-80322400I237500J0D01*
G01*
X156545700Y-80322400D01*
G75*
G02*
X156783200Y-80559900I0J-237500D01*
G01*
G37*
G04 #@! TD.AperFunction*
G04 #@! TA.AperFunction,SMDPad,CuDef*
G36*
G01*
X137600200Y-84844900D02*
X137600200Y-84369900D01*
G75*
G02*
X137837700Y-84132400I237500J0D01*
G01*
X138412700Y-84132400D01*
G75*
G02*
X138650200Y-84369900I0J-237500D01*
G01*
X138650200Y-84844900D01*
G75*
G02*
X138412700Y-85082400I-237500J0D01*
G01*
X137837700Y-85082400D01*
G75*
G02*
X137600200Y-84844900I0J237500D01*
G01*
G37*
G04 #@! TD.AperFunction*
G04 #@! TA.AperFunction,SMDPad,CuDef*
G36*
G01*
X135850200Y-84844900D02*
X135850200Y-84369900D01*
G75*
G02*
X136087700Y-84132400I237500J0D01*
G01*
X136662700Y-84132400D01*
G75*
G02*
X136900200Y-84369900I0J-237500D01*
G01*
X136900200Y-84844900D01*
G75*
G02*
X136662700Y-85082400I-237500J0D01*
G01*
X136087700Y-85082400D01*
G75*
G02*
X135850200Y-84844900I0J237500D01*
G01*
G37*
G04 #@! TD.AperFunction*
G04 #@! TA.AperFunction,SMDPad,CuDef*
G36*
G01*
X77842100Y-106917000D02*
X78317100Y-106917000D01*
G75*
G02*
X78554600Y-107154500I0J-237500D01*
G01*
X78554600Y-107729500D01*
G75*
G02*
X78317100Y-107967000I-237500J0D01*
G01*
X77842100Y-107967000D01*
G75*
G02*
X77604600Y-107729500I0J237500D01*
G01*
X77604600Y-107154500D01*
G75*
G02*
X77842100Y-106917000I237500J0D01*
G01*
G37*
G04 #@! TD.AperFunction*
G04 #@! TA.AperFunction,SMDPad,CuDef*
G36*
G01*
X77842100Y-105167000D02*
X78317100Y-105167000D01*
G75*
G02*
X78554600Y-105404500I0J-237500D01*
G01*
X78554600Y-105979500D01*
G75*
G02*
X78317100Y-106217000I-237500J0D01*
G01*
X77842100Y-106217000D01*
G75*
G02*
X77604600Y-105979500I0J237500D01*
G01*
X77604600Y-105404500D01*
G75*
G02*
X77842100Y-105167000I237500J0D01*
G01*
G37*
G04 #@! TD.AperFunction*
G04 #@! TA.AperFunction,SMDPad,CuDef*
G36*
G01*
X98673200Y-71212700D02*
X98673200Y-71687700D01*
G75*
G02*
X98435700Y-71925200I-237500J0D01*
G01*
X97860700Y-71925200D01*
G75*
G02*
X97623200Y-71687700I0J237500D01*
G01*
X97623200Y-71212700D01*
G75*
G02*
X97860700Y-70975200I237500J0D01*
G01*
X98435700Y-70975200D01*
G75*
G02*
X98673200Y-71212700I0J-237500D01*
G01*
G37*
G04 #@! TD.AperFunction*
G04 #@! TA.AperFunction,SMDPad,CuDef*
G36*
G01*
X100423200Y-71212700D02*
X100423200Y-71687700D01*
G75*
G02*
X100185700Y-71925200I-237500J0D01*
G01*
X99610700Y-71925200D01*
G75*
G02*
X99373200Y-71687700I0J237500D01*
G01*
X99373200Y-71212700D01*
G75*
G02*
X99610700Y-70975200I237500J0D01*
G01*
X100185700Y-70975200D01*
G75*
G02*
X100423200Y-71212700I0J-237500D01*
G01*
G37*
G04 #@! TD.AperFunction*
G04 #@! TA.AperFunction,SMDPad,CuDef*
G36*
G01*
X106459800Y-73287900D02*
X106459800Y-72812900D01*
G75*
G02*
X106697300Y-72575400I237500J0D01*
G01*
X107272300Y-72575400D01*
G75*
G02*
X107509800Y-72812900I0J-237500D01*
G01*
X107509800Y-73287900D01*
G75*
G02*
X107272300Y-73525400I-237500J0D01*
G01*
X106697300Y-73525400D01*
G75*
G02*
X106459800Y-73287900I0J237500D01*
G01*
G37*
G04 #@! TD.AperFunction*
G04 #@! TA.AperFunction,SMDPad,CuDef*
G36*
G01*
X104709800Y-73287900D02*
X104709800Y-72812900D01*
G75*
G02*
X104947300Y-72575400I237500J0D01*
G01*
X105522300Y-72575400D01*
G75*
G02*
X105759800Y-72812900I0J-237500D01*
G01*
X105759800Y-73287900D01*
G75*
G02*
X105522300Y-73525400I-237500J0D01*
G01*
X104947300Y-73525400D01*
G75*
G02*
X104709800Y-73287900I0J237500D01*
G01*
G37*
G04 #@! TD.AperFunction*
G04 #@! TA.AperFunction,SMDPad,CuDef*
G36*
G01*
X108652300Y-70874400D02*
X109127300Y-70874400D01*
G75*
G02*
X109364800Y-71111900I0J-237500D01*
G01*
X109364800Y-71686900D01*
G75*
G02*
X109127300Y-71924400I-237500J0D01*
G01*
X108652300Y-71924400D01*
G75*
G02*
X108414800Y-71686900I0J237500D01*
G01*
X108414800Y-71111900D01*
G75*
G02*
X108652300Y-70874400I237500J0D01*
G01*
G37*
G04 #@! TD.AperFunction*
G04 #@! TA.AperFunction,SMDPad,CuDef*
G36*
G01*
X108652300Y-69124400D02*
X109127300Y-69124400D01*
G75*
G02*
X109364800Y-69361900I0J-237500D01*
G01*
X109364800Y-69936900D01*
G75*
G02*
X109127300Y-70174400I-237500J0D01*
G01*
X108652300Y-70174400D01*
G75*
G02*
X108414800Y-69936900I0J237500D01*
G01*
X108414800Y-69361900D01*
G75*
G02*
X108652300Y-69124400I237500J0D01*
G01*
G37*
G04 #@! TD.AperFunction*
G04 #@! TA.AperFunction,SMDPad,CuDef*
G36*
G01*
X100552800Y-86528900D02*
X100552800Y-87003900D01*
G75*
G02*
X100315300Y-87241400I-237500J0D01*
G01*
X99740300Y-87241400D01*
G75*
G02*
X99502800Y-87003900I0J237500D01*
G01*
X99502800Y-86528900D01*
G75*
G02*
X99740300Y-86291400I237500J0D01*
G01*
X100315300Y-86291400D01*
G75*
G02*
X100552800Y-86528900I0J-237500D01*
G01*
G37*
G04 #@! TD.AperFunction*
G04 #@! TA.AperFunction,SMDPad,CuDef*
G36*
G01*
X102302800Y-86528900D02*
X102302800Y-87003900D01*
G75*
G02*
X102065300Y-87241400I-237500J0D01*
G01*
X101490300Y-87241400D01*
G75*
G02*
X101252800Y-87003900I0J237500D01*
G01*
X101252800Y-86528900D01*
G75*
G02*
X101490300Y-86291400I237500J0D01*
G01*
X102065300Y-86291400D01*
G75*
G02*
X102302800Y-86528900I0J-237500D01*
G01*
G37*
G04 #@! TD.AperFunction*
G04 #@! TA.AperFunction,SMDPad,CuDef*
G36*
G01*
X110811300Y-76208400D02*
X111286300Y-76208400D01*
G75*
G02*
X111523800Y-76445900I0J-237500D01*
G01*
X111523800Y-77020900D01*
G75*
G02*
X111286300Y-77258400I-237500J0D01*
G01*
X110811300Y-77258400D01*
G75*
G02*
X110573800Y-77020900I0J237500D01*
G01*
X110573800Y-76445900D01*
G75*
G02*
X110811300Y-76208400I237500J0D01*
G01*
G37*
G04 #@! TD.AperFunction*
G04 #@! TA.AperFunction,SMDPad,CuDef*
G36*
G01*
X110811300Y-74458400D02*
X111286300Y-74458400D01*
G75*
G02*
X111523800Y-74695900I0J-237500D01*
G01*
X111523800Y-75270900D01*
G75*
G02*
X111286300Y-75508400I-237500J0D01*
G01*
X110811300Y-75508400D01*
G75*
G02*
X110573800Y-75270900I0J237500D01*
G01*
X110573800Y-74695900D01*
G75*
G02*
X110811300Y-74458400I237500J0D01*
G01*
G37*
G04 #@! TD.AperFunction*
G04 #@! TA.AperFunction,SMDPad,CuDef*
G36*
G01*
X87509300Y-80814400D02*
X87034300Y-80814400D01*
G75*
G02*
X86796800Y-80576900I0J237500D01*
G01*
X86796800Y-80001900D01*
G75*
G02*
X87034300Y-79764400I237500J0D01*
G01*
X87509300Y-79764400D01*
G75*
G02*
X87746800Y-80001900I0J-237500D01*
G01*
X87746800Y-80576900D01*
G75*
G02*
X87509300Y-80814400I-237500J0D01*
G01*
G37*
G04 #@! TD.AperFunction*
G04 #@! TA.AperFunction,SMDPad,CuDef*
G36*
G01*
X87509300Y-82564400D02*
X87034300Y-82564400D01*
G75*
G02*
X86796800Y-82326900I0J237500D01*
G01*
X86796800Y-81751900D01*
G75*
G02*
X87034300Y-81514400I237500J0D01*
G01*
X87509300Y-81514400D01*
G75*
G02*
X87746800Y-81751900I0J-237500D01*
G01*
X87746800Y-82326900D01*
G75*
G02*
X87509300Y-82564400I-237500J0D01*
G01*
G37*
G04 #@! TD.AperFunction*
G04 #@! TA.AperFunction,SMDPad,CuDef*
G36*
G01*
X80204800Y-77384900D02*
X80204800Y-77859900D01*
G75*
G02*
X79967300Y-78097400I-237500J0D01*
G01*
X79392300Y-78097400D01*
G75*
G02*
X79154800Y-77859900I0J237500D01*
G01*
X79154800Y-77384900D01*
G75*
G02*
X79392300Y-77147400I237500J0D01*
G01*
X79967300Y-77147400D01*
G75*
G02*
X80204800Y-77384900I0J-237500D01*
G01*
G37*
G04 #@! TD.AperFunction*
G04 #@! TA.AperFunction,SMDPad,CuDef*
G36*
G01*
X81954800Y-77384900D02*
X81954800Y-77859900D01*
G75*
G02*
X81717300Y-78097400I-237500J0D01*
G01*
X81142300Y-78097400D01*
G75*
G02*
X80904800Y-77859900I0J237500D01*
G01*
X80904800Y-77384900D01*
G75*
G02*
X81142300Y-77147400I237500J0D01*
G01*
X81717300Y-77147400D01*
G75*
G02*
X81954800Y-77384900I0J-237500D01*
G01*
G37*
G04 #@! TD.AperFunction*
D38*
X79679800Y-76098400D03*
X102285800Y-81686400D03*
X101015800Y-84861400D03*
X99822000Y-69291200D03*
X141528800Y-89966800D03*
X141528800Y-89966800D03*
X134874000Y-84582000D03*
X108635800Y-72923400D03*
X109397800Y-76479400D03*
X133070600Y-64389000D03*
X133070600Y-63017400D03*
X133070600Y-61645800D03*
X133070600Y-60325000D03*
X113360200Y-62458600D03*
X113360200Y-59766200D03*
X113360200Y-63830200D03*
X113360200Y-61087000D03*
X93700600Y-61188600D03*
X93700600Y-59867800D03*
X93700600Y-62560200D03*
X93700600Y-63931800D03*
X143129000Y-59994800D03*
X141986000Y-59994800D03*
X140817600Y-59994800D03*
X98094800Y-67056000D03*
X111175000Y-104292400D03*
X124053600Y-104317800D03*
X135331200Y-104317800D03*
X98628200Y-85344000D03*
X114045998Y-91211400D03*
X100761800Y-94564200D03*
X79629000Y-107416600D03*
X117830600Y-86842600D03*
X154736800Y-92710000D03*
X151790400Y-92710000D03*
X151739600Y-90728800D03*
X151739600Y-88595200D03*
X154736800Y-88595200D03*
X154736800Y-90728800D03*
X155600400Y-63449200D03*
X155600400Y-62331604D03*
X103352600Y-73533000D03*
X92557600Y-84734400D03*
X98729800Y-80543400D03*
X145211800Y-80543400D03*
X85267800Y-77749400D03*
X105206800Y-86766400D03*
X85267800Y-84353400D03*
X106222800Y-87528400D03*
X118948200Y-73837800D03*
X129768600Y-73837800D03*
X119837200Y-72237600D03*
X131292600Y-72186800D03*
X120777000Y-70637400D03*
X129006600Y-70129400D03*
X106375200Y-90398600D03*
X106299000Y-88925400D03*
X104571826Y-83337400D03*
X132156200Y-83337400D03*
X104952800Y-82194400D03*
X143459200Y-81686400D03*
X97967800Y-79527400D03*
X95478600Y-85521800D03*
X134213600Y-79451200D03*
X143586200Y-77876400D03*
X98729800Y-78384400D03*
X95580200Y-83312000D03*
X133096000Y-85394800D03*
X134366000Y-90982800D03*
X117881400Y-91262200D03*
X117881400Y-99618800D03*
X136093200Y-74066400D03*
X144729200Y-76606400D03*
X143078200Y-57099200D03*
X140919200Y-57124600D03*
X141757400Y-55753000D03*
X143916400Y-55753000D03*
X113632200Y-106560400D03*
X126187200Y-106553000D03*
X137058400Y-106553000D03*
X120827800Y-86690200D03*
X154152600Y-58216800D03*
X154152600Y-57073800D03*
X152882600Y-57073800D03*
X152882600Y-58216800D03*
X161493200Y-88696800D03*
X159918400Y-90627200D03*
X161442400Y-92379800D03*
X159918400Y-92379800D03*
X159918400Y-88696800D03*
X161442400Y-90627200D03*
X142722600Y-53873400D03*
X151180799Y-53873400D03*
X110236000Y-86309200D03*
X134620000Y-69088000D03*
X133070601Y-73456800D03*
X122809000Y-84886800D03*
X158496000Y-55829200D03*
D39*
X136375200Y-83238400D02*
X136093200Y-82956400D01*
X136375200Y-84607400D02*
X136375200Y-83238400D01*
X79900800Y-77843400D02*
X79679800Y-77622400D01*
X79900800Y-79273400D02*
X79900800Y-77843400D01*
D40*
X102195600Y-64301400D02*
X101955600Y-64541400D01*
X104037600Y-64301400D02*
X102195600Y-64301400D01*
X79679800Y-77622400D02*
X79679800Y-77147400D01*
X79679800Y-77147400D02*
X79679800Y-76098400D01*
D39*
X107879800Y-76470400D02*
X107879800Y-75711400D01*
X107879800Y-75711400D02*
X108508800Y-75082400D01*
X110573800Y-74983400D02*
X111048800Y-74983400D01*
X110474800Y-75082400D02*
X110573800Y-74983400D01*
X108508800Y-75082400D02*
X110474800Y-75082400D01*
X107879800Y-77420402D02*
X107550802Y-77749400D01*
X107879800Y-76470400D02*
X107879800Y-77420402D01*
X107550802Y-77749400D02*
X106984800Y-77749400D01*
X106984800Y-77749400D02*
X106730800Y-77749400D01*
X106730800Y-77749400D02*
X106476800Y-77749400D01*
X106476800Y-77749400D02*
X102539800Y-81686400D01*
X102539800Y-81686400D02*
X102285800Y-81686400D01*
X101024800Y-84870400D02*
X101015800Y-84861400D01*
X102279800Y-84870400D02*
X101024800Y-84870400D01*
X101777800Y-85372400D02*
X102279800Y-84870400D01*
X101777800Y-86766400D02*
X101777800Y-85372400D01*
D41*
X111353600Y-88590200D02*
X111734600Y-88209200D01*
X111353600Y-89865200D02*
X111353600Y-88590200D01*
D42*
X151612000Y-61238800D02*
X150752600Y-61238800D01*
X151993600Y-62451000D02*
X151993600Y-61620400D01*
X152857200Y-62839600D02*
X152382200Y-62839600D01*
X151993600Y-61620400D02*
X151612000Y-61238800D01*
X152382200Y-62839600D02*
X151993600Y-62451000D01*
D41*
X113919000Y-74983400D02*
X115064600Y-73837800D01*
X111048800Y-74983400D02*
X113919000Y-74983400D01*
X115064600Y-73837800D02*
X115064600Y-70637400D01*
D40*
X101955600Y-69189600D02*
X101854000Y-69291200D01*
X101854000Y-69291200D02*
X101154000Y-69291200D01*
X101154000Y-69291200D02*
X99822000Y-69291200D01*
X111048800Y-74777600D02*
X111048800Y-74983400D01*
X111048800Y-74458400D02*
X111785400Y-73721800D01*
X111048800Y-74983400D02*
X111048800Y-74458400D01*
X111785400Y-73721800D02*
X111785400Y-69418200D01*
X109474000Y-67106800D02*
X101955600Y-67106800D01*
X101955600Y-64541400D02*
X101955600Y-67106800D01*
X111785400Y-69418200D02*
X109474000Y-67106800D01*
X101955600Y-67106800D02*
X101955600Y-69189600D01*
D43*
X106295000Y-97992400D02*
X107315000Y-97992400D01*
X101777800Y-93475200D02*
X106295000Y-97992400D01*
X101777800Y-86766400D02*
X101777800Y-93475200D01*
X101777800Y-88392000D02*
X101777800Y-86766400D01*
X109898200Y-91795600D02*
X105181400Y-91795600D01*
X111353600Y-89865200D02*
X111353600Y-90340200D01*
X105181400Y-91795600D02*
X101777800Y-88392000D01*
X111353600Y-90340200D02*
X109898200Y-91795600D01*
X136375200Y-85082400D02*
X136375200Y-84607400D01*
X128341200Y-93116400D02*
X136375200Y-85082400D01*
X109898200Y-91795600D02*
X109898200Y-92296000D01*
X109898200Y-92296000D02*
X110718600Y-93116400D01*
X124104400Y-93141800D02*
X128341200Y-93116400D01*
X110718600Y-93116400D02*
X124104400Y-93141800D01*
D41*
X124104400Y-84226400D02*
X124104400Y-93141800D01*
X135280400Y-73050400D02*
X124104400Y-84226400D01*
X150578800Y-64643000D02*
X143459200Y-64643000D01*
X143459200Y-64643000D02*
X142697200Y-65405000D01*
X137744200Y-73050400D02*
X135280400Y-73050400D01*
X152382200Y-62839600D02*
X150578800Y-64643000D01*
X142697200Y-65405000D02*
X142697200Y-68097400D01*
X142697200Y-68097400D02*
X137744200Y-73050400D01*
D43*
X141506000Y-92936000D02*
X141351000Y-93091000D01*
X141506000Y-91440000D02*
X141506000Y-92936000D01*
X141506000Y-91440000D02*
X141506000Y-89989600D01*
X141506000Y-89989600D02*
X141528800Y-89966800D01*
X134899400Y-84607400D02*
X134874000Y-84582000D01*
X136375200Y-84607400D02*
X134899400Y-84607400D01*
D44*
X159207200Y-76606400D02*
X159461200Y-76352400D01*
X156367200Y-76606400D02*
X159207200Y-76606400D01*
X154127200Y-76606400D02*
X153492200Y-77241400D01*
X156367200Y-76606400D02*
X154127200Y-76606400D01*
D42*
X150752600Y-60588800D02*
X144852600Y-60588800D01*
X144852600Y-59288800D02*
X144852600Y-60588800D01*
D39*
X138125200Y-84607400D02*
X139776200Y-84607400D01*
X150617200Y-75336400D02*
X141493200Y-75336400D01*
X138887200Y-76567400D02*
X138887200Y-84607400D01*
X141493200Y-75336400D02*
X140118200Y-75336400D01*
X140118200Y-75336400D02*
X138887200Y-76567400D01*
X106984800Y-71321400D02*
X106984800Y-73050400D01*
X107062800Y-71399400D02*
X106984800Y-71321400D01*
X108889800Y-71399400D02*
X107062800Y-71399400D01*
X106984800Y-71321400D02*
X107033800Y-71321400D01*
X107033800Y-71321400D02*
X108127800Y-72415400D01*
X108127800Y-72415400D02*
X108635800Y-72923400D01*
X87045800Y-81813400D02*
X87271800Y-82039400D01*
X85300800Y-81813400D02*
X87045800Y-81813400D01*
X88809800Y-82039400D02*
X88823800Y-82053400D01*
X83235800Y-81813400D02*
X82600800Y-81178400D01*
X85300800Y-81813400D02*
X83235800Y-81813400D01*
X82600800Y-81653400D02*
X82600800Y-81178400D01*
X81170800Y-83083400D02*
X82600800Y-81653400D01*
X79900800Y-83083400D02*
X81170800Y-83083400D01*
D40*
X81429800Y-66418400D02*
X81429800Y-77622400D01*
X80695800Y-65684400D02*
X81429800Y-66418400D01*
X80695800Y-63779400D02*
X80695800Y-65684400D01*
X82727800Y-62763400D02*
X81711800Y-62763400D01*
X81711800Y-62763400D02*
X80695800Y-63779400D01*
X122224800Y-62001400D02*
X121462800Y-61239400D01*
X123417800Y-62001400D02*
X122224800Y-62001400D01*
X122252800Y-62001400D02*
X121462800Y-62791400D01*
X123417800Y-62001400D02*
X122252800Y-62001400D01*
X83489800Y-62001400D02*
X82727800Y-62763400D01*
X84682800Y-62001400D02*
X83489800Y-62001400D01*
D39*
X84682800Y-62001400D02*
X79074800Y-62001400D01*
D40*
X82125800Y-80703400D02*
X82600800Y-81178400D01*
X82125800Y-78793400D02*
X82125800Y-80703400D01*
X81429800Y-78097400D02*
X82125800Y-78793400D01*
X81429800Y-77622400D02*
X81429800Y-78097400D01*
X102745600Y-62001400D02*
X101955600Y-62791400D01*
X104037600Y-62001400D02*
X102745600Y-62001400D01*
X102717600Y-62001400D02*
X101955600Y-61239400D01*
X104037600Y-62001400D02*
X102717600Y-62001400D01*
X167157400Y-48945800D02*
X172491400Y-48945800D01*
X74853800Y-53365400D02*
X75488800Y-54000400D01*
D39*
X109397800Y-77752400D02*
X109279800Y-77870400D01*
X109397800Y-76479400D02*
X109397800Y-77752400D01*
X110794800Y-76479400D02*
X111048800Y-76733400D01*
X109397800Y-76479400D02*
X110794800Y-76479400D01*
X109279800Y-78670400D02*
X109279800Y-77870400D01*
X100027800Y-84322400D02*
X100879800Y-83470400D01*
X100027800Y-86766400D02*
X100027800Y-84322400D01*
X100879800Y-83470400D02*
X101993121Y-83470400D01*
X101993121Y-83470400D02*
X106793121Y-78670400D01*
X106793121Y-78670400D02*
X108079800Y-78670400D01*
X108079800Y-78670400D02*
X109279800Y-78670400D01*
D40*
X96189800Y-49606200D02*
X97917000Y-51333400D01*
X92125800Y-49606200D02*
X96189800Y-49606200D01*
X90728800Y-51968400D02*
X90728800Y-51003200D01*
X97917000Y-51333400D02*
X98018600Y-51333400D01*
X90728800Y-51003200D02*
X92125800Y-49606200D01*
X82682800Y-62001400D02*
X84682800Y-62001400D01*
D45*
X90728800Y-54508400D02*
X90728800Y-51968400D01*
D41*
X113103600Y-86490200D02*
X113284600Y-86309200D01*
X113284600Y-86309200D02*
X114334600Y-86309200D01*
X113103600Y-89865200D02*
X113103600Y-86490200D01*
D42*
X152356400Y-60588800D02*
X150752600Y-60588800D01*
X152857200Y-61089600D02*
X152356400Y-60588800D01*
D41*
X73406000Y-107442000D02*
X73177400Y-107670600D01*
X78079600Y-107442000D02*
X73406000Y-107442000D01*
D43*
X156260800Y-61036200D02*
X156210000Y-61087000D01*
X156260800Y-55422800D02*
X156260800Y-61036200D01*
X154721600Y-53883600D02*
X156260800Y-55422800D01*
X154718000Y-53883600D02*
X154721600Y-53883600D01*
D40*
X98148200Y-67002600D02*
X98148200Y-71450200D01*
X98171000Y-66979800D02*
X98148200Y-67002600D01*
X101295200Y-62814200D02*
X100253800Y-63855600D01*
X101457800Y-62814200D02*
X101295200Y-62814200D01*
X100253800Y-63855600D02*
X100253800Y-66979800D01*
X101480600Y-62791400D02*
X101457800Y-62814200D01*
X101955600Y-62791400D02*
X101480600Y-62791400D01*
X100253800Y-66979800D02*
X98171000Y-66979800D01*
X109855000Y-104292400D02*
X111175000Y-104292400D01*
X133426600Y-104317800D02*
X133350000Y-104394400D01*
X135331200Y-104317800D02*
X133426600Y-104317800D01*
X122402600Y-104317800D02*
X122174000Y-104546400D01*
X124053600Y-104317800D02*
X122402600Y-104317800D01*
D43*
X99502800Y-86766400D02*
X98628200Y-85891800D01*
X100027800Y-86766400D02*
X99502800Y-86766400D01*
X98628200Y-85891800D02*
X98628200Y-85344000D01*
D41*
X114071400Y-89865200D02*
X113103600Y-89865200D01*
X114782600Y-89865200D02*
X114071400Y-89865200D01*
D43*
X114782600Y-89865200D02*
X113103600Y-89865200D01*
X114045998Y-89890602D02*
X114045998Y-90645715D01*
X114071400Y-89865200D02*
X114045998Y-89890602D01*
X114045998Y-90645715D02*
X114045998Y-91211400D01*
X100027800Y-87241400D02*
X100406200Y-87619800D01*
X100027800Y-86766400D02*
X100027800Y-87241400D01*
X100406200Y-87619800D02*
X100406200Y-90805000D01*
X100406200Y-90805000D02*
X100406200Y-94208600D01*
X100406200Y-94208600D02*
X100761800Y-94564200D01*
X79603600Y-107442000D02*
X79629000Y-107416600D01*
X78079600Y-107442000D02*
X79603600Y-107442000D01*
X92252800Y-104600400D02*
X92125800Y-104727400D01*
X99110800Y-104600400D02*
X92252800Y-104600400D01*
X84124800Y-104727400D02*
X92125800Y-104727400D01*
D40*
X122252800Y-62001400D02*
X122151960Y-62001400D01*
X122151960Y-62001400D02*
X121386600Y-62001400D01*
X121386600Y-62001400D02*
X119989600Y-63398400D01*
X119989600Y-63398400D02*
X119989600Y-65049400D01*
X119989600Y-65049400D02*
X119989600Y-66446400D01*
X119989600Y-66446400D02*
X123190000Y-69646800D01*
X123190000Y-69646800D02*
X123190000Y-76250800D01*
X123190000Y-76250800D02*
X119811800Y-79629000D01*
X119811800Y-79629000D02*
X117830600Y-81610200D01*
X117830600Y-81610200D02*
X117830600Y-86842600D01*
D43*
X100761800Y-94564200D02*
X103327200Y-97129600D01*
D41*
X138125200Y-87884000D02*
X138125200Y-84607400D01*
X103327200Y-97129600D02*
X103327200Y-103733600D01*
X102460400Y-104600400D02*
X99110800Y-104600400D01*
X103327200Y-103733600D02*
X102460400Y-104600400D01*
D45*
X90728800Y-54263400D02*
X90728800Y-51968400D01*
X90728800Y-54181400D02*
X90728800Y-51968400D01*
X89436600Y-55473600D02*
X90728800Y-54181400D01*
X98577400Y-50774600D02*
X98018600Y-51333400D01*
X100007200Y-50774600D02*
X98577400Y-50774600D01*
D40*
X156260800Y-61036200D02*
X155600400Y-61696600D01*
X155600400Y-61765919D02*
X155600400Y-62331604D01*
X155600400Y-61696600D02*
X155600400Y-61765919D01*
X170129200Y-66634800D02*
X170129200Y-68884800D01*
X166943600Y-63449200D02*
X170129200Y-66634800D01*
X155600400Y-63449200D02*
X166943600Y-63449200D01*
X173710600Y-48945800D02*
X172491400Y-48945800D01*
X175056800Y-50292000D02*
X173710600Y-48945800D01*
X175056800Y-54737000D02*
X175056800Y-50292000D01*
X168704200Y-61089600D02*
X175056800Y-54737000D01*
X165961000Y-61089600D02*
X168704200Y-61089600D01*
X162509200Y-60023400D02*
X162509200Y-61061600D01*
X156210000Y-61087000D02*
X162509200Y-61061600D01*
X162509200Y-61061600D02*
X165961000Y-61089600D01*
D45*
X90728800Y-54475600D02*
X91574400Y-55321200D01*
X90728800Y-51968400D02*
X90728800Y-54475600D01*
D40*
X121651600Y-62001400D02*
X122151960Y-62001400D01*
X121361200Y-61711000D02*
X121651600Y-62001400D01*
X121361200Y-61186000D02*
X121361200Y-61711000D01*
X82626200Y-61849000D02*
X82702400Y-61925200D01*
X82626200Y-61188600D02*
X82626200Y-61849000D01*
X83489800Y-62001400D02*
X82702400Y-61925200D01*
X83439000Y-62001400D02*
X82626200Y-61188600D01*
X84682800Y-62001400D02*
X83439000Y-62001400D01*
X87410400Y-82178000D02*
X87271800Y-82039400D01*
X89027000Y-82178000D02*
X87410400Y-82178000D01*
D39*
X87017800Y-80543400D02*
X87271800Y-80289400D01*
X85300800Y-80543400D02*
X87017800Y-80543400D01*
X88809800Y-80289400D02*
X88823800Y-80303400D01*
D40*
X84682800Y-74243400D02*
X84682800Y-64301400D01*
X87271800Y-80289400D02*
X87271800Y-76832400D01*
X87271800Y-76832400D02*
X84682800Y-74243400D01*
X84417400Y-64566800D02*
X84682800Y-64301400D01*
X82626200Y-64566800D02*
X84417400Y-64566800D01*
X87433200Y-80128000D02*
X87271800Y-80289400D01*
X89027000Y-80128000D02*
X87433200Y-80128000D01*
D39*
X109364800Y-69649400D02*
X108889800Y-69649400D01*
X107079800Y-76470400D02*
X107079800Y-75270400D01*
X109524800Y-74193400D02*
X110286800Y-73431400D01*
X110286800Y-70571400D02*
X109364800Y-69649400D01*
X107079800Y-75270400D02*
X108156800Y-74193400D01*
X108156800Y-74193400D02*
X109524800Y-74193400D01*
X110286800Y-73431400D02*
X110286800Y-70571400D01*
X107012800Y-69649400D02*
X106984800Y-69621400D01*
X108889800Y-69649400D02*
X107012800Y-69649400D01*
X106279800Y-74095400D02*
X105234800Y-73050400D01*
X106279800Y-76470400D02*
X106279800Y-74095400D01*
X105234800Y-71771400D02*
X104784800Y-71321400D01*
X105234800Y-73050400D02*
X105234800Y-71771400D01*
D40*
X101745000Y-71450200D02*
X101854000Y-71341200D01*
X99898200Y-71450200D02*
X101745000Y-71450200D01*
D39*
X102895400Y-74955400D02*
X101854000Y-73914000D01*
X104629801Y-75470399D02*
X104114802Y-74955400D01*
X101854000Y-73914000D02*
X101854000Y-71341200D01*
X104679800Y-76470400D02*
X104629801Y-76470400D01*
X104114802Y-74955400D02*
X102895400Y-74955400D01*
X104629801Y-76470400D02*
X104629801Y-75470399D01*
D41*
X71907400Y-106952180D02*
X71907400Y-107670600D01*
X73167580Y-105692000D02*
X71907400Y-106952180D01*
X78079600Y-105692000D02*
X73167580Y-105692000D01*
X105479800Y-75259724D02*
X103753076Y-73533000D01*
X105479800Y-76470400D02*
X105479800Y-75259724D01*
X103753076Y-73533000D02*
X103352600Y-73533000D01*
X78079600Y-99212400D02*
X78079600Y-105692000D01*
X92557600Y-84734400D02*
X78079600Y-99212400D01*
D46*
X163807200Y-73939400D02*
X162001200Y-75745400D01*
X170129200Y-73939400D02*
X163807200Y-73939400D01*
D40*
X157810200Y-74828400D02*
X157302200Y-75336400D01*
X157302200Y-75336400D02*
X156367200Y-75336400D01*
X161112200Y-74828400D02*
X157810200Y-74828400D01*
X162001200Y-75745400D02*
X162001200Y-75717400D01*
X162001200Y-75717400D02*
X161112200Y-74828400D01*
D47*
X168336034Y-73939400D02*
X164515800Y-73939400D01*
X170129200Y-73964800D02*
X168361434Y-73964800D01*
X168361434Y-73964800D02*
X168336034Y-73939400D01*
D46*
X163525200Y-79019400D02*
X162001200Y-77495400D01*
X170129200Y-79019400D02*
X163525200Y-79019400D01*
D40*
X161620200Y-77876400D02*
X162001200Y-77495400D01*
X156367200Y-77876400D02*
X161620200Y-77876400D01*
D47*
X164287200Y-79044800D02*
X164261800Y-79019400D01*
X170129200Y-79044800D02*
X164287200Y-79044800D01*
D45*
X93624400Y-52324000D02*
X93268800Y-51968400D01*
X93624400Y-55321200D02*
X93624400Y-52324000D01*
X93624400Y-55321200D02*
X95647400Y-55321200D01*
D41*
X84124800Y-98679000D02*
X84124800Y-101752400D01*
X99110800Y-98552000D02*
X99110800Y-101625400D01*
D43*
X142736900Y-107430900D02*
X145186400Y-107430900D01*
X141351000Y-95141000D02*
X141351000Y-106045000D01*
X141351000Y-106045000D02*
X142736900Y-107430900D01*
D41*
X100869800Y-80270400D02*
X100850800Y-80289400D01*
X100879800Y-80270400D02*
X100869800Y-80270400D01*
X100850800Y-80289400D02*
X99618800Y-80289400D01*
X99618800Y-80289400D02*
X98983800Y-80289400D01*
X98983800Y-80289400D02*
X98729800Y-80543400D01*
X150617200Y-79146400D02*
X146608800Y-79146400D01*
X146608800Y-79146400D02*
X145211800Y-80543400D01*
D43*
X143256000Y-91440000D02*
X143781000Y-91440000D01*
X143806400Y-91414600D02*
X145211800Y-91414600D01*
X143781000Y-91440000D02*
X143806400Y-91414600D01*
X145211800Y-80543400D02*
X145211800Y-91414600D01*
X145211800Y-91414600D02*
X145211800Y-98602800D01*
X145186400Y-101066600D02*
X145186400Y-104455900D01*
X145186400Y-101066600D02*
X145186400Y-98602800D01*
X145211800Y-98602800D02*
X145186400Y-98602800D01*
X145186400Y-98602800D02*
X145186400Y-98628200D01*
D41*
X92125800Y-98679000D02*
X92125800Y-101752400D01*
D45*
X105435400Y-50774600D02*
X102057200Y-50774600D01*
D39*
X72821800Y-71635400D02*
X72803800Y-71653400D01*
X72821800Y-67081400D02*
X72821800Y-71635400D01*
X71678800Y-81813400D02*
X72821800Y-81813400D01*
X70662800Y-80797400D02*
X71678800Y-81813400D01*
X72803800Y-71653400D02*
X72803800Y-72353400D01*
X70662800Y-74494400D02*
X70662800Y-80797400D01*
X72803800Y-72353400D02*
X70662800Y-74494400D01*
X79900800Y-81813400D02*
X72821800Y-81813400D01*
X78155800Y-72400992D02*
X78155800Y-71653400D01*
X78155800Y-75424324D02*
X78155800Y-72400992D01*
X74306724Y-79273400D02*
X78155800Y-75424324D01*
X75234800Y-64541400D02*
X72821800Y-64541400D01*
X78155800Y-71653400D02*
X78155800Y-67462400D01*
X78155800Y-67462400D02*
X75234800Y-64541400D01*
X75615800Y-80543400D02*
X74345800Y-79273400D01*
X79900800Y-80543400D02*
X75615800Y-80543400D01*
X72821800Y-79273400D02*
X74345800Y-79273400D01*
X74345800Y-79273400D02*
X74306724Y-79273400D01*
D41*
X85300800Y-79273400D02*
X85300800Y-77782400D01*
X85300800Y-77782400D02*
X85267800Y-77749400D01*
X105479800Y-86493400D02*
X105479800Y-84870400D01*
X105206800Y-86766400D02*
X105479800Y-86493400D01*
X85300800Y-83083400D02*
X85300800Y-84320400D01*
X85300800Y-84320400D02*
X85267800Y-84353400D01*
X106279800Y-87471400D02*
X106222800Y-87528400D01*
X106279800Y-84870400D02*
X106279800Y-87471400D01*
X109279800Y-79470400D02*
X112375800Y-79470400D01*
X112375800Y-79470400D02*
X113315600Y-79470400D01*
X113315600Y-79470400D02*
X118948200Y-73837800D01*
X116814600Y-73837800D02*
X118948200Y-73837800D01*
D42*
X144852600Y-61888800D02*
X142479600Y-61888800D01*
X142479600Y-61888800D02*
X141224000Y-63144400D01*
D41*
X129768600Y-73272115D02*
X129768600Y-73837800D01*
X141224000Y-63144400D02*
X140716000Y-63652400D01*
X140716000Y-67259200D02*
X136855200Y-71120000D01*
X136855200Y-71120000D02*
X130556000Y-71120000D01*
X140716000Y-63652400D02*
X140716000Y-67259200D01*
X130556000Y-71120000D02*
X129768600Y-71907400D01*
X129768600Y-71907400D02*
X129768600Y-73272115D01*
X109279800Y-80270400D02*
X112565763Y-80270400D01*
X119837200Y-74206802D02*
X119837200Y-72237600D01*
X112565763Y-80270400D02*
X113773602Y-80270400D01*
X113773602Y-80270400D02*
X119837200Y-74206802D01*
X116814600Y-72237600D02*
X119837200Y-72237600D01*
X141681200Y-64744600D02*
X141681200Y-67716400D01*
X141681200Y-67716400D02*
X137210800Y-72186800D01*
X131858285Y-72186800D02*
X131292600Y-72186800D01*
X142976600Y-63449200D02*
X141681200Y-64744600D01*
X149217201Y-63449200D02*
X142976600Y-63449200D01*
X150752600Y-61913801D02*
X149217201Y-63449200D01*
X137210800Y-72186800D02*
X131858285Y-72186800D01*
X109279800Y-81070400D02*
X112755724Y-81070400D01*
X112755724Y-81070400D02*
X114255600Y-81070400D01*
X114255600Y-81070400D02*
X120700800Y-74625200D01*
X120700800Y-74625200D02*
X120777000Y-74549000D01*
X120777000Y-74549000D02*
X120777000Y-70637400D01*
X116814600Y-70637400D02*
X120777000Y-70637400D01*
D42*
X144852600Y-61238800D02*
X141859600Y-61238800D01*
X141859600Y-61238800D02*
X139954000Y-63144400D01*
D41*
X139725400Y-66404918D02*
X136000918Y-70129400D01*
X139954000Y-63144400D02*
X139725400Y-63373000D01*
X139725400Y-63373000D02*
X139725400Y-66404918D01*
X136000918Y-70129400D02*
X129006600Y-70129400D01*
X106400600Y-90398600D02*
X106375200Y-90398600D01*
X107879800Y-84870400D02*
X107879800Y-88919400D01*
X107879800Y-88919400D02*
X106400600Y-90398600D01*
X107079800Y-84870400D02*
X107079800Y-88144600D01*
X107079800Y-88144600D02*
X106299000Y-88925400D01*
X103879800Y-84870400D02*
X103879800Y-83770400D01*
X103879800Y-83770400D02*
X104312800Y-83337400D01*
X104312800Y-83337400D02*
X104571826Y-83337400D01*
X134818200Y-76606400D02*
X132156200Y-79268400D01*
X132156200Y-79268400D02*
X132156200Y-83337400D01*
X136093200Y-76606400D02*
X134818200Y-76606400D01*
X103079800Y-84870400D02*
X103079800Y-83444396D01*
X104329796Y-82194400D02*
X104387115Y-82194400D01*
X104387115Y-82194400D02*
X104952800Y-82194400D01*
X103079800Y-83444396D02*
X104329796Y-82194400D01*
X141493200Y-81686400D02*
X143459200Y-81686400D01*
X100107800Y-81070400D02*
X100879800Y-81070400D01*
X84124800Y-95072200D02*
X94259400Y-84937600D01*
X94259400Y-82854800D02*
X95097600Y-82016600D01*
X94259400Y-84937600D02*
X94259400Y-82854800D01*
X84124800Y-96629000D02*
X84124800Y-95072200D01*
X95097600Y-82016600D02*
X99161600Y-82016600D01*
X99161600Y-82016600D02*
X100107800Y-81070400D01*
X100879800Y-79470400D02*
X98024800Y-79470400D01*
X98024800Y-79470400D02*
X97967800Y-79527400D01*
X134518400Y-79146400D02*
X134213600Y-79451200D01*
X136093200Y-79146400D02*
X134518400Y-79146400D01*
X92125800Y-88874600D02*
X92354400Y-88646000D01*
X92125800Y-96629000D02*
X92125800Y-88874600D01*
X92354400Y-88646000D02*
X95478600Y-85521800D01*
D39*
X143586200Y-77622400D02*
X143586200Y-77876400D01*
X141493200Y-76606400D02*
X142570200Y-76606400D01*
X142570200Y-76606400D02*
X143586200Y-77622400D01*
D41*
X100879800Y-78670400D02*
X99015800Y-78670400D01*
X99015800Y-78670400D02*
X98729800Y-78384400D01*
X97155000Y-84886800D02*
X95580200Y-83312000D01*
X97155000Y-86461600D02*
X97155000Y-84886800D01*
X99110800Y-88417400D02*
X97155000Y-86461600D01*
X99110800Y-96502000D02*
X99110800Y-88417400D01*
X73566681Y-94183200D02*
X72364600Y-94183200D01*
X81254600Y-94183200D02*
X73566681Y-94183200D01*
X100879800Y-77120400D02*
X100746800Y-76987400D01*
X100879800Y-77870400D02*
X100879800Y-77120400D01*
X94386400Y-76987400D02*
X92063199Y-79310601D01*
X100746800Y-76987400D02*
X94386400Y-76987400D01*
X92063199Y-79310601D02*
X92063199Y-83374601D01*
X92063199Y-83374601D02*
X81254600Y-94183200D01*
X90982800Y-78384400D02*
X90982800Y-82829400D01*
X93522800Y-75844400D02*
X90982800Y-78384400D01*
X102279800Y-76470400D02*
X101653800Y-75844400D01*
X101653800Y-75844400D02*
X93522800Y-75844400D01*
X72364600Y-91643200D02*
X82169000Y-91643200D01*
X82169000Y-91643200D02*
X84836000Y-88976200D01*
X90982800Y-82829400D02*
X84836000Y-88976200D01*
X84836000Y-88976200D02*
X84632800Y-89179400D01*
D39*
X77774800Y-62001400D02*
X72821800Y-62001400D01*
D43*
X135585200Y-113706400D02*
X133553200Y-115738400D01*
X135585200Y-108605000D02*
X135585200Y-113706400D01*
X131013200Y-115738400D02*
X131013200Y-108605000D01*
X124409200Y-113706400D02*
X122377200Y-115738400D01*
X124409200Y-108605000D02*
X124409200Y-113706400D01*
X119837200Y-113988400D02*
X119837200Y-108605000D01*
X119837200Y-115738400D02*
X119837200Y-113988400D01*
X112014000Y-113706400D02*
X112014000Y-108605000D01*
X109982000Y-115738400D02*
X112014000Y-113706400D01*
X107442000Y-108605000D02*
X107442000Y-115738400D01*
D39*
X74853800Y-71653400D02*
X76855800Y-71653400D01*
D40*
X107315000Y-106433400D02*
X107442000Y-106560400D01*
X107315000Y-104292400D02*
X107315000Y-106433400D01*
X119710200Y-104572200D02*
X119710200Y-106611200D01*
X119634000Y-106433400D02*
X119888000Y-106687400D01*
X130759200Y-106433400D02*
X131013200Y-106687400D01*
X130759200Y-104292400D02*
X130759200Y-106433400D01*
D39*
X136982200Y-77876400D02*
X136093200Y-77876400D01*
X137744200Y-78638400D02*
X136982200Y-77876400D01*
X136982200Y-81686400D02*
X137744200Y-80924400D01*
X136093200Y-81686400D02*
X136982200Y-81686400D01*
D41*
X137368200Y-80416400D02*
X137718800Y-80416400D01*
X136093200Y-80416400D02*
X137368200Y-80416400D01*
D39*
X137744200Y-80924400D02*
X137718800Y-80416400D01*
X137718800Y-80416400D02*
X137744200Y-78638400D01*
D41*
X134818200Y-81686400D02*
X133502400Y-83002200D01*
X136093200Y-81686400D02*
X134818200Y-81686400D01*
X133502400Y-83002200D02*
X133502400Y-84988400D01*
X133502400Y-84988400D02*
X133096000Y-85394800D01*
X127076600Y-98272200D02*
X122250200Y-98272200D01*
X134366000Y-90982800D02*
X127076600Y-98272200D01*
X136375200Y-88973600D02*
X134366000Y-90982800D01*
X136375200Y-87884000D02*
X136375200Y-88973600D01*
D39*
X141526200Y-82989400D02*
X141493200Y-82956400D01*
X141526200Y-84607400D02*
X141526200Y-82989400D01*
X141493200Y-79146400D02*
X141493200Y-77876400D01*
X140665200Y-82956400D02*
X141493200Y-82956400D01*
X140030200Y-82321400D02*
X140665200Y-82956400D01*
X140030200Y-79781400D02*
X140030200Y-82321400D01*
X141493200Y-79146400D02*
X140665200Y-79146400D01*
X140665200Y-79146400D02*
X140030200Y-79781400D01*
D43*
X141526200Y-84607400D02*
X141526200Y-87988200D01*
X133299200Y-96215200D02*
X133299200Y-98246400D01*
X141526200Y-87988200D02*
X133299200Y-96215200D01*
D41*
X114334600Y-88209200D02*
X115488800Y-88209200D01*
X116532600Y-89253000D02*
X116532600Y-89865200D01*
X115488800Y-88209200D02*
X116532600Y-89253000D01*
D40*
X119634000Y-98806000D02*
X119634000Y-98246400D01*
X121132600Y-100304600D02*
X119634000Y-98806000D01*
X130810000Y-98094400D02*
X130810000Y-98856800D01*
X129362200Y-100304600D02*
X121132600Y-100304600D01*
X130810000Y-98856800D02*
X129362200Y-100304600D01*
X110109000Y-98246400D02*
X109855000Y-97992400D01*
D43*
X117057600Y-89865200D02*
X117881400Y-90689000D01*
X116532600Y-89865200D02*
X117057600Y-89865200D01*
X117881400Y-90689000D02*
X117881400Y-91262200D01*
X117881400Y-98323400D02*
X117805200Y-98247200D01*
X117881400Y-99618800D02*
X117881400Y-98323400D01*
D40*
X119634000Y-98246400D02*
X117805200Y-98247200D01*
X117805200Y-98247200D02*
X110109000Y-98246400D01*
X130759200Y-98043600D02*
X130810000Y-98094400D01*
X130759200Y-97992400D02*
X130759200Y-98043600D01*
D39*
X136093200Y-74066400D02*
X136093200Y-75336400D01*
X150617200Y-76606400D02*
X144729200Y-76606400D01*
X143078200Y-80416400D02*
X141493200Y-80416400D01*
X150617200Y-77876400D02*
X145618200Y-77876400D01*
X145618200Y-77876400D02*
X143078200Y-80416400D01*
D40*
X144852600Y-57338800D02*
X145277000Y-57338800D01*
X145277000Y-57338800D02*
X150545800Y-52070000D01*
X150545800Y-52070000D02*
X150545800Y-50723800D01*
X150545800Y-50723800D02*
X151409400Y-49860200D01*
X151409400Y-49860200D02*
X159283400Y-49860200D01*
D45*
X87570200Y-52587000D02*
X88188800Y-51968400D01*
X86461600Y-53695600D02*
X88188800Y-51968400D01*
X86461600Y-55473600D02*
X86461600Y-53695600D01*
D41*
X115044602Y-87259200D02*
X114334600Y-87259200D01*
X115334601Y-86969201D02*
X115044602Y-87259200D01*
X115334601Y-85649199D02*
X115334601Y-86969201D01*
X112355802Y-82670400D02*
X115334601Y-85649199D01*
X109279800Y-82670400D02*
X112355802Y-82670400D01*
D40*
X157226000Y-53441600D02*
X156718000Y-52933600D01*
X159865000Y-53441600D02*
X157226000Y-53441600D01*
X167157400Y-51545800D02*
X172431400Y-51545800D01*
X165261600Y-53441600D02*
X167157400Y-51545800D01*
X164465000Y-53441600D02*
X165261600Y-53441600D01*
D43*
X154580800Y-52120800D02*
X154718000Y-51983600D01*
X152628600Y-52120800D02*
X154580800Y-52120800D01*
D40*
X112014000Y-106560400D02*
X113632200Y-106560400D01*
X135534400Y-106553000D02*
X135509000Y-106578400D01*
X137058400Y-106553000D02*
X135534400Y-106553000D01*
X124594400Y-106553000D02*
X124460000Y-106687400D01*
X126187200Y-106553000D02*
X124594400Y-106553000D01*
X123417800Y-64301400D02*
X123417800Y-66928200D01*
X120802400Y-86664800D02*
X120827800Y-86690200D01*
X120802400Y-82296000D02*
X120802400Y-86664800D01*
X126009400Y-77089000D02*
X120802400Y-82296000D01*
X126009400Y-69519800D02*
X126009400Y-77089000D01*
X123417800Y-66928200D02*
X126009400Y-69519800D01*
X123152400Y-64566800D02*
X123417800Y-64301400D01*
X121361200Y-64566800D02*
X123152400Y-64566800D01*
D44*
X159280200Y-79146400D02*
X159461200Y-79327400D01*
X156367200Y-80688400D02*
X156258200Y-80797400D01*
D42*
X152120600Y-59670800D02*
X152120600Y-58724800D01*
X150752600Y-59938800D02*
X151852600Y-59938800D01*
X151852600Y-59938800D02*
X152120600Y-59670800D01*
D40*
X102167600Y-59701400D02*
X101955600Y-59489400D01*
X104037600Y-59701400D02*
X102167600Y-59701400D01*
X105435400Y-53749600D02*
X105435400Y-57114000D01*
X123417800Y-57951400D02*
X123417800Y-59701400D01*
X122692600Y-57226200D02*
X123417800Y-57951400D01*
X104013000Y-57926800D02*
X104013000Y-57226200D01*
X104037600Y-59701400D02*
X104037600Y-57951400D01*
X98080600Y-57226200D02*
X104013000Y-57226200D01*
X104037600Y-57951400D02*
X104013000Y-57926800D01*
X104013000Y-57226200D02*
X122692600Y-57226200D01*
D45*
X98018600Y-55000000D02*
X97697400Y-55321200D01*
X98018600Y-53383400D02*
X98018600Y-55000000D01*
D40*
X97697400Y-56021200D02*
X97697400Y-55321200D01*
X96340000Y-57378600D02*
X97697400Y-56021200D01*
X85255600Y-57378600D02*
X96340000Y-57378600D01*
X84682800Y-57951400D02*
X85255600Y-57378600D01*
X84682800Y-59701400D02*
X84682800Y-57951400D01*
X97697400Y-56843000D02*
X98080600Y-57226200D01*
X97697400Y-55321200D02*
X97697400Y-56843000D01*
X123152400Y-59436000D02*
X123417800Y-59701400D01*
X121361200Y-59436000D02*
X123152400Y-59436000D01*
X84420000Y-59438600D02*
X84682800Y-59701400D01*
X82626200Y-59438600D02*
X84420000Y-59438600D01*
X162509200Y-57048400D02*
X161391600Y-57048400D01*
X161391600Y-57048400D02*
X160223200Y-58216800D01*
X159196000Y-59486800D02*
X158496000Y-59486800D01*
X160223200Y-58459600D02*
X159196000Y-59486800D01*
X160223200Y-58216800D02*
X160223200Y-58459600D01*
D43*
X151183399Y-53870800D02*
X151180799Y-53873400D01*
X152628600Y-53870800D02*
X151183399Y-53870800D01*
X111734600Y-86309200D02*
X110236000Y-86309200D01*
D41*
X140944600Y-53873400D02*
X142722600Y-53873400D01*
X138785600Y-56032400D02*
X140944600Y-53873400D01*
X138785600Y-65811400D02*
X138785600Y-56032400D01*
X134620000Y-69088000D02*
X135509000Y-69088000D01*
X135509000Y-69088000D02*
X138785600Y-65811400D01*
X133070601Y-73456800D02*
X122809000Y-83718401D01*
X122809000Y-83718401D02*
X122809000Y-84886800D01*
D40*
X158496000Y-57436800D02*
X158496000Y-55829200D01*
D48*
G36*
X156311448Y-79011400D02*
G01*
X156494200Y-79011400D01*
X156494200Y-79023400D01*
X157657700Y-79023400D01*
X157669700Y-79011400D01*
X157881905Y-79011400D01*
X157882200Y-79136900D01*
X157945700Y-79200400D01*
X159334200Y-79200400D01*
X159334200Y-79180400D01*
X159588200Y-79180400D01*
X159588200Y-79200400D01*
X160976700Y-79200400D01*
X161040200Y-79136900D01*
X161040495Y-79011400D01*
X161131833Y-79011400D01*
X163363875Y-84297816D01*
X163398200Y-84467358D01*
X163398200Y-96545072D01*
X163384431Y-96649657D01*
X163347277Y-96739355D01*
X163288176Y-96816376D01*
X163211155Y-96875477D01*
X163121457Y-96912631D01*
X163016872Y-96926400D01*
X158317495Y-96926400D01*
X158213050Y-96912668D01*
X158123449Y-96875607D01*
X158046475Y-96816646D01*
X157987357Y-96739792D01*
X157950113Y-96650262D01*
X157936169Y-96545850D01*
X157936128Y-96525400D01*
X158182971Y-96525400D01*
X158187875Y-96575193D01*
X158202399Y-96623072D01*
X158225985Y-96667198D01*
X158257726Y-96705874D01*
X158296402Y-96737615D01*
X158340528Y-96761201D01*
X158388407Y-96775725D01*
X158438200Y-96780629D01*
X160447700Y-96779400D01*
X160511200Y-96715900D01*
X160511200Y-95402400D01*
X160765200Y-95402400D01*
X160765200Y-96715900D01*
X160828700Y-96779400D01*
X162838200Y-96780629D01*
X162887993Y-96775725D01*
X162935872Y-96761201D01*
X162979998Y-96737615D01*
X163018674Y-96705874D01*
X163050415Y-96667198D01*
X163074001Y-96623072D01*
X163088525Y-96575193D01*
X163093429Y-96525400D01*
X163092200Y-95465900D01*
X163028700Y-95402400D01*
X160765200Y-95402400D01*
X160511200Y-95402400D01*
X158247700Y-95402400D01*
X158184200Y-95465900D01*
X158182971Y-96525400D01*
X157936128Y-96525400D01*
X157931047Y-94025400D01*
X158182971Y-94025400D01*
X158184200Y-95084900D01*
X158247700Y-95148400D01*
X160511200Y-95148400D01*
X160511200Y-93834900D01*
X160765200Y-93834900D01*
X160765200Y-95148400D01*
X163028700Y-95148400D01*
X163092200Y-95084900D01*
X163093429Y-94025400D01*
X163088525Y-93975607D01*
X163074001Y-93927728D01*
X163050415Y-93883602D01*
X163018674Y-93844926D01*
X162979998Y-93813185D01*
X162935872Y-93789599D01*
X162887993Y-93775075D01*
X162838200Y-93770171D01*
X160828700Y-93771400D01*
X160765200Y-93834900D01*
X160511200Y-93834900D01*
X160447700Y-93771400D01*
X158438200Y-93770171D01*
X158388407Y-93775075D01*
X158340528Y-93789599D01*
X158296402Y-93813185D01*
X158257726Y-93844926D01*
X158225985Y-93883602D01*
X158202399Y-93927728D01*
X158187875Y-93975607D01*
X158182971Y-94025400D01*
X157931047Y-94025400D01*
X157917543Y-87381400D01*
X158182971Y-87381400D01*
X158187875Y-87431193D01*
X158202399Y-87479072D01*
X158225985Y-87523198D01*
X158257726Y-87561874D01*
X158296402Y-87593615D01*
X158340528Y-87617201D01*
X158388407Y-87631725D01*
X158438200Y-87636629D01*
X160447700Y-87635400D01*
X160511200Y-87571900D01*
X160511200Y-86258400D01*
X160765200Y-86258400D01*
X160765200Y-87571900D01*
X160828700Y-87635400D01*
X162838200Y-87636629D01*
X162887993Y-87631725D01*
X162935872Y-87617201D01*
X162979998Y-87593615D01*
X163018674Y-87561874D01*
X163050415Y-87523198D01*
X163074001Y-87479072D01*
X163088525Y-87431193D01*
X163093429Y-87381400D01*
X163092200Y-86321900D01*
X163028700Y-86258400D01*
X160765200Y-86258400D01*
X160511200Y-86258400D01*
X158247700Y-86258400D01*
X158184200Y-86321900D01*
X158182971Y-87381400D01*
X157917543Y-87381400D01*
X157912461Y-84881400D01*
X158182971Y-84881400D01*
X158184200Y-85940900D01*
X158247700Y-86004400D01*
X160511200Y-86004400D01*
X160511200Y-84690900D01*
X160765200Y-84690900D01*
X160765200Y-86004400D01*
X163028700Y-86004400D01*
X163092200Y-85940900D01*
X163093429Y-84881400D01*
X163088525Y-84831607D01*
X163074001Y-84783728D01*
X163050415Y-84739602D01*
X163018674Y-84700926D01*
X162979998Y-84669185D01*
X162935872Y-84645599D01*
X162887993Y-84631075D01*
X162838200Y-84626171D01*
X160828700Y-84627400D01*
X160765200Y-84690900D01*
X160511200Y-84690900D01*
X160447700Y-84627400D01*
X158438200Y-84626171D01*
X158388407Y-84631075D01*
X158340528Y-84645599D01*
X158296402Y-84669185D01*
X158257726Y-84700926D01*
X158225985Y-84739602D01*
X158202399Y-84783728D01*
X158187875Y-84831607D01*
X158182971Y-84881400D01*
X157912461Y-84881400D01*
X157912097Y-84702529D01*
X157910778Y-84684530D01*
X157890401Y-84544258D01*
X157880227Y-84509722D01*
X157821305Y-84380805D01*
X157812656Y-84364966D01*
X155989697Y-81526687D01*
X156067700Y-81526400D01*
X156131200Y-81462900D01*
X156131200Y-80924400D01*
X156385200Y-80924400D01*
X156385200Y-81462900D01*
X156448700Y-81526400D01*
X156783200Y-81527629D01*
X156832993Y-81522725D01*
X156880872Y-81508201D01*
X156924998Y-81484615D01*
X156963674Y-81452874D01*
X156995415Y-81414198D01*
X157019001Y-81370072D01*
X157033525Y-81322193D01*
X157038429Y-81272400D01*
X157037200Y-80987900D01*
X156973700Y-80924400D01*
X156385200Y-80924400D01*
X156131200Y-80924400D01*
X156111200Y-80924400D01*
X156111200Y-80670400D01*
X156131200Y-80670400D01*
X156131200Y-80131900D01*
X156385200Y-80131900D01*
X156385200Y-80670400D01*
X156973700Y-80670400D01*
X157037200Y-80606900D01*
X157038429Y-80322400D01*
X157033525Y-80272607D01*
X157019001Y-80224728D01*
X156995415Y-80180602D01*
X156963674Y-80141926D01*
X156924998Y-80110185D01*
X156880872Y-80086599D01*
X156832993Y-80072075D01*
X156783200Y-80067171D01*
X156448700Y-80068400D01*
X156385200Y-80131900D01*
X156131200Y-80131900D01*
X156067700Y-80068400D01*
X155908931Y-80067817D01*
X155910004Y-80039900D01*
X157880971Y-80039900D01*
X157885875Y-80089693D01*
X157900399Y-80137572D01*
X157923985Y-80181698D01*
X157955726Y-80220374D01*
X157994402Y-80252115D01*
X158038528Y-80275701D01*
X158086407Y-80290225D01*
X158136200Y-80295129D01*
X159270700Y-80293900D01*
X159334200Y-80230400D01*
X159334200Y-79454400D01*
X159588200Y-79454400D01*
X159588200Y-80230400D01*
X159651700Y-80293900D01*
X160786200Y-80295129D01*
X160835993Y-80290225D01*
X160883872Y-80275701D01*
X160927998Y-80252115D01*
X160966674Y-80220374D01*
X160998415Y-80181698D01*
X161022001Y-80137572D01*
X161036525Y-80089693D01*
X161041429Y-80039900D01*
X161040200Y-79517900D01*
X160976700Y-79454400D01*
X159588200Y-79454400D01*
X159334200Y-79454400D01*
X157945700Y-79454400D01*
X157882200Y-79517900D01*
X157880971Y-80039900D01*
X155910004Y-80039900D01*
X155924973Y-79650740D01*
X156176700Y-79650400D01*
X156240200Y-79586900D01*
X156240200Y-79269400D01*
X156494200Y-79269400D01*
X156494200Y-79586900D01*
X156557700Y-79650400D01*
X157467200Y-79651629D01*
X157516993Y-79646725D01*
X157564872Y-79632201D01*
X157608998Y-79608615D01*
X157647674Y-79576874D01*
X157679415Y-79538198D01*
X157703001Y-79494072D01*
X157717525Y-79446193D01*
X157722429Y-79396400D01*
X157721200Y-79332900D01*
X157657700Y-79269400D01*
X156494200Y-79269400D01*
X156240200Y-79269400D01*
X156220200Y-79269400D01*
X156220200Y-79023400D01*
X156240200Y-79023400D01*
X156240200Y-79004383D01*
X156311448Y-79011400D01*
G37*
X156311448Y-79011400D02*
X156494200Y-79011400D01*
X156494200Y-79023400D01*
X157657700Y-79023400D01*
X157669700Y-79011400D01*
X157881905Y-79011400D01*
X157882200Y-79136900D01*
X157945700Y-79200400D01*
X159334200Y-79200400D01*
X159334200Y-79180400D01*
X159588200Y-79180400D01*
X159588200Y-79200400D01*
X160976700Y-79200400D01*
X161040200Y-79136900D01*
X161040495Y-79011400D01*
X161131833Y-79011400D01*
X163363875Y-84297816D01*
X163398200Y-84467358D01*
X163398200Y-96545072D01*
X163384431Y-96649657D01*
X163347277Y-96739355D01*
X163288176Y-96816376D01*
X163211155Y-96875477D01*
X163121457Y-96912631D01*
X163016872Y-96926400D01*
X158317495Y-96926400D01*
X158213050Y-96912668D01*
X158123449Y-96875607D01*
X158046475Y-96816646D01*
X157987357Y-96739792D01*
X157950113Y-96650262D01*
X157936169Y-96545850D01*
X157936128Y-96525400D01*
X158182971Y-96525400D01*
X158187875Y-96575193D01*
X158202399Y-96623072D01*
X158225985Y-96667198D01*
X158257726Y-96705874D01*
X158296402Y-96737615D01*
X158340528Y-96761201D01*
X158388407Y-96775725D01*
X158438200Y-96780629D01*
X160447700Y-96779400D01*
X160511200Y-96715900D01*
X160511200Y-95402400D01*
X160765200Y-95402400D01*
X160765200Y-96715900D01*
X160828700Y-96779400D01*
X162838200Y-96780629D01*
X162887993Y-96775725D01*
X162935872Y-96761201D01*
X162979998Y-96737615D01*
X163018674Y-96705874D01*
X163050415Y-96667198D01*
X163074001Y-96623072D01*
X163088525Y-96575193D01*
X163093429Y-96525400D01*
X163092200Y-95465900D01*
X163028700Y-95402400D01*
X160765200Y-95402400D01*
X160511200Y-95402400D01*
X158247700Y-95402400D01*
X158184200Y-95465900D01*
X158182971Y-96525400D01*
X157936128Y-96525400D01*
X157931047Y-94025400D01*
X158182971Y-94025400D01*
X158184200Y-95084900D01*
X158247700Y-95148400D01*
X160511200Y-95148400D01*
X160511200Y-93834900D01*
X160765200Y-93834900D01*
X160765200Y-95148400D01*
X163028700Y-95148400D01*
X163092200Y-95084900D01*
X163093429Y-94025400D01*
X163088525Y-93975607D01*
X163074001Y-93927728D01*
X163050415Y-93883602D01*
X163018674Y-93844926D01*
X162979998Y-93813185D01*
X162935872Y-93789599D01*
X162887993Y-93775075D01*
X162838200Y-93770171D01*
X160828700Y-93771400D01*
X160765200Y-93834900D01*
X160511200Y-93834900D01*
X160447700Y-93771400D01*
X158438200Y-93770171D01*
X158388407Y-93775075D01*
X158340528Y-93789599D01*
X158296402Y-93813185D01*
X158257726Y-93844926D01*
X158225985Y-93883602D01*
X158202399Y-93927728D01*
X158187875Y-93975607D01*
X158182971Y-94025400D01*
X157931047Y-94025400D01*
X157917543Y-87381400D01*
X158182971Y-87381400D01*
X158187875Y-87431193D01*
X158202399Y-87479072D01*
X158225985Y-87523198D01*
X158257726Y-87561874D01*
X158296402Y-87593615D01*
X158340528Y-87617201D01*
X158388407Y-87631725D01*
X158438200Y-87636629D01*
X160447700Y-87635400D01*
X160511200Y-87571900D01*
X160511200Y-86258400D01*
X160765200Y-86258400D01*
X160765200Y-87571900D01*
X160828700Y-87635400D01*
X162838200Y-87636629D01*
X162887993Y-87631725D01*
X162935872Y-87617201D01*
X162979998Y-87593615D01*
X163018674Y-87561874D01*
X163050415Y-87523198D01*
X163074001Y-87479072D01*
X163088525Y-87431193D01*
X163093429Y-87381400D01*
X163092200Y-86321900D01*
X163028700Y-86258400D01*
X160765200Y-86258400D01*
X160511200Y-86258400D01*
X158247700Y-86258400D01*
X158184200Y-86321900D01*
X158182971Y-87381400D01*
X157917543Y-87381400D01*
X157912461Y-84881400D01*
X158182971Y-84881400D01*
X158184200Y-85940900D01*
X158247700Y-86004400D01*
X160511200Y-86004400D01*
X160511200Y-84690900D01*
X160765200Y-84690900D01*
X160765200Y-86004400D01*
X163028700Y-86004400D01*
X163092200Y-85940900D01*
X163093429Y-84881400D01*
X163088525Y-84831607D01*
X163074001Y-84783728D01*
X163050415Y-84739602D01*
X163018674Y-84700926D01*
X162979998Y-84669185D01*
X162935872Y-84645599D01*
X162887993Y-84631075D01*
X162838200Y-84626171D01*
X160828700Y-84627400D01*
X160765200Y-84690900D01*
X160511200Y-84690900D01*
X160447700Y-84627400D01*
X158438200Y-84626171D01*
X158388407Y-84631075D01*
X158340528Y-84645599D01*
X158296402Y-84669185D01*
X158257726Y-84700926D01*
X158225985Y-84739602D01*
X158202399Y-84783728D01*
X158187875Y-84831607D01*
X158182971Y-84881400D01*
X157912461Y-84881400D01*
X157912097Y-84702529D01*
X157910778Y-84684530D01*
X157890401Y-84544258D01*
X157880227Y-84509722D01*
X157821305Y-84380805D01*
X157812656Y-84364966D01*
X155989697Y-81526687D01*
X156067700Y-81526400D01*
X156131200Y-81462900D01*
X156131200Y-80924400D01*
X156385200Y-80924400D01*
X156385200Y-81462900D01*
X156448700Y-81526400D01*
X156783200Y-81527629D01*
X156832993Y-81522725D01*
X156880872Y-81508201D01*
X156924998Y-81484615D01*
X156963674Y-81452874D01*
X156995415Y-81414198D01*
X157019001Y-81370072D01*
X157033525Y-81322193D01*
X157038429Y-81272400D01*
X157037200Y-80987900D01*
X156973700Y-80924400D01*
X156385200Y-80924400D01*
X156131200Y-80924400D01*
X156111200Y-80924400D01*
X156111200Y-80670400D01*
X156131200Y-80670400D01*
X156131200Y-80131900D01*
X156385200Y-80131900D01*
X156385200Y-80670400D01*
X156973700Y-80670400D01*
X157037200Y-80606900D01*
X157038429Y-80322400D01*
X157033525Y-80272607D01*
X157019001Y-80224728D01*
X156995415Y-80180602D01*
X156963674Y-80141926D01*
X156924998Y-80110185D01*
X156880872Y-80086599D01*
X156832993Y-80072075D01*
X156783200Y-80067171D01*
X156448700Y-80068400D01*
X156385200Y-80131900D01*
X156131200Y-80131900D01*
X156067700Y-80068400D01*
X155908931Y-80067817D01*
X155910004Y-80039900D01*
X157880971Y-80039900D01*
X157885875Y-80089693D01*
X157900399Y-80137572D01*
X157923985Y-80181698D01*
X157955726Y-80220374D01*
X157994402Y-80252115D01*
X158038528Y-80275701D01*
X158086407Y-80290225D01*
X158136200Y-80295129D01*
X159270700Y-80293900D01*
X159334200Y-80230400D01*
X159334200Y-79454400D01*
X159588200Y-79454400D01*
X159588200Y-80230400D01*
X159651700Y-80293900D01*
X160786200Y-80295129D01*
X160835993Y-80290225D01*
X160883872Y-80275701D01*
X160927998Y-80252115D01*
X160966674Y-80220374D01*
X160998415Y-80181698D01*
X161022001Y-80137572D01*
X161036525Y-80089693D01*
X161041429Y-80039900D01*
X161040200Y-79517900D01*
X160976700Y-79454400D01*
X159588200Y-79454400D01*
X159334200Y-79454400D01*
X157945700Y-79454400D01*
X157882200Y-79517900D01*
X157880971Y-80039900D01*
X155910004Y-80039900D01*
X155924973Y-79650740D01*
X156176700Y-79650400D01*
X156240200Y-79586900D01*
X156240200Y-79269400D01*
X156494200Y-79269400D01*
X156494200Y-79586900D01*
X156557700Y-79650400D01*
X157467200Y-79651629D01*
X157516993Y-79646725D01*
X157564872Y-79632201D01*
X157608998Y-79608615D01*
X157647674Y-79576874D01*
X157679415Y-79538198D01*
X157703001Y-79494072D01*
X157717525Y-79446193D01*
X157722429Y-79396400D01*
X157721200Y-79332900D01*
X157657700Y-79269400D01*
X156494200Y-79269400D01*
X156240200Y-79269400D01*
X156220200Y-79269400D01*
X156220200Y-79023400D01*
X156240200Y-79023400D01*
X156240200Y-79004383D01*
X156311448Y-79011400D01*
G36*
X153619200Y-78315469D02*
G01*
X153616549Y-78316473D01*
X153582768Y-78423344D01*
X153570486Y-78534752D01*
X153580175Y-78646416D01*
X153611462Y-78754043D01*
X153616549Y-78766327D01*
X153619200Y-78767331D01*
X153619200Y-79881900D01*
X153682700Y-79945400D01*
X154817263Y-79946485D01*
X154820432Y-80067953D01*
X154698700Y-80068400D01*
X154635200Y-80131900D01*
X154635200Y-80670400D01*
X154655200Y-80670400D01*
X154655200Y-80924400D01*
X154635200Y-80924400D01*
X154635200Y-81462900D01*
X154698700Y-81526400D01*
X154858494Y-81526987D01*
X154885375Y-82557438D01*
X154887169Y-82575646D01*
X154911517Y-82717259D01*
X154922805Y-82751967D01*
X154986422Y-82880807D01*
X154995683Y-82896586D01*
X156164883Y-84595234D01*
X156217617Y-84703534D01*
X156236066Y-84822573D01*
X156284099Y-96662797D01*
X156270424Y-96768676D01*
X156232754Y-96859430D01*
X156172631Y-96937146D01*
X156094248Y-96996406D01*
X156003089Y-97033066D01*
X155897054Y-97045566D01*
X147559388Y-96919242D01*
X147455672Y-96904074D01*
X147367014Y-96866029D01*
X147291122Y-96806458D01*
X147233107Y-96729372D01*
X147196873Y-96639959D01*
X147183816Y-96535954D01*
X147183870Y-96525400D01*
X150782971Y-96525400D01*
X150787875Y-96575193D01*
X150802399Y-96623072D01*
X150825985Y-96667198D01*
X150857726Y-96705874D01*
X150896402Y-96737615D01*
X150940528Y-96761201D01*
X150988407Y-96775725D01*
X151038200Y-96780629D01*
X153047700Y-96779400D01*
X153111200Y-96715900D01*
X153111200Y-95402400D01*
X153365200Y-95402400D01*
X153365200Y-96715900D01*
X153428700Y-96779400D01*
X155438200Y-96780629D01*
X155487993Y-96775725D01*
X155535872Y-96761201D01*
X155579998Y-96737615D01*
X155618674Y-96705874D01*
X155650415Y-96667198D01*
X155674001Y-96623072D01*
X155688525Y-96575193D01*
X155693429Y-96525400D01*
X155692200Y-95465900D01*
X155628700Y-95402400D01*
X153365200Y-95402400D01*
X153111200Y-95402400D01*
X150847700Y-95402400D01*
X150784200Y-95465900D01*
X150782971Y-96525400D01*
X147183870Y-96525400D01*
X147196826Y-94025400D01*
X150782971Y-94025400D01*
X150784200Y-95084900D01*
X150847700Y-95148400D01*
X153111200Y-95148400D01*
X153111200Y-93834900D01*
X153365200Y-93834900D01*
X153365200Y-95148400D01*
X155628700Y-95148400D01*
X155692200Y-95084900D01*
X155693429Y-94025400D01*
X155688525Y-93975607D01*
X155674001Y-93927728D01*
X155650415Y-93883602D01*
X155618674Y-93844926D01*
X155579998Y-93813185D01*
X155535872Y-93789599D01*
X155487993Y-93775075D01*
X155438200Y-93770171D01*
X153428700Y-93771400D01*
X153365200Y-93834900D01*
X153111200Y-93834900D01*
X153047700Y-93771400D01*
X151038200Y-93770171D01*
X150988407Y-93775075D01*
X150940528Y-93789599D01*
X150896402Y-93813185D01*
X150857726Y-93844926D01*
X150825985Y-93883602D01*
X150802399Y-93927728D01*
X150787875Y-93975607D01*
X150782971Y-94025400D01*
X147196826Y-94025400D01*
X147231260Y-87381400D01*
X150782971Y-87381400D01*
X150787875Y-87431193D01*
X150802399Y-87479072D01*
X150825985Y-87523198D01*
X150857726Y-87561874D01*
X150896402Y-87593615D01*
X150940528Y-87617201D01*
X150988407Y-87631725D01*
X151038200Y-87636629D01*
X153047700Y-87635400D01*
X153111200Y-87571900D01*
X153111200Y-86258400D01*
X153365200Y-86258400D01*
X153365200Y-87571900D01*
X153428700Y-87635400D01*
X155438200Y-87636629D01*
X155487993Y-87631725D01*
X155535872Y-87617201D01*
X155579998Y-87593615D01*
X155618674Y-87561874D01*
X155650415Y-87523198D01*
X155674001Y-87479072D01*
X155688525Y-87431193D01*
X155693429Y-87381400D01*
X155692200Y-86321900D01*
X155628700Y-86258400D01*
X153365200Y-86258400D01*
X153111200Y-86258400D01*
X150847700Y-86258400D01*
X150784200Y-86321900D01*
X150782971Y-87381400D01*
X147231260Y-87381400D01*
X147244217Y-84881400D01*
X150782971Y-84881400D01*
X150784200Y-85940900D01*
X150847700Y-86004400D01*
X153111200Y-86004400D01*
X153111200Y-84690900D01*
X153365200Y-84690900D01*
X153365200Y-86004400D01*
X155628700Y-86004400D01*
X155692200Y-85940900D01*
X155693429Y-84881400D01*
X155688525Y-84831607D01*
X155674001Y-84783728D01*
X155650415Y-84739602D01*
X155618674Y-84700926D01*
X155579998Y-84669185D01*
X155535872Y-84645599D01*
X155487993Y-84631075D01*
X155438200Y-84626171D01*
X153428700Y-84627400D01*
X153365200Y-84690900D01*
X153111200Y-84690900D01*
X153047700Y-84627400D01*
X151038200Y-84626171D01*
X150988407Y-84631075D01*
X150940528Y-84645599D01*
X150896402Y-84669185D01*
X150857726Y-84700926D01*
X150825985Y-84739602D01*
X150802399Y-84783728D01*
X150787875Y-84831607D01*
X150782971Y-84881400D01*
X147244217Y-84881400D01*
X147262921Y-81272400D01*
X153727971Y-81272400D01*
X153732875Y-81322193D01*
X153747399Y-81370072D01*
X153770985Y-81414198D01*
X153802726Y-81452874D01*
X153841402Y-81484615D01*
X153885528Y-81508201D01*
X153933407Y-81522725D01*
X153983200Y-81527629D01*
X154317700Y-81526400D01*
X154381200Y-81462900D01*
X154381200Y-80924400D01*
X153792700Y-80924400D01*
X153729200Y-80987900D01*
X153727971Y-81272400D01*
X147262921Y-81272400D01*
X147266577Y-80567164D01*
X147280795Y-80462992D01*
X147318174Y-80373733D01*
X147357810Y-80322400D01*
X153727971Y-80322400D01*
X153729200Y-80606900D01*
X153792700Y-80670400D01*
X154381200Y-80670400D01*
X154381200Y-80131900D01*
X154317700Y-80068400D01*
X153983200Y-80067171D01*
X153933407Y-80072075D01*
X153885528Y-80086599D01*
X153841402Y-80110185D01*
X153802726Y-80141926D01*
X153770985Y-80180602D01*
X153747399Y-80224728D01*
X153732875Y-80272607D01*
X153727971Y-80322400D01*
X147357810Y-80322400D01*
X147377316Y-80297139D01*
X147454219Y-80238393D01*
X147543665Y-80201478D01*
X147647914Y-80187800D01*
X151475532Y-80187800D01*
X151490711Y-80186890D01*
X151609373Y-80172605D01*
X151638863Y-80165400D01*
X151750745Y-80123362D01*
X151777683Y-80109365D01*
X151876392Y-80041976D01*
X151888415Y-80032665D01*
X151931499Y-79994966D01*
X151961380Y-79985902D01*
X152034885Y-79946612D01*
X153301700Y-79945400D01*
X153365200Y-79881900D01*
X153365200Y-78767331D01*
X153367851Y-78766327D01*
X153401632Y-78659456D01*
X153413914Y-78548048D01*
X153404225Y-78436384D01*
X153372938Y-78328757D01*
X153367851Y-78316473D01*
X153365200Y-78315469D01*
X153365200Y-77978000D01*
X153619200Y-77978000D01*
X153619200Y-78315469D01*
G37*
X153619200Y-78315469D02*
X153616549Y-78316473D01*
X153582768Y-78423344D01*
X153570486Y-78534752D01*
X153580175Y-78646416D01*
X153611462Y-78754043D01*
X153616549Y-78766327D01*
X153619200Y-78767331D01*
X153619200Y-79881900D01*
X153682700Y-79945400D01*
X154817263Y-79946485D01*
X154820432Y-80067953D01*
X154698700Y-80068400D01*
X154635200Y-80131900D01*
X154635200Y-80670400D01*
X154655200Y-80670400D01*
X154655200Y-80924400D01*
X154635200Y-80924400D01*
X154635200Y-81462900D01*
X154698700Y-81526400D01*
X154858494Y-81526987D01*
X154885375Y-82557438D01*
X154887169Y-82575646D01*
X154911517Y-82717259D01*
X154922805Y-82751967D01*
X154986422Y-82880807D01*
X154995683Y-82896586D01*
X156164883Y-84595234D01*
X156217617Y-84703534D01*
X156236066Y-84822573D01*
X156284099Y-96662797D01*
X156270424Y-96768676D01*
X156232754Y-96859430D01*
X156172631Y-96937146D01*
X156094248Y-96996406D01*
X156003089Y-97033066D01*
X155897054Y-97045566D01*
X147559388Y-96919242D01*
X147455672Y-96904074D01*
X147367014Y-96866029D01*
X147291122Y-96806458D01*
X147233107Y-96729372D01*
X147196873Y-96639959D01*
X147183816Y-96535954D01*
X147183870Y-96525400D01*
X150782971Y-96525400D01*
X150787875Y-96575193D01*
X150802399Y-96623072D01*
X150825985Y-96667198D01*
X150857726Y-96705874D01*
X150896402Y-96737615D01*
X150940528Y-96761201D01*
X150988407Y-96775725D01*
X151038200Y-96780629D01*
X153047700Y-96779400D01*
X153111200Y-96715900D01*
X153111200Y-95402400D01*
X153365200Y-95402400D01*
X153365200Y-96715900D01*
X153428700Y-96779400D01*
X155438200Y-96780629D01*
X155487993Y-96775725D01*
X155535872Y-96761201D01*
X155579998Y-96737615D01*
X155618674Y-96705874D01*
X155650415Y-96667198D01*
X155674001Y-96623072D01*
X155688525Y-96575193D01*
X155693429Y-96525400D01*
X155692200Y-95465900D01*
X155628700Y-95402400D01*
X153365200Y-95402400D01*
X153111200Y-95402400D01*
X150847700Y-95402400D01*
X150784200Y-95465900D01*
X150782971Y-96525400D01*
X147183870Y-96525400D01*
X147196826Y-94025400D01*
X150782971Y-94025400D01*
X150784200Y-95084900D01*
X150847700Y-95148400D01*
X153111200Y-95148400D01*
X153111200Y-93834900D01*
X153365200Y-93834900D01*
X153365200Y-95148400D01*
X155628700Y-95148400D01*
X155692200Y-95084900D01*
X155693429Y-94025400D01*
X155688525Y-93975607D01*
X155674001Y-93927728D01*
X155650415Y-93883602D01*
X155618674Y-93844926D01*
X155579998Y-93813185D01*
X155535872Y-93789599D01*
X155487993Y-93775075D01*
X155438200Y-93770171D01*
X153428700Y-93771400D01*
X153365200Y-93834900D01*
X153111200Y-93834900D01*
X153047700Y-93771400D01*
X151038200Y-93770171D01*
X150988407Y-93775075D01*
X150940528Y-93789599D01*
X150896402Y-93813185D01*
X150857726Y-93844926D01*
X150825985Y-93883602D01*
X150802399Y-93927728D01*
X150787875Y-93975607D01*
X150782971Y-94025400D01*
X147196826Y-94025400D01*
X147231260Y-87381400D01*
X150782971Y-87381400D01*
X150787875Y-87431193D01*
X150802399Y-87479072D01*
X150825985Y-87523198D01*
X150857726Y-87561874D01*
X150896402Y-87593615D01*
X150940528Y-87617201D01*
X150988407Y-87631725D01*
X151038200Y-87636629D01*
X153047700Y-87635400D01*
X153111200Y-87571900D01*
X153111200Y-86258400D01*
X153365200Y-86258400D01*
X153365200Y-87571900D01*
X153428700Y-87635400D01*
X155438200Y-87636629D01*
X155487993Y-87631725D01*
X155535872Y-87617201D01*
X155579998Y-87593615D01*
X155618674Y-87561874D01*
X155650415Y-87523198D01*
X155674001Y-87479072D01*
X155688525Y-87431193D01*
X155693429Y-87381400D01*
X155692200Y-86321900D01*
X155628700Y-86258400D01*
X153365200Y-86258400D01*
X153111200Y-86258400D01*
X150847700Y-86258400D01*
X150784200Y-86321900D01*
X150782971Y-87381400D01*
X147231260Y-87381400D01*
X147244217Y-84881400D01*
X150782971Y-84881400D01*
X150784200Y-85940900D01*
X150847700Y-86004400D01*
X153111200Y-86004400D01*
X153111200Y-84690900D01*
X153365200Y-84690900D01*
X153365200Y-86004400D01*
X155628700Y-86004400D01*
X155692200Y-85940900D01*
X155693429Y-84881400D01*
X155688525Y-84831607D01*
X155674001Y-84783728D01*
X155650415Y-84739602D01*
X155618674Y-84700926D01*
X155579998Y-84669185D01*
X155535872Y-84645599D01*
X155487993Y-84631075D01*
X155438200Y-84626171D01*
X153428700Y-84627400D01*
X153365200Y-84690900D01*
X153111200Y-84690900D01*
X153047700Y-84627400D01*
X151038200Y-84626171D01*
X150988407Y-84631075D01*
X150940528Y-84645599D01*
X150896402Y-84669185D01*
X150857726Y-84700926D01*
X150825985Y-84739602D01*
X150802399Y-84783728D01*
X150787875Y-84831607D01*
X150782971Y-84881400D01*
X147244217Y-84881400D01*
X147262921Y-81272400D01*
X153727971Y-81272400D01*
X153732875Y-81322193D01*
X153747399Y-81370072D01*
X153770985Y-81414198D01*
X153802726Y-81452874D01*
X153841402Y-81484615D01*
X153885528Y-81508201D01*
X153933407Y-81522725D01*
X153983200Y-81527629D01*
X154317700Y-81526400D01*
X154381200Y-81462900D01*
X154381200Y-80924400D01*
X153792700Y-80924400D01*
X153729200Y-80987900D01*
X153727971Y-81272400D01*
X147262921Y-81272400D01*
X147266577Y-80567164D01*
X147280795Y-80462992D01*
X147318174Y-80373733D01*
X147357810Y-80322400D01*
X153727971Y-80322400D01*
X153729200Y-80606900D01*
X153792700Y-80670400D01*
X154381200Y-80670400D01*
X154381200Y-80131900D01*
X154317700Y-80068400D01*
X153983200Y-80067171D01*
X153933407Y-80072075D01*
X153885528Y-80086599D01*
X153841402Y-80110185D01*
X153802726Y-80141926D01*
X153770985Y-80180602D01*
X153747399Y-80224728D01*
X153732875Y-80272607D01*
X153727971Y-80322400D01*
X147357810Y-80322400D01*
X147377316Y-80297139D01*
X147454219Y-80238393D01*
X147543665Y-80201478D01*
X147647914Y-80187800D01*
X151475532Y-80187800D01*
X151490711Y-80186890D01*
X151609373Y-80172605D01*
X151638863Y-80165400D01*
X151750745Y-80123362D01*
X151777683Y-80109365D01*
X151876392Y-80041976D01*
X151888415Y-80032665D01*
X151931499Y-79994966D01*
X151961380Y-79985902D01*
X152034885Y-79946612D01*
X153301700Y-79945400D01*
X153365200Y-79881900D01*
X153365200Y-78767331D01*
X153367851Y-78766327D01*
X153401632Y-78659456D01*
X153413914Y-78548048D01*
X153404225Y-78436384D01*
X153372938Y-78328757D01*
X153367851Y-78316473D01*
X153365200Y-78315469D01*
X153365200Y-77978000D01*
X153619200Y-77978000D01*
X153619200Y-78315469D01*
G36*
X154643650Y-79544200D02*
G01*
X154649685Y-79548232D01*
X154677698Y-79640580D01*
X154736663Y-79750894D01*
X154749933Y-79767063D01*
X154745400Y-79789850D01*
X154704644Y-79850844D01*
X154643650Y-79891600D01*
X154559191Y-79908400D01*
X152425209Y-79908400D01*
X152340750Y-79891600D01*
X152279756Y-79850844D01*
X152239000Y-79789850D01*
X152234467Y-79767063D01*
X152247737Y-79750894D01*
X152306702Y-79640580D01*
X152334715Y-79548232D01*
X152340750Y-79544200D01*
X152425209Y-79527400D01*
X154559191Y-79527400D01*
X154643650Y-79544200D01*
G37*
X154643650Y-79544200D02*
X154649685Y-79548232D01*
X154677698Y-79640580D01*
X154736663Y-79750894D01*
X154749933Y-79767063D01*
X154745400Y-79789850D01*
X154704644Y-79850844D01*
X154643650Y-79891600D01*
X154559191Y-79908400D01*
X152425209Y-79908400D01*
X152340750Y-79891600D01*
X152279756Y-79850844D01*
X152239000Y-79789850D01*
X152234467Y-79767063D01*
X152247737Y-79750894D01*
X152306702Y-79640580D01*
X152334715Y-79548232D01*
X152340750Y-79544200D01*
X152425209Y-79527400D01*
X154559191Y-79527400D01*
X154643650Y-79544200D01*
G36*
X162511421Y-66102076D02*
G01*
X162601239Y-66139165D01*
X162678384Y-66198255D01*
X162737586Y-66275312D01*
X162774806Y-66365079D01*
X162788600Y-66469750D01*
X162788600Y-71715670D01*
X162770125Y-71836418D01*
X162716392Y-71946114D01*
X161923896Y-73086536D01*
X161834802Y-73178975D01*
X161730305Y-73233973D01*
X161603672Y-73255077D01*
X157419014Y-73277943D01*
X157403411Y-73278991D01*
X157281533Y-73294761D01*
X157251305Y-73302540D01*
X157136955Y-73347561D01*
X157109534Y-73362480D01*
X157009620Y-73434035D01*
X156997492Y-73443905D01*
X156555917Y-73850922D01*
X156476210Y-73908185D01*
X156392291Y-73941658D01*
X156295060Y-73954974D01*
X155816693Y-73961857D01*
X155800252Y-73963165D01*
X155672014Y-73981805D01*
X155640331Y-73990720D01*
X155521190Y-74041688D01*
X155492860Y-74058447D01*
X155390819Y-74138322D01*
X155378520Y-74149309D01*
X155042829Y-74490889D01*
X155023020Y-74496898D01*
X154912706Y-74555863D01*
X154816015Y-74635215D01*
X154736663Y-74731906D01*
X154677698Y-74842220D01*
X154641388Y-74961918D01*
X154629128Y-75086400D01*
X154629128Y-75586400D01*
X154641388Y-75710882D01*
X154677698Y-75830580D01*
X154736663Y-75940894D01*
X154762200Y-75972011D01*
X154762200Y-76098072D01*
X154748431Y-76202657D01*
X154711277Y-76292355D01*
X154652176Y-76369376D01*
X154575155Y-76428477D01*
X154485457Y-76465631D01*
X154380872Y-76479400D01*
X152361625Y-76479400D01*
X152355272Y-76478178D01*
X152355272Y-76356400D01*
X152343012Y-76231918D01*
X152306702Y-76112220D01*
X152247737Y-76001906D01*
X152168385Y-75905215D01*
X152071694Y-75825863D01*
X151961380Y-75766898D01*
X151938452Y-75759943D01*
X151839294Y-75674878D01*
X151808760Y-75655473D01*
X151678892Y-75596978D01*
X151644125Y-75586970D01*
X151503032Y-75567466D01*
X151484936Y-75566272D01*
X147410699Y-75588907D01*
X147284084Y-75569279D01*
X147179142Y-75515642D01*
X147089069Y-75424518D01*
X143535394Y-70449373D01*
X143479091Y-70336793D01*
X143460191Y-70212352D01*
X143469921Y-68529140D01*
X143518789Y-68437713D01*
X143569395Y-68270890D01*
X143582200Y-68140877D01*
X143582200Y-68140869D01*
X143586481Y-68097400D01*
X143582200Y-68053931D01*
X143582200Y-66238024D01*
X143592310Y-66224923D01*
X143669070Y-66166213D01*
X143758376Y-66129258D01*
X143862462Y-66115464D01*
X162406721Y-66088434D01*
X162511421Y-66102076D01*
G37*
X162511421Y-66102076D02*
X162601239Y-66139165D01*
X162678384Y-66198255D01*
X162737586Y-66275312D01*
X162774806Y-66365079D01*
X162788600Y-66469750D01*
X162788600Y-71715670D01*
X162770125Y-71836418D01*
X162716392Y-71946114D01*
X161923896Y-73086536D01*
X161834802Y-73178975D01*
X161730305Y-73233973D01*
X161603672Y-73255077D01*
X157419014Y-73277943D01*
X157403411Y-73278991D01*
X157281533Y-73294761D01*
X157251305Y-73302540D01*
X157136955Y-73347561D01*
X157109534Y-73362480D01*
X157009620Y-73434035D01*
X156997492Y-73443905D01*
X156555917Y-73850922D01*
X156476210Y-73908185D01*
X156392291Y-73941658D01*
X156295060Y-73954974D01*
X155816693Y-73961857D01*
X155800252Y-73963165D01*
X155672014Y-73981805D01*
X155640331Y-73990720D01*
X155521190Y-74041688D01*
X155492860Y-74058447D01*
X155390819Y-74138322D01*
X155378520Y-74149309D01*
X155042829Y-74490889D01*
X155023020Y-74496898D01*
X154912706Y-74555863D01*
X154816015Y-74635215D01*
X154736663Y-74731906D01*
X154677698Y-74842220D01*
X154641388Y-74961918D01*
X154629128Y-75086400D01*
X154629128Y-75586400D01*
X154641388Y-75710882D01*
X154677698Y-75830580D01*
X154736663Y-75940894D01*
X154762200Y-75972011D01*
X154762200Y-76098072D01*
X154748431Y-76202657D01*
X154711277Y-76292355D01*
X154652176Y-76369376D01*
X154575155Y-76428477D01*
X154485457Y-76465631D01*
X154380872Y-76479400D01*
X152361625Y-76479400D01*
X152355272Y-76478178D01*
X152355272Y-76356400D01*
X152343012Y-76231918D01*
X152306702Y-76112220D01*
X152247737Y-76001906D01*
X152168385Y-75905215D01*
X152071694Y-75825863D01*
X151961380Y-75766898D01*
X151938452Y-75759943D01*
X151839294Y-75674878D01*
X151808760Y-75655473D01*
X151678892Y-75596978D01*
X151644125Y-75586970D01*
X151503032Y-75567466D01*
X151484936Y-75566272D01*
X147410699Y-75588907D01*
X147284084Y-75569279D01*
X147179142Y-75515642D01*
X147089069Y-75424518D01*
X143535394Y-70449373D01*
X143479091Y-70336793D01*
X143460191Y-70212352D01*
X143469921Y-68529140D01*
X143518789Y-68437713D01*
X143569395Y-68270890D01*
X143582200Y-68140877D01*
X143582200Y-68140869D01*
X143586481Y-68097400D01*
X143582200Y-68053931D01*
X143582200Y-66238024D01*
X143592310Y-66224923D01*
X143669070Y-66166213D01*
X143758376Y-66129258D01*
X143862462Y-66115464D01*
X162406721Y-66088434D01*
X162511421Y-66102076D01*
G36*
X154529124Y-56329975D02*
G01*
X154620094Y-56367115D01*
X154698162Y-56426784D01*
X154757873Y-56504811D01*
X154795067Y-56595764D01*
X154808186Y-56701705D01*
X154792260Y-58413777D01*
X154771828Y-58536888D01*
X154719341Y-58639001D01*
X154638184Y-58720206D01*
X154536107Y-58772750D01*
X154413003Y-58793255D01*
X151794698Y-58819150D01*
X151773311Y-58793089D01*
X151715296Y-58745478D01*
X151649108Y-58710099D01*
X151577289Y-58688313D01*
X151502600Y-58680957D01*
X150002600Y-58680957D01*
X149927911Y-58688313D01*
X149856092Y-58710099D01*
X149789904Y-58745478D01*
X149731889Y-58793089D01*
X149693447Y-58839931D01*
X149652934Y-58840332D01*
X149546976Y-58827275D01*
X149456006Y-58790135D01*
X149377938Y-58730466D01*
X149318227Y-58652439D01*
X149281033Y-58561486D01*
X149267914Y-58455545D01*
X149283840Y-56743473D01*
X149304272Y-56620362D01*
X149356759Y-56518249D01*
X149437916Y-56437044D01*
X149539993Y-56384500D01*
X149663097Y-56363995D01*
X154423166Y-56316918D01*
X154529124Y-56329975D01*
G37*
X154529124Y-56329975D02*
X154620094Y-56367115D01*
X154698162Y-56426784D01*
X154757873Y-56504811D01*
X154795067Y-56595764D01*
X154808186Y-56701705D01*
X154792260Y-58413777D01*
X154771828Y-58536888D01*
X154719341Y-58639001D01*
X154638184Y-58720206D01*
X154536107Y-58772750D01*
X154413003Y-58793255D01*
X151794698Y-58819150D01*
X151773311Y-58793089D01*
X151715296Y-58745478D01*
X151649108Y-58710099D01*
X151577289Y-58688313D01*
X151502600Y-58680957D01*
X150002600Y-58680957D01*
X149927911Y-58688313D01*
X149856092Y-58710099D01*
X149789904Y-58745478D01*
X149731889Y-58793089D01*
X149693447Y-58839931D01*
X149652934Y-58840332D01*
X149546976Y-58827275D01*
X149456006Y-58790135D01*
X149377938Y-58730466D01*
X149318227Y-58652439D01*
X149281033Y-58561486D01*
X149267914Y-58455545D01*
X149283840Y-56743473D01*
X149304272Y-56620362D01*
X149356759Y-56518249D01*
X149437916Y-56437044D01*
X149539993Y-56384500D01*
X149663097Y-56363995D01*
X154423166Y-56316918D01*
X154529124Y-56329975D01*
G36*
X98704618Y-58462617D02*
G01*
X98795000Y-58499411D01*
X98872696Y-58558446D01*
X98932363Y-58635662D01*
X98969890Y-58725744D01*
X98983800Y-58830847D01*
X98983800Y-65180166D01*
X98970173Y-65284223D01*
X98933392Y-65373532D01*
X98874850Y-65450363D01*
X98798502Y-65509523D01*
X98709492Y-65547031D01*
X98605550Y-65561503D01*
X85563800Y-65667534D01*
X85563800Y-65434243D01*
X85682800Y-65434243D01*
X85757489Y-65426887D01*
X85829308Y-65405101D01*
X85895496Y-65369722D01*
X85953511Y-65322111D01*
X86001122Y-65264096D01*
X86036501Y-65197908D01*
X86058287Y-65126089D01*
X86065643Y-65051400D01*
X86065643Y-63551400D01*
X86058287Y-63476711D01*
X86036501Y-63404892D01*
X86001122Y-63338704D01*
X85953511Y-63280689D01*
X85895496Y-63233078D01*
X85829308Y-63197699D01*
X85757489Y-63175913D01*
X85682800Y-63168557D01*
X83682800Y-63168557D01*
X83616800Y-63175057D01*
X83616800Y-60827743D01*
X83682800Y-60834243D01*
X85682800Y-60834243D01*
X85757489Y-60826887D01*
X85829308Y-60805101D01*
X85895496Y-60769722D01*
X85953511Y-60722111D01*
X86001122Y-60664096D01*
X86036501Y-60597908D01*
X86058287Y-60526089D01*
X86065643Y-60451400D01*
X86065643Y-58951400D01*
X86058287Y-58876711D01*
X86036501Y-58804892D01*
X86001122Y-58738704D01*
X85953511Y-58680689D01*
X85895496Y-58633078D01*
X85829308Y-58597699D01*
X85757489Y-58575913D01*
X85682800Y-58568557D01*
X85563800Y-58568557D01*
X85563800Y-58555543D01*
X98599399Y-58449562D01*
X98704618Y-58462617D01*
G37*
X98704618Y-58462617D02*
X98795000Y-58499411D01*
X98872696Y-58558446D01*
X98932363Y-58635662D01*
X98969890Y-58725744D01*
X98983800Y-58830847D01*
X98983800Y-65180166D01*
X98970173Y-65284223D01*
X98933392Y-65373532D01*
X98874850Y-65450363D01*
X98798502Y-65509523D01*
X98709492Y-65547031D01*
X98605550Y-65561503D01*
X85563800Y-65667534D01*
X85563800Y-65434243D01*
X85682800Y-65434243D01*
X85757489Y-65426887D01*
X85829308Y-65405101D01*
X85895496Y-65369722D01*
X85953511Y-65322111D01*
X86001122Y-65264096D01*
X86036501Y-65197908D01*
X86058287Y-65126089D01*
X86065643Y-65051400D01*
X86065643Y-63551400D01*
X86058287Y-63476711D01*
X86036501Y-63404892D01*
X86001122Y-63338704D01*
X85953511Y-63280689D01*
X85895496Y-63233078D01*
X85829308Y-63197699D01*
X85757489Y-63175913D01*
X85682800Y-63168557D01*
X83682800Y-63168557D01*
X83616800Y-63175057D01*
X83616800Y-60827743D01*
X83682800Y-60834243D01*
X85682800Y-60834243D01*
X85757489Y-60826887D01*
X85829308Y-60805101D01*
X85895496Y-60769722D01*
X85953511Y-60722111D01*
X86001122Y-60664096D01*
X86036501Y-60597908D01*
X86058287Y-60526089D01*
X86065643Y-60451400D01*
X86065643Y-58951400D01*
X86058287Y-58876711D01*
X86036501Y-58804892D01*
X86001122Y-58738704D01*
X85953511Y-58680689D01*
X85895496Y-58633078D01*
X85829308Y-58597699D01*
X85757489Y-58575913D01*
X85682800Y-58568557D01*
X85563800Y-58568557D01*
X85563800Y-58555543D01*
X98599399Y-58449562D01*
X98704618Y-58462617D01*
G36*
X137439618Y-58462617D02*
G01*
X137530000Y-58499411D01*
X137607696Y-58558446D01*
X137667363Y-58635662D01*
X137704890Y-58725744D01*
X137718800Y-58830847D01*
X137718800Y-65180166D01*
X137705173Y-65284223D01*
X137668392Y-65373532D01*
X137609850Y-65450363D01*
X137533502Y-65509523D01*
X137444492Y-65547031D01*
X137340550Y-65561503D01*
X124298800Y-65667534D01*
X124298800Y-65434243D01*
X124417800Y-65434243D01*
X124492489Y-65426887D01*
X124564308Y-65405101D01*
X124630496Y-65369722D01*
X124688511Y-65322111D01*
X124736122Y-65264096D01*
X124771501Y-65197908D01*
X124793287Y-65126089D01*
X124800643Y-65051400D01*
X124800643Y-63551400D01*
X124793287Y-63476711D01*
X124771501Y-63404892D01*
X124736122Y-63338704D01*
X124688511Y-63280689D01*
X124630496Y-63233078D01*
X124564308Y-63197699D01*
X124492489Y-63175913D01*
X124417800Y-63168557D01*
X122417800Y-63168557D01*
X122351800Y-63175057D01*
X122351800Y-60827743D01*
X122417800Y-60834243D01*
X124417800Y-60834243D01*
X124492489Y-60826887D01*
X124564308Y-60805101D01*
X124630496Y-60769722D01*
X124688511Y-60722111D01*
X124736122Y-60664096D01*
X124771501Y-60597908D01*
X124793287Y-60526089D01*
X124800643Y-60451400D01*
X124800643Y-58951400D01*
X124793287Y-58876711D01*
X124771501Y-58804892D01*
X124736122Y-58738704D01*
X124688511Y-58680689D01*
X124630496Y-58633078D01*
X124564308Y-58597699D01*
X124492489Y-58575913D01*
X124417800Y-58568557D01*
X124298800Y-58568557D01*
X124298800Y-58555543D01*
X137334399Y-58449562D01*
X137439618Y-58462617D01*
G37*
X137439618Y-58462617D02*
X137530000Y-58499411D01*
X137607696Y-58558446D01*
X137667363Y-58635662D01*
X137704890Y-58725744D01*
X137718800Y-58830847D01*
X137718800Y-65180166D01*
X137705173Y-65284223D01*
X137668392Y-65373532D01*
X137609850Y-65450363D01*
X137533502Y-65509523D01*
X137444492Y-65547031D01*
X137340550Y-65561503D01*
X124298800Y-65667534D01*
X124298800Y-65434243D01*
X124417800Y-65434243D01*
X124492489Y-65426887D01*
X124564308Y-65405101D01*
X124630496Y-65369722D01*
X124688511Y-65322111D01*
X124736122Y-65264096D01*
X124771501Y-65197908D01*
X124793287Y-65126089D01*
X124800643Y-65051400D01*
X124800643Y-63551400D01*
X124793287Y-63476711D01*
X124771501Y-63404892D01*
X124736122Y-63338704D01*
X124688511Y-63280689D01*
X124630496Y-63233078D01*
X124564308Y-63197699D01*
X124492489Y-63175913D01*
X124417800Y-63168557D01*
X122417800Y-63168557D01*
X122351800Y-63175057D01*
X122351800Y-60827743D01*
X122417800Y-60834243D01*
X124417800Y-60834243D01*
X124492489Y-60826887D01*
X124564308Y-60805101D01*
X124630496Y-60769722D01*
X124688511Y-60722111D01*
X124736122Y-60664096D01*
X124771501Y-60597908D01*
X124793287Y-60526089D01*
X124800643Y-60451400D01*
X124800643Y-58951400D01*
X124793287Y-58876711D01*
X124771501Y-58804892D01*
X124736122Y-58738704D01*
X124688511Y-58680689D01*
X124630496Y-58633078D01*
X124564308Y-58597699D01*
X124492489Y-58575913D01*
X124417800Y-58568557D01*
X124298800Y-58568557D01*
X124298800Y-58555543D01*
X137334399Y-58449562D01*
X137439618Y-58462617D01*
G36*
X118059418Y-58462617D02*
G01*
X118149800Y-58499411D01*
X118227496Y-58558446D01*
X118287163Y-58635662D01*
X118324690Y-58725744D01*
X118338600Y-58830847D01*
X118338600Y-65180166D01*
X118324973Y-65284223D01*
X118288192Y-65373532D01*
X118229650Y-65450363D01*
X118153302Y-65509523D01*
X118064292Y-65547031D01*
X117960350Y-65561503D01*
X103356001Y-65680238D01*
X103250782Y-65667183D01*
X103160400Y-65630389D01*
X103082704Y-65571354D01*
X103023037Y-65494138D01*
X102996395Y-65430185D01*
X103037600Y-65434243D01*
X105037600Y-65434243D01*
X105112289Y-65426887D01*
X105184108Y-65405101D01*
X105250296Y-65369722D01*
X105308311Y-65322111D01*
X105355922Y-65264096D01*
X105391301Y-65197908D01*
X105413087Y-65126089D01*
X105420443Y-65051400D01*
X105420443Y-63551400D01*
X105413087Y-63476711D01*
X105391301Y-63404892D01*
X105355922Y-63338704D01*
X105308311Y-63280689D01*
X105250296Y-63233078D01*
X105184108Y-63197699D01*
X105112289Y-63175913D01*
X105037600Y-63168557D01*
X103037600Y-63168557D01*
X102971600Y-63175057D01*
X102971600Y-60827743D01*
X103037600Y-60834243D01*
X105037600Y-60834243D01*
X105112289Y-60826887D01*
X105184108Y-60805101D01*
X105250296Y-60769722D01*
X105308311Y-60722111D01*
X105355922Y-60664096D01*
X105391301Y-60597908D01*
X105413087Y-60526089D01*
X105420443Y-60451400D01*
X105420443Y-58951400D01*
X105413087Y-58876711D01*
X105391301Y-58804892D01*
X105355922Y-58738704D01*
X105308311Y-58680689D01*
X105250296Y-58633078D01*
X105184108Y-58597699D01*
X105112289Y-58575913D01*
X105037600Y-58568557D01*
X104918600Y-58568557D01*
X104918600Y-58555543D01*
X117954199Y-58449562D01*
X118059418Y-58462617D01*
G37*
X118059418Y-58462617D02*
X118149800Y-58499411D01*
X118227496Y-58558446D01*
X118287163Y-58635662D01*
X118324690Y-58725744D01*
X118338600Y-58830847D01*
X118338600Y-65180166D01*
X118324973Y-65284223D01*
X118288192Y-65373532D01*
X118229650Y-65450363D01*
X118153302Y-65509523D01*
X118064292Y-65547031D01*
X117960350Y-65561503D01*
X103356001Y-65680238D01*
X103250782Y-65667183D01*
X103160400Y-65630389D01*
X103082704Y-65571354D01*
X103023037Y-65494138D01*
X102996395Y-65430185D01*
X103037600Y-65434243D01*
X105037600Y-65434243D01*
X105112289Y-65426887D01*
X105184108Y-65405101D01*
X105250296Y-65369722D01*
X105308311Y-65322111D01*
X105355922Y-65264096D01*
X105391301Y-65197908D01*
X105413087Y-65126089D01*
X105420443Y-65051400D01*
X105420443Y-63551400D01*
X105413087Y-63476711D01*
X105391301Y-63404892D01*
X105355922Y-63338704D01*
X105308311Y-63280689D01*
X105250296Y-63233078D01*
X105184108Y-63197699D01*
X105112289Y-63175913D01*
X105037600Y-63168557D01*
X103037600Y-63168557D01*
X102971600Y-63175057D01*
X102971600Y-60827743D01*
X103037600Y-60834243D01*
X105037600Y-60834243D01*
X105112289Y-60826887D01*
X105184108Y-60805101D01*
X105250296Y-60769722D01*
X105308311Y-60722111D01*
X105355922Y-60664096D01*
X105391301Y-60597908D01*
X105413087Y-60526089D01*
X105420443Y-60451400D01*
X105420443Y-58951400D01*
X105413087Y-58876711D01*
X105391301Y-58804892D01*
X105355922Y-58738704D01*
X105308311Y-58680689D01*
X105250296Y-58633078D01*
X105184108Y-58597699D01*
X105112289Y-58575913D01*
X105037600Y-58568557D01*
X104918600Y-58568557D01*
X104918600Y-58555543D01*
X117954199Y-58449562D01*
X118059418Y-58462617D01*
G36*
X165735000Y-51722279D02*
G01*
X165366638Y-52090641D01*
X165361508Y-52087899D01*
X165289689Y-52066113D01*
X165215000Y-52058757D01*
X163715000Y-52058757D01*
X163640311Y-52066113D01*
X163568492Y-52087899D01*
X163502304Y-52123278D01*
X163444289Y-52170889D01*
X163396678Y-52228904D01*
X163361299Y-52295092D01*
X163339513Y-52366911D01*
X163332157Y-52441600D01*
X163332157Y-54441600D01*
X163339513Y-54516289D01*
X163360235Y-54584600D01*
X160969765Y-54584600D01*
X160990487Y-54516289D01*
X160997843Y-54441600D01*
X160997843Y-52441600D01*
X160990487Y-52366911D01*
X160968701Y-52295092D01*
X160933322Y-52228904D01*
X160885711Y-52170889D01*
X160827696Y-52123278D01*
X160761508Y-52087899D01*
X160689689Y-52066113D01*
X160615000Y-52058757D01*
X159115000Y-52058757D01*
X159040311Y-52066113D01*
X158968492Y-52087899D01*
X158902304Y-52123278D01*
X158844289Y-52170889D01*
X158796678Y-52228904D01*
X158761299Y-52295092D01*
X158739513Y-52366911D01*
X158732157Y-52441600D01*
X158732157Y-52560600D01*
X158623000Y-52560600D01*
X158623000Y-44856400D01*
X165735000Y-44856400D01*
X165735000Y-51722279D01*
G37*
X165735000Y-51722279D02*
X165366638Y-52090641D01*
X165361508Y-52087899D01*
X165289689Y-52066113D01*
X165215000Y-52058757D01*
X163715000Y-52058757D01*
X163640311Y-52066113D01*
X163568492Y-52087899D01*
X163502304Y-52123278D01*
X163444289Y-52170889D01*
X163396678Y-52228904D01*
X163361299Y-52295092D01*
X163339513Y-52366911D01*
X163332157Y-52441600D01*
X163332157Y-54441600D01*
X163339513Y-54516289D01*
X163360235Y-54584600D01*
X160969765Y-54584600D01*
X160990487Y-54516289D01*
X160997843Y-54441600D01*
X160997843Y-52441600D01*
X160990487Y-52366911D01*
X160968701Y-52295092D01*
X160933322Y-52228904D01*
X160885711Y-52170889D01*
X160827696Y-52123278D01*
X160761508Y-52087899D01*
X160689689Y-52066113D01*
X160615000Y-52058757D01*
X159115000Y-52058757D01*
X159040311Y-52066113D01*
X158968492Y-52087899D01*
X158902304Y-52123278D01*
X158844289Y-52170889D01*
X158796678Y-52228904D01*
X158761299Y-52295092D01*
X158739513Y-52366911D01*
X158732157Y-52441600D01*
X158732157Y-52560600D01*
X158623000Y-52560600D01*
X158623000Y-44856400D01*
X165735000Y-44856400D01*
X165735000Y-51722279D01*
G36*
X145364433Y-55160648D02*
G01*
X145454759Y-55196856D01*
X145532600Y-55255257D01*
X145592625Y-55331847D01*
X145630726Y-55421389D01*
X145645469Y-55526082D01*
X145669697Y-58313123D01*
X145656712Y-58418303D01*
X145620000Y-58508676D01*
X145561057Y-58586387D01*
X145483928Y-58646104D01*
X145400516Y-58680957D01*
X144102600Y-58680957D01*
X144054527Y-58685692D01*
X144052692Y-58685452D01*
X143962832Y-58648295D01*
X143879008Y-58584002D01*
X143339850Y-58044844D01*
X143327360Y-58033891D01*
X143223806Y-57954431D01*
X143195094Y-57937854D01*
X143074504Y-57887904D01*
X143042480Y-57879323D01*
X142913070Y-57862286D01*
X142896493Y-57861200D01*
X140608665Y-57861200D01*
X140485071Y-57841819D01*
X140382288Y-57790045D01*
X140300286Y-57709295D01*
X140246938Y-57607323D01*
X140225659Y-57484044D01*
X140211471Y-56561838D01*
X140224858Y-56452304D01*
X140263993Y-56358595D01*
X140332483Y-56272075D01*
X141344027Y-55302541D01*
X141425119Y-55242304D01*
X141511179Y-55207102D01*
X141611236Y-55193238D01*
X145259454Y-55148113D01*
X145364433Y-55160648D01*
G37*
X145364433Y-55160648D02*
X145454759Y-55196856D01*
X145532600Y-55255257D01*
X145592625Y-55331847D01*
X145630726Y-55421389D01*
X145645469Y-55526082D01*
X145669697Y-58313123D01*
X145656712Y-58418303D01*
X145620000Y-58508676D01*
X145561057Y-58586387D01*
X145483928Y-58646104D01*
X145400516Y-58680957D01*
X144102600Y-58680957D01*
X144054527Y-58685692D01*
X144052692Y-58685452D01*
X143962832Y-58648295D01*
X143879008Y-58584002D01*
X143339850Y-58044844D01*
X143327360Y-58033891D01*
X143223806Y-57954431D01*
X143195094Y-57937854D01*
X143074504Y-57887904D01*
X143042480Y-57879323D01*
X142913070Y-57862286D01*
X142896493Y-57861200D01*
X140608665Y-57861200D01*
X140485071Y-57841819D01*
X140382288Y-57790045D01*
X140300286Y-57709295D01*
X140246938Y-57607323D01*
X140225659Y-57484044D01*
X140211471Y-56561838D01*
X140224858Y-56452304D01*
X140263993Y-56358595D01*
X140332483Y-56272075D01*
X141344027Y-55302541D01*
X141425119Y-55242304D01*
X141511179Y-55207102D01*
X141611236Y-55193238D01*
X145259454Y-55148113D01*
X145364433Y-55160648D01*
G36*
X144027911Y-59239287D02*
G01*
X144102600Y-59246643D01*
X145311473Y-59246643D01*
X145345814Y-59260297D01*
X145423635Y-59318247D01*
X145483818Y-59394356D01*
X145522267Y-59483441D01*
X145537582Y-59587741D01*
X145548976Y-60348416D01*
X145536658Y-60453654D01*
X145500530Y-60544237D01*
X145442095Y-60622314D01*
X145431080Y-60630957D01*
X144102600Y-60630957D01*
X144027911Y-60638313D01*
X143956092Y-60660099D01*
X143913622Y-60682800D01*
X141886904Y-60682800D01*
X141859599Y-60680111D01*
X141832294Y-60682800D01*
X141832288Y-60682800D01*
X141761640Y-60689758D01*
X141750604Y-60690845D01*
X141735332Y-60695478D01*
X141645799Y-60722638D01*
X141564216Y-60766244D01*
X140586038Y-60776762D01*
X140481566Y-60764182D01*
X140391650Y-60728163D01*
X140314090Y-60670152D01*
X140254136Y-60594077D01*
X140215862Y-60505104D01*
X140200648Y-60400976D01*
X140189957Y-59663267D01*
X140202216Y-59558468D01*
X140238086Y-59468222D01*
X140296099Y-59390337D01*
X140372297Y-59330127D01*
X140461484Y-59291699D01*
X140565890Y-59276457D01*
X143992068Y-59228414D01*
X144027911Y-59239287D01*
G37*
X144027911Y-59239287D02*
X144102600Y-59246643D01*
X145311473Y-59246643D01*
X145345814Y-59260297D01*
X145423635Y-59318247D01*
X145483818Y-59394356D01*
X145522267Y-59483441D01*
X145537582Y-59587741D01*
X145548976Y-60348416D01*
X145536658Y-60453654D01*
X145500530Y-60544237D01*
X145442095Y-60622314D01*
X145431080Y-60630957D01*
X144102600Y-60630957D01*
X144027911Y-60638313D01*
X143956092Y-60660099D01*
X143913622Y-60682800D01*
X141886904Y-60682800D01*
X141859599Y-60680111D01*
X141832294Y-60682800D01*
X141832288Y-60682800D01*
X141761640Y-60689758D01*
X141750604Y-60690845D01*
X141735332Y-60695478D01*
X141645799Y-60722638D01*
X141564216Y-60766244D01*
X140586038Y-60776762D01*
X140481566Y-60764182D01*
X140391650Y-60728163D01*
X140314090Y-60670152D01*
X140254136Y-60594077D01*
X140215862Y-60505104D01*
X140200648Y-60400976D01*
X140189957Y-59663267D01*
X140202216Y-59558468D01*
X140238086Y-59468222D01*
X140296099Y-59390337D01*
X140372297Y-59330127D01*
X140461484Y-59291699D01*
X140565890Y-59276457D01*
X143992068Y-59228414D01*
X144027911Y-59239287D01*
M02*
