M48
; DRILL file {KiCad 5.1.6-c6e7f7d~87~ubuntu20.04.1} date Sun Aug  9 19:44:08 2020
; FORMAT={-:-/ absolute / inch / decimal}
; #@! TF.CreationDate,2020-08-09T19:44:08+01:00
; #@! TF.GenerationSoftware,Kicad,Pcbnew,5.1.6-c6e7f7d~87~ubuntu20.04.1
; #@! TF.FileFunction,Plated,1,2,PTH
FMAT,2
INCH
T1C0.0118
T2C0.0130
T3C0.0157
T4C0.0250
T5C0.0394
T6C0.0433
T7C0.0512
%
G90
G05
T1
X3.2333Y-3.1586
X3.2333Y-3.196
X3.2333Y-3.2334
X3.2707Y-3.1586
X3.2707Y-3.196
X3.2707Y-3.2334
T2
X6.0174Y-2.9898
X6.0174Y-3.041
X6.0174Y-3.0922
X6.0686Y-2.9898
X6.0686Y-3.041
X6.0686Y-3.0922
T3
X3.135Y-4.229
X3.137Y-2.996
X3.357Y-3.061
X3.357Y-3.321
X3.644Y-3.336
X3.689Y-2.357
X3.689Y-2.409
X3.689Y-2.463
X3.689Y-2.517
X3.759Y-3.367
X3.763Y-3.28
X3.857Y-3.131
X3.862Y-2.64
X3.883Y-3.36
X3.887Y-3.086
X3.887Y-3.171
X3.93Y-2.728
X3.967Y-3.723
X3.977Y-3.341
X4.027Y-3.216
X4.069Y-2.895
X4.117Y-3.281
X4.132Y-3.236
X4.142Y-3.416
X4.182Y-3.446
X4.185Y-3.501
X4.188Y-3.559
X4.277Y-2.871
X4.307Y-3.011
X4.34Y-3.398
X4.377Y-4.106
X4.463Y-2.353
X4.463Y-2.405
X4.463Y-2.459
X4.463Y-2.513
X4.4737Y-4.1953
X4.49Y-3.591
X4.639Y-3.419
X4.641Y-3.593
X4.641Y-3.922
X4.683Y-2.907
X4.718Y-2.844
X4.755Y-2.781
X4.757Y-3.413
X4.835Y-3.342
X4.884Y-4.107
X4.968Y-4.195
X5.079Y-2.761
X5.109Y-2.907
X5.169Y-2.842
X5.203Y-3.281
X5.239Y-2.375
X5.239Y-2.427
X5.239Y-2.481
X5.239Y-2.535
X5.239Y-2.892
X5.24Y-3.362
X5.284Y-3.128
X5.29Y-3.582
X5.3Y-2.72
X5.31Y-3.33
X5.328Y-4.107
X5.358Y-2.916
X5.396Y-4.195
X5.544Y-2.362
X5.548Y-2.249
X5.572Y-3.542
X5.572Y-3.542
X5.581Y-2.195
X5.59Y-2.362
X5.619Y-2.121
X5.633Y-2.248
X5.635Y-2.362
X5.648Y-3.216
X5.653Y-3.066
X5.666Y-2.195
X5.698Y-3.016
X5.717Y-3.171
X5.952Y-2.121
X5.974Y-3.488
X5.974Y-3.572
X5.976Y-3.65
X6.019Y-2.247
X6.019Y-2.292
X6.069Y-2.247
X6.069Y-2.292
X6.092Y-3.488
X6.092Y-3.572
X6.092Y-3.65
X6.126Y-2.454
X6.126Y-2.498
X6.24Y-2.198
X6.296Y-3.492
X6.296Y-3.568
X6.296Y-3.637
X6.356Y-3.568
X6.356Y-3.637
X6.358Y-3.492
T4
X2.831Y-4.239
X2.831Y-4.289
X2.831Y-4.339
X2.831Y-4.389
X2.831Y-4.439
X2.881Y-4.239
X2.881Y-4.289
X2.881Y-4.339
X2.881Y-4.389
X2.881Y-4.439
T5
X2.849Y-3.608
X2.849Y-3.708
X2.849Y-3.808
X3.472Y-2.046
X3.572Y-2.046
X3.672Y-2.046
T6
X2.867Y-3.021
X2.867Y-3.121
X2.867Y-3.221
X2.867Y-2.441
X2.867Y-2.541
X2.867Y-2.641
X5.158Y-4.5566
X5.258Y-4.5566
X4.718Y-4.5566
X4.818Y-4.5566
X6.791Y-1.927
X6.791Y-2.027
X4.23Y-4.5566
X4.33Y-4.5566
T7
X2.947Y-1.901
X2.947Y-2.101
X6.698Y-2.712
X6.698Y-2.912
X6.698Y-3.112
T0
M30
