M48
; DRILL file {KiCad 5.1.5-52549c5~86~ubuntu18.04.1} date Sat 18 Apr 2020 16:00:10 BST
; FORMAT={-:-/ absolute / metric / decimal}
; #@! TF.CreationDate,2020-04-18T16:00:10+01:00
; #@! TF.GenerationSoftware,Kicad,Pcbnew,5.1.5-52549c5~86~ubuntu18.04.1
; #@! TF.FileFunction,Plated,1,2,PTH
FMAT,2
METRIC
T1C0.300
T2C0.330
T3C0.400
T4C0.635
T5C1.000
T6C1.100
T7C1.300
%
G90
G05
T1
X82.126Y-80.228
X82.126Y-81.178
X82.126Y-82.128
X83.076Y-80.228
X83.076Y-81.178
X83.076Y-82.128
T2
X152.842Y-75.941
X152.842Y-77.241
X152.842Y-78.541
X154.142Y-75.941
X154.142Y-77.241
X154.142Y-78.541
T3
X79.629Y-107.417
X79.68Y-76.098
X85.268Y-77.749
X85.268Y-84.353
X92.558Y-84.734
X93.701Y-59.868
X93.701Y-61.189
X93.701Y-62.56
X93.701Y-63.932
X95.479Y-85.522
X95.58Y-83.312
X97.968Y-79.527
X98.095Y-67.056
X98.628Y-85.344
X98.73Y-78.384
X98.73Y-80.543
X99.822Y-69.291
X100.762Y-94.564
X101.016Y-84.861
X102.286Y-81.686
X103.353Y-73.533
X104.572Y-83.337
X104.953Y-82.194
X105.207Y-86.766
X106.223Y-87.528
X106.299Y-88.925
X106.375Y-90.399
X108.636Y-72.923
X109.398Y-76.479
X110.236Y-86.309
X111.175Y-104.292
X113.36Y-59.766
X113.36Y-61.087
X113.36Y-62.459
X113.36Y-63.83
X113.632Y-106.56
X114.046Y-91.211
X117.831Y-86.843
X117.881Y-91.262
X117.881Y-99.619
X118.948Y-73.838
X119.837Y-72.238
X120.777Y-70.637
X120.828Y-86.69
X122.809Y-84.887
X124.054Y-104.318
X126.187Y-106.553
X129.007Y-70.129
X129.769Y-73.838
X131.293Y-72.187
X132.156Y-83.337
X133.071Y-60.325
X133.071Y-61.646
X133.071Y-63.017
X133.071Y-64.389
X133.071Y-73.457
X133.096Y-85.395
X134.214Y-79.451
X134.366Y-90.983
X134.62Y-69.088
X134.874Y-84.582
X135.331Y-104.318
X136.093Y-74.066
X137.058Y-106.553
X140.818Y-59.995
X140.919Y-57.125
X141.529Y-89.967
X141.529Y-89.967
X141.757Y-55.753
X141.986Y-59.995
X142.723Y-53.873
X143.078Y-57.099
X143.129Y-59.995
X143.459Y-81.686
X143.586Y-77.876
X143.916Y-55.753
X144.729Y-76.606
X145.212Y-80.543
X151.181Y-53.873
X151.74Y-88.595
X151.74Y-90.729
X151.79Y-92.71
X152.883Y-57.074
X152.883Y-58.217
X154.153Y-57.074
X154.153Y-58.217
X154.737Y-88.595
X154.737Y-90.729
X154.737Y-92.71
X155.6Y-62.332
X155.6Y-63.449
X158.496Y-55.829
X159.918Y-88.697
X159.918Y-90.627
X159.918Y-92.38
X161.442Y-90.627
X161.442Y-92.38
X161.493Y-88.697
T4
X71.907Y-107.671
X71.907Y-108.941
X71.907Y-110.211
X71.907Y-111.481
X71.907Y-112.751
X73.177Y-107.671
X73.177Y-108.941
X73.177Y-110.211
X73.177Y-111.481
X73.177Y-112.751
T5
X88.189Y-51.968
X90.729Y-51.968
X93.269Y-51.968
X72.365Y-91.643
X72.365Y-94.183
X72.365Y-96.723
T6
X72.822Y-62.001
X72.822Y-64.541
X72.822Y-67.081
X107.442Y-115.738
X109.982Y-115.738
X131.013Y-115.738
X133.553Y-115.738
X119.837Y-115.738
X122.377Y-115.738
X72.822Y-76.733
X72.822Y-79.273
X72.822Y-81.813
X172.491Y-48.946
X172.491Y-51.486
T7
X74.854Y-48.285
X74.854Y-53.365
X170.129Y-68.885
X170.129Y-73.965
X170.129Y-79.045
T0
M30
